%TF.GenerationSoftware,KiCad,Pcbnew,(6.0.7-1)-1*%
%TF.CreationDate,2022-09-29T17:17:32-06:00*%
%TF.ProjectId,starman,73746172-6d61-46e2-9e6b-696361645f70,rev?*%
%TF.SameCoordinates,Original*%
%TF.FileFunction,Profile,NP*%
%FSLAX46Y46*%
G04 Gerber Fmt 4.6, Leading zero omitted, Abs format (unit mm)*
G04 Created by KiCad (PCBNEW (6.0.7-1)-1) date 2022-09-29 17:17:32*
%MOMM*%
%LPD*%
G01*
G04 APERTURE LIST*
%TA.AperFunction,Profile*%
%ADD10C,0.100000*%
%TD*%
G04 APERTURE END LIST*
D10*
X191750000Y-87500000D02*
G75*
G03*
X191750000Y-87500000I-750000J0D01*
G01*
X182000000Y-113000000D02*
X182000000Y-100000000D01*
X182000000Y-150000000D02*
G75*
G03*
X180000000Y-150000000I-1000000J0D01*
G01*
X100000000Y-30000000D02*
X120000000Y-30000000D01*
X170000000Y-120000000D02*
X170000000Y-140000000D01*
X60000000Y-170000000D02*
X60000000Y-180000000D01*
X212000000Y-95000000D02*
X202000000Y-95000000D01*
X182000000Y-145000000D02*
X182000000Y-113000000D01*
X120000000Y-30000000D02*
X120000000Y-40000000D01*
X160000000Y-110000000D02*
X160000000Y-120000000D01*
X130000000Y-40000000D02*
X130000000Y-60000000D01*
X90000000Y-60000000D02*
X90000000Y-40000000D01*
X180000000Y-150000000D02*
X180000000Y-160000000D01*
X140000000Y-60000000D02*
X140000000Y-70000000D01*
X160000000Y-170000000D02*
X140000000Y-170000000D01*
X40000000Y-100000000D02*
X40000000Y-90000000D01*
X30000000Y-160000000D02*
X40000000Y-160000000D01*
X120000000Y-160000000D02*
X120000000Y-150000000D01*
X212000000Y-113000000D02*
X212000000Y-150000000D01*
X40000000Y-140000000D02*
X50000000Y-140000000D01*
X30000000Y-90000000D02*
X30000000Y-80000000D01*
X182000000Y-95000000D02*
X192000000Y-95000000D01*
X120000000Y-150000000D02*
X100000000Y-150000000D01*
X50000000Y-120000000D02*
X60000000Y-120000000D01*
X100000000Y-40000000D02*
X100000000Y-30000000D01*
X190000000Y-90000000D02*
X180000000Y-90000000D01*
X182000000Y-100000000D02*
G75*
G03*
X180000000Y-100000000I-1000000J0D01*
G01*
X160000000Y-120000000D02*
X170000000Y-120000000D01*
X50000000Y-130000000D02*
X50000000Y-120000000D01*
X30000000Y-80000000D02*
X30000000Y-70000000D01*
X80000000Y-160000000D02*
X80000000Y-170000000D01*
X130000000Y-60000000D02*
X140000000Y-60000000D01*
X181750000Y-97500000D02*
G75*
G03*
X181750000Y-97500000I-750000J0D01*
G01*
X170000000Y-100000000D02*
X170000000Y-110000000D01*
X50000000Y-140000000D02*
X50000000Y-130000000D01*
X50000000Y-110000000D02*
X50000000Y-100000000D01*
X30000000Y-70000000D02*
X80000000Y-70000000D01*
X180000000Y-145000000D02*
G75*
G03*
X182000000Y-145000000I1000000J0D01*
G01*
X170000000Y-110000000D02*
X160000000Y-110000000D01*
X180000000Y-100000000D02*
X170000000Y-100000000D01*
X80000000Y-70000000D02*
X80000000Y-60000000D01*
X100000000Y-160000000D02*
X80000000Y-160000000D01*
X192000000Y-90000000D02*
G75*
G03*
X190000000Y-90000000I-1000000J0D01*
G01*
X60000000Y-110000000D02*
X50000000Y-110000000D01*
X212000000Y-95000000D02*
X212000000Y-113000000D01*
X181750000Y-147500000D02*
G75*
G03*
X181750000Y-147500000I-750000J0D01*
G01*
X190000000Y-85000000D02*
G75*
G03*
X192000000Y-85000000I1000000J0D01*
G01*
X120000000Y-40000000D02*
X130000000Y-40000000D01*
X60000000Y-120000000D02*
X60000000Y-110000000D01*
X180000000Y-95000000D02*
G75*
G03*
X182000000Y-95000000I1000000J0D01*
G01*
X140000000Y-70000000D02*
X190000000Y-70000000D01*
X40000000Y-160000000D02*
X40000000Y-140000000D01*
X190000000Y-180000000D02*
X160000000Y-180000000D01*
X40000000Y-90000000D02*
X30000000Y-90000000D01*
X160000000Y-180000000D02*
X160000000Y-170000000D01*
X180000000Y-90000000D02*
X180000000Y-95000000D01*
X190000000Y-80000000D02*
X190000000Y-85000000D01*
X190000000Y-70000000D02*
X190000000Y-80000000D01*
X202000000Y-95000000D02*
X202000000Y-85000000D01*
X170000000Y-140000000D02*
X180000000Y-140000000D01*
X192000000Y-85000000D02*
X202000000Y-85000000D01*
X192000000Y-95000000D02*
X192000000Y-90000000D01*
X90000000Y-40000000D02*
X100000000Y-40000000D01*
X180000000Y-160000000D02*
X190000000Y-160000000D01*
X30000000Y-180000000D02*
X30000000Y-160000000D01*
X180000000Y-140000000D02*
X180000000Y-145000000D01*
X212000000Y-150000000D02*
X182000000Y-150000000D01*
X80000000Y-60000000D02*
X90000000Y-60000000D01*
X80000000Y-170000000D02*
X60000000Y-170000000D01*
X140000000Y-170000000D02*
X140000000Y-160000000D01*
X100000000Y-150000000D02*
X100000000Y-160000000D01*
X60000000Y-180000000D02*
X30000000Y-180000000D01*
X50000000Y-100000000D02*
X40000000Y-100000000D01*
X190000000Y-160000000D02*
X190000000Y-180000000D01*
X140000000Y-160000000D02*
X120000000Y-160000000D01*
M02*
