%TF.GenerationSoftware,KiCad,Pcbnew,(6.0.7-1)-1*%
%TF.CreationDate,2022-10-07T15:09:27-06:00*%
%TF.ProjectId,starman,73746172-6d61-46e2-9e6b-696361645f70,rev?*%
%TF.SameCoordinates,Original*%
%TF.FileFunction,Copper,L4,Bot*%
%TF.FilePolarity,Positive*%
%FSLAX46Y46*%
G04 Gerber Fmt 4.6, Leading zero omitted, Abs format (unit mm)*
G04 Created by KiCad (PCBNEW (6.0.7-1)-1) date 2022-10-07 15:09:27*
%MOMM*%
%LPD*%
G01*
G04 APERTURE LIST*
%TA.AperFunction,ComponentPad*%
%ADD10C,1.260000*%
%TD*%
%TA.AperFunction,ComponentPad*%
%ADD11R,1.700000X1.700000*%
%TD*%
%TA.AperFunction,ComponentPad*%
%ADD12O,1.700000X1.700000*%
%TD*%
%TA.AperFunction,ComponentPad*%
%ADD13R,4.000000X2.000000*%
%TD*%
%TA.AperFunction,ComponentPad*%
%ADD14O,3.300000X2.000000*%
%TD*%
%TA.AperFunction,ComponentPad*%
%ADD15O,2.000000X3.500000*%
%TD*%
%TA.AperFunction,ViaPad*%
%ADD16C,0.500000*%
%TD*%
%TA.AperFunction,Conductor*%
%ADD17C,0.200000*%
%TD*%
%TA.AperFunction,Conductor*%
%ADD18C,0.300000*%
%TD*%
%TA.AperFunction,Conductor*%
%ADD19C,0.150000*%
%TD*%
%TA.AperFunction,Conductor*%
%ADD20C,0.500000*%
%TD*%
G04 APERTURE END LIST*
D10*
%TO.P,RV1,1,1*%
%TO.N,/Expansion Module/ext_SOUND*%
X208025000Y-101000000D03*
%TO.P,RV1,2,2*%
%TO.N,Net-(C35-Pad2)*%
X205485000Y-103540000D03*
%TO.P,RV1,3,3*%
%TO.N,GNDA*%
X202945000Y-101000000D03*
%TD*%
D11*
%TO.P,J6,1,Pin_1*%
%TO.N,VCC*%
X207000000Y-116025000D03*
D12*
%TO.P,J6,2,Pin_2*%
%TO.N,unconnected-(J6-Pad2)*%
X207000000Y-118565000D03*
%TO.P,J6,3,Pin_3*%
%TO.N,unconnected-(J6-Pad3)*%
X207000000Y-121105000D03*
%TO.P,J6,4,Pin_4*%
%TO.N,/Expansion Module/ext_MUTE*%
X207000000Y-123645000D03*
%TO.P,J6,5,Pin_5*%
%TO.N,/Expansion Module/ext_GPIO1*%
X207000000Y-126185000D03*
%TO.P,J6,6,Pin_6*%
%TO.N,/Expansion Module/ext_GPIO2*%
X207000000Y-128725000D03*
%TO.P,J6,7,Pin_7*%
%TO.N,/Expansion Module/ext_GPIO3*%
X207000000Y-131265000D03*
%TO.P,J6,8,Pin_8*%
%TO.N,/Expansion Module/ext_GPIO4*%
X207000000Y-133805000D03*
%TO.P,J6,9,Pin_9*%
%TO.N,/Expansion Module/ext_GPIO5*%
X207000000Y-136345000D03*
%TO.P,J6,10,Pin_10*%
%TO.N,/Expansion Module/ext_GPIO6*%
X207000000Y-138885000D03*
%TO.P,J6,11,Pin_11*%
%TO.N,/Expansion Module/ext_GPIO7*%
X207000000Y-141425000D03*
%TO.P,J6,12,Pin_12*%
%TO.N,/Expansion Module/ext_GPIO8*%
X207000000Y-143965000D03*
%TD*%
D11*
%TO.P,J12,1,Pin_1*%
%TO.N,Net-(C38-Pad1)*%
X195725000Y-116600000D03*
D12*
%TO.P,J12,2,Pin_2*%
%TO.N,Net-(C37-Pad1)*%
X198265000Y-116600000D03*
%TD*%
D13*
%TO.P,J10,1*%
%TO.N,VCC*%
X197000000Y-135000000D03*
D14*
%TO.P,J10,2*%
%TO.N,GNDA*%
X197000000Y-141000000D03*
D15*
%TO.P,J10,MP,MountPin*%
X192500000Y-142000000D03*
X201500000Y-142000000D03*
%TD*%
D11*
%TO.P,J9,1,Pin_1*%
%TO.N,+5VA*%
X184500000Y-118575000D03*
D12*
%TO.P,J9,2,Pin_2*%
%TO.N,/Expansion Module/ext_GPIO9*%
X184500000Y-121115000D03*
%TO.P,J9,3,Pin_3*%
%TO.N,/Expansion Module/ext_GPIO10*%
X184500000Y-123655000D03*
%TO.P,J9,4,Pin_4*%
%TO.N,/Expansion Module/ext_GPIO11*%
X184500000Y-126195000D03*
%TO.P,J9,5,Pin_5*%
%TO.N,/Expansion Module/ext_GPIO12*%
X184500000Y-128735000D03*
%TO.P,J9,6,Pin_6*%
%TO.N,/Expansion Module/ext_GPIO13*%
X184500000Y-131275000D03*
%TO.P,J9,7,Pin_7*%
%TO.N,/Expansion Module/ext_GPIO14*%
X184500000Y-133815000D03*
%TO.P,J9,8,Pin_8*%
%TO.N,/Expansion Module/ext_GPIO15*%
X184500000Y-136355000D03*
%TO.P,J9,9,Pin_9*%
%TO.N,/Expansion Module/ext_GPIO16*%
X184500000Y-138895000D03*
%TO.P,J9,10,Pin_10*%
%TO.N,GNDA*%
X184500000Y-141435000D03*
%TD*%
D11*
%TO.P,J8,1,Pin_1*%
%TO.N,+3.3VA*%
X187040000Y-116035000D03*
D12*
%TO.P,J8,2,Pin_2*%
%TO.N,GNDA*%
X187040000Y-118575000D03*
%TO.P,J8,3,Pin_3*%
%TO.N,/Expansion Module/ext_GPIO9*%
X187040000Y-121115000D03*
%TO.P,J8,4,Pin_4*%
%TO.N,/Expansion Module/ext_GPIO10*%
X187040000Y-123655000D03*
%TO.P,J8,5,Pin_5*%
%TO.N,/Expansion Module/ext_GPIO11*%
X187040000Y-126195000D03*
%TO.P,J8,6,Pin_6*%
%TO.N,/Expansion Module/ext_GPIO12*%
X187040000Y-128735000D03*
%TO.P,J8,7,Pin_7*%
%TO.N,/Expansion Module/ext_GPIO13*%
X187040000Y-131275000D03*
%TO.P,J8,8,Pin_8*%
%TO.N,/Expansion Module/ext_GPIO14*%
X187040000Y-133815000D03*
%TO.P,J8,9,Pin_9*%
%TO.N,/Expansion Module/ext_GPIO15*%
X187040000Y-136355000D03*
%TO.P,J8,10,Pin_10*%
%TO.N,/Expansion Module/ext_GPIO16*%
X187040000Y-138895000D03*
%TO.P,J8,11,Pin_11*%
%TO.N,+5VA*%
X187040000Y-141435000D03*
%TO.P,J8,12,Pin_12*%
%TO.N,GNDA*%
X187040000Y-143975000D03*
%TD*%
D11*
%TO.P,J7,1,Pin_1*%
%TO.N,+3.3VA*%
X209540000Y-118565000D03*
D12*
%TO.P,J7,2,Pin_2*%
%TO.N,/Expansion Module/ext_GPIO1*%
X209540000Y-121105000D03*
%TO.P,J7,3,Pin_3*%
%TO.N,/Expansion Module/ext_GPIO2*%
X209540000Y-123645000D03*
%TO.P,J7,4,Pin_4*%
%TO.N,/Expansion Module/ext_GPIO3*%
X209540000Y-126185000D03*
%TO.P,J7,5,Pin_5*%
%TO.N,/Expansion Module/ext_GPIO4*%
X209540000Y-128725000D03*
%TO.P,J7,6,Pin_6*%
%TO.N,/Expansion Module/ext_GPIO5*%
X209540000Y-131265000D03*
%TO.P,J7,7,Pin_7*%
%TO.N,/Expansion Module/ext_GPIO6*%
X209540000Y-133805000D03*
%TO.P,J7,8,Pin_8*%
%TO.N,/Expansion Module/ext_GPIO7*%
X209540000Y-136345000D03*
%TO.P,J7,9,Pin_9*%
%TO.N,/Expansion Module/ext_GPIO8*%
X209540000Y-138885000D03*
%TO.P,J7,10,Pin_10*%
%TO.N,GNDA*%
X209540000Y-141425000D03*
%TD*%
D11*
%TO.P,J5,1,Pin_1*%
%TO.N,/Expansion Module/ext_GPIO0*%
X185825000Y-102700000D03*
D12*
%TO.P,J5,2,Pin_2*%
%TO.N,/Expansion Module/ext_RXD*%
X185825000Y-100160000D03*
%TO.P,J5,3,Pin_3*%
%TO.N,GNDA*%
X188365000Y-102700000D03*
%TO.P,J5,4,Pin_4*%
%TO.N,/Expansion Module/ext_TXD*%
X188365000Y-100160000D03*
%TO.P,J5,5,Pin_5*%
%TO.N,unconnected-(J5-Pad5)*%
X190905000Y-102700000D03*
%TO.P,J5,6,Pin_6*%
%TO.N,/Expansion Module/ext_EN*%
X190905000Y-100160000D03*
%TD*%
D11*
%TO.P,J4,1,Pin_1*%
%TO.N,/Expansion Module/ext_RXD*%
X197000000Y-88700000D03*
D12*
%TO.P,J4,2,Pin_2*%
%TO.N,/Expansion Module/ext_TXD*%
X197000000Y-91240000D03*
%TO.P,J4,3,Pin_3*%
%TO.N,/Expansion Module/ext_GPIO0*%
X197000000Y-93780000D03*
%TO.P,J4,4,Pin_4*%
%TO.N,/Expansion Module/ext_EN*%
X197000000Y-96320000D03*
%TO.P,J4,5,Pin_5*%
%TO.N,/Expansion Module/ext_SOUND*%
X197000000Y-98860000D03*
%TO.P,J4,6,Pin_6*%
%TO.N,GNDA*%
X197000000Y-101400000D03*
%TD*%
D11*
%TO.P,J11,1,Pin_1*%
%TO.N,/Expansion Module/ext_GPIO1*%
X207010000Y-147775000D03*
D12*
%TO.P,J11,2,Pin_2*%
%TO.N,GNDA*%
X209550000Y-147775000D03*
%TD*%
D16*
%TO.N,/SCLK*%
X138782049Y-117724500D03*
X61610000Y-92230000D03*
X75530221Y-117679931D03*
X73800000Y-119300000D03*
X109650000Y-137700000D03*
X155100000Y-157700000D03*
X154181575Y-88833331D03*
X161200000Y-92400000D03*
X59174500Y-155800000D03*
X111550000Y-82275980D03*
X159640000Y-156530000D03*
X108600500Y-47839623D03*
X104817530Y-137635359D03*
X100939600Y-95504000D03*
%TO.N,+3V3*%
X81917600Y-79924000D03*
X155850000Y-109900000D03*
X114300000Y-47700000D03*
X89275000Y-73250000D03*
X82457200Y-108950000D03*
X80038000Y-120411600D03*
X82862500Y-115158900D03*
X158225000Y-130950000D03*
X158300000Y-112400000D03*
X60350000Y-104725000D03*
X115600000Y-110025000D03*
X141250000Y-109975000D03*
X64200000Y-150400000D03*
X104670000Y-87620000D03*
X94600000Y-68000000D03*
X74650000Y-139950000D03*
X89600000Y-88200000D03*
X159825000Y-133150000D03*
%TO.N,+5V*%
X111025000Y-122500000D03*
X78500000Y-90100000D03*
X104900000Y-111825000D03*
X153225000Y-123000000D03*
X113050000Y-85425000D03*
X52200000Y-90000000D03*
X116850000Y-101325000D03*
X84750000Y-101850000D03*
X54400000Y-81275000D03*
X103000000Y-123500000D03*
X150675000Y-125525000D03*
X165400000Y-92200000D03*
X114300000Y-121275000D03*
X100500000Y-124500000D03*
X111550000Y-100550000D03*
X87500000Y-109500000D03*
X117900000Y-80425000D03*
X127500000Y-123500000D03*
X82000000Y-88025000D03*
X108750000Y-99400000D03*
X55000000Y-92000000D03*
X119000000Y-76850000D03*
X111025000Y-91075000D03*
X116350000Y-93575000D03*
X100400000Y-114100000D03*
X108700000Y-92725000D03*
X89300000Y-102300000D03*
X107500000Y-107000000D03*
X167100000Y-91150000D03*
X57025000Y-78800000D03*
X120800000Y-105200000D03*
X133300000Y-123500000D03*
X83575000Y-83250000D03*
X114600000Y-82175000D03*
X146000000Y-128200000D03*
X150220000Y-93360000D03*
X153670000Y-93390000D03*
X126100000Y-120500000D03*
X105300000Y-101825000D03*
%TO.N,/GPIO1*%
X118100000Y-113450000D03*
X90950000Y-90250000D03*
X121650000Y-124450000D03*
%TO.N,/GPIO2*%
X118350000Y-127250000D03*
X91450000Y-91900000D03*
%TO.N,/GPIO3*%
X118950000Y-131100000D03*
X91250000Y-93000000D03*
%TO.N,/GPIO4*%
X117600000Y-132300000D03*
X91450000Y-94000000D03*
%TO.N,/MISO*%
X155100000Y-92349500D03*
X102425000Y-101200000D03*
%TO.N,/MOSI*%
X110875000Y-83450000D03*
X100152200Y-94767400D03*
%TO.N,/RXD*%
X105500000Y-91000000D03*
X111200000Y-90000000D03*
%TO.N,/GPIO5*%
X117674500Y-135050000D03*
X91800000Y-95150000D03*
%TO.N,/GPIO6*%
X117200000Y-136600000D03*
X90900000Y-95100000D03*
%TO.N,/GPIO7*%
X119575000Y-140875000D03*
X113330933Y-131290467D03*
X91125000Y-96050000D03*
%TO.N,/GPIO8*%
X90600000Y-96700000D03*
X117325000Y-142825000D03*
X112750000Y-131000000D03*
%TO.N,/GPIO9*%
X89580622Y-97172607D03*
X101275000Y-119675000D03*
%TO.N,/GPIO10*%
X89802227Y-98573273D03*
X100575000Y-119675000D03*
%TO.N,/GPIO11*%
X89066704Y-98508796D03*
X100249500Y-122450000D03*
%TO.N,/GPIO12*%
X89425500Y-100988987D03*
X100375000Y-128675000D03*
%TO.N,/GPIO13*%
X99175000Y-130700000D03*
X90800000Y-102150000D03*
%TO.N,/GPIO14*%
X96125000Y-102900000D03*
X96750000Y-131800000D03*
%TO.N,/GPIO15*%
X98275000Y-131650000D03*
X96825000Y-102699500D03*
%TO.N,/GPIO16*%
X98775000Y-136650000D03*
X97550000Y-102225000D03*
%TO.N,+3.3VA*%
X189925000Y-113275000D03*
%TO.N,+5VA*%
X188500000Y-120600000D03*
X195800000Y-115000000D03*
%TO.N,/GPIO0*%
X92800000Y-89100000D03*
X111100000Y-94900000D03*
%TO.N,/EN*%
X107800000Y-93850000D03*
X106150000Y-90050000D03*
X118625000Y-87350000D03*
%TO.N,Net-(R6-Pad2)*%
X97900000Y-97500000D03*
X124950000Y-82050000D03*
%TO.N,Net-(R7-Pad2)*%
X127750000Y-82050000D03*
X98531622Y-97800000D03*
%TO.N,GND*%
X79340000Y-87080000D03*
X123200000Y-87400000D03*
X133330000Y-102750000D03*
X94625000Y-106475000D03*
X52600000Y-160000000D03*
X91725000Y-69025000D03*
X111200000Y-43000000D03*
X157500000Y-155600000D03*
X88030000Y-101030000D03*
X161200000Y-152950000D03*
X77890000Y-114810000D03*
X95000000Y-87100000D03*
X117300000Y-106000000D03*
X130750000Y-105375000D03*
X142500000Y-111825000D03*
X77525000Y-141875000D03*
X105600000Y-100200000D03*
X57080000Y-155570000D03*
X62600000Y-80000000D03*
X89000000Y-87360000D03*
X108700000Y-88550000D03*
X158875000Y-97175000D03*
X145860000Y-91010000D03*
X117200000Y-70000000D03*
X145840000Y-88730000D03*
X158700000Y-78700000D03*
X98339890Y-142024500D03*
X111350000Y-121200000D03*
X127740000Y-83920000D03*
X95500000Y-118600000D03*
X112000000Y-131850000D03*
X122180000Y-91730000D03*
X151330000Y-131340000D03*
X107750000Y-135500000D03*
X81600000Y-111600000D03*
X107750000Y-45500000D03*
X167500000Y-160000000D03*
X137500000Y-115550000D03*
X67500000Y-130000000D03*
X107375000Y-70025000D03*
X102800000Y-50000000D03*
X100910000Y-86620000D03*
X61610000Y-93550000D03*
X79340000Y-80190000D03*
X161800000Y-129100000D03*
X162575000Y-94475000D03*
X112112500Y-84512500D03*
X61400000Y-152800000D03*
%TO.N,/LE*%
X139600000Y-118400000D03*
X59120000Y-157550000D03*
X73182321Y-118971706D03*
X110780000Y-68090000D03*
X110850000Y-81650000D03*
X64550000Y-91400000D03*
X159600000Y-91690000D03*
X154070000Y-90340000D03*
X99250000Y-95850000D03*
X108600500Y-48700000D03*
X110824500Y-71774501D03*
X154500000Y-158500000D03*
X159380000Y-157970000D03*
X74546236Y-117649834D03*
X147550000Y-115180000D03*
X109400000Y-138800000D03*
X104020000Y-138420000D03*
%TO.N,Net-(U3-Pad22)*%
X65100000Y-92200000D03*
X109800000Y-49750000D03*
%TO.N,Net-(U5-Pad22)*%
X57800000Y-155425000D03*
X72350000Y-118600000D03*
X80800000Y-116700000D03*
%TO.N,Net-(U6-Pad22)*%
X61230000Y-157130000D03*
X105680000Y-137500000D03*
%TO.N,Net-(U10-Pad2)*%
X144277876Y-117674011D03*
X161124011Y-93750000D03*
%TO.N,Net-(U2-Pad22)*%
X109525000Y-51500000D03*
X108525000Y-82250000D03*
%TO.N,Net-(U4-Pad22)*%
X78430000Y-117790000D03*
X60600000Y-93400000D03*
%TO.N,Net-(U7-Pad22)*%
X158450437Y-156950437D03*
X114175000Y-137700000D03*
%TO.N,Net-(U8-Pad22)*%
X161250000Y-157100000D03*
X140030000Y-117130000D03*
%TO.N,Net-(D70-Pad1)*%
X78635069Y-116100621D03*
X76930000Y-115590000D03*
%TO.N,/PWCLK1*%
X58956000Y-91557200D03*
X88166000Y-70221200D03*
X111551056Y-48776056D03*
X105475000Y-79775000D03*
%TO.N,/PWCLK2*%
X110850000Y-138400000D03*
X81358800Y-118379600D03*
X64350000Y-158350000D03*
X80950000Y-141600000D03*
%TO.N,/PWCLK3*%
X158574800Y-92420800D03*
X164375000Y-157975000D03*
X157700500Y-128600000D03*
X161800250Y-132699750D03*
X144376127Y-118446084D03*
%TO.N,Net-(D61-Pad1)*%
X75000000Y-110525000D03*
X79550000Y-115725000D03*
%TO.N,Net-(D66-Pad1)*%
X143825000Y-111375000D03*
X135750000Y-119925000D03*
%TO.N,Net-(D39-Pad1)*%
X106600000Y-85800000D03*
X109357607Y-82914124D03*
%TO.N,Net-(D115-Pad1)*%
X167100000Y-154950000D03*
X159900000Y-160950000D03*
%TO.N,Net-(D116-Pad1)*%
X168700000Y-155950000D03*
X159050000Y-161600000D03*
%TO.N,/MUTE*%
X96700000Y-101100000D03*
X112100002Y-116700000D03*
%TO.N,/STATUS*%
X103150000Y-96125000D03*
X129300000Y-89300000D03*
%TO.N,Net-(R5-Pad1)*%
X96992824Y-96974500D03*
X122200000Y-82050000D03*
%TO.N,/Expansion Module/ext_EN*%
X189674999Y-109925001D03*
%TO.N,/Expansion Module/ext_MUTE*%
X197850002Y-110300000D03*
%TO.N,Net-(R4-Pad1)*%
X119550000Y-82050000D03*
X97500000Y-96425500D03*
%TD*%
D17*
%TO.N,/SCLK*%
X59594015Y-135025985D02*
X73325389Y-121294611D01*
X146152071Y-116520500D02*
X140105501Y-116520500D01*
X108588951Y-47828074D02*
X107996331Y-47828074D01*
X159040000Y-151211690D02*
X159040000Y-155192131D01*
X138820805Y-117763256D02*
X138782049Y-117724500D01*
X101525387Y-93774613D02*
X110964214Y-84335786D01*
X62110003Y-91044626D02*
X61902893Y-91251736D01*
X159640000Y-156397201D02*
X159640000Y-156530000D01*
X159045845Y-151205845D02*
X159045845Y-136597030D01*
X79234668Y-137600489D02*
X104782660Y-137600489D01*
X61793853Y-92673853D02*
X62092540Y-92972540D01*
X113627938Y-139049511D02*
X134196084Y-139049511D01*
X104782660Y-137600489D02*
X104817530Y-137635359D01*
X75055543Y-118154609D02*
X75530221Y-117679931D01*
X140359716Y-117763256D02*
X138820805Y-117763256D01*
X109650000Y-137700000D02*
X110621573Y-137700000D01*
X60137881Y-155412119D02*
X77040768Y-138509232D01*
X159836405Y-103819321D02*
X147830422Y-115825304D01*
X61610000Y-91958843D02*
X61610000Y-92230000D01*
X62600489Y-94198837D02*
X62600489Y-105747062D01*
X106713077Y-48411923D02*
X65160786Y-89964214D01*
X59174500Y-155800000D02*
X59210000Y-155764500D01*
X112035787Y-138285787D02*
X112213725Y-138463725D01*
X139173418Y-116906582D02*
X139083692Y-116996308D01*
X135610298Y-139635298D02*
X153089214Y-157114214D01*
X159045845Y-151205845D02*
X159040000Y-151211690D01*
X59210000Y-155764500D02*
X59210000Y-135953079D01*
X108986196Y-47839623D02*
X108600500Y-47839623D01*
X159389669Y-156146870D02*
X159640000Y-156397201D01*
X63186275Y-107161275D02*
X74229116Y-118204116D01*
X111550000Y-82921573D02*
X111550000Y-82275980D01*
X160356895Y-93730374D02*
X160356895Y-102562747D01*
X111625000Y-82200980D02*
X111625000Y-50478427D01*
X59174500Y-155800000D02*
X59201452Y-155800000D01*
X63746573Y-90550000D02*
X63430181Y-90550000D01*
X108600500Y-47839623D02*
X108588951Y-47828074D01*
X111550000Y-82275980D02*
X111625000Y-82200980D01*
X111039213Y-49064213D02*
X110400409Y-48425409D01*
X158567710Y-135442710D02*
X141261990Y-118136990D01*
X100939600Y-95504000D02*
X100939600Y-95188827D01*
X154503427Y-157700000D02*
X155100000Y-157700000D01*
X161200000Y-92400000D02*
X160701446Y-92898554D01*
X73800000Y-120148800D02*
X73800000Y-119300000D01*
X62109989Y-91044610D02*
G75*
G02*
X63430181Y-90550001I1323411J-1523190D01*
G01*
X62092568Y-92972512D02*
G75*
G02*
X62600489Y-94198837I-1226368J-1226288D01*
G01*
X59594027Y-135025997D02*
G75*
G03*
X59210000Y-135953079I927073J-927103D01*
G01*
X75055572Y-118154638D02*
G75*
G02*
X74582596Y-118350489I-472872J472938D01*
G01*
X140359716Y-117763256D02*
G75*
G02*
X141261989Y-118136991I-16J-1276044D01*
G01*
X146152071Y-116520475D02*
G75*
G03*
X147830421Y-115825303I-71J2373775D01*
G01*
X159045826Y-136597030D02*
G75*
G03*
X158567709Y-135442711I-1632426J30D01*
G01*
X160356887Y-93730374D02*
G75*
G02*
X160701446Y-92898554I1176413J-26D01*
G01*
X159389689Y-156146853D02*
G75*
G02*
X159040001Y-155192131I1138911J958553D01*
G01*
X110400406Y-48425412D02*
G75*
G03*
X108986196Y-47839623I-1414206J-1414188D01*
G01*
X61610031Y-91958843D02*
G75*
G02*
X61902894Y-91251737I999969J43D01*
G01*
X135610304Y-139635292D02*
G75*
G03*
X134196084Y-139049511I-1414204J-1414208D01*
G01*
X112035801Y-138285773D02*
G75*
G03*
X110621573Y-137700000I-1414201J-1414227D01*
G01*
X101525373Y-93774599D02*
G75*
G03*
X100939600Y-95188827I1414227J-1414201D01*
G01*
X60137903Y-155412141D02*
G75*
G02*
X59201452Y-155800000I-936403J936441D01*
G01*
X73325385Y-121294607D02*
G75*
G03*
X73800000Y-120148800I-1145785J1145807D01*
G01*
X139083677Y-116996293D02*
G75*
G03*
X138782049Y-117724500I728223J-728207D01*
G01*
X111549980Y-82921573D02*
G75*
G02*
X110964213Y-84335785I-1999980J-27D01*
G01*
X106713077Y-48411923D02*
G75*
G02*
X107996331Y-47828074I1424823J-1429477D01*
G01*
X111039227Y-49064199D02*
G75*
G02*
X111625000Y-50478427I-1414227J-1414201D01*
G01*
X112213704Y-138463746D02*
G75*
G03*
X113627938Y-139049511I1414196J1414246D01*
G01*
X159836388Y-103819304D02*
G75*
G03*
X160356895Y-102562747I-1256588J1256604D01*
G01*
X63186254Y-107161296D02*
G75*
G02*
X62600489Y-105747062I1414246J1414196D01*
G01*
X139173410Y-116906574D02*
G75*
G02*
X140105501Y-116520500I932090J-932126D01*
G01*
X153089200Y-157114228D02*
G75*
G03*
X154503427Y-157700000I1414200J1414228D01*
G01*
X63746573Y-90549980D02*
G75*
G03*
X65160785Y-89964213I27J1999980D01*
G01*
X61793852Y-92673854D02*
G75*
G02*
X61610000Y-92230000I443848J443854D01*
G01*
X74582596Y-118350483D02*
G75*
G02*
X74229116Y-118204116I-96J499783D01*
G01*
X79234668Y-137600457D02*
G75*
G03*
X77040768Y-138509232I32J-3102643D01*
G01*
D18*
%TO.N,+5V*%
X153200000Y-123000000D02*
X153225000Y-123000000D01*
D19*
X119000000Y-79325000D02*
X119000000Y-76850000D01*
X116850000Y-94075000D02*
X116850000Y-101325000D01*
X101500000Y-123500000D02*
X103000000Y-123500000D01*
X109375000Y-92725000D02*
X111025000Y-91075000D01*
D18*
X56875000Y-78800000D02*
X57025000Y-78800000D01*
D19*
X82000000Y-88025000D02*
X79925000Y-90100000D01*
X84750000Y-101850000D02*
X87500000Y-104600000D01*
X110400000Y-99400000D02*
X108750000Y-99400000D01*
X117900000Y-80425000D02*
X119000000Y-79325000D01*
X126100000Y-120500000D02*
X126100000Y-122100000D01*
X113050000Y-85425000D02*
X113050000Y-83725000D01*
D18*
X133300000Y-123500000D02*
X141300000Y-123500000D01*
D19*
X82000000Y-84825000D02*
X82000000Y-88025000D01*
X83575000Y-83250000D02*
X82000000Y-84825000D01*
X116925000Y-101325000D02*
X116850000Y-101325000D01*
X116350000Y-80425000D02*
X117900000Y-80425000D01*
X79925000Y-90100000D02*
X78500000Y-90100000D01*
X111550000Y-100550000D02*
X110400000Y-99400000D01*
D18*
X150675000Y-125525000D02*
X153200000Y-123000000D01*
D19*
X120800000Y-105200000D02*
X116925000Y-101325000D01*
D18*
X141300000Y-123500000D02*
X146000000Y-128200000D01*
D19*
X114600000Y-82175000D02*
X116350000Y-80425000D01*
X87500000Y-104600000D02*
X87500000Y-109500000D01*
X113050000Y-83725000D02*
X114600000Y-82175000D01*
X100500000Y-124500000D02*
X101500000Y-123500000D01*
X126100000Y-122100000D02*
X127500000Y-123500000D01*
X55000000Y-92000000D02*
X53000000Y-90000000D01*
X108700000Y-92725000D02*
X109375000Y-92725000D01*
X105300000Y-101800000D02*
X105300000Y-101825000D01*
X107700000Y-99400000D02*
X105300000Y-101800000D01*
X116350000Y-93575000D02*
X116850000Y-94075000D01*
X108750000Y-99400000D02*
X107700000Y-99400000D01*
D18*
X54400000Y-81275000D02*
X56875000Y-78800000D01*
D19*
X53000000Y-90000000D02*
X52200000Y-90000000D01*
%TO.N,/GPIO2*%
X91450000Y-92102721D02*
X101698747Y-102351468D01*
X118350000Y-114423559D02*
X118350000Y-127250000D01*
X106277909Y-102351468D02*
X118350000Y-114423559D01*
X91450000Y-91900000D02*
X91450000Y-92102721D01*
X101698747Y-102351468D02*
X106277909Y-102351468D01*
%TO.N,/GPIO3*%
X117450489Y-113947616D02*
X117450489Y-129600489D01*
X117450489Y-129600489D02*
X118950000Y-131100000D01*
X106153852Y-102650979D02*
X117450489Y-113947616D01*
X101574700Y-102650979D02*
X106153852Y-102650979D01*
X91923721Y-93000000D02*
X101574700Y-102650979D01*
X91250000Y-93000000D02*
X91923721Y-93000000D01*
%TO.N,/GPIO4*%
X93278388Y-95501960D02*
X94002123Y-95501960D01*
X117149022Y-131849022D02*
X117600000Y-132300000D01*
X117149022Y-114122093D02*
X117149022Y-131849022D01*
X94002123Y-95501960D02*
X101450656Y-102950493D01*
X93278370Y-95501942D02*
X93278388Y-95501960D01*
X93278366Y-95501942D02*
X93278370Y-95501942D01*
X105977422Y-102950493D02*
X117149022Y-114122093D01*
X91450000Y-94000000D02*
X91776424Y-94000000D01*
X91776424Y-94000000D02*
X93278366Y-95501942D01*
X101450656Y-102950493D02*
X105977422Y-102950493D01*
D17*
%TO.N,/MISO*%
X103054233Y-101194084D02*
X103266812Y-101166099D01*
X102425000Y-101200000D02*
X102883700Y-101200000D01*
X115046233Y-92349500D02*
X155100000Y-92349500D01*
X103737805Y-100918516D02*
X110369764Y-94286557D01*
X102891486Y-101199939D02*
X102996757Y-101198300D01*
X110369753Y-94286546D02*
G75*
G02*
X115046233Y-92349500I4676447J-4676454D01*
G01*
X103330958Y-101153332D02*
G75*
G02*
X103266812Y-101166099I-129458J482932D01*
G01*
X103737804Y-100918515D02*
G75*
G02*
X103330960Y-101153339I-641404J641415D01*
G01*
X102996757Y-101198298D02*
G75*
G03*
X103054233Y-101194083I-7757J499798D01*
G01*
X102891486Y-101199940D02*
G75*
G02*
X102883700Y-101200000I-7686J488840D01*
G01*
%TO.N,/MOSI*%
X110872094Y-83452906D02*
X110875000Y-83450000D01*
X100152200Y-94767400D02*
X100152200Y-94655598D01*
X110815246Y-83452906D02*
X110872094Y-83452906D01*
X100445093Y-93948491D02*
X110582607Y-83810977D01*
X100445094Y-93948492D02*
G75*
G03*
X100152200Y-94655598I707106J-707108D01*
G01*
X110815253Y-83452909D02*
G75*
G02*
X110582607Y-83810977I-998453J394109D01*
G01*
D19*
%TO.N,/RXD*%
X105570000Y-90930000D02*
X105500000Y-91000000D01*
X110245000Y-90930000D02*
X105570000Y-90930000D01*
X111200000Y-90000000D02*
X111175000Y-90000000D01*
X111175000Y-90000000D02*
X110245000Y-90930000D01*
%TO.N,/GPIO5*%
X113550000Y-115493867D02*
X113550000Y-130201428D01*
X117674500Y-134325928D02*
X117674500Y-135050000D01*
X113550000Y-130201428D02*
X117674500Y-134325928D01*
X92451467Y-95801467D02*
X93857602Y-95801469D01*
X93857602Y-95801469D02*
X113550000Y-115493867D01*
X91800000Y-95150000D02*
X92451467Y-95801467D01*
%TO.N,/GPIO6*%
X117200000Y-134275000D02*
X117200000Y-136600000D01*
X93733540Y-96100979D02*
X113250489Y-115617928D01*
X113250489Y-130325489D02*
X117200000Y-134275000D01*
X113250489Y-115617928D02*
X113250489Y-130325489D01*
X90900000Y-95100000D02*
X91900978Y-96100978D01*
X91900978Y-96100978D02*
X93733540Y-96100979D01*
%TO.N,/GPIO7*%
X113330933Y-130830933D02*
X113330933Y-131290467D01*
X112925000Y-115716011D02*
X112925000Y-130425000D01*
X91125000Y-96050000D02*
X91475489Y-96400489D01*
X93609478Y-96400489D02*
X112925000Y-115716011D01*
X112925000Y-130425000D02*
X113330933Y-130830933D01*
X91475489Y-96400489D02*
X93609478Y-96400489D01*
%TO.N,/GPIO8*%
X90600000Y-96700000D02*
X93423558Y-96700000D01*
X112599501Y-130849501D02*
X112750000Y-131000000D01*
X93423558Y-96700000D02*
X112599501Y-115875943D01*
X112599501Y-115875943D02*
X112599501Y-130849501D01*
%TO.N,/GPIO9*%
X99675000Y-107775000D02*
X99675000Y-118075000D01*
X89580622Y-97680622D02*
X99675000Y-107775000D01*
X89580622Y-97172607D02*
X89580622Y-97680622D01*
X99675000Y-118075000D02*
X101275000Y-119675000D01*
%TO.N,/GPIO10*%
X100575000Y-119675000D02*
X99375000Y-118475000D01*
X90049701Y-98573273D02*
X89802227Y-98573273D01*
X99375000Y-118475000D02*
X99375000Y-107898572D01*
X99375000Y-107898572D02*
X90049701Y-98573273D01*
%TO.N,/GPIO11*%
X99075489Y-108028345D02*
X90094918Y-99047774D01*
X100249500Y-122450000D02*
X99075489Y-121275989D01*
X99075489Y-121275989D02*
X99075489Y-108028345D01*
X90094918Y-99047774D02*
X89605682Y-99047774D01*
X89605682Y-99047774D02*
X89066704Y-98508796D01*
%TO.N,/GPIO12*%
X98775978Y-127075978D02*
X98775978Y-108152406D01*
X91612559Y-100988987D02*
X89425500Y-100988987D01*
X100375000Y-128675000D02*
X98775978Y-127075978D01*
X98775978Y-108152406D02*
X91612559Y-100988987D01*
%TO.N,/GPIO13*%
X90800000Y-102150000D02*
X92350000Y-102150000D01*
X98476467Y-130001467D02*
X99125000Y-130650000D01*
X92350000Y-102150000D02*
X98476467Y-108276467D01*
X98476467Y-108276467D02*
X98476467Y-130001467D01*
D20*
%TO.N,VCC*%
X207000000Y-116025000D02*
X204574501Y-118450499D01*
X204574501Y-129625499D02*
X199200000Y-135000000D01*
X204574501Y-118450499D02*
X204574501Y-129625499D01*
X199200000Y-135000000D02*
X197000000Y-135000000D01*
D19*
%TO.N,+3.3VA*%
X189925000Y-113275000D02*
X207125000Y-113275000D01*
X209540000Y-115690000D02*
X209540000Y-118565000D01*
X207125000Y-113275000D02*
X209540000Y-115690000D01*
D20*
%TO.N,GNDA*%
X188600000Y-117015000D02*
X188600000Y-103115000D01*
X187040000Y-118575000D02*
X188600000Y-117015000D01*
D19*
%TO.N,+5VA*%
X185725000Y-119800000D02*
X187700000Y-119800000D01*
X184500000Y-118575000D02*
X185725000Y-119800000D01*
X195800000Y-115000000D02*
X194100000Y-115000000D01*
X194100000Y-115000000D02*
X188500000Y-120600000D01*
X187700000Y-119800000D02*
X188500000Y-120600000D01*
%TO.N,Net-(R6-Pad2)*%
X120923558Y-82700000D02*
X120149002Y-83474556D01*
X124950000Y-82050000D02*
X124300000Y-82700000D01*
X106426442Y-97200000D02*
X98200000Y-97200000D01*
X124300000Y-82700000D02*
X120923558Y-82700000D01*
X120149002Y-83477440D02*
X106426442Y-97200000D01*
X98200000Y-97200000D02*
X97900000Y-97500000D01*
X120149002Y-83474556D02*
X120149002Y-83477440D01*
%TO.N,Net-(R7-Pad2)*%
X98831622Y-97500000D02*
X98531622Y-97800000D01*
X120427829Y-83622171D02*
X106550000Y-97500000D01*
X106550000Y-97500000D02*
X98831622Y-97500000D01*
X126177829Y-83622171D02*
X120427829Y-83622171D01*
X127750000Y-82050000D02*
X126177829Y-83622171D01*
D17*
%TO.N,/LE*%
X158882966Y-156452966D02*
X158637580Y-156207580D01*
X141110786Y-118988528D02*
X158134644Y-136012386D01*
X110850000Y-81650000D02*
X110850000Y-71800001D01*
X109714213Y-139114213D02*
X109400000Y-138800000D01*
X58499511Y-135935331D02*
X58499511Y-156163158D01*
X139600000Y-118400000D02*
X140276661Y-118400000D01*
X159600000Y-91690000D02*
X159600000Y-102589038D01*
X73182321Y-118971706D02*
X73150000Y-119004027D01*
X158380000Y-155585727D02*
X158380000Y-136604728D01*
X108954646Y-48701936D02*
X108602436Y-48701936D01*
X59120000Y-157486416D02*
X77670630Y-138935786D01*
X159059213Y-103560787D02*
X147550000Y-115070000D01*
X59120000Y-157550000D02*
X59120000Y-157486416D01*
X159380000Y-157970000D02*
X159380000Y-157652910D01*
X152939213Y-157914213D02*
X135014431Y-139989431D01*
X73150000Y-119004027D02*
X73150000Y-119732188D01*
X154500000Y-158500000D02*
X154353427Y-158500000D01*
X64550000Y-91400000D02*
X64307107Y-91400000D01*
X110780000Y-68090000D02*
X110824500Y-68045500D01*
X59052056Y-157550000D02*
X59120000Y-157550000D01*
X79084843Y-138350000D02*
X103950000Y-138350000D01*
X110850000Y-71800001D02*
X110824500Y-71774501D01*
X140700584Y-118575592D02*
X141110786Y-118985786D01*
X58859217Y-157357161D02*
X59052056Y-157550000D01*
X110238714Y-49286601D02*
X110237900Y-49285787D01*
X99835786Y-93539214D02*
X110221330Y-83153670D01*
X63835787Y-106939385D02*
X74546236Y-117649834D01*
X159295264Y-103324736D02*
X159059213Y-103560787D01*
X147550000Y-115070000D02*
X147550000Y-115180000D01*
X103950000Y-138350000D02*
X104020000Y-138420000D01*
X72637895Y-120968520D02*
X59085298Y-134521117D01*
X63250000Y-93078427D02*
X63250000Y-105525171D01*
X99250000Y-95850000D02*
X99250000Y-94953427D01*
X110840000Y-81660000D02*
X110850000Y-81650000D01*
X108598535Y-48701965D02*
X108600500Y-48700000D01*
X141110786Y-118985786D02*
X141110786Y-118988528D01*
X64952863Y-91253553D02*
X106920630Y-49285786D01*
X64550000Y-91400000D02*
X64599309Y-91400000D01*
X134315683Y-139700000D02*
X111128427Y-139700000D01*
X108203884Y-48701965D02*
X108598535Y-48701965D01*
X108602436Y-48701936D02*
X108600500Y-48700000D01*
X110824500Y-68045500D02*
X110824500Y-50700814D01*
X63953553Y-91546447D02*
X63835786Y-91664214D01*
X79084843Y-138349977D02*
G75*
G03*
X77670630Y-138935786I157J-2000323D01*
G01*
X140700599Y-118575577D02*
G75*
G03*
X140276661Y-118400000I-423899J-423923D01*
G01*
X158637600Y-156207560D02*
G75*
G02*
X158380000Y-155585727I621800J621860D01*
G01*
X99835793Y-93539221D02*
G75*
G03*
X99250000Y-94953427I1414107J-1414179D01*
G01*
X64599309Y-91400006D02*
G75*
G03*
X64952863Y-91253553I-9J500006D01*
G01*
X135014444Y-139989418D02*
G75*
G03*
X134315683Y-139700000I-698744J-698782D01*
G01*
X158882976Y-156452956D02*
G75*
G02*
X159380000Y-157652910I-1199976J-1199944D01*
G01*
X63250020Y-93078427D02*
G75*
G02*
X63835787Y-91664215I1999980J27D01*
G01*
X63953550Y-91546444D02*
G75*
G02*
X64307107Y-91400000I353550J-353556D01*
G01*
X72637893Y-120968518D02*
G75*
G03*
X73150000Y-119732188I-1236293J1236318D01*
G01*
X108954645Y-48701957D02*
G75*
G02*
X110237900Y-49285787I-141645J-2013543D01*
G01*
X58859200Y-157357172D02*
G75*
G02*
X58499511Y-156163158I1816100J1198272D01*
G01*
X110238721Y-49286594D02*
G75*
G02*
X110824500Y-50700814I-1414221J-1414206D01*
G01*
X109714199Y-139114227D02*
G75*
G03*
X111128427Y-139700000I1414201J1414227D01*
G01*
X158134658Y-136012372D02*
G75*
G02*
X158380000Y-136604728I-592358J-592328D01*
G01*
X63250021Y-105525171D02*
G75*
G03*
X63835787Y-106939385I1999979J-29D01*
G01*
X152939199Y-157914227D02*
G75*
G03*
X154353427Y-158500000I1414201J1414227D01*
G01*
X110221352Y-83153692D02*
G75*
G03*
X110840000Y-81660000I-1493652J1493592D01*
G01*
X108203885Y-48701976D02*
G75*
G03*
X106920630Y-49285786I141615J-2013524D01*
G01*
X159600036Y-102589038D02*
G75*
G02*
X159295263Y-103324735I-1040436J38D01*
G01*
X58499530Y-135935331D02*
G75*
G02*
X59085298Y-134521117I1999970J31D01*
G01*
%TO.N,Net-(U3-Pad22)*%
X106461791Y-50838209D02*
X65100000Y-92200000D01*
X108883831Y-50251955D02*
X107747468Y-50251955D01*
X109800000Y-49750000D02*
X109590938Y-49959062D01*
X108883831Y-50251990D02*
G75*
G03*
X109590938Y-49959062I-31J999990D01*
G01*
X106461807Y-50838225D02*
G75*
G02*
X107747468Y-50251956I1427393J-1427375D01*
G01*
%TO.N,Net-(U5-Pad22)*%
X57775000Y-136025310D02*
X57775000Y-155400000D01*
X72350000Y-118600000D02*
X72350000Y-119648885D01*
X57775000Y-155400000D02*
X57800000Y-155425000D01*
X71942625Y-120632375D02*
X58641425Y-133933575D01*
X71942640Y-120632390D02*
G75*
G03*
X72350000Y-119648885I-983540J983490D01*
G01*
X57775019Y-136025310D02*
G75*
G02*
X58641425Y-133933575I2958181J10D01*
G01*
%TO.N,Net-(U6-Pad22)*%
X105680000Y-137570000D02*
X105680000Y-137500000D01*
X61230000Y-157130000D02*
X61230000Y-157113436D01*
X61600126Y-156219874D02*
X78236314Y-139583686D01*
X79017762Y-139260000D02*
X103476576Y-139260000D01*
X104353045Y-138896955D02*
X105680000Y-137570000D01*
X104353054Y-138896964D02*
G75*
G02*
X103476576Y-139260000I-876454J876464D01*
G01*
X79017762Y-139259963D02*
G75*
G03*
X78236314Y-139583686I38J-1105137D01*
G01*
X61600105Y-156219853D02*
G75*
G03*
X61230000Y-157113436I893595J-893547D01*
G01*
%TO.N,Net-(U10-Pad2)*%
X161124011Y-93750000D02*
X161124011Y-102298332D01*
X160167538Y-104607462D02*
X148463999Y-116311001D01*
X145173402Y-117674011D02*
X144277876Y-117674011D01*
X145173402Y-117674011D02*
G75*
G03*
X148463999Y-116311001I-2J4653611D01*
G01*
X160167524Y-104607448D02*
G75*
G03*
X161124011Y-102298332I-2309124J2309148D01*
G01*
%TO.N,Net-(U2-Pad22)*%
X109713501Y-51729288D02*
X109525000Y-51540787D01*
X109480454Y-81638032D02*
X109480454Y-81620085D01*
X109480454Y-81620085D02*
X109572981Y-81527558D01*
X108868486Y-82250000D02*
X109480454Y-81638032D01*
X108525000Y-82250000D02*
X108868486Y-82250000D01*
X109975000Y-80317783D02*
X109975000Y-52667453D01*
X109525000Y-51540787D02*
X109525000Y-51500000D01*
X109975016Y-80317783D02*
G75*
G02*
X109572980Y-81527557I-2044016J7583D01*
G01*
X109713490Y-51729295D02*
G75*
G02*
X109974999Y-52667453I-1573390J-944105D01*
G01*
%TO.N,Net-(U4-Pad22)*%
X61900000Y-95509373D02*
X61900000Y-105891024D01*
X60600000Y-93400000D02*
X60616152Y-93400000D01*
X62485786Y-107305237D02*
X73444762Y-118264213D01*
X74858976Y-118850000D02*
X76743922Y-118850000D01*
X78064099Y-118355375D02*
X78430000Y-117989474D01*
X78430000Y-117989474D02*
X78430000Y-117790000D01*
X60616152Y-93400000D02*
X61405360Y-94189208D01*
X61899988Y-95509373D02*
G75*
G03*
X61405360Y-94189208I-2017688J-3227D01*
G01*
X78064112Y-118355390D02*
G75*
G02*
X76743922Y-118849999I-1323412J1523190D01*
G01*
X62485798Y-107305225D02*
G75*
G02*
X61900000Y-105891024I1414202J1414225D01*
G01*
X74858976Y-118850016D02*
G75*
G02*
X73444763Y-118264212I24J2000016D01*
G01*
%TO.N,Net-(U7-Pad22)*%
X136320980Y-139320980D02*
X153414214Y-156414214D01*
X115653427Y-138350000D02*
X133976827Y-138350000D01*
X114175000Y-137700000D02*
X114239213Y-137764213D01*
X158400874Y-157000000D02*
X158450437Y-156950437D01*
X154828427Y-157000000D02*
X158400874Y-157000000D01*
X154828427Y-157000022D02*
G75*
G02*
X153414214Y-156414214I73J2000122D01*
G01*
X136320960Y-139321000D02*
G75*
G03*
X133976827Y-138350000I-2344160J-2344100D01*
G01*
X115653427Y-138349980D02*
G75*
G02*
X114239214Y-137764212I-27J1999980D01*
G01*
%TO.N,Net-(U8-Pad22)*%
X158880414Y-134805414D02*
X141710786Y-117635786D01*
X161250000Y-157100000D02*
X160235787Y-156085787D01*
X140427532Y-117051955D02*
X140108045Y-117051955D01*
X140108045Y-117051955D02*
X140030000Y-117130000D01*
X159650000Y-154671573D02*
X159650000Y-136663359D01*
X159650020Y-154671573D02*
G75*
G03*
X160235788Y-156085786I1999980J-27D01*
G01*
X158880387Y-134805441D02*
G75*
G02*
X159650000Y-136663359I-1857887J-1857959D01*
G01*
X140427533Y-117051936D02*
G75*
G02*
X141710786Y-117635786I-141633J-2013464D01*
G01*
D19*
%TO.N,/PWCLK3*%
X161800250Y-132699750D02*
X157700500Y-128600000D01*
%TO.N,Net-(D39-Pad1)*%
X106600000Y-85800000D02*
X109357607Y-83042393D01*
X109357607Y-83042393D02*
X109357607Y-82914124D01*
%TO.N,/MUTE*%
X112300000Y-116000000D02*
X112300000Y-116500002D01*
X112300000Y-116500002D02*
X112100002Y-116700000D01*
X96700000Y-101100000D02*
X97400000Y-101100000D01*
X97400000Y-101100000D02*
X112300000Y-116000000D01*
%TO.N,Net-(R5-Pad1)*%
X122200000Y-82050000D02*
X121150000Y-82050000D01*
X97067324Y-96900000D02*
X96992824Y-96974500D01*
X106302884Y-96900000D02*
X97067324Y-96900000D01*
X119849501Y-83353383D02*
X106302884Y-96900000D01*
X121150000Y-82050000D02*
X119849501Y-83350499D01*
X119849501Y-83350499D02*
X119849501Y-83353383D01*
%TO.N,/Expansion Module/ext_EN*%
X189625000Y-101535000D02*
X189625000Y-109875002D01*
X189625000Y-109875002D02*
X189674999Y-109925001D01*
X191000000Y-100160000D02*
X189625000Y-101535000D01*
%TO.N,/Expansion Module/ext_GPIO1*%
X205450000Y-127735000D02*
X205450000Y-146215000D01*
X207000000Y-126185000D02*
X205450000Y-127735000D01*
X205450000Y-146215000D02*
X207010000Y-147775000D01*
%TO.N,Net-(R4-Pad1)*%
X119550000Y-83229326D02*
X106179326Y-96600000D01*
X119550000Y-82050000D02*
X119550000Y-83229326D01*
X97674500Y-96600000D02*
X97500000Y-96425500D01*
X106179326Y-96600000D02*
X97674500Y-96600000D01*
%TD*%
M02*
