M48
; DRILL file {KiCad (6.0.7-1)-1} date Thursday, September 29, 2022 at 05:17:27 pm
; FORMAT={-:-/ absolute / inch / decimal}
; #@! TF.CreationDate,2022-09-29T17:17:27-06:00
; #@! TF.GenerationSoftware,Kicad,Pcbnew,(6.0.7-1)-1
; #@! TF.FileFunction,NonPlated,1,4,NPTH
FMAT,2
INCH
; #@! TA.AperFunction,NonPlated,NPTH,ComponentDrill
T1C0.0630
; #@! TA.AperFunction,NonPlated,NPTH,ComponentDrill
T2C0.0827
%
G90
G05
T1
X7.7559Y-5.6693
T2
X1.378Y-2.9528
X1.378Y-3.3465
X1.378Y-6.4961
X1.378Y-6.8898
X1.7717Y-2.9528
X1.7717Y-3.3465
X1.7717Y-3.7402
X1.7717Y-5.7087
X1.7717Y-6.1024
X1.7717Y-6.4961
X1.7717Y-6.8898
X2.1654Y-2.9528
X2.1654Y-3.3465
X2.1654Y-3.7402
X2.1654Y-4.1339
X2.1654Y-4.9213
X2.1654Y-5.315
X2.1654Y-5.7087
X2.1654Y-6.1024
X2.1654Y-6.4961
X2.1654Y-6.8898
X2.5591Y-2.9528
X2.5591Y-3.3465
X2.5591Y-3.7402
X2.5591Y-4.1339
X2.5591Y-4.5276
X2.5591Y-4.9213
X2.5591Y-5.315
X2.5591Y-5.7087
X2.5591Y-6.1024
X2.5591Y-6.4961
X2.9528Y-2.9528
X2.9528Y-3.3465
X2.9528Y-3.7402
X2.9528Y-4.1339
X2.9528Y-4.5276
X2.9528Y-4.9213
X2.9528Y-5.315
X2.9528Y-5.7087
X2.9528Y-6.1024
X2.9528Y-6.4961
X3.3465Y-2.5591
X3.3465Y-2.9528
X3.3465Y-3.3465
X3.3465Y-3.7402
X3.3465Y-4.1339
X3.3465Y-4.5276
X3.3465Y-4.9213
X3.3465Y-5.315
X3.3465Y-5.7087
X3.3465Y-6.1024
X3.7402Y-1.7717
X3.7402Y-2.1654
X3.7402Y-2.5591
X3.7402Y-2.9528
X3.7402Y-4.5276
X3.7402Y-4.9213
X3.7402Y-5.315
X3.7402Y-5.7087
X3.7402Y-6.1024
X4.1339Y-1.378
X4.1339Y-1.7717
X4.1339Y-2.1654
X4.1339Y-2.5591
X4.1339Y-2.9528
X4.1339Y-3.3465
X4.1339Y-3.7402
X4.1339Y-4.1339
X4.1339Y-4.5276
X4.1339Y-4.9213
X4.1339Y-5.315
X4.1339Y-5.7087
X4.5276Y-1.378
X4.5276Y-1.7717
X4.5276Y-2.1654
X4.5276Y-2.5591
X4.5276Y-2.9528
X4.5276Y-3.3465
X4.5276Y-3.7402
X4.5276Y-4.1339
X4.5276Y-4.5276
X4.5276Y-4.9213
X4.5276Y-5.315
X4.5276Y-5.7087
X4.9213Y-1.7717
X4.9213Y-2.1654
X4.9213Y-2.5591
X4.9213Y-2.9528
X4.9213Y-4.5276
X4.9213Y-4.9213
X4.9213Y-5.315
X4.9213Y-5.7087
X4.9213Y-6.1024
X5.315Y-2.5591
X5.315Y-2.9528
X5.315Y-3.3465
X5.315Y-3.7402
X5.315Y-4.1339
X5.315Y-4.5276
X5.315Y-4.9213
X5.315Y-5.315
X5.315Y-5.7087
X5.315Y-6.1024
X5.7087Y-2.9528
X5.7087Y-3.3465
X5.7087Y-3.7402
X5.7087Y-4.1339
X5.7087Y-4.5276
X5.7087Y-4.9213
X5.7087Y-5.315
X5.7087Y-5.7087
X5.7087Y-6.1024
X5.7087Y-6.4961
X6.1024Y-2.9528
X6.1024Y-3.3465
X6.1024Y-3.7402
X6.1024Y-4.1339
X6.1024Y-4.5276
X6.1024Y-4.9213
X6.1024Y-5.315
X6.1024Y-5.7087
X6.1024Y-6.1024
X6.1024Y-6.4961
X6.4961Y-2.9528
X6.4961Y-3.3465
X6.4961Y-3.7402
X6.4961Y-4.1339
X6.4961Y-4.9213
X6.4961Y-5.315
X6.4961Y-5.7087
X6.4961Y-6.1024
X6.4961Y-6.4961
X6.4961Y-6.8898
X6.8898Y-2.9528
X6.8898Y-3.3465
X6.8898Y-3.7402
X6.8898Y-5.7087
X6.8898Y-6.1024
X6.8898Y-6.4961
X6.8898Y-6.8898
X7.2835Y-2.9528
X7.2835Y-3.3465
X7.2835Y-6.4961
X7.2835Y-6.8898
T0
M30
