%TF.GenerationSoftware,KiCad,Pcbnew,(6.0.7-1)-1*%
%TF.CreationDate,2022-10-07T15:09:25-06:00*%
%TF.ProjectId,starman,73746172-6d61-46e2-9e6b-696361645f70,rev?*%
%TF.SameCoordinates,Original*%
%TF.FileFunction,Drillmap*%
%TF.FilePolarity,Positive*%
%FSLAX45Y45*%
G04 Gerber Fmt 4.5, Leading zero omitted, Abs format (unit mm)*
G04 Created by KiCad (PCBNEW (6.0.7-1)-1) date 2022-10-07 15:09:25*
%MOMM*%
%LPD*%
G01*
G04 APERTURE LIST*
%ADD10C,0.100000*%
%ADD11C,0.200000*%
%ADD12C,0.160000*%
%ADD13C,0.210000*%
G04 APERTURE END LIST*
D10*
X19175000Y-8750000D02*
G75*
G03*
X19175000Y-8750000I-75000J0D01*
G01*
X18200000Y-11300000D02*
X18200000Y-10000000D01*
X18200000Y-15000000D02*
G75*
G03*
X18000000Y-15000000I-100000J0D01*
G01*
X10000000Y-3000000D02*
X12000000Y-3000000D01*
X17000000Y-12000000D02*
X17000000Y-14000000D01*
X6000000Y-17000000D02*
X6000000Y-18000000D01*
X21200000Y-9500000D02*
X20200000Y-9500000D01*
X18200000Y-14500000D02*
X18200000Y-11300000D01*
X12000000Y-3000000D02*
X12000000Y-4000000D01*
X16000000Y-11000000D02*
X16000000Y-12000000D01*
X13000000Y-4000000D02*
X13000000Y-6000000D01*
X9000000Y-6000000D02*
X9000000Y-4000000D01*
X18000000Y-15000000D02*
X18000000Y-16000000D01*
X14000000Y-6000000D02*
X14000000Y-7000000D01*
X16000000Y-17000000D02*
X14000000Y-17000000D01*
X4000000Y-10000000D02*
X4000000Y-9000000D01*
X3000000Y-16000000D02*
X4000000Y-16000000D01*
X12000000Y-16000000D02*
X12000000Y-15000000D01*
X21200000Y-11300000D02*
X21200000Y-15000000D01*
X4000000Y-14000000D02*
X5000000Y-14000000D01*
X3000000Y-9000000D02*
X3000000Y-8000000D01*
X18200000Y-9500000D02*
X19200000Y-9500000D01*
X12000000Y-15000000D02*
X10000000Y-15000000D01*
X5000000Y-12000000D02*
X6000000Y-12000000D01*
X10000000Y-4000000D02*
X10000000Y-3000000D01*
X19000000Y-9000000D02*
X18000000Y-9000000D01*
X18200000Y-10000000D02*
G75*
G03*
X18000000Y-10000000I-100000J0D01*
G01*
X16000000Y-12000000D02*
X17000000Y-12000000D01*
X5000000Y-13000000D02*
X5000000Y-12000000D01*
X3000000Y-8000000D02*
X3000000Y-7000000D01*
X8000000Y-16000000D02*
X8000000Y-17000000D01*
X13000000Y-6000000D02*
X14000000Y-6000000D01*
X18175000Y-9750000D02*
G75*
G03*
X18175000Y-9750000I-75000J0D01*
G01*
X17000000Y-10000000D02*
X17000000Y-11000000D01*
X5000000Y-14000000D02*
X5000000Y-13000000D01*
X5000000Y-11000000D02*
X5000000Y-10000000D01*
X3000000Y-7000000D02*
X8000000Y-7000000D01*
X18000000Y-14500000D02*
G75*
G03*
X18200000Y-14500000I100000J0D01*
G01*
X17000000Y-11000000D02*
X16000000Y-11000000D01*
X18000000Y-10000000D02*
X17000000Y-10000000D01*
X8000000Y-7000000D02*
X8000000Y-6000000D01*
X10000000Y-16000000D02*
X8000000Y-16000000D01*
X19200000Y-9000000D02*
G75*
G03*
X19000000Y-9000000I-100000J0D01*
G01*
X6000000Y-11000000D02*
X5000000Y-11000000D01*
X21200000Y-9500000D02*
X21200000Y-11300000D01*
X18175000Y-14750000D02*
G75*
G03*
X18175000Y-14750000I-75000J0D01*
G01*
X19000000Y-8500000D02*
G75*
G03*
X19200000Y-8500000I100000J0D01*
G01*
X12000000Y-4000000D02*
X13000000Y-4000000D01*
X6000000Y-12000000D02*
X6000000Y-11000000D01*
X18000000Y-9500000D02*
G75*
G03*
X18200000Y-9500000I100000J0D01*
G01*
X14000000Y-7000000D02*
X19000000Y-7000000D01*
X4000000Y-16000000D02*
X4000000Y-14000000D01*
X19000000Y-18000000D02*
X16000000Y-18000000D01*
X4000000Y-9000000D02*
X3000000Y-9000000D01*
X16000000Y-18000000D02*
X16000000Y-17000000D01*
X18000000Y-9000000D02*
X18000000Y-9500000D01*
X19000000Y-8000000D02*
X19000000Y-8500000D01*
X19000000Y-7000000D02*
X19000000Y-8000000D01*
X20200000Y-9500000D02*
X20200000Y-8500000D01*
X17000000Y-14000000D02*
X18000000Y-14000000D01*
X19200000Y-8500000D02*
X20200000Y-8500000D01*
X19200000Y-9500000D02*
X19200000Y-9000000D01*
X9000000Y-4000000D02*
X10000000Y-4000000D01*
X18000000Y-16000000D02*
X19000000Y-16000000D01*
X3000000Y-18000000D02*
X3000000Y-16000000D01*
X18000000Y-14000000D02*
X18000000Y-14500000D01*
X21200000Y-15000000D02*
X18200000Y-15000000D01*
X8000000Y-6000000D02*
X9000000Y-6000000D01*
X8000000Y-17000000D02*
X6000000Y-17000000D01*
X14000000Y-17000000D02*
X14000000Y-16000000D01*
X10000000Y-15000000D02*
X10000000Y-16000000D01*
X6000000Y-18000000D02*
X3000000Y-18000000D01*
X5000000Y-10000000D02*
X4000000Y-10000000D01*
X19000000Y-16000000D02*
X19000000Y-18000000D01*
X14000000Y-16000000D02*
X12000000Y-16000000D01*
D11*
D12*
X19620000Y-14320000D02*
X19780000Y-14480000D01*
X19780000Y-14320000D02*
X19620000Y-14480000D01*
D13*
X3605000Y-7500000D02*
G75*
G03*
X3605000Y-7500000I-105000J0D01*
G01*
X3605000Y-8500000D02*
G75*
G03*
X3605000Y-8500000I-105000J0D01*
G01*
X3605000Y-16500000D02*
G75*
G03*
X3605000Y-16500000I-105000J0D01*
G01*
X3605000Y-17500000D02*
G75*
G03*
X3605000Y-17500000I-105000J0D01*
G01*
X4605000Y-7500000D02*
G75*
G03*
X4605000Y-7500000I-105000J0D01*
G01*
X4605000Y-8500000D02*
G75*
G03*
X4605000Y-8500000I-105000J0D01*
G01*
X4605000Y-9500000D02*
G75*
G03*
X4605000Y-9500000I-105000J0D01*
G01*
X4605000Y-14500000D02*
G75*
G03*
X4605000Y-14500000I-105000J0D01*
G01*
X4605000Y-15500000D02*
G75*
G03*
X4605000Y-15500000I-105000J0D01*
G01*
X4605000Y-16500000D02*
G75*
G03*
X4605000Y-16500000I-105000J0D01*
G01*
X4605000Y-17500000D02*
G75*
G03*
X4605000Y-17500000I-105000J0D01*
G01*
X5605000Y-7500000D02*
G75*
G03*
X5605000Y-7500000I-105000J0D01*
G01*
X5605000Y-8500000D02*
G75*
G03*
X5605000Y-8500000I-105000J0D01*
G01*
X5605000Y-9500000D02*
G75*
G03*
X5605000Y-9500000I-105000J0D01*
G01*
X5605000Y-10500000D02*
G75*
G03*
X5605000Y-10500000I-105000J0D01*
G01*
X5605000Y-12500000D02*
G75*
G03*
X5605000Y-12500000I-105000J0D01*
G01*
X5605000Y-13500000D02*
G75*
G03*
X5605000Y-13500000I-105000J0D01*
G01*
X5605000Y-14500000D02*
G75*
G03*
X5605000Y-14500000I-105000J0D01*
G01*
X5605000Y-15500000D02*
G75*
G03*
X5605000Y-15500000I-105000J0D01*
G01*
X5605000Y-16500000D02*
G75*
G03*
X5605000Y-16500000I-105000J0D01*
G01*
X5605000Y-17500000D02*
G75*
G03*
X5605000Y-17500000I-105000J0D01*
G01*
X6605000Y-7500000D02*
G75*
G03*
X6605000Y-7500000I-105000J0D01*
G01*
X6605000Y-8500000D02*
G75*
G03*
X6605000Y-8500000I-105000J0D01*
G01*
X6605000Y-9500000D02*
G75*
G03*
X6605000Y-9500000I-105000J0D01*
G01*
X6605000Y-10500000D02*
G75*
G03*
X6605000Y-10500000I-105000J0D01*
G01*
X6605000Y-11500000D02*
G75*
G03*
X6605000Y-11500000I-105000J0D01*
G01*
X6605000Y-12500000D02*
G75*
G03*
X6605000Y-12500000I-105000J0D01*
G01*
X6605000Y-13500000D02*
G75*
G03*
X6605000Y-13500000I-105000J0D01*
G01*
X6605000Y-14500000D02*
G75*
G03*
X6605000Y-14500000I-105000J0D01*
G01*
X6605000Y-15500000D02*
G75*
G03*
X6605000Y-15500000I-105000J0D01*
G01*
X6605000Y-16500000D02*
G75*
G03*
X6605000Y-16500000I-105000J0D01*
G01*
X7605000Y-7500000D02*
G75*
G03*
X7605000Y-7500000I-105000J0D01*
G01*
X7605000Y-8500000D02*
G75*
G03*
X7605000Y-8500000I-105000J0D01*
G01*
X7605000Y-9500000D02*
G75*
G03*
X7605000Y-9500000I-105000J0D01*
G01*
X7605000Y-10500000D02*
G75*
G03*
X7605000Y-10500000I-105000J0D01*
G01*
X7605000Y-11500000D02*
G75*
G03*
X7605000Y-11500000I-105000J0D01*
G01*
X7605000Y-12500000D02*
G75*
G03*
X7605000Y-12500000I-105000J0D01*
G01*
X7605000Y-13500000D02*
G75*
G03*
X7605000Y-13500000I-105000J0D01*
G01*
X7605000Y-14500000D02*
G75*
G03*
X7605000Y-14500000I-105000J0D01*
G01*
X7605000Y-15500000D02*
G75*
G03*
X7605000Y-15500000I-105000J0D01*
G01*
X7605000Y-16500000D02*
G75*
G03*
X7605000Y-16500000I-105000J0D01*
G01*
X8605000Y-6500000D02*
G75*
G03*
X8605000Y-6500000I-105000J0D01*
G01*
X8605000Y-7500000D02*
G75*
G03*
X8605000Y-7500000I-105000J0D01*
G01*
X8605000Y-8500000D02*
G75*
G03*
X8605000Y-8500000I-105000J0D01*
G01*
X8605000Y-9500000D02*
G75*
G03*
X8605000Y-9500000I-105000J0D01*
G01*
X8605000Y-10500000D02*
G75*
G03*
X8605000Y-10500000I-105000J0D01*
G01*
X8605000Y-11500000D02*
G75*
G03*
X8605000Y-11500000I-105000J0D01*
G01*
X8605000Y-12500000D02*
G75*
G03*
X8605000Y-12500000I-105000J0D01*
G01*
X8605000Y-13500000D02*
G75*
G03*
X8605000Y-13500000I-105000J0D01*
G01*
X8605000Y-14500000D02*
G75*
G03*
X8605000Y-14500000I-105000J0D01*
G01*
X8605000Y-15500000D02*
G75*
G03*
X8605000Y-15500000I-105000J0D01*
G01*
X9605000Y-4500000D02*
G75*
G03*
X9605000Y-4500000I-105000J0D01*
G01*
X9605000Y-5500000D02*
G75*
G03*
X9605000Y-5500000I-105000J0D01*
G01*
X9605000Y-6500000D02*
G75*
G03*
X9605000Y-6500000I-105000J0D01*
G01*
X9605000Y-7500000D02*
G75*
G03*
X9605000Y-7500000I-105000J0D01*
G01*
X9605000Y-11500000D02*
G75*
G03*
X9605000Y-11500000I-105000J0D01*
G01*
X9605000Y-12500000D02*
G75*
G03*
X9605000Y-12500000I-105000J0D01*
G01*
X9605000Y-13500000D02*
G75*
G03*
X9605000Y-13500000I-105000J0D01*
G01*
X9605000Y-14500000D02*
G75*
G03*
X9605000Y-14500000I-105000J0D01*
G01*
X9605000Y-15500000D02*
G75*
G03*
X9605000Y-15500000I-105000J0D01*
G01*
X10605000Y-3500000D02*
G75*
G03*
X10605000Y-3500000I-105000J0D01*
G01*
X10605000Y-4500000D02*
G75*
G03*
X10605000Y-4500000I-105000J0D01*
G01*
X10605000Y-5500000D02*
G75*
G03*
X10605000Y-5500000I-105000J0D01*
G01*
X10605000Y-6500000D02*
G75*
G03*
X10605000Y-6500000I-105000J0D01*
G01*
X10605000Y-7500000D02*
G75*
G03*
X10605000Y-7500000I-105000J0D01*
G01*
X10605000Y-8500000D02*
G75*
G03*
X10605000Y-8500000I-105000J0D01*
G01*
X10605000Y-9500000D02*
G75*
G03*
X10605000Y-9500000I-105000J0D01*
G01*
X10605000Y-10500000D02*
G75*
G03*
X10605000Y-10500000I-105000J0D01*
G01*
X10605000Y-11500000D02*
G75*
G03*
X10605000Y-11500000I-105000J0D01*
G01*
X10605000Y-12500000D02*
G75*
G03*
X10605000Y-12500000I-105000J0D01*
G01*
X10605000Y-13500000D02*
G75*
G03*
X10605000Y-13500000I-105000J0D01*
G01*
X10605000Y-14500000D02*
G75*
G03*
X10605000Y-14500000I-105000J0D01*
G01*
X11605000Y-3500000D02*
G75*
G03*
X11605000Y-3500000I-105000J0D01*
G01*
X11605000Y-4500000D02*
G75*
G03*
X11605000Y-4500000I-105000J0D01*
G01*
X11605000Y-5500000D02*
G75*
G03*
X11605000Y-5500000I-105000J0D01*
G01*
X11605000Y-6500000D02*
G75*
G03*
X11605000Y-6500000I-105000J0D01*
G01*
X11605000Y-7500000D02*
G75*
G03*
X11605000Y-7500000I-105000J0D01*
G01*
X11605000Y-8500000D02*
G75*
G03*
X11605000Y-8500000I-105000J0D01*
G01*
X11605000Y-9500000D02*
G75*
G03*
X11605000Y-9500000I-105000J0D01*
G01*
X11605000Y-10500000D02*
G75*
G03*
X11605000Y-10500000I-105000J0D01*
G01*
X11605000Y-11500000D02*
G75*
G03*
X11605000Y-11500000I-105000J0D01*
G01*
X11605000Y-12500000D02*
G75*
G03*
X11605000Y-12500000I-105000J0D01*
G01*
X11605000Y-13500000D02*
G75*
G03*
X11605000Y-13500000I-105000J0D01*
G01*
X11605000Y-14500000D02*
G75*
G03*
X11605000Y-14500000I-105000J0D01*
G01*
X12605000Y-4500000D02*
G75*
G03*
X12605000Y-4500000I-105000J0D01*
G01*
X12605000Y-5500000D02*
G75*
G03*
X12605000Y-5500000I-105000J0D01*
G01*
X12605000Y-6500000D02*
G75*
G03*
X12605000Y-6500000I-105000J0D01*
G01*
X12605000Y-7500000D02*
G75*
G03*
X12605000Y-7500000I-105000J0D01*
G01*
X12605000Y-11500000D02*
G75*
G03*
X12605000Y-11500000I-105000J0D01*
G01*
X12605000Y-12500000D02*
G75*
G03*
X12605000Y-12500000I-105000J0D01*
G01*
X12605000Y-13500000D02*
G75*
G03*
X12605000Y-13500000I-105000J0D01*
G01*
X12605000Y-14500000D02*
G75*
G03*
X12605000Y-14500000I-105000J0D01*
G01*
X12605000Y-15500000D02*
G75*
G03*
X12605000Y-15500000I-105000J0D01*
G01*
X13605000Y-6500000D02*
G75*
G03*
X13605000Y-6500000I-105000J0D01*
G01*
X13605000Y-7500000D02*
G75*
G03*
X13605000Y-7500000I-105000J0D01*
G01*
X13605000Y-8500000D02*
G75*
G03*
X13605000Y-8500000I-105000J0D01*
G01*
X13605000Y-9500000D02*
G75*
G03*
X13605000Y-9500000I-105000J0D01*
G01*
X13605000Y-10500000D02*
G75*
G03*
X13605000Y-10500000I-105000J0D01*
G01*
X13605000Y-11500000D02*
G75*
G03*
X13605000Y-11500000I-105000J0D01*
G01*
X13605000Y-12500000D02*
G75*
G03*
X13605000Y-12500000I-105000J0D01*
G01*
X13605000Y-13500000D02*
G75*
G03*
X13605000Y-13500000I-105000J0D01*
G01*
X13605000Y-14500000D02*
G75*
G03*
X13605000Y-14500000I-105000J0D01*
G01*
X13605000Y-15500000D02*
G75*
G03*
X13605000Y-15500000I-105000J0D01*
G01*
X14605000Y-7500000D02*
G75*
G03*
X14605000Y-7500000I-105000J0D01*
G01*
X14605000Y-8500000D02*
G75*
G03*
X14605000Y-8500000I-105000J0D01*
G01*
X14605000Y-9500000D02*
G75*
G03*
X14605000Y-9500000I-105000J0D01*
G01*
X14605000Y-10500000D02*
G75*
G03*
X14605000Y-10500000I-105000J0D01*
G01*
X14605000Y-11500000D02*
G75*
G03*
X14605000Y-11500000I-105000J0D01*
G01*
X14605000Y-12500000D02*
G75*
G03*
X14605000Y-12500000I-105000J0D01*
G01*
X14605000Y-13500000D02*
G75*
G03*
X14605000Y-13500000I-105000J0D01*
G01*
X14605000Y-14500000D02*
G75*
G03*
X14605000Y-14500000I-105000J0D01*
G01*
X14605000Y-15500000D02*
G75*
G03*
X14605000Y-15500000I-105000J0D01*
G01*
X14605000Y-16500000D02*
G75*
G03*
X14605000Y-16500000I-105000J0D01*
G01*
X15605000Y-7500000D02*
G75*
G03*
X15605000Y-7500000I-105000J0D01*
G01*
X15605000Y-8500000D02*
G75*
G03*
X15605000Y-8500000I-105000J0D01*
G01*
X15605000Y-9500000D02*
G75*
G03*
X15605000Y-9500000I-105000J0D01*
G01*
X15605000Y-10500000D02*
G75*
G03*
X15605000Y-10500000I-105000J0D01*
G01*
X15605000Y-11500000D02*
G75*
G03*
X15605000Y-11500000I-105000J0D01*
G01*
X15605000Y-12500000D02*
G75*
G03*
X15605000Y-12500000I-105000J0D01*
G01*
X15605000Y-13500000D02*
G75*
G03*
X15605000Y-13500000I-105000J0D01*
G01*
X15605000Y-14500000D02*
G75*
G03*
X15605000Y-14500000I-105000J0D01*
G01*
X15605000Y-15500000D02*
G75*
G03*
X15605000Y-15500000I-105000J0D01*
G01*
X15605000Y-16500000D02*
G75*
G03*
X15605000Y-16500000I-105000J0D01*
G01*
X16605000Y-7500000D02*
G75*
G03*
X16605000Y-7500000I-105000J0D01*
G01*
X16605000Y-8500000D02*
G75*
G03*
X16605000Y-8500000I-105000J0D01*
G01*
X16605000Y-9500000D02*
G75*
G03*
X16605000Y-9500000I-105000J0D01*
G01*
X16605000Y-10500000D02*
G75*
G03*
X16605000Y-10500000I-105000J0D01*
G01*
X16605000Y-12500000D02*
G75*
G03*
X16605000Y-12500000I-105000J0D01*
G01*
X16605000Y-13500000D02*
G75*
G03*
X16605000Y-13500000I-105000J0D01*
G01*
X16605000Y-14500000D02*
G75*
G03*
X16605000Y-14500000I-105000J0D01*
G01*
X16605000Y-15500000D02*
G75*
G03*
X16605000Y-15500000I-105000J0D01*
G01*
X16605000Y-16500000D02*
G75*
G03*
X16605000Y-16500000I-105000J0D01*
G01*
X16605000Y-17500000D02*
G75*
G03*
X16605000Y-17500000I-105000J0D01*
G01*
X17605000Y-7500000D02*
G75*
G03*
X17605000Y-7500000I-105000J0D01*
G01*
X17605000Y-8500000D02*
G75*
G03*
X17605000Y-8500000I-105000J0D01*
G01*
X17605000Y-9500000D02*
G75*
G03*
X17605000Y-9500000I-105000J0D01*
G01*
X17605000Y-14500000D02*
G75*
G03*
X17605000Y-14500000I-105000J0D01*
G01*
X17605000Y-15500000D02*
G75*
G03*
X17605000Y-15500000I-105000J0D01*
G01*
X17605000Y-16500000D02*
G75*
G03*
X17605000Y-16500000I-105000J0D01*
G01*
X17605000Y-17500000D02*
G75*
G03*
X17605000Y-17500000I-105000J0D01*
G01*
X18605000Y-7500000D02*
G75*
G03*
X18605000Y-7500000I-105000J0D01*
G01*
X18605000Y-8500000D02*
G75*
G03*
X18605000Y-8500000I-105000J0D01*
G01*
X18605000Y-16500000D02*
G75*
G03*
X18605000Y-16500000I-105000J0D01*
G01*
X18605000Y-17500000D02*
G75*
G03*
X18605000Y-17500000I-105000J0D01*
G01*
D11*
X3252619Y-18315476D02*
X3252619Y-18115476D01*
X3300238Y-18115476D01*
X3328809Y-18125000D01*
X3347857Y-18144048D01*
X3357381Y-18163095D01*
X3366905Y-18201190D01*
X3366905Y-18229762D01*
X3357381Y-18267857D01*
X3347857Y-18286905D01*
X3328809Y-18305952D01*
X3300238Y-18315476D01*
X3252619Y-18315476D01*
X3452619Y-18315476D02*
X3452619Y-18182143D01*
X3452619Y-18220238D02*
X3462143Y-18201190D01*
X3471667Y-18191667D01*
X3490714Y-18182143D01*
X3509762Y-18182143D01*
X3576428Y-18315476D02*
X3576428Y-18182143D01*
X3576428Y-18115476D02*
X3566905Y-18125000D01*
X3576428Y-18134524D01*
X3585952Y-18125000D01*
X3576428Y-18115476D01*
X3576428Y-18134524D01*
X3700238Y-18315476D02*
X3681190Y-18305952D01*
X3671667Y-18286905D01*
X3671667Y-18115476D01*
X3805000Y-18315476D02*
X3785952Y-18305952D01*
X3776428Y-18286905D01*
X3776428Y-18115476D01*
X4033571Y-18315476D02*
X4033571Y-18115476D01*
X4100238Y-18258333D01*
X4166905Y-18115476D01*
X4166905Y-18315476D01*
X4347857Y-18315476D02*
X4347857Y-18210714D01*
X4338333Y-18191667D01*
X4319286Y-18182143D01*
X4281190Y-18182143D01*
X4262143Y-18191667D01*
X4347857Y-18305952D02*
X4328810Y-18315476D01*
X4281190Y-18315476D01*
X4262143Y-18305952D01*
X4252619Y-18286905D01*
X4252619Y-18267857D01*
X4262143Y-18248810D01*
X4281190Y-18239286D01*
X4328810Y-18239286D01*
X4347857Y-18229762D01*
X4443095Y-18182143D02*
X4443095Y-18382143D01*
X4443095Y-18191667D02*
X4462143Y-18182143D01*
X4500238Y-18182143D01*
X4519286Y-18191667D01*
X4528810Y-18201190D01*
X4538333Y-18220238D01*
X4538333Y-18277381D01*
X4528810Y-18296429D01*
X4519286Y-18305952D01*
X4500238Y-18315476D01*
X4462143Y-18315476D01*
X4443095Y-18305952D01*
X4624048Y-18296429D02*
X4633571Y-18305952D01*
X4624048Y-18315476D01*
X4614524Y-18305952D01*
X4624048Y-18296429D01*
X4624048Y-18315476D01*
X4624048Y-18191667D02*
X4633571Y-18201190D01*
X4624048Y-18210714D01*
X4614524Y-18201190D01*
X4624048Y-18191667D01*
X4624048Y-18210714D01*
D12*
X2835000Y-18565000D02*
X2995000Y-18725000D01*
X2995000Y-18565000D02*
X2835000Y-18725000D01*
D11*
X3357381Y-18735476D02*
X3243095Y-18735476D01*
X3300238Y-18735476D02*
X3300238Y-18535476D01*
X3281190Y-18564048D01*
X3262143Y-18583095D01*
X3243095Y-18592619D01*
X3443095Y-18716429D02*
X3452619Y-18725952D01*
X3443095Y-18735476D01*
X3433571Y-18725952D01*
X3443095Y-18716429D01*
X3443095Y-18735476D01*
X3624048Y-18535476D02*
X3585952Y-18535476D01*
X3566905Y-18545000D01*
X3557381Y-18554524D01*
X3538333Y-18583095D01*
X3528809Y-18621190D01*
X3528809Y-18697381D01*
X3538333Y-18716429D01*
X3547857Y-18725952D01*
X3566905Y-18735476D01*
X3605000Y-18735476D01*
X3624048Y-18725952D01*
X3633571Y-18716429D01*
X3643095Y-18697381D01*
X3643095Y-18649762D01*
X3633571Y-18630714D01*
X3624048Y-18621190D01*
X3605000Y-18611667D01*
X3566905Y-18611667D01*
X3547857Y-18621190D01*
X3538333Y-18630714D01*
X3528809Y-18649762D01*
X3766905Y-18535476D02*
X3785952Y-18535476D01*
X3805000Y-18545000D01*
X3814524Y-18554524D01*
X3824048Y-18573571D01*
X3833571Y-18611667D01*
X3833571Y-18659286D01*
X3824048Y-18697381D01*
X3814524Y-18716429D01*
X3805000Y-18725952D01*
X3785952Y-18735476D01*
X3766905Y-18735476D01*
X3747857Y-18725952D01*
X3738333Y-18716429D01*
X3728809Y-18697381D01*
X3719286Y-18659286D01*
X3719286Y-18611667D01*
X3728809Y-18573571D01*
X3738333Y-18554524D01*
X3747857Y-18545000D01*
X3766905Y-18535476D01*
X3957381Y-18535476D02*
X3976428Y-18535476D01*
X3995476Y-18545000D01*
X4005000Y-18554524D01*
X4014524Y-18573571D01*
X4024048Y-18611667D01*
X4024048Y-18659286D01*
X4014524Y-18697381D01*
X4005000Y-18716429D01*
X3995476Y-18725952D01*
X3976428Y-18735476D01*
X3957381Y-18735476D01*
X3938333Y-18725952D01*
X3928809Y-18716429D01*
X3919286Y-18697381D01*
X3909762Y-18659286D01*
X3909762Y-18611667D01*
X3919286Y-18573571D01*
X3928809Y-18554524D01*
X3938333Y-18545000D01*
X3957381Y-18535476D01*
X4109762Y-18735476D02*
X4109762Y-18602143D01*
X4109762Y-18621190D02*
X4119286Y-18611667D01*
X4138333Y-18602143D01*
X4166905Y-18602143D01*
X4185952Y-18611667D01*
X4195476Y-18630714D01*
X4195476Y-18735476D01*
X4195476Y-18630714D02*
X4205000Y-18611667D01*
X4224048Y-18602143D01*
X4252619Y-18602143D01*
X4271667Y-18611667D01*
X4281190Y-18630714D01*
X4281190Y-18735476D01*
X4376429Y-18735476D02*
X4376429Y-18602143D01*
X4376429Y-18621190D02*
X4385952Y-18611667D01*
X4405000Y-18602143D01*
X4433571Y-18602143D01*
X4452619Y-18611667D01*
X4462143Y-18630714D01*
X4462143Y-18735476D01*
X4462143Y-18630714D02*
X4471667Y-18611667D01*
X4490714Y-18602143D01*
X4519286Y-18602143D01*
X4538333Y-18611667D01*
X4547857Y-18630714D01*
X4547857Y-18735476D01*
X4938333Y-18525952D02*
X4766905Y-18783095D01*
X5195476Y-18535476D02*
X5214524Y-18535476D01*
X5233571Y-18545000D01*
X5243095Y-18554524D01*
X5252619Y-18573571D01*
X5262143Y-18611667D01*
X5262143Y-18659286D01*
X5252619Y-18697381D01*
X5243095Y-18716429D01*
X5233571Y-18725952D01*
X5214524Y-18735476D01*
X5195476Y-18735476D01*
X5176429Y-18725952D01*
X5166905Y-18716429D01*
X5157381Y-18697381D01*
X5147857Y-18659286D01*
X5147857Y-18611667D01*
X5157381Y-18573571D01*
X5166905Y-18554524D01*
X5176429Y-18545000D01*
X5195476Y-18535476D01*
X5347857Y-18716429D02*
X5357381Y-18725952D01*
X5347857Y-18735476D01*
X5338333Y-18725952D01*
X5347857Y-18716429D01*
X5347857Y-18735476D01*
X5481190Y-18535476D02*
X5500238Y-18535476D01*
X5519286Y-18545000D01*
X5528810Y-18554524D01*
X5538333Y-18573571D01*
X5547857Y-18611667D01*
X5547857Y-18659286D01*
X5538333Y-18697381D01*
X5528810Y-18716429D01*
X5519286Y-18725952D01*
X5500238Y-18735476D01*
X5481190Y-18735476D01*
X5462143Y-18725952D01*
X5452619Y-18716429D01*
X5443095Y-18697381D01*
X5433571Y-18659286D01*
X5433571Y-18611667D01*
X5443095Y-18573571D01*
X5452619Y-18554524D01*
X5462143Y-18545000D01*
X5481190Y-18535476D01*
X5719286Y-18535476D02*
X5681190Y-18535476D01*
X5662143Y-18545000D01*
X5652619Y-18554524D01*
X5633571Y-18583095D01*
X5624048Y-18621190D01*
X5624048Y-18697381D01*
X5633571Y-18716429D01*
X5643095Y-18725952D01*
X5662143Y-18735476D01*
X5700238Y-18735476D01*
X5719286Y-18725952D01*
X5728809Y-18716429D01*
X5738333Y-18697381D01*
X5738333Y-18649762D01*
X5728809Y-18630714D01*
X5719286Y-18621190D01*
X5700238Y-18611667D01*
X5662143Y-18611667D01*
X5643095Y-18621190D01*
X5633571Y-18630714D01*
X5624048Y-18649762D01*
X5805000Y-18535476D02*
X5928809Y-18535476D01*
X5862143Y-18611667D01*
X5890714Y-18611667D01*
X5909762Y-18621190D01*
X5919286Y-18630714D01*
X5928809Y-18649762D01*
X5928809Y-18697381D01*
X5919286Y-18716429D01*
X5909762Y-18725952D01*
X5890714Y-18735476D01*
X5833571Y-18735476D01*
X5814524Y-18725952D01*
X5805000Y-18716429D01*
X6052619Y-18535476D02*
X6071667Y-18535476D01*
X6090714Y-18545000D01*
X6100238Y-18554524D01*
X6109762Y-18573571D01*
X6119286Y-18611667D01*
X6119286Y-18659286D01*
X6109762Y-18697381D01*
X6100238Y-18716429D01*
X6090714Y-18725952D01*
X6071667Y-18735476D01*
X6052619Y-18735476D01*
X6033571Y-18725952D01*
X6024048Y-18716429D01*
X6014524Y-18697381D01*
X6005000Y-18659286D01*
X6005000Y-18611667D01*
X6014524Y-18573571D01*
X6024048Y-18554524D01*
X6033571Y-18545000D01*
X6052619Y-18535476D01*
X6195476Y-18535476D02*
X6195476Y-18573571D01*
X6271667Y-18535476D02*
X6271667Y-18573571D01*
X6566905Y-18811667D02*
X6557381Y-18802143D01*
X6538333Y-18773571D01*
X6528809Y-18754524D01*
X6519286Y-18725952D01*
X6509762Y-18678333D01*
X6509762Y-18640238D01*
X6519286Y-18592619D01*
X6528809Y-18564048D01*
X6538333Y-18545000D01*
X6557381Y-18516429D01*
X6566905Y-18506905D01*
X6747857Y-18735476D02*
X6633571Y-18735476D01*
X6690714Y-18735476D02*
X6690714Y-18535476D01*
X6671667Y-18564048D01*
X6652619Y-18583095D01*
X6633571Y-18592619D01*
X6985952Y-18735476D02*
X6985952Y-18535476D01*
X7071667Y-18735476D02*
X7071667Y-18630714D01*
X7062143Y-18611667D01*
X7043095Y-18602143D01*
X7014524Y-18602143D01*
X6995476Y-18611667D01*
X6985952Y-18621190D01*
X7195476Y-18735476D02*
X7176428Y-18725952D01*
X7166905Y-18716429D01*
X7157381Y-18697381D01*
X7157381Y-18640238D01*
X7166905Y-18621190D01*
X7176428Y-18611667D01*
X7195476Y-18602143D01*
X7224048Y-18602143D01*
X7243095Y-18611667D01*
X7252619Y-18621190D01*
X7262143Y-18640238D01*
X7262143Y-18697381D01*
X7252619Y-18716429D01*
X7243095Y-18725952D01*
X7224048Y-18735476D01*
X7195476Y-18735476D01*
X7376428Y-18735476D02*
X7357381Y-18725952D01*
X7347857Y-18706905D01*
X7347857Y-18535476D01*
X7528809Y-18725952D02*
X7509762Y-18735476D01*
X7471667Y-18735476D01*
X7452619Y-18725952D01*
X7443095Y-18706905D01*
X7443095Y-18630714D01*
X7452619Y-18611667D01*
X7471667Y-18602143D01*
X7509762Y-18602143D01*
X7528809Y-18611667D01*
X7538333Y-18630714D01*
X7538333Y-18649762D01*
X7443095Y-18668810D01*
X7605000Y-18811667D02*
X7614524Y-18802143D01*
X7633571Y-18773571D01*
X7643095Y-18754524D01*
X7652619Y-18725952D01*
X7662143Y-18678333D01*
X7662143Y-18640238D01*
X7652619Y-18592619D01*
X7643095Y-18564048D01*
X7633571Y-18545000D01*
X7614524Y-18516429D01*
X7605000Y-18506905D01*
X7966905Y-18811667D02*
X7957381Y-18802143D01*
X7938333Y-18773571D01*
X7928809Y-18754524D01*
X7919286Y-18725952D01*
X7909762Y-18678333D01*
X7909762Y-18640238D01*
X7919286Y-18592619D01*
X7928809Y-18564048D01*
X7938333Y-18545000D01*
X7957381Y-18516429D01*
X7966905Y-18506905D01*
X8043095Y-18602143D02*
X8043095Y-18735476D01*
X8043095Y-18621190D02*
X8052619Y-18611667D01*
X8071667Y-18602143D01*
X8100238Y-18602143D01*
X8119286Y-18611667D01*
X8128809Y-18630714D01*
X8128809Y-18735476D01*
X8252619Y-18735476D02*
X8233571Y-18725952D01*
X8224048Y-18716429D01*
X8214524Y-18697381D01*
X8214524Y-18640238D01*
X8224048Y-18621190D01*
X8233571Y-18611667D01*
X8252619Y-18602143D01*
X8281190Y-18602143D01*
X8300238Y-18611667D01*
X8309762Y-18621190D01*
X8319286Y-18640238D01*
X8319286Y-18697381D01*
X8309762Y-18716429D01*
X8300238Y-18725952D01*
X8281190Y-18735476D01*
X8252619Y-18735476D01*
X8376428Y-18602143D02*
X8452619Y-18602143D01*
X8405000Y-18535476D02*
X8405000Y-18706905D01*
X8414524Y-18725952D01*
X8433571Y-18735476D01*
X8452619Y-18735476D01*
X8671667Y-18602143D02*
X8671667Y-18802143D01*
X8671667Y-18611667D02*
X8690714Y-18602143D01*
X8728810Y-18602143D01*
X8747857Y-18611667D01*
X8757381Y-18621190D01*
X8766905Y-18640238D01*
X8766905Y-18697381D01*
X8757381Y-18716429D01*
X8747857Y-18725952D01*
X8728810Y-18735476D01*
X8690714Y-18735476D01*
X8671667Y-18725952D01*
X8881190Y-18735476D02*
X8862143Y-18725952D01*
X8852619Y-18706905D01*
X8852619Y-18535476D01*
X9043095Y-18735476D02*
X9043095Y-18630714D01*
X9033571Y-18611667D01*
X9014524Y-18602143D01*
X8976429Y-18602143D01*
X8957381Y-18611667D01*
X9043095Y-18725952D02*
X9024048Y-18735476D01*
X8976429Y-18735476D01*
X8957381Y-18725952D01*
X8947857Y-18706905D01*
X8947857Y-18687857D01*
X8957381Y-18668810D01*
X8976429Y-18659286D01*
X9024048Y-18659286D01*
X9043095Y-18649762D01*
X9109762Y-18602143D02*
X9185952Y-18602143D01*
X9138333Y-18535476D02*
X9138333Y-18706905D01*
X9147857Y-18725952D01*
X9166905Y-18735476D01*
X9185952Y-18735476D01*
X9328810Y-18725952D02*
X9309762Y-18735476D01*
X9271667Y-18735476D01*
X9252619Y-18725952D01*
X9243095Y-18706905D01*
X9243095Y-18630714D01*
X9252619Y-18611667D01*
X9271667Y-18602143D01*
X9309762Y-18602143D01*
X9328810Y-18611667D01*
X9338333Y-18630714D01*
X9338333Y-18649762D01*
X9243095Y-18668810D01*
X9509762Y-18735476D02*
X9509762Y-18535476D01*
X9509762Y-18725952D02*
X9490714Y-18735476D01*
X9452619Y-18735476D01*
X9433571Y-18725952D01*
X9424048Y-18716429D01*
X9414524Y-18697381D01*
X9414524Y-18640238D01*
X9424048Y-18621190D01*
X9433571Y-18611667D01*
X9452619Y-18602143D01*
X9490714Y-18602143D01*
X9509762Y-18611667D01*
X9585952Y-18811667D02*
X9595476Y-18802143D01*
X9614524Y-18773571D01*
X9624048Y-18754524D01*
X9633571Y-18725952D01*
X9643095Y-18678333D01*
X9643095Y-18640238D01*
X9633571Y-18592619D01*
X9624048Y-18564048D01*
X9614524Y-18545000D01*
X9595476Y-18516429D01*
X9585952Y-18506905D01*
X2995000Y-18925000D02*
G75*
G03*
X2995000Y-18925000I-100000J0D01*
G01*
X3243095Y-18834524D02*
X3252619Y-18825000D01*
X3271667Y-18815476D01*
X3319286Y-18815476D01*
X3338333Y-18825000D01*
X3347857Y-18834524D01*
X3357381Y-18853571D01*
X3357381Y-18872619D01*
X3347857Y-18901190D01*
X3233571Y-19015476D01*
X3357381Y-19015476D01*
X3443095Y-18996429D02*
X3452619Y-19005952D01*
X3443095Y-19015476D01*
X3433571Y-19005952D01*
X3443095Y-18996429D01*
X3443095Y-19015476D01*
X3643095Y-19015476D02*
X3528809Y-19015476D01*
X3585952Y-19015476D02*
X3585952Y-18815476D01*
X3566905Y-18844048D01*
X3547857Y-18863095D01*
X3528809Y-18872619D01*
X3766905Y-18815476D02*
X3785952Y-18815476D01*
X3805000Y-18825000D01*
X3814524Y-18834524D01*
X3824048Y-18853571D01*
X3833571Y-18891667D01*
X3833571Y-18939286D01*
X3824048Y-18977381D01*
X3814524Y-18996429D01*
X3805000Y-19005952D01*
X3785952Y-19015476D01*
X3766905Y-19015476D01*
X3747857Y-19005952D01*
X3738333Y-18996429D01*
X3728809Y-18977381D01*
X3719286Y-18939286D01*
X3719286Y-18891667D01*
X3728809Y-18853571D01*
X3738333Y-18834524D01*
X3747857Y-18825000D01*
X3766905Y-18815476D01*
X3957381Y-18815476D02*
X3976428Y-18815476D01*
X3995476Y-18825000D01*
X4005000Y-18834524D01*
X4014524Y-18853571D01*
X4024048Y-18891667D01*
X4024048Y-18939286D01*
X4014524Y-18977381D01*
X4005000Y-18996429D01*
X3995476Y-19005952D01*
X3976428Y-19015476D01*
X3957381Y-19015476D01*
X3938333Y-19005952D01*
X3928809Y-18996429D01*
X3919286Y-18977381D01*
X3909762Y-18939286D01*
X3909762Y-18891667D01*
X3919286Y-18853571D01*
X3928809Y-18834524D01*
X3938333Y-18825000D01*
X3957381Y-18815476D01*
X4109762Y-19015476D02*
X4109762Y-18882143D01*
X4109762Y-18901190D02*
X4119286Y-18891667D01*
X4138333Y-18882143D01*
X4166905Y-18882143D01*
X4185952Y-18891667D01*
X4195476Y-18910714D01*
X4195476Y-19015476D01*
X4195476Y-18910714D02*
X4205000Y-18891667D01*
X4224048Y-18882143D01*
X4252619Y-18882143D01*
X4271667Y-18891667D01*
X4281190Y-18910714D01*
X4281190Y-19015476D01*
X4376429Y-19015476D02*
X4376429Y-18882143D01*
X4376429Y-18901190D02*
X4385952Y-18891667D01*
X4405000Y-18882143D01*
X4433571Y-18882143D01*
X4452619Y-18891667D01*
X4462143Y-18910714D01*
X4462143Y-19015476D01*
X4462143Y-18910714D02*
X4471667Y-18891667D01*
X4490714Y-18882143D01*
X4519286Y-18882143D01*
X4538333Y-18891667D01*
X4547857Y-18910714D01*
X4547857Y-19015476D01*
X4938333Y-18805952D02*
X4766905Y-19063095D01*
X5195476Y-18815476D02*
X5214524Y-18815476D01*
X5233571Y-18825000D01*
X5243095Y-18834524D01*
X5252619Y-18853571D01*
X5262143Y-18891667D01*
X5262143Y-18939286D01*
X5252619Y-18977381D01*
X5243095Y-18996429D01*
X5233571Y-19005952D01*
X5214524Y-19015476D01*
X5195476Y-19015476D01*
X5176429Y-19005952D01*
X5166905Y-18996429D01*
X5157381Y-18977381D01*
X5147857Y-18939286D01*
X5147857Y-18891667D01*
X5157381Y-18853571D01*
X5166905Y-18834524D01*
X5176429Y-18825000D01*
X5195476Y-18815476D01*
X5347857Y-18996429D02*
X5357381Y-19005952D01*
X5347857Y-19015476D01*
X5338333Y-19005952D01*
X5347857Y-18996429D01*
X5347857Y-19015476D01*
X5481190Y-18815476D02*
X5500238Y-18815476D01*
X5519286Y-18825000D01*
X5528810Y-18834524D01*
X5538333Y-18853571D01*
X5547857Y-18891667D01*
X5547857Y-18939286D01*
X5538333Y-18977381D01*
X5528810Y-18996429D01*
X5519286Y-19005952D01*
X5500238Y-19015476D01*
X5481190Y-19015476D01*
X5462143Y-19005952D01*
X5452619Y-18996429D01*
X5443095Y-18977381D01*
X5433571Y-18939286D01*
X5433571Y-18891667D01*
X5443095Y-18853571D01*
X5452619Y-18834524D01*
X5462143Y-18825000D01*
X5481190Y-18815476D01*
X5662143Y-18901190D02*
X5643095Y-18891667D01*
X5633571Y-18882143D01*
X5624048Y-18863095D01*
X5624048Y-18853571D01*
X5633571Y-18834524D01*
X5643095Y-18825000D01*
X5662143Y-18815476D01*
X5700238Y-18815476D01*
X5719286Y-18825000D01*
X5728809Y-18834524D01*
X5738333Y-18853571D01*
X5738333Y-18863095D01*
X5728809Y-18882143D01*
X5719286Y-18891667D01*
X5700238Y-18901190D01*
X5662143Y-18901190D01*
X5643095Y-18910714D01*
X5633571Y-18920238D01*
X5624048Y-18939286D01*
X5624048Y-18977381D01*
X5633571Y-18996429D01*
X5643095Y-19005952D01*
X5662143Y-19015476D01*
X5700238Y-19015476D01*
X5719286Y-19005952D01*
X5728809Y-18996429D01*
X5738333Y-18977381D01*
X5738333Y-18939286D01*
X5728809Y-18920238D01*
X5719286Y-18910714D01*
X5700238Y-18901190D01*
X5814524Y-18834524D02*
X5824048Y-18825000D01*
X5843095Y-18815476D01*
X5890714Y-18815476D01*
X5909762Y-18825000D01*
X5919286Y-18834524D01*
X5928809Y-18853571D01*
X5928809Y-18872619D01*
X5919286Y-18901190D01*
X5805000Y-19015476D01*
X5928809Y-19015476D01*
X5995476Y-18815476D02*
X6128809Y-18815476D01*
X6043095Y-19015476D01*
X6195476Y-18815476D02*
X6195476Y-18853571D01*
X6271667Y-18815476D02*
X6271667Y-18853571D01*
X6566905Y-19091667D02*
X6557381Y-19082143D01*
X6538333Y-19053571D01*
X6528809Y-19034524D01*
X6519286Y-19005952D01*
X6509762Y-18958333D01*
X6509762Y-18920238D01*
X6519286Y-18872619D01*
X6528809Y-18844048D01*
X6538333Y-18825000D01*
X6557381Y-18796429D01*
X6566905Y-18786905D01*
X6747857Y-19015476D02*
X6633571Y-19015476D01*
X6690714Y-19015476D02*
X6690714Y-18815476D01*
X6671667Y-18844048D01*
X6652619Y-18863095D01*
X6633571Y-18872619D01*
X6919286Y-18882143D02*
X6919286Y-19015476D01*
X6871667Y-18805952D02*
X6824048Y-18948810D01*
X6947857Y-18948810D01*
X7109762Y-18882143D02*
X7109762Y-19015476D01*
X7062143Y-18805952D02*
X7014524Y-18948810D01*
X7138333Y-18948810D01*
X7366905Y-19015476D02*
X7366905Y-18815476D01*
X7452619Y-19015476D02*
X7452619Y-18910714D01*
X7443095Y-18891667D01*
X7424048Y-18882143D01*
X7395476Y-18882143D01*
X7376428Y-18891667D01*
X7366905Y-18901190D01*
X7576428Y-19015476D02*
X7557381Y-19005952D01*
X7547857Y-18996429D01*
X7538333Y-18977381D01*
X7538333Y-18920238D01*
X7547857Y-18901190D01*
X7557381Y-18891667D01*
X7576428Y-18882143D01*
X7605000Y-18882143D01*
X7624048Y-18891667D01*
X7633571Y-18901190D01*
X7643095Y-18920238D01*
X7643095Y-18977381D01*
X7633571Y-18996429D01*
X7624048Y-19005952D01*
X7605000Y-19015476D01*
X7576428Y-19015476D01*
X7757381Y-19015476D02*
X7738333Y-19005952D01*
X7728809Y-18986905D01*
X7728809Y-18815476D01*
X7909762Y-19005952D02*
X7890714Y-19015476D01*
X7852619Y-19015476D01*
X7833571Y-19005952D01*
X7824048Y-18986905D01*
X7824048Y-18910714D01*
X7833571Y-18891667D01*
X7852619Y-18882143D01*
X7890714Y-18882143D01*
X7909762Y-18891667D01*
X7919286Y-18910714D01*
X7919286Y-18929762D01*
X7824048Y-18948810D01*
X7995476Y-19005952D02*
X8014524Y-19015476D01*
X8052619Y-19015476D01*
X8071667Y-19005952D01*
X8081190Y-18986905D01*
X8081190Y-18977381D01*
X8071667Y-18958333D01*
X8052619Y-18948810D01*
X8024048Y-18948810D01*
X8005000Y-18939286D01*
X7995476Y-18920238D01*
X7995476Y-18910714D01*
X8005000Y-18891667D01*
X8024048Y-18882143D01*
X8052619Y-18882143D01*
X8071667Y-18891667D01*
X8147857Y-19091667D02*
X8157381Y-19082143D01*
X8176428Y-19053571D01*
X8185952Y-19034524D01*
X8195476Y-19005952D01*
X8205000Y-18958333D01*
X8205000Y-18920238D01*
X8195476Y-18872619D01*
X8185952Y-18844048D01*
X8176428Y-18825000D01*
X8157381Y-18796429D01*
X8147857Y-18786905D01*
X8509762Y-19091667D02*
X8500238Y-19082143D01*
X8481190Y-19053571D01*
X8471667Y-19034524D01*
X8462143Y-19005952D01*
X8452619Y-18958333D01*
X8452619Y-18920238D01*
X8462143Y-18872619D01*
X8471667Y-18844048D01*
X8481190Y-18825000D01*
X8500238Y-18796429D01*
X8509762Y-18786905D01*
X8585952Y-18882143D02*
X8585952Y-19015476D01*
X8585952Y-18901190D02*
X8595476Y-18891667D01*
X8614524Y-18882143D01*
X8643095Y-18882143D01*
X8662143Y-18891667D01*
X8671667Y-18910714D01*
X8671667Y-19015476D01*
X8795476Y-19015476D02*
X8776429Y-19005952D01*
X8766905Y-18996429D01*
X8757381Y-18977381D01*
X8757381Y-18920238D01*
X8766905Y-18901190D01*
X8776429Y-18891667D01*
X8795476Y-18882143D01*
X8824048Y-18882143D01*
X8843095Y-18891667D01*
X8852619Y-18901190D01*
X8862143Y-18920238D01*
X8862143Y-18977381D01*
X8852619Y-18996429D01*
X8843095Y-19005952D01*
X8824048Y-19015476D01*
X8795476Y-19015476D01*
X8919286Y-18882143D02*
X8995476Y-18882143D01*
X8947857Y-18815476D02*
X8947857Y-18986905D01*
X8957381Y-19005952D01*
X8976429Y-19015476D01*
X8995476Y-19015476D01*
X9214524Y-18882143D02*
X9214524Y-19082143D01*
X9214524Y-18891667D02*
X9233571Y-18882143D01*
X9271667Y-18882143D01*
X9290714Y-18891667D01*
X9300238Y-18901190D01*
X9309762Y-18920238D01*
X9309762Y-18977381D01*
X9300238Y-18996429D01*
X9290714Y-19005952D01*
X9271667Y-19015476D01*
X9233571Y-19015476D01*
X9214524Y-19005952D01*
X9424048Y-19015476D02*
X9405000Y-19005952D01*
X9395476Y-18986905D01*
X9395476Y-18815476D01*
X9585952Y-19015476D02*
X9585952Y-18910714D01*
X9576429Y-18891667D01*
X9557381Y-18882143D01*
X9519286Y-18882143D01*
X9500238Y-18891667D01*
X9585952Y-19005952D02*
X9566905Y-19015476D01*
X9519286Y-19015476D01*
X9500238Y-19005952D01*
X9490714Y-18986905D01*
X9490714Y-18967857D01*
X9500238Y-18948810D01*
X9519286Y-18939286D01*
X9566905Y-18939286D01*
X9585952Y-18929762D01*
X9652619Y-18882143D02*
X9728810Y-18882143D01*
X9681190Y-18815476D02*
X9681190Y-18986905D01*
X9690714Y-19005952D01*
X9709762Y-19015476D01*
X9728810Y-19015476D01*
X9871667Y-19005952D02*
X9852619Y-19015476D01*
X9814524Y-19015476D01*
X9795476Y-19005952D01*
X9785952Y-18986905D01*
X9785952Y-18910714D01*
X9795476Y-18891667D01*
X9814524Y-18882143D01*
X9852619Y-18882143D01*
X9871667Y-18891667D01*
X9881190Y-18910714D01*
X9881190Y-18929762D01*
X9785952Y-18948810D01*
X10052619Y-19015476D02*
X10052619Y-18815476D01*
X10052619Y-19005952D02*
X10033571Y-19015476D01*
X9995476Y-19015476D01*
X9976429Y-19005952D01*
X9966905Y-18996429D01*
X9957381Y-18977381D01*
X9957381Y-18920238D01*
X9966905Y-18901190D01*
X9976429Y-18891667D01*
X9995476Y-18882143D01*
X10033571Y-18882143D01*
X10052619Y-18891667D01*
X10128810Y-19091667D02*
X10138333Y-19082143D01*
X10157381Y-19053571D01*
X10166905Y-19034524D01*
X10176429Y-19005952D01*
X10185952Y-18958333D01*
X10185952Y-18920238D01*
X10176429Y-18872619D01*
X10166905Y-18844048D01*
X10157381Y-18825000D01*
X10138333Y-18796429D01*
X10128810Y-18786905D01*
M02*
