M48
; DRILL file {KiCad (6.0.7-1)-1} date Thursday, September 29, 2022 at 05:17:27 pm
; FORMAT={-:-/ absolute / inch / decimal}
; #@! TF.CreationDate,2022-09-29T17:17:27-06:00
; #@! TF.GenerationSoftware,Kicad,Pcbnew,(6.0.7-1)-1
; #@! TF.FileFunction,Plated,1,4,PTH
FMAT,2
INCH
; #@! TA.AperFunction,Plated,PTH,ViaDrill
T1C0.0118
; #@! TA.AperFunction,Plated,PTH,ComponentDrill
T2C0.0276
; #@! TA.AperFunction,Plated,PTH,ComponentDrill
T3C0.0394
%
G90
G05
T1
X2.0551Y-3.5433
X2.0709Y-6.2992
X2.1654Y-3.622
X2.2461Y-6.1023
X2.2756Y-6.1191
X2.3211Y-3.6046
X2.3279Y-6.2079
X2.3297Y-6.0927
X2.3593Y-5.813
X2.3789Y-3.6695
X2.3971Y-4.0406
X2.3986Y-3.7598
X2.4144Y-3.6585
X2.4169Y-3.6126
X2.4193Y-6.1939
X2.4404Y-6.0152
X2.4497Y-6.119
X2.4646Y-3.1496
X2.4705Y-5.9843
X2.4731Y-6.1066
X2.5335Y-6.2343
X2.5408Y-3.6333
X2.5413Y-3.5984
X2.6575Y-5.1181
X2.8484Y-4.6693
X2.8812Y-4.6839
X2.9055Y-4.6969
X2.9349Y-4.6319
X2.939Y-5.5098
X2.9736Y-4.6331
X3.0522Y-5.5856
X3.0551Y-4.5531
X3.0975Y-4.6357
X3.1087Y-4.5055
X3.122Y-3.4469
X3.1511Y-4.7406
X3.1752Y-3.7441
X3.1811Y-4.5945
X3.187Y-5.5748
X3.2031Y-4.6606
X3.2251Y-3.1466
X3.2283Y-3.4656
X3.2463Y-4.2894
X3.2579Y-3.6594
X3.2623Y-4.5338
X3.2904Y-3.2776
X3.3366Y-4.0098
X3.4449Y-4.311
X3.4711Y-2.7646
X3.5066Y-3.8783
X3.5148Y-2.8839
X3.5157Y-4.0276
X3.5207Y-3.9759
X3.5268Y-3.8257
X3.5276Y-3.4724
X3.5355Y-3.8808
X3.5669Y-3.8071
X3.5748Y-4.0217
X3.5787Y-3.7441
X3.5807Y-3.5531
X3.5876Y-3.7815
X3.5925Y-3.6614
X3.6004Y-3.6181
X3.6004Y-3.7008
X3.6112Y-2.7175
X3.6142Y-3.7461
X3.6535Y-3.5079
X3.7254Y-4.1919
X3.7402Y-3.4291
X3.7598Y-4.6693
X3.7736Y-3.7633
X3.7844Y-4.0512
X3.7917Y-3.7814
X3.8071Y-3.9803
X3.8091Y-5.189
X3.812Y-4.0433
X3.8123Y-3.8019
X3.8386Y-4.4094
X3.8406Y-4.0246
X3.8691Y-5.1831
X3.8716Y-5.5915
X3.8792Y-3.8626
X3.8888Y-5.3799
X3.9045Y-5.1457
X3.9075Y-3.7736
X3.943Y-3.731
X3.9468Y-4.8209
X3.9518Y-5.0659
X3.9567Y-4.9016
X3.9596Y-4.7116
X3.974Y-3.76
X3.9872Y-4.7116
X4.0325Y-3.9843
X4.0472Y-1.9685
X4.0551Y-4.8622
X4.0669Y-3.7008
X4.0709Y-3.7756
X4.1083Y-5.4469
X4.1209Y-3.4496
X4.1273Y-5.4193
X4.1457Y-4.0089
X4.1526Y-3.1407
X4.1535Y-3.5827
X4.1575Y-3.9449
X4.1732Y-4.4094
X4.1791Y-3.5453
X4.2101Y-3.339
X4.2274Y-2.7569
X4.2323Y-4.2126
X4.2337Y-3.3489
X4.2441Y-3.6949
X4.2591Y-1.7815
X4.2621Y-5.327
X4.2726Y-3.2382
X4.2746Y-3.6703
X4.2756Y-1.8834
X4.2756Y-1.9173
X4.2795Y-3.4862
X4.2815Y-3.9134
X4.2815Y-5.3957
X4.3071Y-3.2648
X4.3071Y-5.4646
X4.312Y-2.0276
X4.3169Y-5.4213
X4.3228Y-1.9587
X4.3632Y-2.8258
X4.3642Y-3.2146
X4.3642Y-5.4488
X4.3652Y-3.2854
X4.3711Y-4.8228
X4.374Y-3.7362
X4.378Y-3.5433
X4.3839Y-4.7717
X4.3917Y-3.2392
X4.3917Y-3.9587
X4.3918Y-1.9203
X4.4134Y-4.5945
X4.4183Y-3.3228
X4.437Y-5.3238
X4.4419Y-1.7844
X4.4626Y-5.3317
X4.4892Y-4.8209
X4.4951Y-5.4213
X4.5248Y-3.2154
X4.5512Y-4.3317
X4.5563Y-3.9634
X4.5591Y-3.622
X4.6142Y-2.7559
X4.6142Y-5.378
X4.6191Y-5.623
X4.626Y-4.4094
X4.6299Y-5.2087
X4.6329Y-5.3169
X4.6407Y-4.1594
X4.6496Y-4.4665
X4.6594Y-5.0098
X4.6677Y-3.4059
X4.6713Y-3.1654
X4.6831Y-5.1614
X4.7067Y-3.2303
X4.7077Y-5.5463
X4.7559Y-4.1417
X4.7894Y-4.8996
X4.811Y-3.2303
X4.811Y-3.6181
X4.8504Y-3.4409
X4.9193Y-3.2303
X4.9646Y-4.7441
X4.9803Y-3.5709
X5.0197Y-4.8622
X5.0295Y-3.2303
X5.0906Y-3.5157
X5.1575Y-4.4094
X5.2028Y-4.1004
X5.248Y-4.8622
X5.3701Y-4.2008
X5.4557Y-4.5266
X5.4639Y-4.6348
X5.4764Y-4.2008
X5.4961Y-4.6614
X5.5166Y-4.6147
X5.5965Y-4.3297
X5.6802Y-4.6328
X5.6841Y-4.6632
X5.7417Y-3.4933
X5.7425Y-3.5831
X5.748Y-5.0472
X5.8002Y-4.5482
X5.8195Y-4.839
X5.9142Y-3.6756
X5.9579Y-5.1709
X5.9754Y-4.7992
X6.0571Y-3.676
X6.0657Y-3.5567
X6.0701Y-3.4974
X6.0827Y-6.2402
X6.1063Y-3.6358
X6.1063Y-6.2087
X6.1102Y-6.0039
X6.1358Y-4.3268
X6.1811Y-6.0531
X6.2077Y-6.0823
X6.2087Y-5.063
X6.2293Y-5.1555
X6.2402Y-6.1811
X6.2431Y-3.6386
X6.248Y-3.0984
X6.2923Y-5.2421
X6.2992Y-3.6339
X6.3375Y-6.0817
X6.3435Y-3.6909
X6.3465Y-3.6378
X6.3484Y-6.185
X6.3642Y-6.1348
X6.3651Y-3.7332
X6.3701Y-5.0827
X6.3878Y-6.0
X6.4013Y-6.1125
X6.4715Y-6.2195
X6.5118Y-3.6299
X6.5787Y-3.5886
X6.5945Y-6.2992
X7.4213Y-4.7638
X7.4862Y-4.2874
X7.5984Y-3.9961
X7.6311Y-4.45
X7.687Y-4.5472
X7.6969Y-4.374
X7.815Y-4.4016
X7.9862Y-4.2884
X8.1053Y-4.4488
X8.1457Y-4.4055
X8.2264Y-4.4213
T2
X7.99Y-3.9764
X8.09Y-4.0764
X8.19Y-3.9764
T3
X7.2638Y-4.6683
X7.2638Y-4.7683
X7.2638Y-4.8683
X7.2638Y-4.9683
X7.2638Y-5.0683
X7.2638Y-5.1683
X7.2638Y-5.2683
X7.2638Y-5.3683
X7.2638Y-5.4683
X7.2638Y-5.5683
X7.3415Y-3.9433
X7.3415Y-4.0433
X7.3638Y-4.5683
X7.3638Y-4.6683
X7.3638Y-4.7683
X7.3638Y-4.8683
X7.3638Y-4.9683
X7.3638Y-5.0683
X7.3638Y-5.1683
X7.3638Y-5.2683
X7.3638Y-5.3683
X7.3638Y-5.4683
X7.3638Y-5.5683
X7.3638Y-5.6683
X7.4415Y-3.9433
X7.4415Y-4.0433
X7.5415Y-3.9433
X7.5415Y-4.0433
X7.7559Y-3.4921
X7.7559Y-3.5921
X7.7559Y-3.6921
X7.7559Y-3.7921
X7.7559Y-3.8921
X7.7559Y-3.9921
X8.1496Y-4.5679
X8.1496Y-4.6679
X8.1496Y-4.7679
X8.1496Y-4.8679
X8.1496Y-4.9679
X8.1496Y-5.0679
X8.1496Y-5.1679
X8.1496Y-5.2679
X8.1496Y-5.3679
X8.1496Y-5.4679
X8.1496Y-5.5679
X8.1496Y-5.6679
X8.15Y-5.8179
X8.2496Y-4.6679
X8.2496Y-4.7679
X8.2496Y-4.8679
X8.2496Y-4.9679
X8.2496Y-5.0679
X8.2496Y-5.1679
X8.2496Y-5.2679
X8.2496Y-5.3679
X8.2496Y-5.4679
X8.2496Y-5.5679
X8.25Y-5.8179
T3
G00X7.5787Y-5.561
M15
G01X7.5787Y-5.6201
M16
G05
G00X7.7165Y-5.315
M15
G01X7.7953Y-5.315
M16
G05
G00X7.7303Y-5.5512
M15
G01X7.7815Y-5.5512
M16
G05
G00X7.9331Y-5.561
M15
G01X7.9331Y-5.6201
M16
G05
T0
M30
