%TF.GenerationSoftware,KiCad,Pcbnew,(6.0.7-1)-1*%
%TF.CreationDate,2022-09-29T14:19:46-06:00*%
%TF.ProjectId,starman,73746172-6d61-46e2-9e6b-696361645f70,rev?*%
%TF.SameCoordinates,Original*%
%TF.FileFunction,Copper,L4,Bot*%
%TF.FilePolarity,Positive*%
%FSLAX46Y46*%
G04 Gerber Fmt 4.6, Leading zero omitted, Abs format (unit mm)*
G04 Created by KiCad (PCBNEW (6.0.7-1)-1) date 2022-09-29 14:19:46*
%MOMM*%
%LPD*%
G01*
G04 APERTURE LIST*
%TA.AperFunction,ComponentPad*%
%ADD10C,1.260000*%
%TD*%
%TA.AperFunction,ComponentPad*%
%ADD11R,1.700000X1.700000*%
%TD*%
%TA.AperFunction,ComponentPad*%
%ADD12O,1.700000X1.700000*%
%TD*%
%TA.AperFunction,ComponentPad*%
%ADD13O,2.000000X3.500000*%
%TD*%
%TA.AperFunction,ComponentPad*%
%ADD14O,3.300000X2.000000*%
%TD*%
%TA.AperFunction,ComponentPad*%
%ADD15R,4.000000X2.000000*%
%TD*%
%TA.AperFunction,ViaPad*%
%ADD16C,0.500000*%
%TD*%
%TA.AperFunction,Conductor*%
%ADD17C,0.150000*%
%TD*%
%TA.AperFunction,Conductor*%
%ADD18C,0.200000*%
%TD*%
%TA.AperFunction,Conductor*%
%ADD19C,0.500000*%
%TD*%
G04 APERTURE END LIST*
D10*
%TO.P,RV1,1,1*%
%TO.N,/Expansion Module/ext_SOUND*%
X208025000Y-101000000D03*
%TO.P,RV1,2,2*%
%TO.N,Net-(C35-Pad2)*%
X205485000Y-103540000D03*
%TO.P,RV1,3,3*%
%TO.N,GNDA*%
X202945000Y-101000000D03*
%TD*%
D11*
%TO.P,J6,1,Pin_1*%
%TO.N,VCC*%
X207000000Y-116025000D03*
D12*
%TO.P,J6,2,Pin_2*%
%TO.N,unconnected-(J6-Pad2)*%
X207000000Y-118565000D03*
%TO.P,J6,3,Pin_3*%
%TO.N,unconnected-(J6-Pad3)*%
X207000000Y-121105000D03*
%TO.P,J6,4,Pin_4*%
%TO.N,/Expansion Module/ext_MUTE*%
X207000000Y-123645000D03*
%TO.P,J6,5,Pin_5*%
%TO.N,/Expansion Module/ext_GPIO1*%
X207000000Y-126185000D03*
%TO.P,J6,6,Pin_6*%
%TO.N,/Expansion Module/ext_GPIO2*%
X207000000Y-128725000D03*
%TO.P,J6,7,Pin_7*%
%TO.N,/Expansion Module/ext_GPIO3*%
X207000000Y-131265000D03*
%TO.P,J6,8,Pin_8*%
%TO.N,/Expansion Module/ext_GPIO4*%
X207000000Y-133805000D03*
%TO.P,J6,9,Pin_9*%
%TO.N,/Expansion Module/ext_GPIO5*%
X207000000Y-136345000D03*
%TO.P,J6,10,Pin_10*%
%TO.N,/Expansion Module/ext_GPIO6*%
X207000000Y-138885000D03*
%TO.P,J6,11,Pin_11*%
%TO.N,/Expansion Module/ext_GPIO7*%
X207000000Y-141425000D03*
%TO.P,J6,12,Pin_12*%
%TO.N,/Expansion Module/ext_GPIO8*%
X207000000Y-143965000D03*
%TD*%
D13*
%TO.P,J10,MP,MountPin*%
%TO.N,GNDA*%
X201500000Y-142000000D03*
X192500000Y-142000000D03*
D14*
%TO.P,J10,2*%
X197000000Y-141000000D03*
D15*
%TO.P,J10,1*%
%TO.N,VCC*%
X197000000Y-135000000D03*
%TD*%
D11*
%TO.P,J9,1,Pin_1*%
%TO.N,+5VA*%
X184500000Y-118575000D03*
D12*
%TO.P,J9,2,Pin_2*%
%TO.N,/Expansion Module/ext_GPIO9*%
X184500000Y-121115000D03*
%TO.P,J9,3,Pin_3*%
%TO.N,/Expansion Module/ext_GPIO10*%
X184500000Y-123655000D03*
%TO.P,J9,4,Pin_4*%
%TO.N,/Expansion Module/ext_GPIO11*%
X184500000Y-126195000D03*
%TO.P,J9,5,Pin_5*%
%TO.N,/Expansion Module/ext_GPIO12*%
X184500000Y-128735000D03*
%TO.P,J9,6,Pin_6*%
%TO.N,/Expansion Module/ext_GPIO13*%
X184500000Y-131275000D03*
%TO.P,J9,7,Pin_7*%
%TO.N,/Expansion Module/ext_GPIO14*%
X184500000Y-133815000D03*
%TO.P,J9,8,Pin_8*%
%TO.N,/Expansion Module/ext_GPIO15*%
X184500000Y-136355000D03*
%TO.P,J9,9,Pin_9*%
%TO.N,/Expansion Module/ext_GPIO16*%
X184500000Y-138895000D03*
%TO.P,J9,10,Pin_10*%
%TO.N,GNDA*%
X184500000Y-141435000D03*
%TD*%
D11*
%TO.P,J8,1,Pin_1*%
%TO.N,+3.3VA*%
X187040000Y-116035000D03*
D12*
%TO.P,J8,2,Pin_2*%
%TO.N,GNDA*%
X187040000Y-118575000D03*
%TO.P,J8,3,Pin_3*%
%TO.N,/Expansion Module/ext_GPIO9*%
X187040000Y-121115000D03*
%TO.P,J8,4,Pin_4*%
%TO.N,/Expansion Module/ext_GPIO10*%
X187040000Y-123655000D03*
%TO.P,J8,5,Pin_5*%
%TO.N,/Expansion Module/ext_GPIO11*%
X187040000Y-126195000D03*
%TO.P,J8,6,Pin_6*%
%TO.N,/Expansion Module/ext_GPIO12*%
X187040000Y-128735000D03*
%TO.P,J8,7,Pin_7*%
%TO.N,/Expansion Module/ext_GPIO13*%
X187040000Y-131275000D03*
%TO.P,J8,8,Pin_8*%
%TO.N,/Expansion Module/ext_GPIO14*%
X187040000Y-133815000D03*
%TO.P,J8,9,Pin_9*%
%TO.N,/Expansion Module/ext_GPIO15*%
X187040000Y-136355000D03*
%TO.P,J8,10,Pin_10*%
%TO.N,/Expansion Module/ext_GPIO16*%
X187040000Y-138895000D03*
%TO.P,J8,11,Pin_11*%
%TO.N,+5VA*%
X187040000Y-141435000D03*
%TO.P,J8,12,Pin_12*%
%TO.N,GNDA*%
X187040000Y-143975000D03*
%TD*%
D11*
%TO.P,J7,1,Pin_1*%
%TO.N,+3.3VA*%
X209540000Y-118565000D03*
D12*
%TO.P,J7,2,Pin_2*%
%TO.N,/Expansion Module/ext_GPIO1*%
X209540000Y-121105000D03*
%TO.P,J7,3,Pin_3*%
%TO.N,/Expansion Module/ext_GPIO2*%
X209540000Y-123645000D03*
%TO.P,J7,4,Pin_4*%
%TO.N,/Expansion Module/ext_GPIO3*%
X209540000Y-126185000D03*
%TO.P,J7,5,Pin_5*%
%TO.N,/Expansion Module/ext_GPIO4*%
X209540000Y-128725000D03*
%TO.P,J7,6,Pin_6*%
%TO.N,/Expansion Module/ext_GPIO5*%
X209540000Y-131265000D03*
%TO.P,J7,7,Pin_7*%
%TO.N,/Expansion Module/ext_GPIO6*%
X209540000Y-133805000D03*
%TO.P,J7,8,Pin_8*%
%TO.N,/Expansion Module/ext_GPIO7*%
X209540000Y-136345000D03*
%TO.P,J7,9,Pin_9*%
%TO.N,/Expansion Module/ext_GPIO8*%
X209540000Y-138885000D03*
%TO.P,J7,10,Pin_10*%
%TO.N,GNDA*%
X209540000Y-141425000D03*
%TD*%
D11*
%TO.P,J5,1,Pin_1*%
%TO.N,/Expansion Module/ext_GPIO0*%
X186475000Y-102700000D03*
D12*
%TO.P,J5,2,Pin_2*%
%TO.N,/Expansion Module/ext_RXD*%
X186475000Y-100160000D03*
%TO.P,J5,3,Pin_3*%
%TO.N,GNDA*%
X189015000Y-102700000D03*
%TO.P,J5,4,Pin_4*%
%TO.N,/Expansion Module/ext_TXD*%
X189015000Y-100160000D03*
%TO.P,J5,5,Pin_5*%
%TO.N,unconnected-(J5-Pad5)*%
X191555000Y-102700000D03*
%TO.P,J5,6,Pin_6*%
%TO.N,/Expansion Module/ext_EN*%
X191555000Y-100160000D03*
%TD*%
D11*
%TO.P,J4,1,Pin_1*%
%TO.N,/Expansion Module/ext_RXD*%
X197000000Y-88700000D03*
D12*
%TO.P,J4,2,Pin_2*%
%TO.N,/Expansion Module/ext_TXD*%
X197000000Y-91240000D03*
%TO.P,J4,3,Pin_3*%
%TO.N,/Expansion Module/ext_GPIO0*%
X197000000Y-93780000D03*
%TO.P,J4,4,Pin_4*%
%TO.N,/Expansion Module/ext_EN*%
X197000000Y-96320000D03*
%TO.P,J4,5,Pin_5*%
%TO.N,/Expansion Module/ext_SOUND*%
X197000000Y-98860000D03*
%TO.P,J4,6,Pin_6*%
%TO.N,GNDA*%
X197000000Y-101400000D03*
%TD*%
D11*
%TO.P,J11,1,Pin_1*%
%TO.N,/Expansion Module/ext_GPIO1*%
X207010000Y-147775000D03*
D12*
%TO.P,J11,2,Pin_2*%
%TO.N,GNDA*%
X209550000Y-147775000D03*
%TD*%
D16*
%TO.N,GND*%
X123200000Y-87400000D03*
%TO.N,/SCLK*%
X138782049Y-117724500D03*
X61390497Y-91761257D03*
X75530221Y-117679931D03*
X73800000Y-119300000D03*
X109650000Y-137700000D03*
X157000000Y-153750000D03*
X155100000Y-157700000D03*
X154181575Y-88833331D03*
X161200000Y-92400000D03*
X59174500Y-154754877D03*
X111550000Y-82275980D03*
X108600500Y-47839623D03*
X104832435Y-137650264D03*
X100939600Y-95504000D03*
%TO.N,+3V3*%
X81917600Y-79924000D03*
X155850000Y-109900000D03*
X89275000Y-73250000D03*
X82457200Y-108950000D03*
X80038000Y-120411600D03*
X82862500Y-115158900D03*
X60886400Y-102631600D03*
X158225000Y-130950000D03*
X62816800Y-155108000D03*
X106937482Y-84810253D03*
X112825000Y-45325000D03*
X62750000Y-152000000D03*
X115600000Y-110025000D03*
X162250000Y-152400000D03*
X142150000Y-109975000D03*
X162592585Y-155258207D03*
X104670000Y-87620000D03*
X74650000Y-139950000D03*
X89600000Y-88200000D03*
X159825000Y-133150000D03*
%TO.N,+5V*%
X111025000Y-122500000D03*
X106000000Y-112000000D03*
X151775000Y-121900000D03*
X52200000Y-90000000D03*
X115730000Y-100670000D03*
X84750000Y-101850000D03*
X103300000Y-94000000D03*
X103000000Y-123500000D03*
X147814444Y-122910556D03*
X82750000Y-92950000D03*
X165400000Y-92200000D03*
X114025000Y-122450000D03*
X100500000Y-124500000D03*
X80650000Y-95100000D03*
X111550000Y-100550000D03*
X131000000Y-112000000D03*
X87500000Y-109500000D03*
X118650000Y-80400000D03*
X127500000Y-123500000D03*
X82000000Y-88025000D03*
X108750000Y-99400000D03*
X55000000Y-92000000D03*
X115800358Y-92000000D03*
X97500000Y-112000000D03*
X89300000Y-102300000D03*
X107500000Y-107000000D03*
X167100000Y-91150000D03*
X120800000Y-105200000D03*
X133300000Y-123500000D03*
X83575000Y-83250000D03*
X114930000Y-81670000D03*
X146000000Y-128200000D03*
X117500000Y-112000000D03*
X150220000Y-93360000D03*
X153850000Y-93370000D03*
X126100000Y-120500000D03*
X105300000Y-101825000D03*
%TO.N,/GPIO1*%
X118100000Y-113450000D03*
X90950000Y-90250000D03*
X121650000Y-124450000D03*
%TO.N,/GPIO2*%
X118350000Y-127250000D03*
X91450000Y-91900000D03*
%TO.N,/GPIO3*%
X118950000Y-131100000D03*
X91250000Y-93000000D03*
%TO.N,/GPIO4*%
X117600000Y-132300000D03*
X91450000Y-94000000D03*
%TO.N,/MISO*%
X155100000Y-92349500D03*
X102425000Y-101200000D03*
%TO.N,/MOSI*%
X110875000Y-83450000D03*
X100152200Y-94767400D03*
%TO.N,/RXD*%
X105500000Y-91000000D03*
X111200000Y-90000000D03*
%TO.N,/GPIO5*%
X117674500Y-135050000D03*
X91800000Y-95150000D03*
%TO.N,/GPIO6*%
X117200000Y-136600000D03*
X90900000Y-95100000D03*
%TO.N,/GPIO7*%
X113350000Y-135425000D03*
X119575000Y-140875000D03*
X91125000Y-96050000D03*
%TO.N,/GPIO8*%
X90600000Y-96700000D03*
X117325000Y-142825000D03*
X112700000Y-135225000D03*
%TO.N,/GPIO9*%
X89580622Y-97172607D03*
X101275000Y-119675000D03*
%TO.N,/GPIO10*%
X89802227Y-98573273D03*
X100575000Y-119675000D03*
%TO.N,/GPIO11*%
X89066704Y-98508796D03*
X100249500Y-122450000D03*
%TO.N,/GPIO12*%
X89425500Y-100988987D03*
X100375000Y-128675000D03*
%TO.N,/GPIO13*%
X99175000Y-130700000D03*
X90800000Y-102150000D03*
%TO.N,/GPIO14*%
X96125000Y-102900000D03*
X96750000Y-131800000D03*
%TO.N,/GPIO15*%
X98275000Y-131650000D03*
X96825000Y-102699500D03*
%TO.N,/GPIO16*%
X98775000Y-136650000D03*
X97550000Y-102225000D03*
%TO.N,+3.3VA*%
X205874500Y-113000000D03*
X193830000Y-113030000D03*
%TO.N,GNDA*%
X202850000Y-108925000D03*
X206900000Y-111900000D03*
X198500000Y-111800000D03*
X193000000Y-101500000D03*
X195500000Y-111100000D03*
%TO.N,+5VA*%
X188500000Y-121000000D03*
X195250000Y-115500000D03*
%TO.N,/GPIO0*%
X92800000Y-89100000D03*
X111100000Y-94900000D03*
%TO.N,/EN*%
X107800000Y-93850000D03*
X106150000Y-90050000D03*
X118560000Y-86510000D03*
%TO.N,Net-(R12-Pad2)*%
X62223023Y-155423023D03*
X61986444Y-152786444D03*
%TO.N,Net-(R4-Pad1)*%
X119550000Y-82050000D03*
X108575000Y-93225000D03*
X95849564Y-95587087D03*
%TO.N,Net-(R5-Pad1)*%
X96308832Y-96046355D03*
X122200000Y-82050000D03*
%TO.N,Net-(R6-Pad2)*%
X96831239Y-96568761D03*
X124950000Y-82050000D03*
%TO.N,Net-(R7-Pad2)*%
X127750000Y-82050000D03*
X98531622Y-98110576D03*
%TO.N,GND*%
X79300000Y-87550000D03*
X94625000Y-106475000D03*
X52600000Y-160000000D03*
X91725000Y-69025000D03*
X138574500Y-114975653D03*
X108181250Y-45250000D03*
X126500000Y-90700000D03*
X95000000Y-87100000D03*
X117875000Y-105650000D03*
X59925000Y-147650000D03*
X157674500Y-154489270D03*
X77525000Y-141875000D03*
X57050194Y-154997289D03*
X105600000Y-100200000D03*
X161674500Y-94822204D03*
X62600000Y-80000000D03*
X77600000Y-115650000D03*
X108700000Y-88550000D03*
X78960523Y-114439477D03*
X145860000Y-91010000D03*
X117200000Y-70000000D03*
X145840000Y-88730000D03*
X158700000Y-78700000D03*
X98339890Y-142024500D03*
X111350000Y-121200000D03*
X132150000Y-104150000D03*
X95500000Y-118600000D03*
X122200000Y-91899500D03*
X108256250Y-135306250D03*
X151330000Y-131340000D03*
X112225000Y-84400000D03*
X60925000Y-95500000D03*
X167500000Y-160000000D03*
X67500000Y-130000000D03*
X107375000Y-70025000D03*
X102800000Y-50000000D03*
X161800000Y-129100000D03*
%TO.N,/LE*%
X139600000Y-118400000D03*
X59128269Y-157681056D03*
X73182321Y-118971706D03*
X155200000Y-152500000D03*
X110850000Y-81650000D03*
X64550000Y-91400000D03*
X160000000Y-92300000D03*
X154070000Y-90340000D03*
X99250000Y-95850000D03*
X108600500Y-48700000D03*
X110824500Y-71774501D03*
X154500000Y-158500000D03*
X74546236Y-117649834D03*
X147325000Y-115525000D03*
X109400000Y-138800000D03*
X104350000Y-138350000D03*
%TO.N,Net-(R14-Pad2)*%
X161650000Y-155825000D03*
X160972563Y-154475000D03*
%TO.N,Net-(U3-Pad22)*%
X64535523Y-92285523D03*
X61325001Y-92925001D03*
X109800000Y-49750000D03*
%TO.N,Net-(U5-Pad22)*%
X57800000Y-155425000D03*
X72350000Y-118600000D03*
X80800000Y-116700000D03*
%TO.N,Net-(U6-Pad22)*%
X61450000Y-157325000D03*
X108750000Y-137050000D03*
%TO.N,Net-(U10-Pad2)*%
X144277876Y-117674011D03*
X161124011Y-93750000D03*
%TO.N,Net-(U2-Pad22)*%
X109525000Y-51500000D03*
X108525000Y-82250000D03*
%TO.N,Net-(U4-Pad22)*%
X78675500Y-117746849D03*
X60424213Y-93205159D03*
%TO.N,Net-(U7-Pad22)*%
X158500000Y-157000000D03*
X114175000Y-137700000D03*
%TO.N,Net-(U8-Pad22)*%
X161250000Y-157100000D03*
X140120957Y-117213755D03*
%TO.N,/PWCLK1*%
X58956000Y-91557200D03*
X88166000Y-70221200D03*
X111551056Y-48776056D03*
X105475000Y-79775000D03*
%TO.N,/PWCLK2*%
X110850000Y-138400000D03*
X81358800Y-118379600D03*
X64350000Y-158350000D03*
X80950000Y-141600000D03*
%TO.N,/PWCLK3*%
X158574800Y-92420800D03*
X164375000Y-157975000D03*
X157700500Y-128600000D03*
X144376127Y-118446084D03*
%TO.N,/Expansion Module/ext_EN*%
X190150000Y-108900000D03*
%TO.N,Net-(D39-Pad1)*%
X107536444Y-85061445D03*
X109400000Y-82925000D03*
%TO.N,Net-(D65-Pad1)*%
X136400000Y-106700000D03*
X139100000Y-106700000D03*
%TO.N,/Expansion Module/ext_MUTE*%
X208950000Y-112300000D03*
%TO.N,/MUTE*%
X96700000Y-101100000D03*
X112100002Y-116700000D03*
%TO.N,/STATUS*%
X103400000Y-95900000D03*
X129300000Y-89300000D03*
%TD*%
D17*
%TO.N,+5V*%
X115730000Y-100670000D02*
X116270000Y-100670000D01*
X116270000Y-100670000D02*
X120800000Y-105200000D01*
D18*
%TO.N,/SCLK*%
X59225000Y-154704377D02*
X59225000Y-136178427D01*
X107996331Y-47828074D02*
X108588951Y-47828074D01*
X59174500Y-154754877D02*
X59225000Y-154704377D01*
X73822545Y-119322545D02*
X73800000Y-119300000D01*
X73822545Y-120053032D02*
X73822545Y-119322545D01*
X59810787Y-134764213D02*
X73238714Y-121336286D01*
X75530221Y-117679931D02*
X75006109Y-118204043D01*
X138782049Y-117724500D02*
X138782049Y-117250058D01*
X161110786Y-92439214D02*
X161150000Y-92400000D01*
X157000000Y-153750000D02*
X158664214Y-152085786D01*
X138820805Y-117763256D02*
X138782049Y-117724500D01*
X159045845Y-151295236D02*
X159045845Y-136597030D01*
X101525387Y-93774613D02*
X110964214Y-84335786D01*
X61380910Y-154169090D02*
X77363725Y-138186275D01*
X113627938Y-139049511D02*
X134196084Y-139049511D01*
X161019555Y-92533187D02*
X161110786Y-92439214D01*
X140177721Y-117763256D02*
X138820805Y-117763256D01*
X160628926Y-93209795D02*
X160729155Y-92967813D01*
X65160786Y-89964214D02*
X106713077Y-48411923D01*
X62014702Y-92385462D02*
X61390497Y-91761257D01*
X109650000Y-137700000D02*
X110621573Y-137700000D01*
X74229042Y-118204042D02*
X63186275Y-107161275D01*
X158664214Y-152085786D02*
X158755445Y-151991813D01*
X160729155Y-92967813D02*
X160860111Y-92740983D01*
X139783452Y-116542353D02*
X146690439Y-116542353D01*
X147714057Y-115992900D02*
X159975352Y-103731605D01*
X160860111Y-92740983D02*
X161019555Y-92533187D01*
X112035787Y-138285787D02*
X112213725Y-138463725D01*
X78777938Y-137600489D02*
X104782660Y-137600489D01*
X108588951Y-47828074D02*
X108600500Y-47839623D01*
X61390497Y-91761257D02*
X62015967Y-91135787D01*
X160561139Y-93462790D02*
X160628926Y-93209795D01*
X135610298Y-139635298D02*
X153089214Y-157114214D01*
X108986196Y-47839623D02*
X108600500Y-47839623D01*
X158755445Y-151991813D02*
X158914889Y-151784017D01*
X111550000Y-82921573D02*
X111550000Y-82275980D01*
X63430181Y-90550000D02*
X63746573Y-90550000D01*
X111625000Y-82200980D02*
X111625000Y-50478427D01*
X62600489Y-105747062D02*
X62600489Y-93799676D01*
X111550000Y-82275980D02*
X111625000Y-82200980D01*
X161150000Y-92400000D02*
X161200000Y-92400000D01*
X59174500Y-154754877D02*
X59966696Y-154754877D01*
X111039213Y-49064213D02*
X110400409Y-48425409D01*
X160561139Y-102317391D02*
X160561139Y-93462790D01*
X158567710Y-135442710D02*
X141390680Y-118265680D01*
X100939600Y-95504000D02*
X100939600Y-95188827D01*
X154503427Y-157700000D02*
X155100000Y-157700000D01*
X104782660Y-137600489D02*
X104832435Y-137650264D01*
X74652556Y-118350489D02*
X74582596Y-118350489D01*
X74652556Y-118350461D02*
G75*
G03*
X75006109Y-118204043I44J499961D01*
G01*
X158914874Y-151784008D02*
G75*
G03*
X159045845Y-151295236I-846674J488808D01*
G01*
X147714045Y-115992888D02*
G75*
G02*
X146690439Y-116542352I-1429245J1434388D01*
G01*
X74582596Y-118350495D02*
G75*
G02*
X74229042Y-118204042I4J499995D01*
G01*
X65160800Y-89964228D02*
G75*
G02*
X63746573Y-90550000I-1414200J1414228D01*
G01*
X140177721Y-117763230D02*
G75*
G02*
X141390680Y-118265680I-21J-1715370D01*
G01*
X159045826Y-136597030D02*
G75*
G03*
X158567709Y-135442711I-1632426J30D01*
G01*
X73822564Y-120053033D02*
G75*
G02*
X73238714Y-121336286I-2013464J141633D01*
G01*
X62600509Y-93799676D02*
G75*
G03*
X62014702Y-92385462I-2000009J-24D01*
G01*
X61380907Y-154169087D02*
G75*
G02*
X59966696Y-154754877I-1414207J1414187D01*
G01*
X110400406Y-48425412D02*
G75*
G03*
X108986196Y-47839623I-1414206J-1414188D01*
G01*
X138928527Y-116896535D02*
G75*
G03*
X138782049Y-117250058I353473J-353565D01*
G01*
X63186254Y-107161296D02*
G75*
G02*
X62600489Y-105747062I1414246J1414196D01*
G01*
X135610304Y-139635292D02*
G75*
G03*
X134196084Y-139049511I-1414204J-1414208D01*
G01*
X112035801Y-138285773D02*
G75*
G03*
X110621573Y-137700000I-1414201J-1414227D01*
G01*
X160561121Y-102317391D02*
G75*
G02*
X159975352Y-103731605I-2000021J-9D01*
G01*
X101525373Y-93774599D02*
G75*
G03*
X100939600Y-95188827I1414227J-1414201D01*
G01*
X77363704Y-138186254D02*
G75*
G02*
X78777938Y-137600489I1414196J-1414246D01*
G01*
X111549980Y-82921573D02*
G75*
G02*
X110964213Y-84335785I-1999980J-27D01*
G01*
X111039227Y-49064199D02*
G75*
G02*
X111625000Y-50478427I-1414227J-1414201D01*
G01*
X112213704Y-138463746D02*
G75*
G03*
X113627938Y-139049511I1414196J1414246D01*
G01*
X59810773Y-134764199D02*
G75*
G03*
X59225000Y-136178427I1414227J-1414201D01*
G01*
X139783452Y-116542319D02*
G75*
G03*
X138928497Y-116896505I48J-1209081D01*
G01*
X153089200Y-157114228D02*
G75*
G03*
X154503427Y-157700000I1414200J1414228D01*
G01*
X63430181Y-90549987D02*
G75*
G03*
X62015967Y-91135787I19J-2000013D01*
G01*
X107996331Y-47828074D02*
G75*
G03*
X106713077Y-48411923I141569J-2013326D01*
G01*
D17*
%TO.N,+5V*%
X101500000Y-123500000D02*
X103000000Y-123500000D01*
X84750000Y-101850000D02*
X87500000Y-104600000D01*
X110400000Y-99400000D02*
X108750000Y-99400000D01*
X126100000Y-120500000D02*
X126100000Y-122100000D01*
X133300000Y-123500000D02*
X141300000Y-123500000D01*
X82000000Y-84825000D02*
X82000000Y-88025000D01*
X150764444Y-122910556D02*
X147814444Y-122910556D01*
X83575000Y-83250000D02*
X82000000Y-84825000D01*
X151775000Y-121900000D02*
X150764444Y-122910556D01*
X116700000Y-99700000D02*
X116700000Y-92899642D01*
X116700000Y-92899642D02*
X115800358Y-92000000D01*
X111550000Y-100550000D02*
X110400000Y-99400000D01*
X114930000Y-81670000D02*
X116200000Y-80400000D01*
X116200000Y-80400000D02*
X118650000Y-80400000D01*
X141300000Y-123500000D02*
X146000000Y-128200000D01*
X87500000Y-104600000D02*
X87500000Y-109500000D01*
X100500000Y-124500000D02*
X101500000Y-123500000D01*
X115730000Y-100670000D02*
X116700000Y-99700000D01*
X126100000Y-122100000D02*
X127500000Y-123500000D01*
X55000000Y-92000000D02*
X53000000Y-90000000D01*
X105300000Y-101800000D02*
X105300000Y-101825000D01*
X107700000Y-99400000D02*
X105300000Y-101800000D01*
X108750000Y-99400000D02*
X107700000Y-99400000D01*
X53000000Y-90000000D02*
X52200000Y-90000000D01*
%TO.N,/GPIO2*%
X117750009Y-113823568D02*
X117750009Y-126650009D01*
X117749999Y-113823558D02*
X117750009Y-113823568D01*
X91450000Y-92100000D02*
X101701468Y-102351468D01*
X117397174Y-113470729D02*
X117750000Y-113823555D01*
X117750000Y-113823555D02*
X117749999Y-113823558D01*
X117750009Y-126650009D02*
X118350000Y-127250000D01*
X106277909Y-102351468D02*
X117397169Y-113470728D01*
X101701468Y-102351468D02*
X106277909Y-102351468D01*
X117397169Y-113470728D02*
X117397174Y-113470729D01*
X91450000Y-91900000D02*
X91450000Y-92100000D01*
%TO.N,/GPIO3*%
X117164437Y-113661581D02*
X117216778Y-113740093D01*
X91250000Y-93000000D02*
X91625001Y-93000000D01*
X117216778Y-113740093D02*
X117249492Y-113746636D01*
X101577407Y-102650979D02*
X106153835Y-102650979D01*
X117273112Y-113770239D02*
X117450489Y-113947616D01*
X94128878Y-95202450D02*
X101577407Y-102650979D01*
X117450489Y-113947616D02*
X117450489Y-129600489D01*
X117450489Y-129600489D02*
X118950000Y-131100000D01*
X93827451Y-95202450D02*
X94128878Y-95202450D01*
X117249492Y-113746636D02*
X117273095Y-113770239D01*
X91625001Y-93000000D02*
X93827451Y-95202450D01*
X106153835Y-102650979D02*
X117164437Y-113661581D01*
X117273095Y-113770239D02*
X117273112Y-113770239D01*
%TO.N,/GPIO4*%
X101653353Y-102950493D02*
X105977422Y-102950493D01*
X101653349Y-102950489D02*
X101653353Y-102950493D01*
X91450000Y-94000000D02*
X91776424Y-94000000D01*
X117149022Y-114122093D02*
X117149022Y-131849022D01*
X105977422Y-102950493D02*
X117149022Y-114122093D01*
X91776424Y-94000000D02*
X93278366Y-95501942D01*
X93278388Y-95501960D02*
X94004816Y-95501960D01*
X94004816Y-95501960D02*
X101453346Y-102950490D01*
X93278370Y-95501942D02*
X93278388Y-95501960D01*
X117149022Y-131849022D02*
X117600000Y-132300000D01*
X101453346Y-102950490D02*
X101653349Y-102950489D01*
X93278366Y-95501942D02*
X93278370Y-95501942D01*
D18*
%TO.N,/MISO*%
X102577566Y-101189157D02*
X102700527Y-101164698D01*
X102425000Y-101200000D02*
X102490282Y-101198660D01*
X145386595Y-92349500D02*
X155100000Y-92349500D01*
X102991813Y-101044040D02*
X103091752Y-100977261D01*
X114132317Y-91350000D02*
X143257166Y-91350000D01*
X102794324Y-101136244D02*
X102905368Y-101090247D01*
X103167517Y-100915082D02*
X111742849Y-92339750D01*
X144456979Y-91846979D02*
X144657498Y-92047498D01*
X102991806Y-101044029D02*
G75*
G02*
X102905368Y-101090247I-277806J415629D01*
G01*
X102700526Y-101164693D02*
G75*
G03*
X102794324Y-101136244I-97526J490393D01*
G01*
X103091754Y-100977263D02*
G75*
G03*
X103167516Y-100915081I-277754J415663D01*
G01*
X143257166Y-91350027D02*
G75*
G02*
X144456979Y-91846979I34J-1696773D01*
G01*
X145386595Y-92349503D02*
G75*
G02*
X144657498Y-92047498I5J1031103D01*
G01*
X111742844Y-92339745D02*
G75*
G02*
X114132317Y-91350000I2389456J-2389455D01*
G01*
X102577566Y-101189155D02*
G75*
G02*
X102490282Y-101198659I-97566J490455D01*
G01*
%TO.N,/MOSI*%
X110872094Y-83452906D02*
X110875000Y-83450000D01*
X100152200Y-94767400D02*
X100152200Y-94655598D01*
X110815246Y-83452906D02*
X110872094Y-83452906D01*
X100445093Y-93948491D02*
X110582607Y-83810977D01*
X100445094Y-93948492D02*
G75*
G03*
X100152200Y-94655598I707106J-707108D01*
G01*
X110815253Y-83452909D02*
G75*
G02*
X110582607Y-83810977I-998453J394109D01*
G01*
D17*
%TO.N,/RXD*%
X111200000Y-90000000D02*
X111200000Y-90200000D01*
X110200000Y-91200000D02*
X105700000Y-91200000D01*
X111200000Y-90200000D02*
X110200000Y-91200000D01*
X105700000Y-91200000D02*
X105500000Y-91000000D01*
%TO.N,/GPIO5*%
X113550000Y-115493867D02*
X113550000Y-130201428D01*
X117674500Y-134325928D02*
X117674500Y-135050000D01*
X113550000Y-130201428D02*
X117674500Y-134325928D01*
X92451467Y-95801467D02*
X93857602Y-95801469D01*
X93857602Y-95801469D02*
X113550000Y-115493867D01*
X91800000Y-95150000D02*
X92451467Y-95801467D01*
%TO.N,/GPIO6*%
X117200000Y-134275000D02*
X117200000Y-136600000D01*
X93733540Y-96100979D02*
X113250489Y-115617928D01*
X113250489Y-130325489D02*
X117200000Y-134275000D01*
X113250489Y-115617928D02*
X113250489Y-130325489D01*
X90900000Y-95100000D02*
X91900978Y-96100978D01*
X91900978Y-96100978D02*
X93733540Y-96100979D01*
%TO.N,/GPIO7*%
X91125000Y-96050000D02*
X91475489Y-96400489D01*
X93609478Y-96400489D02*
X112925000Y-115716011D01*
X112925000Y-134550000D02*
X113350000Y-134975000D01*
X112925000Y-115716011D02*
X112925000Y-134550000D01*
X113350000Y-134975000D02*
X113350000Y-135425000D01*
X91475489Y-96400489D02*
X93609478Y-96400489D01*
%TO.N,/GPIO8*%
X93423558Y-96700000D02*
X112599501Y-115875943D01*
X112599501Y-135124501D02*
X112700000Y-135225000D01*
X112599501Y-115875943D02*
X112599501Y-135124501D01*
X90600000Y-96700000D02*
X93423558Y-96700000D01*
%TO.N,/GPIO9*%
X99675000Y-107775000D02*
X99675000Y-118075000D01*
X89580622Y-97680622D02*
X99675000Y-107775000D01*
X89580622Y-97172607D02*
X89580622Y-97680622D01*
X99675000Y-118075000D02*
X101275000Y-119675000D01*
%TO.N,/GPIO10*%
X100575000Y-119675000D02*
X99375000Y-118475000D01*
X90049701Y-98573273D02*
X89802227Y-98573273D01*
X99375000Y-118475000D02*
X99375000Y-107898572D01*
X99375000Y-107898572D02*
X90049701Y-98573273D01*
%TO.N,/GPIO11*%
X99075489Y-108028345D02*
X90094918Y-99047774D01*
X100249500Y-122450000D02*
X99075489Y-121275989D01*
X99075489Y-121275989D02*
X99075489Y-108028345D01*
X90094918Y-99047774D02*
X89605682Y-99047774D01*
X89605682Y-99047774D02*
X89066704Y-98508796D01*
%TO.N,/GPIO12*%
X98775978Y-127075978D02*
X98775978Y-108152406D01*
X91612559Y-100988987D02*
X89425500Y-100988987D01*
X100375000Y-128675000D02*
X98775978Y-127075978D01*
X98775978Y-108152406D02*
X91612559Y-100988987D01*
%TO.N,/GPIO13*%
X90800000Y-102150000D02*
X92350000Y-102150000D01*
X98476467Y-130001467D02*
X99125000Y-130650000D01*
X92350000Y-102150000D02*
X98476467Y-108276467D01*
X98476467Y-108276467D02*
X98476467Y-130001467D01*
D19*
%TO.N,VCC*%
X207000000Y-116025000D02*
X204574501Y-118450499D01*
X204574501Y-129625499D02*
X199200000Y-135000000D01*
X204574501Y-118450499D02*
X204574501Y-129625499D01*
X199200000Y-135000000D02*
X197000000Y-135000000D01*
D17*
%TO.N,+3.3VA*%
X193850000Y-113050000D02*
X205824500Y-113050000D01*
X193830000Y-113030000D02*
X193850000Y-113050000D01*
X205824500Y-113050000D02*
X205874500Y-113000000D01*
%TO.N,GNDA*%
X198500000Y-111800000D02*
X198600000Y-111900000D01*
D19*
X188600000Y-117015000D02*
X188600000Y-103115000D01*
D17*
X197800000Y-111100000D02*
X195500000Y-111100000D01*
D19*
X188600000Y-103115000D02*
X189015000Y-102700000D01*
D17*
X202800000Y-111900000D02*
X206900000Y-111900000D01*
X198600000Y-111900000D02*
X202800000Y-111900000D01*
X193100000Y-101400000D02*
X197000000Y-101400000D01*
X193000000Y-101500000D02*
X193100000Y-101400000D01*
X198500000Y-111800000D02*
X197800000Y-111100000D01*
D19*
X187040000Y-118575000D02*
X188600000Y-117015000D01*
D17*
X202800000Y-108975000D02*
X202800000Y-111900000D01*
%TO.N,+5VA*%
X195250000Y-115500000D02*
X189750000Y-121000000D01*
X189750000Y-121000000D02*
X188500000Y-121000000D01*
%TO.N,Net-(R4-Pad1)*%
X119550000Y-82393867D02*
X108617899Y-93325968D01*
X119550000Y-82393867D02*
X119550000Y-82050000D01*
%TO.N,Net-(R5-Pad1)*%
X96356737Y-96094260D02*
X96308832Y-96046355D01*
X105950499Y-96549501D02*
X97483026Y-96549501D01*
X120450000Y-82050000D02*
X105950499Y-96549501D01*
X97483026Y-96549501D02*
X97027785Y-96094260D01*
X97027785Y-96094260D02*
X96356737Y-96094260D01*
X122200000Y-82050000D02*
X120450000Y-82050000D01*
%TO.N,Net-(R6-Pad2)*%
X97112977Y-96850499D02*
X96831239Y-96568761D01*
X124950000Y-82050000D02*
X124300000Y-82700000D01*
X106174501Y-96850499D02*
X97112977Y-96850499D01*
X120325000Y-82700000D02*
X106174501Y-96850499D01*
X124300000Y-82700000D02*
X120325000Y-82700000D01*
%TO.N,Net-(R7-Pad2)*%
X127750000Y-82050000D02*
X126625000Y-83175000D01*
X120375000Y-83175000D02*
X104925499Y-98624501D01*
X126625000Y-83175000D02*
X120375000Y-83175000D01*
X104925499Y-98624501D02*
X99045547Y-98624501D01*
X99045547Y-98624501D02*
X98531622Y-98110576D01*
D18*
%TO.N,/LE*%
X110824500Y-71774501D02*
X110824500Y-80947073D01*
X108954646Y-48701936D02*
X108602436Y-48701936D01*
X59128269Y-157496731D02*
X59128269Y-157681056D01*
X141110786Y-118988528D02*
X157961471Y-135839213D01*
X104350000Y-138350000D02*
X79084843Y-138350000D01*
X156271708Y-152500000D02*
X155200000Y-152500000D01*
X58943944Y-157681056D02*
X59128269Y-157496731D01*
X58499511Y-156163158D02*
X58499511Y-135935331D01*
X109714213Y-139114213D02*
X109400000Y-138800000D01*
X139600000Y-118400000D02*
X140045629Y-118400000D01*
X110780259Y-81580259D02*
X110850000Y-81650000D01*
X59085298Y-134521117D02*
X72564214Y-121042201D01*
X109907107Y-83467893D02*
X99835786Y-93539214D01*
X110238714Y-49286601D02*
X110237900Y-49285787D01*
X152939213Y-157914213D02*
X135310786Y-140285786D01*
X147325000Y-115525000D02*
X147350000Y-115525000D01*
X99250000Y-94953427D02*
X99250000Y-95850000D01*
X154500000Y-158500000D02*
X154353427Y-158500000D01*
X64550000Y-91400000D02*
X64100000Y-91400000D01*
X160015581Y-92341481D02*
X160000000Y-92325900D01*
X140863950Y-118738955D02*
X141110786Y-118985786D01*
X147350000Y-115525000D02*
X159314213Y-103560787D01*
X110088919Y-83211081D02*
X110088919Y-83228560D01*
X63835787Y-106939385D02*
X74546236Y-117649834D01*
X73150000Y-119627988D02*
X73150000Y-119004027D01*
X158380000Y-136892264D02*
X158380000Y-150603326D01*
X108602436Y-48701936D02*
X108600500Y-48700000D01*
X158055445Y-151391315D02*
X157424094Y-152022666D01*
X160000000Y-92325900D02*
X160000000Y-92300000D01*
X59128269Y-157681056D02*
X58943944Y-157681056D01*
X63250000Y-93078427D02*
X63250000Y-105525171D01*
X108598535Y-48701965D02*
X108600500Y-48700000D01*
X141110786Y-118985786D02*
X141110786Y-118988528D01*
X64806416Y-91400000D02*
X106920630Y-49285786D01*
X73150000Y-119004027D02*
X73182321Y-118971706D01*
X64550000Y-91400000D02*
X64806416Y-91400000D01*
X133896573Y-139700000D02*
X111128427Y-139700000D01*
X110557107Y-82742893D02*
X110088919Y-83211081D01*
X108203884Y-48701965D02*
X108598535Y-48701965D01*
X61032069Y-156392931D02*
X60179286Y-157245714D01*
X159900000Y-102146573D02*
X159900000Y-92814214D01*
X110824500Y-71774501D02*
X110824500Y-50700814D01*
X110780259Y-81376311D02*
X110780259Y-81580259D01*
X110850000Y-81650000D02*
X110850000Y-82035786D01*
X77670630Y-138935786D02*
X61610893Y-154995523D01*
X64100000Y-91400000D02*
X63835786Y-91664214D01*
X99249990Y-94953427D02*
G75*
G02*
X99835786Y-93539214I1999910J27D01*
G01*
X108954645Y-48701957D02*
G75*
G02*
X110237900Y-49285787I-141645J-2013543D01*
G01*
X159899980Y-102146573D02*
G75*
G02*
X159314212Y-103560786I-1999980J-27D01*
G01*
X73149991Y-119627988D02*
G75*
G02*
X72564214Y-121042201I-1999991J-12D01*
G01*
X140863937Y-118738968D02*
G75*
G03*
X140045629Y-118400000I-818337J-818332D01*
G01*
X77670608Y-138935764D02*
G75*
G02*
X79084843Y-138350000I1414192J-1414236D01*
G01*
X109907101Y-83467887D02*
G75*
G03*
X110088919Y-83228560I-802101J798087D01*
G01*
X160015585Y-92341483D02*
G75*
G03*
X159900001Y-92814214I933815J-478817D01*
G01*
X156271708Y-152500011D02*
G75*
G03*
X157424094Y-152022666I-8J1629711D01*
G01*
X59085285Y-134521104D02*
G75*
G03*
X58499511Y-135935331I1414215J-1414196D01*
G01*
X61325022Y-155685786D02*
G75*
G02*
X61610894Y-154995524I976078J86D01*
G01*
X135310800Y-140285772D02*
G75*
G03*
X133896573Y-139700000I-1414200J-1414228D01*
G01*
X110238721Y-49286594D02*
G75*
G02*
X110824500Y-50700814I-1414221J-1414206D01*
G01*
X63250020Y-93078427D02*
G75*
G02*
X63835787Y-91664215I1999980J27D01*
G01*
X158049997Y-151399997D02*
G75*
G03*
X158380000Y-150603326I-796697J796697D01*
G01*
X157939987Y-135830013D02*
G75*
G02*
X158380000Y-136892264I-1062287J-1062287D01*
G01*
X59128269Y-157681038D02*
G75*
G03*
X60179286Y-157245714I31J1486338D01*
G01*
X109714199Y-139114227D02*
G75*
G03*
X111128427Y-139700000I1414201J1414227D01*
G01*
X63250021Y-105525171D02*
G75*
G03*
X63835787Y-106939385I1999979J-29D01*
G01*
X58499546Y-156163158D02*
G75*
G03*
X59128270Y-157681055I2146554J-42D01*
G01*
X152939199Y-157914227D02*
G75*
G03*
X154353427Y-158500000I1414201J1414227D01*
G01*
X110780250Y-81376309D02*
G75*
G03*
X110824499Y-80947073I-2226350J446409D01*
G01*
X110557114Y-82742900D02*
G75*
G03*
X110850000Y-82035786I-707114J707100D01*
G01*
X108203885Y-48701976D02*
G75*
G03*
X106920630Y-49285786I141615J-2013524D01*
G01*
X61032046Y-156392908D02*
G75*
G03*
X61325000Y-155685786I-707146J707208D01*
G01*
%TO.N,Net-(U3-Pad22)*%
X64535523Y-92285523D02*
X65014477Y-92285523D01*
X65014477Y-92285523D02*
X106461791Y-50838209D01*
X109800000Y-49750000D02*
X109590938Y-49959062D01*
X107747468Y-50251955D02*
X108883831Y-50251955D01*
X107747467Y-50251934D02*
G75*
G03*
X106461791Y-50838209I141733J-2013666D01*
G01*
X109590913Y-49959037D02*
G75*
G02*
X108883831Y-50251955I-707113J707037D01*
G01*
%TO.N,Net-(U5-Pad22)*%
X57775000Y-135628427D02*
X57775000Y-155400000D01*
X72350000Y-118600000D02*
X72350000Y-119396573D01*
X57775000Y-155400000D02*
X57800000Y-155425000D01*
X71764214Y-120810786D02*
X58360787Y-134214213D01*
X71764228Y-120810800D02*
G75*
G03*
X72350000Y-119396573I-1414228J1414200D01*
G01*
X57775020Y-135628427D02*
G75*
G02*
X58360788Y-134214214I1999980J27D01*
G01*
%TO.N,Net-(U6-Pad22)*%
X79453427Y-139050000D02*
X105921573Y-139050000D01*
X61600000Y-157325000D02*
X62914214Y-156010786D01*
X107335787Y-138464213D02*
X108750000Y-137050000D01*
X61450000Y-157325000D02*
X61600000Y-157325000D01*
X63500000Y-154596573D02*
X63500000Y-154589214D01*
X63792893Y-153882107D02*
X78039214Y-139635786D01*
X105921573Y-139049980D02*
G75*
G03*
X107335786Y-138464212I27J1999980D01*
G01*
X63499980Y-154596573D02*
G75*
G02*
X62914213Y-156010785I-1999980J-27D01*
G01*
X79453427Y-139050020D02*
G75*
G03*
X78039215Y-139635787I-27J-1999980D01*
G01*
X63500010Y-154589214D02*
G75*
G02*
X63792893Y-153882107I999990J14D01*
G01*
%TO.N,Net-(U10-Pad2)*%
X161124011Y-93750000D02*
X161124011Y-102822562D01*
X160538224Y-104236776D02*
X147686775Y-117088225D01*
X146272562Y-117674011D02*
X144277876Y-117674011D01*
X146272562Y-117673980D02*
G75*
G03*
X147686774Y-117088224I38J1999980D01*
G01*
X160538245Y-104236797D02*
G75*
G03*
X161124011Y-102822562I-1414245J1414197D01*
G01*
%TO.N,Net-(U2-Pad22)*%
X109713501Y-51729288D02*
X109525000Y-51540787D01*
X109480454Y-81638032D02*
X109480454Y-81620085D01*
X109480454Y-81620085D02*
X109572981Y-81527558D01*
X108868486Y-82250000D02*
X109480454Y-81638032D01*
X108525000Y-82250000D02*
X108868486Y-82250000D01*
X109975000Y-80317783D02*
X109975000Y-52667453D01*
X109525000Y-51540787D02*
X109525000Y-51500000D01*
X109975016Y-80317783D02*
G75*
G02*
X109572980Y-81527557I-2044016J7583D01*
G01*
X109713490Y-51729295D02*
G75*
G02*
X109974999Y-52667453I-1573390J-944105D01*
G01*
%TO.N,Net-(U4-Pad22)*%
X61314213Y-94095159D02*
X60424213Y-93205159D01*
X61900000Y-105891024D02*
X61900000Y-95509373D01*
X76743922Y-118850000D02*
X74858976Y-118850000D01*
X78675500Y-117746849D02*
X78158135Y-118264214D01*
X73444762Y-118264213D02*
X62485786Y-107305237D01*
X74858976Y-118850016D02*
G75*
G02*
X73444763Y-118264212I24J2000016D01*
G01*
X61900019Y-95509373D02*
G75*
G03*
X61314213Y-94095159I-2000019J-27D01*
G01*
X61899984Y-105891024D02*
G75*
G03*
X62485787Y-107305236I2000016J24D01*
G01*
X76743922Y-118850015D02*
G75*
G03*
X78158135Y-118264214I-22J2000015D01*
G01*
%TO.N,Net-(U7-Pad22)*%
X114239213Y-137764213D02*
X114175000Y-137700000D01*
X134521573Y-138350000D02*
X115653427Y-138350000D01*
X158500000Y-157000000D02*
X154828427Y-157000000D01*
X153414214Y-156414214D02*
X135935787Y-138935787D01*
X134521573Y-138350020D02*
G75*
G02*
X135935786Y-138935788I27J-1999980D01*
G01*
X114239199Y-137764227D02*
G75*
G03*
X115653427Y-138350000I1414201J1414227D01*
G01*
X153414200Y-156414228D02*
G75*
G03*
X154828427Y-157000000I1414200J1414228D01*
G01*
%TO.N,Net-(U8-Pad22)*%
X160235787Y-156085787D02*
X161250000Y-157100000D01*
X159650000Y-136663359D02*
X159650000Y-154671573D01*
X140282757Y-117051955D02*
X140427532Y-117051955D01*
X140120957Y-117213755D02*
X140282757Y-117051955D01*
X141710786Y-117635786D02*
X158880414Y-134805414D01*
X159650038Y-136663359D02*
G75*
G03*
X158880414Y-134805414I-2627538J-41D01*
G01*
X141710773Y-117635800D02*
G75*
G03*
X140427532Y-117051955I-1424873J-1429600D01*
G01*
X159650020Y-154671573D02*
G75*
G03*
X160235788Y-156085786I1999980J-27D01*
G01*
D17*
%TO.N,/Expansion Module/ext_EN*%
X191555000Y-100160000D02*
X190300000Y-101415000D01*
X190300000Y-101415000D02*
X190300000Y-108750000D01*
X190300000Y-108750000D02*
X190150000Y-108900000D01*
%TO.N,/Expansion Module/ext_GPIO1*%
X205450000Y-127735000D02*
X205450000Y-146215000D01*
X207000000Y-126185000D02*
X205450000Y-127735000D01*
X205450000Y-146215000D02*
X207010000Y-147775000D01*
%TO.N,Net-(D39-Pad1)*%
X109400000Y-83197889D02*
X107536444Y-85061445D01*
X109400000Y-82925000D02*
X109400000Y-83197889D01*
%TO.N,Net-(D65-Pad1)*%
X139100000Y-106700000D02*
X136400000Y-106700000D01*
%TO.N,/Expansion Module/ext_MUTE*%
X208950000Y-112300000D02*
X208325000Y-112925000D01*
X208325000Y-122320000D02*
X207000000Y-123645000D01*
X208325000Y-112925000D02*
X208325000Y-122320000D01*
%TO.N,/MUTE*%
X112300000Y-116000000D02*
X112300000Y-116500002D01*
X112300000Y-116500002D02*
X112100002Y-116700000D01*
X96700000Y-101100000D02*
X97400000Y-101100000D01*
X97400000Y-101100000D02*
X112300000Y-116000000D01*
%TD*%
M02*
