%TF.GenerationSoftware,KiCad,Pcbnew,(6.0.7-1)-1*%
%TF.CreationDate,2022-09-29T14:19:47-06:00*%
%TF.ProjectId,starman,73746172-6d61-46e2-9e6b-696361645f70,rev?*%
%TF.SameCoordinates,Original*%
%TF.FileFunction,Soldermask,Top*%
%TF.FilePolarity,Negative*%
%FSLAX46Y46*%
G04 Gerber Fmt 4.6, Leading zero omitted, Abs format (unit mm)*
G04 Created by KiCad (PCBNEW (6.0.7-1)-1) date 2022-09-29 14:19:47*
%MOMM*%
%LPD*%
G01*
G04 APERTURE LIST*
G04 Aperture macros list*
%AMRoundRect*
0 Rectangle with rounded corners*
0 $1 Rounding radius*
0 $2 $3 $4 $5 $6 $7 $8 $9 X,Y pos of 4 corners*
0 Add a 4 corners polygon primitive as box body*
4,1,4,$2,$3,$4,$5,$6,$7,$8,$9,$2,$3,0*
0 Add four circle primitives for the rounded corners*
1,1,$1+$1,$2,$3*
1,1,$1+$1,$4,$5*
1,1,$1+$1,$6,$7*
1,1,$1+$1,$8,$9*
0 Add four rect primitives between the rounded corners*
20,1,$1+$1,$2,$3,$4,$5,0*
20,1,$1+$1,$4,$5,$6,$7,0*
20,1,$1+$1,$6,$7,$8,$9,0*
20,1,$1+$1,$8,$9,$2,$3,0*%
%AMFreePoly0*
4,1,22,0.689482,0.800980,0.763492,0.747209,0.809232,0.667984,0.820000,0.600000,0.820000,-0.600000,0.800980,-0.689482,0.747209,-0.763492,0.667984,-0.809232,0.600000,-0.820000,-0.600000,-0.820000,-0.689482,-0.800980,-0.763492,-0.747209,-0.809232,-0.667984,-0.820000,-0.600000,-0.820000,0.000000,-0.800980,0.089482,-0.755563,0.155563,-0.155563,0.755563,-0.078841,0.805388,0.000000,0.820000,
0.600000,0.820000,0.689482,0.800980,0.689482,0.800980,$1*%
G04 Aperture macros list end*
%ADD10C,0.300000*%
%ADD11RoundRect,0.470000X-0.475000X0.250000X-0.475000X-0.250000X0.475000X-0.250000X0.475000X0.250000X0*%
%ADD12RoundRect,0.220000X0.950000X1.750000X-0.950000X1.750000X-0.950000X-1.750000X0.950000X-1.750000X0*%
%ADD13RoundRect,0.220000X0.400000X-0.200000X0.400000X0.200000X-0.400000X0.200000X-0.400000X-0.200000X0*%
%ADD14RoundRect,0.220000X-0.200000X-0.400000X0.200000X-0.400000X0.200000X0.400000X-0.200000X0.400000X0*%
%ADD15RoundRect,0.220000X0.400000X0.400000X-0.400000X0.400000X-0.400000X-0.400000X0.400000X-0.400000X0*%
%ADD16RoundRect,0.220000X-0.600000X-0.600000X0.600000X-0.600000X0.600000X0.600000X-0.600000X0.600000X0*%
%ADD17FreePoly0,0.000000*%
%ADD18RoundRect,0.463750X-0.243750X-0.456250X0.243750X-0.456250X0.243750X0.456250X-0.243750X0.456250X0*%
%ADD19RoundRect,0.463750X0.456250X-0.243750X0.456250X0.243750X-0.456250X0.243750X-0.456250X-0.243750X0*%
%ADD20RoundRect,0.470000X0.425000X-0.450000X0.425000X0.450000X-0.425000X0.450000X-0.425000X-0.450000X0*%
%ADD21RoundRect,0.470000X-0.425000X0.450000X-0.425000X-0.450000X0.425000X-0.450000X0.425000X0.450000X0*%
%ADD22C,2.540000*%
%ADD23R,0.800000X0.600000*%
%ADD24RoundRect,0.320000X-0.637500X-0.100000X0.637500X-0.100000X0.637500X0.100000X-0.637500X0.100000X0*%
%ADD25RoundRect,0.320000X0.637500X0.100000X-0.637500X0.100000X-0.637500X-0.100000X0.637500X-0.100000X0*%
%ADD26RoundRect,0.463750X0.243750X0.456250X-0.243750X0.456250X-0.243750X-0.456250X0.243750X-0.456250X0*%
%ADD27RoundRect,0.470000X0.250000X0.475000X-0.250000X0.475000X-0.250000X-0.475000X0.250000X-0.475000X0*%
%ADD28RoundRect,0.220000X-1.255000X-0.500000X1.255000X-0.500000X1.255000X0.500000X-1.255000X0.500000X0*%
%ADD29RoundRect,0.463750X-0.456250X0.243750X-0.456250X-0.243750X0.456250X-0.243750X0.456250X0.243750X0*%
%ADD30RoundRect,0.470000X0.450000X0.425000X-0.450000X0.425000X-0.450000X-0.425000X0.450000X-0.425000X0*%
%ADD31RoundRect,0.420000X0.200000X0.250000X-0.200000X0.250000X-0.200000X-0.250000X0.200000X-0.250000X0*%
%ADD32RoundRect,0.470000X-0.450000X-0.425000X0.450000X-0.425000X0.450000X0.425000X-0.450000X0.425000X0*%
%ADD33C,1.700000*%
%ADD34RoundRect,0.470000X0.450000X-0.262500X0.450000X0.262500X-0.450000X0.262500X-0.450000X-0.262500X0*%
%ADD35RoundRect,0.470000X-0.262500X-0.450000X0.262500X-0.450000X0.262500X0.450000X-0.262500X0.450000X0*%
%ADD36RoundRect,0.470000X0.262500X0.450000X-0.262500X0.450000X-0.262500X-0.450000X0.262500X-0.450000X0*%
%ADD37RoundRect,0.370000X-0.150000X0.675000X-0.150000X-0.675000X0.150000X-0.675000X0.150000X0.675000X0*%
%ADD38RoundRect,0.470000X-0.625000X0.312500X-0.625000X-0.312500X0.625000X-0.312500X0.625000X0.312500X0*%
%ADD39RoundRect,0.470000X0.475000X-0.250000X0.475000X0.250000X-0.475000X0.250000X-0.475000X-0.250000X0*%
%ADD40RoundRect,0.470000X-0.250000X-0.475000X0.250000X-0.475000X0.250000X0.475000X-0.250000X0.475000X0*%
%ADD41RoundRect,0.220000X0.850000X0.850000X-0.850000X0.850000X-0.850000X-0.850000X0.850000X-0.850000X0*%
%ADD42O,2.140000X2.140000*%
%ADD43RoundRect,0.470000X-0.450000X0.262500X-0.450000X-0.262500X0.450000X-0.262500X0.450000X0.262500X0*%
%ADD44RoundRect,0.420000X-0.200000X-0.250000X0.200000X-0.250000X0.200000X0.250000X-0.200000X0.250000X0*%
%ADD45RoundRect,0.220000X0.525000X0.325000X-0.525000X0.325000X-0.525000X-0.325000X0.525000X-0.325000X0*%
%ADD46RoundRect,0.220000X-1.100000X-0.600000X1.100000X-0.600000X1.100000X0.600000X-1.100000X0.600000X0*%
%ADD47RoundRect,0.220000X-3.200000X-2.900000X3.200000X-2.900000X3.200000X2.900000X-3.200000X2.900000X0*%
%ADD48O,2.440000X3.940000*%
%ADD49O,3.740000X2.440000*%
%ADD50RoundRect,0.220000X-2.000000X-1.000000X2.000000X-1.000000X2.000000X1.000000X-2.000000X1.000000X0*%
%ADD51C,2.040000*%
%ADD52RoundRect,0.220000X-0.850000X-0.850000X0.850000X-0.850000X0.850000X0.850000X-0.850000X0.850000X0*%
%ADD53RoundRect,0.470000X0.312500X0.625000X-0.312500X0.625000X-0.312500X-0.625000X0.312500X-0.625000X0*%
%ADD54RoundRect,0.220000X0.550000X-2.300000X0.550000X2.300000X-0.550000X2.300000X-0.550000X-2.300000X0*%
%ADD55RoundRect,0.220000X5.400000X-4.700000X5.400000X4.700000X-5.400000X4.700000X-5.400000X-4.700000X0*%
%ADD56RoundRect,0.220000X0.850000X-0.850000X0.850000X0.850000X-0.850000X0.850000X-0.850000X-0.850000X0*%
%ADD57RoundRect,0.470000X0.625000X-0.312500X0.625000X0.312500X-0.625000X0.312500X-0.625000X-0.312500X0*%
%ADD58RoundRect,0.220000X-0.525000X-0.325000X0.525000X-0.325000X0.525000X0.325000X-0.525000X0.325000X0*%
%ADD59RoundRect,0.470000X-0.312500X-0.625000X0.312500X-0.625000X0.312500X0.625000X-0.312500X0.625000X0*%
%ADD60RoundRect,0.220000X-0.500000X0.750000X-0.500000X-0.750000X0.500000X-0.750000X0.500000X0.750000X0*%
G04 APERTURE END LIST*
D10*
X80380714Y-149982142D02*
X80523571Y-150053571D01*
X80809285Y-150053571D01*
X80952142Y-149982142D01*
X81023571Y-149839285D01*
X81023571Y-149767857D01*
X80952142Y-149625000D01*
X80809285Y-149553571D01*
X80595000Y-149553571D01*
X80452142Y-149482142D01*
X80380714Y-149339285D01*
X80380714Y-149267857D01*
X80452142Y-149125000D01*
X80595000Y-149053571D01*
X80809285Y-149053571D01*
X80952142Y-149125000D01*
X81452142Y-149053571D02*
X82023571Y-149053571D01*
X81666428Y-148553571D02*
X81666428Y-149839285D01*
X81737857Y-149982142D01*
X81880714Y-150053571D01*
X82023571Y-150053571D01*
X83166428Y-150053571D02*
X83166428Y-149267857D01*
X83095000Y-149125000D01*
X82952142Y-149053571D01*
X82666428Y-149053571D01*
X82523571Y-149125000D01*
X83166428Y-149982142D02*
X83023571Y-150053571D01*
X82666428Y-150053571D01*
X82523571Y-149982142D01*
X82452142Y-149839285D01*
X82452142Y-149696428D01*
X82523571Y-149553571D01*
X82666428Y-149482142D01*
X83023571Y-149482142D01*
X83166428Y-149410714D01*
X83880714Y-150053571D02*
X83880714Y-149053571D01*
X83880714Y-149339285D02*
X83952142Y-149196428D01*
X84023571Y-149125000D01*
X84166428Y-149053571D01*
X84309285Y-149053571D01*
X84809285Y-150053571D02*
X84809285Y-149053571D01*
X84809285Y-149196428D02*
X84880714Y-149125000D01*
X85023571Y-149053571D01*
X85237857Y-149053571D01*
X85380714Y-149125000D01*
X85452142Y-149267857D01*
X85452142Y-150053571D01*
X85452142Y-149267857D02*
X85523571Y-149125000D01*
X85666428Y-149053571D01*
X85880714Y-149053571D01*
X86023571Y-149125000D01*
X86095000Y-149267857D01*
X86095000Y-150053571D01*
X87452142Y-150053571D02*
X87452142Y-149267857D01*
X87380714Y-149125000D01*
X87237857Y-149053571D01*
X86952142Y-149053571D01*
X86809285Y-149125000D01*
X87452142Y-149982142D02*
X87309285Y-150053571D01*
X86952142Y-150053571D01*
X86809285Y-149982142D01*
X86737857Y-149839285D01*
X86737857Y-149696428D01*
X86809285Y-149553571D01*
X86952142Y-149482142D01*
X87309285Y-149482142D01*
X87452142Y-149410714D01*
X88166428Y-149053571D02*
X88166428Y-150053571D01*
X88166428Y-149196428D02*
X88237857Y-149125000D01*
X88380714Y-149053571D01*
X88595000Y-149053571D01*
X88737857Y-149125000D01*
X88809285Y-149267857D01*
X88809285Y-150053571D01*
D11*
%TO.C,C39*%
X207100000Y-109050000D03*
X207100000Y-110950000D03*
%TD*%
D12*
%TO.C,LS1*%
X203850000Y-120500000D03*
X190150000Y-120500000D03*
X190150000Y-130500000D03*
X203850000Y-130500000D03*
%TD*%
D13*
%TO.C,U1*%
X88000000Y-86550000D03*
X88000000Y-87400000D03*
X88000000Y-88250000D03*
X88000000Y-89100000D03*
X88000000Y-89950000D03*
X88000000Y-90800000D03*
X88000000Y-91650000D03*
X88000000Y-92500000D03*
X88000000Y-93350000D03*
X88000000Y-94200000D03*
X88000000Y-95050000D03*
X88000000Y-95900000D03*
X88000000Y-96750000D03*
X88000000Y-97600000D03*
X88000000Y-98450000D03*
D14*
X89050000Y-99500000D03*
X89900000Y-99500000D03*
X90750000Y-99500000D03*
X91600000Y-99500000D03*
X92450000Y-99500000D03*
X93300000Y-99500000D03*
X94150000Y-99500000D03*
X95000000Y-99500000D03*
X95850000Y-99500000D03*
X96700000Y-99500000D03*
X97550000Y-99500000D03*
X98400000Y-99500000D03*
X99250000Y-99500000D03*
X100100000Y-99500000D03*
X100950000Y-99500000D03*
D13*
X102000000Y-98450000D03*
X102000000Y-97600000D03*
X102000000Y-96750000D03*
X102000000Y-95900000D03*
X102000000Y-95050000D03*
X102000000Y-94200000D03*
X102000000Y-93350000D03*
X102000000Y-92500000D03*
X102000000Y-91650000D03*
X102000000Y-90800000D03*
X102000000Y-89950000D03*
X102000000Y-89100000D03*
X102000000Y-88250000D03*
X102000000Y-87400000D03*
X102000000Y-86550000D03*
D14*
X99250000Y-85500000D03*
X98400000Y-85500000D03*
X94150000Y-85500000D03*
D15*
X102000000Y-85500000D03*
D16*
X96650000Y-92500000D03*
X93350000Y-94150000D03*
D14*
X95000000Y-85500000D03*
D16*
X93350000Y-92500000D03*
D14*
X93300000Y-85500000D03*
D15*
X88000000Y-85500000D03*
D17*
X93350000Y-90850000D03*
D16*
X96650000Y-94150000D03*
D14*
X100950000Y-85500000D03*
X91600000Y-85500000D03*
X90750000Y-85500000D03*
D16*
X96650000Y-90850000D03*
D14*
X89900000Y-85500000D03*
D16*
X95000000Y-92500000D03*
D14*
X92450000Y-85500000D03*
X100100000Y-85500000D03*
X97550000Y-85500000D03*
D16*
X95000000Y-94150000D03*
D14*
X89050000Y-85500000D03*
X95850000Y-85500000D03*
D15*
X102000000Y-99500000D03*
D14*
X96700000Y-85500000D03*
D16*
X95000000Y-90850000D03*
D15*
X88000000Y-99500000D03*
%TD*%
D18*
%TO.C,C2*%
X79337500Y-83600000D03*
X81212500Y-83600000D03*
%TD*%
%TO.C,C3*%
X79337500Y-81525000D03*
X81212500Y-81525000D03*
%TD*%
D19*
%TO.C,C4*%
X90100000Y-105275000D03*
X90100000Y-103400000D03*
%TD*%
D20*
%TO.C,C5*%
X90100000Y-110200000D03*
X90100000Y-107500000D03*
%TD*%
%TO.C,C6*%
X132150000Y-108100000D03*
X132150000Y-105400000D03*
%TD*%
D21*
%TO.C,C7*%
X132100000Y-100075000D03*
X132100000Y-102775000D03*
%TD*%
D22*
%TO.C,D1*%
X105000000Y-35000000D03*
D23*
X105375000Y-36550000D03*
X104625000Y-33450000D03*
%TD*%
%TO.C,D2*%
X115375000Y-36550000D03*
D22*
X115000000Y-35000000D03*
D23*
X114625000Y-33450000D03*
%TD*%
%TO.C,D3*%
X95375000Y-46550000D03*
X94625000Y-43450000D03*
D22*
X95000000Y-45000000D03*
%TD*%
D23*
%TO.C,D4*%
X105375000Y-46550000D03*
D22*
X105000000Y-45000000D03*
D23*
X104625000Y-43450000D03*
%TD*%
D22*
%TO.C,D5*%
X115000000Y-45000000D03*
D23*
X115375000Y-46550000D03*
X114625000Y-43450000D03*
%TD*%
%TO.C,D6*%
X124625000Y-43450000D03*
D22*
X125000000Y-45000000D03*
D23*
X125375000Y-46550000D03*
%TD*%
%TO.C,D8*%
X105375000Y-56550000D03*
X104625000Y-53450000D03*
D22*
X105000000Y-55000000D03*
%TD*%
D23*
%TO.C,D9*%
X115375000Y-56550000D03*
D22*
X115000000Y-55000000D03*
D23*
X114625000Y-53450000D03*
%TD*%
%TO.C,D10*%
X125375000Y-56550000D03*
D22*
X125000000Y-55000000D03*
D23*
X124625000Y-53450000D03*
%TD*%
D22*
%TO.C,D11*%
X85000000Y-65000000D03*
D23*
X84625000Y-63450000D03*
X85375000Y-66550000D03*
%TD*%
D22*
%TO.C,D12*%
X95000000Y-65000000D03*
D23*
X95375000Y-66550000D03*
X94625000Y-63450000D03*
%TD*%
D22*
%TO.C,D14*%
X115000000Y-65000000D03*
D23*
X115375000Y-66550000D03*
X114625000Y-63450000D03*
%TD*%
%TO.C,D15*%
X124625000Y-63450000D03*
D22*
X125000000Y-65000000D03*
D23*
X125375000Y-66550000D03*
%TD*%
%TO.C,D16*%
X135375000Y-66550000D03*
X134625000Y-63450000D03*
D22*
X135000000Y-65000000D03*
%TD*%
D23*
%TO.C,D17*%
X35375000Y-76550000D03*
D22*
X35000000Y-75000000D03*
D23*
X34625000Y-73450000D03*
%TD*%
%TO.C,D18*%
X44625000Y-73450000D03*
X45375000Y-76550000D03*
D22*
X45000000Y-75000000D03*
%TD*%
D23*
%TO.C,D19*%
X54625000Y-73450000D03*
X55375000Y-76550000D03*
D22*
X55000000Y-75000000D03*
%TD*%
D23*
%TO.C,D20*%
X65375000Y-76550000D03*
X64625000Y-73450000D03*
D22*
X65000000Y-75000000D03*
%TD*%
D23*
%TO.C,D21*%
X74625000Y-73450000D03*
D22*
X75000000Y-75000000D03*
D23*
X75375000Y-76550000D03*
%TD*%
D22*
%TO.C,D22*%
X85000000Y-75000000D03*
D23*
X85375000Y-76550000D03*
X84625000Y-73450000D03*
%TD*%
%TO.C,D23*%
X95375000Y-76550000D03*
D22*
X95000000Y-75000000D03*
D23*
X94625000Y-73450000D03*
%TD*%
%TO.C,D25*%
X114625000Y-73450000D03*
D22*
X115000000Y-75000000D03*
D23*
X115375000Y-76550000D03*
%TD*%
D22*
%TO.C,D26*%
X125000000Y-75000000D03*
D23*
X125375000Y-76550000D03*
X124625000Y-73450000D03*
%TD*%
D22*
%TO.C,D27*%
X135000000Y-75000000D03*
D23*
X134625000Y-73450000D03*
X135375000Y-76550000D03*
%TD*%
%TO.C,D28*%
X145375000Y-76550000D03*
X144625000Y-73450000D03*
D22*
X145000000Y-75000000D03*
%TD*%
D23*
%TO.C,D29*%
X154625000Y-73450000D03*
X155375000Y-76550000D03*
D22*
X155000000Y-75000000D03*
%TD*%
D23*
%TO.C,D30*%
X165375000Y-76550000D03*
X164625000Y-73450000D03*
D22*
X165000000Y-75000000D03*
%TD*%
D23*
%TO.C,D31*%
X174625000Y-73450000D03*
D22*
X175000000Y-75000000D03*
D23*
X175375000Y-76550000D03*
%TD*%
%TO.C,D32*%
X184625000Y-73450000D03*
D22*
X185000000Y-75000000D03*
D23*
X185375000Y-76550000D03*
%TD*%
%TO.C,D33*%
X35375000Y-86550000D03*
D22*
X35000000Y-85000000D03*
D23*
X34625000Y-83450000D03*
%TD*%
%TO.C,D34*%
X44625000Y-83450000D03*
X45375000Y-86550000D03*
D22*
X45000000Y-85000000D03*
%TD*%
D23*
%TO.C,D36*%
X65375000Y-86550000D03*
D22*
X65000000Y-85000000D03*
D23*
X64625000Y-83450000D03*
%TD*%
%TO.C,D37*%
X75375000Y-86550000D03*
D22*
X75000000Y-85000000D03*
D23*
X74625000Y-83450000D03*
%TD*%
D22*
%TO.C,D39*%
X105000000Y-85000000D03*
D23*
X104625000Y-83450000D03*
X105375000Y-86550000D03*
%TD*%
D22*
%TO.C,D40*%
X115000000Y-85000000D03*
D23*
X115375000Y-86550000D03*
X114625000Y-83450000D03*
%TD*%
D22*
%TO.C,D41*%
X135000000Y-85000000D03*
D23*
X135375000Y-86550000D03*
X134625000Y-83450000D03*
%TD*%
D22*
%TO.C,D42*%
X145000000Y-85000000D03*
D23*
X145375000Y-86550000D03*
X144625000Y-83450000D03*
%TD*%
%TO.C,D43*%
X155375000Y-86550000D03*
X154625000Y-83450000D03*
D22*
X155000000Y-85000000D03*
%TD*%
D23*
%TO.C,D44*%
X164625000Y-83450000D03*
X165375000Y-86550000D03*
D22*
X165000000Y-85000000D03*
%TD*%
D23*
%TO.C,D45*%
X174625000Y-83450000D03*
D22*
X175000000Y-85000000D03*
D23*
X175375000Y-86550000D03*
%TD*%
%TO.C,D46*%
X185375000Y-86550000D03*
D22*
X185000000Y-85000000D03*
D23*
X184625000Y-83450000D03*
%TD*%
D22*
%TO.C,D47*%
X45000000Y-95000000D03*
D23*
X45375000Y-96550000D03*
X44625000Y-93450000D03*
%TD*%
D22*
%TO.C,D48*%
X55000000Y-95000000D03*
D23*
X55375000Y-96550000D03*
X54625000Y-93450000D03*
%TD*%
%TO.C,D49*%
X65375000Y-96550000D03*
X64625000Y-93450000D03*
D22*
X65000000Y-95000000D03*
%TD*%
%TO.C,D50*%
X75000000Y-95000000D03*
D23*
X74625000Y-93450000D03*
X75375000Y-96550000D03*
%TD*%
%TO.C,D51*%
X85375000Y-96550000D03*
D22*
X85000000Y-95000000D03*
D23*
X84625000Y-93450000D03*
%TD*%
%TO.C,D52*%
X105375000Y-96550000D03*
X104625000Y-93450000D03*
D22*
X105000000Y-95000000D03*
%TD*%
D23*
%TO.C,D53*%
X115375000Y-96550000D03*
D22*
X115000000Y-95000000D03*
D23*
X114625000Y-93450000D03*
%TD*%
%TO.C,D54*%
X134625000Y-93450000D03*
X135375000Y-96550000D03*
D22*
X135000000Y-95000000D03*
%TD*%
D23*
%TO.C,D55*%
X144625000Y-93450000D03*
X145375000Y-96550000D03*
D22*
X145000000Y-95000000D03*
%TD*%
D23*
%TO.C,D56*%
X154625000Y-93450000D03*
X155375000Y-96550000D03*
D22*
X155000000Y-95000000D03*
%TD*%
D23*
%TO.C,D57*%
X164625000Y-93450000D03*
D22*
X165000000Y-95000000D03*
D23*
X165375000Y-96550000D03*
%TD*%
D22*
%TO.C,D58*%
X175000000Y-95000000D03*
D23*
X175375000Y-96550000D03*
X174625000Y-93450000D03*
%TD*%
%TO.C,D59*%
X55375000Y-106550000D03*
X54625000Y-103450000D03*
D22*
X55000000Y-105000000D03*
%TD*%
D23*
%TO.C,D60*%
X64625000Y-103450000D03*
X65375000Y-106550000D03*
D22*
X65000000Y-105000000D03*
%TD*%
D23*
%TO.C,D61*%
X75375000Y-106550000D03*
D22*
X75000000Y-105000000D03*
D23*
X74625000Y-103450000D03*
%TD*%
%TO.C,D62*%
X85375000Y-106550000D03*
D22*
X85000000Y-105000000D03*
D23*
X84625000Y-103450000D03*
%TD*%
%TO.C,D64*%
X115375000Y-106550000D03*
D22*
X115000000Y-105000000D03*
D23*
X114625000Y-103450000D03*
%TD*%
%TO.C,D65*%
X135375000Y-106550000D03*
D22*
X135000000Y-105000000D03*
D23*
X134625000Y-103450000D03*
%TD*%
D22*
%TO.C,D69*%
X65000000Y-115000000D03*
D23*
X64625000Y-113450000D03*
X65375000Y-116550000D03*
%TD*%
D22*
%TO.C,D70*%
X75000000Y-115000000D03*
D23*
X75375000Y-116550000D03*
X74625000Y-113450000D03*
%TD*%
%TO.C,D71*%
X85375000Y-116550000D03*
D22*
X85000000Y-115000000D03*
D23*
X84625000Y-113450000D03*
%TD*%
D22*
%TO.C,D72*%
X95000000Y-115000000D03*
D23*
X95375000Y-116550000D03*
X94625000Y-113450000D03*
%TD*%
D22*
%TO.C,D73*%
X105000000Y-115000000D03*
D23*
X104625000Y-113450000D03*
X105375000Y-116550000D03*
%TD*%
D22*
%TO.C,D74*%
X115000000Y-115000000D03*
D23*
X115375000Y-116550000D03*
X114625000Y-113450000D03*
%TD*%
%TO.C,D75*%
X125375000Y-116550000D03*
D22*
X125000000Y-115000000D03*
D23*
X124625000Y-113450000D03*
%TD*%
%TO.C,D76*%
X134625000Y-113450000D03*
X135375000Y-116550000D03*
D22*
X135000000Y-115000000D03*
%TD*%
D23*
%TO.C,D77*%
X144625000Y-113450000D03*
X145375000Y-116550000D03*
D22*
X145000000Y-115000000D03*
%TD*%
%TO.C,D78*%
X155000000Y-115000000D03*
D23*
X155375000Y-116550000D03*
X154625000Y-113450000D03*
%TD*%
D22*
%TO.C,D79*%
X55000000Y-125000000D03*
D23*
X54625000Y-123450000D03*
X55375000Y-126550000D03*
%TD*%
%TO.C,D85*%
X114625000Y-123450000D03*
D22*
X115000000Y-125000000D03*
D23*
X115375000Y-126550000D03*
%TD*%
%TO.C,D86*%
X124625000Y-123450000D03*
X125375000Y-126550000D03*
D22*
X125000000Y-125000000D03*
%TD*%
%TO.C,D87*%
X135000000Y-125000000D03*
D23*
X135375000Y-126550000D03*
X134625000Y-123450000D03*
%TD*%
%TO.C,D88*%
X145375000Y-126550000D03*
X144625000Y-123450000D03*
D22*
X145000000Y-125000000D03*
%TD*%
D23*
%TO.C,D89*%
X154625000Y-123450000D03*
D22*
X155000000Y-125000000D03*
D23*
X155375000Y-126550000D03*
%TD*%
D24*
%TO.C,U8*%
X157137500Y-156425000D03*
X157137500Y-157075000D03*
X157137500Y-157725000D03*
X157137500Y-158375000D03*
X157137500Y-159025000D03*
X157137500Y-159675000D03*
X157137500Y-160325000D03*
X157137500Y-160975000D03*
X157137500Y-161625000D03*
X157137500Y-162275000D03*
X157137500Y-162925000D03*
X157137500Y-163575000D03*
X162862500Y-163575000D03*
X162862500Y-162925000D03*
X162862500Y-162275000D03*
X162862500Y-161625000D03*
X162862500Y-160975000D03*
X162862500Y-160325000D03*
X162862500Y-159675000D03*
X162862500Y-159025000D03*
X162862500Y-158375000D03*
X162862500Y-157725000D03*
X162862500Y-157075000D03*
X162862500Y-156425000D03*
%TD*%
%TO.C,U9*%
X137137500Y-116425000D03*
X137137500Y-117075000D03*
X137137500Y-117725000D03*
X137137500Y-118375000D03*
X137137500Y-119025000D03*
X137137500Y-119675000D03*
X137137500Y-120325000D03*
X137137500Y-120975000D03*
X137137500Y-121625000D03*
X137137500Y-122275000D03*
X137137500Y-122925000D03*
X137137500Y-123575000D03*
X142862500Y-123575000D03*
X142862500Y-122925000D03*
X142862500Y-122275000D03*
X142862500Y-121625000D03*
X142862500Y-120975000D03*
X142862500Y-120325000D03*
X142862500Y-119675000D03*
X142862500Y-119025000D03*
X142862500Y-118375000D03*
X142862500Y-117725000D03*
X142862500Y-117075000D03*
X142862500Y-116425000D03*
%TD*%
D22*
%TO.C,D24*%
X105000000Y-75000000D03*
D23*
X104625000Y-73450000D03*
X105375000Y-76550000D03*
%TD*%
%TO.C,D35*%
X55375000Y-86550000D03*
X54625000Y-83450000D03*
D22*
X55000000Y-85000000D03*
%TD*%
%TO.C,D90*%
X165000000Y-125000000D03*
D23*
X164625000Y-123450000D03*
X165375000Y-126550000D03*
%TD*%
D22*
%TO.C,D91*%
X55000000Y-135000000D03*
D23*
X55375000Y-136550000D03*
X54625000Y-133450000D03*
%TD*%
%TO.C,D92*%
X65375000Y-136550000D03*
X64625000Y-133450000D03*
D22*
X65000000Y-135000000D03*
%TD*%
D23*
%TO.C,D93*%
X75375000Y-136550000D03*
D22*
X75000000Y-135000000D03*
D23*
X74625000Y-133450000D03*
%TD*%
%TO.C,D94*%
X84625000Y-133450000D03*
X85375000Y-136550000D03*
D22*
X85000000Y-135000000D03*
%TD*%
D23*
%TO.C,D95*%
X94625000Y-133450000D03*
X95375000Y-136550000D03*
D22*
X95000000Y-135000000D03*
%TD*%
D23*
%TO.C,D96*%
X105375000Y-136550000D03*
D22*
X105000000Y-135000000D03*
D23*
X104625000Y-133450000D03*
%TD*%
%TO.C,D97*%
X115375000Y-136550000D03*
D22*
X115000000Y-135000000D03*
D23*
X114625000Y-133450000D03*
%TD*%
%TO.C,D98*%
X125375000Y-136550000D03*
X124625000Y-133450000D03*
D22*
X125000000Y-135000000D03*
%TD*%
D23*
%TO.C,D99*%
X135375000Y-136550000D03*
D22*
X135000000Y-135000000D03*
D23*
X134625000Y-133450000D03*
%TD*%
%TO.C,D100*%
X144625000Y-133450000D03*
D22*
X145000000Y-135000000D03*
D23*
X145375000Y-136550000D03*
%TD*%
D22*
%TO.C,D101*%
X155000000Y-135000000D03*
D23*
X154625000Y-133450000D03*
X155375000Y-136550000D03*
%TD*%
D22*
%TO.C,D102*%
X165000000Y-135000000D03*
D23*
X165375000Y-136550000D03*
X164625000Y-133450000D03*
%TD*%
D22*
%TO.C,D103*%
X45000000Y-145000000D03*
D23*
X44625000Y-143450000D03*
X45375000Y-146550000D03*
%TD*%
D22*
%TO.C,D104*%
X55000000Y-145000000D03*
D23*
X54625000Y-143450000D03*
X55375000Y-146550000D03*
%TD*%
%TO.C,D106*%
X75375000Y-146550000D03*
X74625000Y-143450000D03*
D22*
X75000000Y-145000000D03*
%TD*%
%TO.C,D107*%
X85000000Y-145000000D03*
D23*
X84625000Y-143450000D03*
X85375000Y-146550000D03*
%TD*%
%TO.C,D108*%
X94625000Y-143450000D03*
D22*
X95000000Y-145000000D03*
D23*
X95375000Y-146550000D03*
%TD*%
%TO.C,D109*%
X105375000Y-146550000D03*
D22*
X105000000Y-145000000D03*
D23*
X104625000Y-143450000D03*
%TD*%
%TO.C,D110*%
X114625000Y-143450000D03*
D22*
X115000000Y-145000000D03*
D23*
X115375000Y-146550000D03*
%TD*%
D22*
%TO.C,D111*%
X125000000Y-145000000D03*
D23*
X124625000Y-143450000D03*
X125375000Y-146550000D03*
%TD*%
%TO.C,D112*%
X134625000Y-143450000D03*
D22*
X135000000Y-145000000D03*
D23*
X135375000Y-146550000D03*
%TD*%
%TO.C,D113*%
X144625000Y-143450000D03*
X145375000Y-146550000D03*
D22*
X145000000Y-145000000D03*
%TD*%
%TO.C,D114*%
X155000000Y-145000000D03*
D23*
X155375000Y-146550000D03*
X154625000Y-143450000D03*
%TD*%
%TO.C,D115*%
X165375000Y-146550000D03*
D22*
X165000000Y-145000000D03*
D23*
X164625000Y-143450000D03*
%TD*%
D22*
%TO.C,D116*%
X175000000Y-145000000D03*
D23*
X175375000Y-146550000D03*
X174625000Y-143450000D03*
%TD*%
%TO.C,D117*%
X44625000Y-153450000D03*
D22*
X45000000Y-155000000D03*
D23*
X45375000Y-156550000D03*
%TD*%
%TO.C,D118*%
X54625000Y-153450000D03*
X55375000Y-156550000D03*
D22*
X55000000Y-155000000D03*
%TD*%
D23*
%TO.C,D119*%
X65375000Y-156550000D03*
X64625000Y-153450000D03*
D22*
X65000000Y-155000000D03*
%TD*%
D23*
%TO.C,D120*%
X74625000Y-153450000D03*
D22*
X75000000Y-155000000D03*
D23*
X75375000Y-156550000D03*
%TD*%
%TO.C,D121*%
X84625000Y-153450000D03*
D22*
X85000000Y-155000000D03*
D23*
X85375000Y-156550000D03*
%TD*%
D22*
%TO.C,D122*%
X95000000Y-155000000D03*
D23*
X94625000Y-153450000D03*
X95375000Y-156550000D03*
%TD*%
%TO.C,D123*%
X124625000Y-153450000D03*
X125375000Y-156550000D03*
D22*
X125000000Y-155000000D03*
%TD*%
D23*
%TO.C,D124*%
X134625000Y-153450000D03*
X135375000Y-156550000D03*
D22*
X135000000Y-155000000D03*
%TD*%
D23*
%TO.C,D125*%
X145375000Y-156550000D03*
X144625000Y-153450000D03*
D22*
X145000000Y-155000000D03*
%TD*%
%TO.C,D127*%
X165000000Y-155000000D03*
D23*
X165375000Y-156550000D03*
X164625000Y-153450000D03*
%TD*%
%TO.C,D128*%
X174625000Y-153450000D03*
D22*
X175000000Y-155000000D03*
D23*
X175375000Y-156550000D03*
%TD*%
%TO.C,D129*%
X35375000Y-166550000D03*
X34625000Y-163450000D03*
D22*
X35000000Y-165000000D03*
%TD*%
%TO.C,D130*%
X45000000Y-165000000D03*
D23*
X44625000Y-163450000D03*
X45375000Y-166550000D03*
%TD*%
%TO.C,D131*%
X55375000Y-166550000D03*
X54625000Y-163450000D03*
D22*
X55000000Y-165000000D03*
%TD*%
%TO.C,D132*%
X65000000Y-165000000D03*
D23*
X64625000Y-163450000D03*
X65375000Y-166550000D03*
%TD*%
D22*
%TO.C,D133*%
X75000000Y-165000000D03*
D23*
X75375000Y-166550000D03*
X74625000Y-163450000D03*
%TD*%
%TO.C,D134*%
X144625000Y-163450000D03*
D22*
X145000000Y-165000000D03*
D23*
X145375000Y-166550000D03*
%TD*%
%TO.C,D135*%
X154625000Y-163450000D03*
X155375000Y-166550000D03*
D22*
X155000000Y-165000000D03*
%TD*%
%TO.C,D136*%
X165000000Y-165000000D03*
D23*
X164625000Y-163450000D03*
X165375000Y-166550000D03*
%TD*%
D22*
%TO.C,D137*%
X175000000Y-165000000D03*
D23*
X174625000Y-163450000D03*
X175375000Y-166550000D03*
%TD*%
D22*
%TO.C,D138*%
X185000000Y-165000000D03*
D23*
X184625000Y-163450000D03*
X185375000Y-166550000D03*
%TD*%
D24*
%TO.C,U5*%
X77137500Y-116425000D03*
X77137500Y-117075000D03*
X77137500Y-117725000D03*
X77137500Y-118375000D03*
X77137500Y-119025000D03*
X77137500Y-119675000D03*
X77137500Y-120325000D03*
X77137500Y-120975000D03*
X77137500Y-121625000D03*
X77137500Y-122275000D03*
X77137500Y-122925000D03*
X77137500Y-123575000D03*
X82862500Y-123575000D03*
X82862500Y-122925000D03*
X82862500Y-122275000D03*
X82862500Y-121625000D03*
X82862500Y-120975000D03*
X82862500Y-120325000D03*
X82862500Y-119675000D03*
X82862500Y-119025000D03*
X82862500Y-118375000D03*
X82862500Y-117725000D03*
X82862500Y-117075000D03*
X82862500Y-116425000D03*
%TD*%
%TO.C,U3*%
X107137500Y-46425000D03*
X107137500Y-47075000D03*
X107137500Y-47725000D03*
X107137500Y-48375000D03*
X107137500Y-49025000D03*
X107137500Y-49675000D03*
X107137500Y-50325000D03*
X107137500Y-50975000D03*
X107137500Y-51625000D03*
X107137500Y-52275000D03*
X107137500Y-52925000D03*
X107137500Y-53575000D03*
X112862500Y-53575000D03*
X112862500Y-52925000D03*
X112862500Y-52275000D03*
X112862500Y-51625000D03*
X112862500Y-50975000D03*
X112862500Y-50325000D03*
X112862500Y-49675000D03*
X112862500Y-49025000D03*
X112862500Y-48375000D03*
X112862500Y-47725000D03*
X112862500Y-47075000D03*
X112862500Y-46425000D03*
%TD*%
D25*
%TO.C,U2*%
X112862500Y-83575000D03*
X112862500Y-82925000D03*
X112862500Y-82275000D03*
X112862500Y-81625000D03*
X112862500Y-80975000D03*
X112862500Y-80325000D03*
X112862500Y-79675000D03*
X112862500Y-79025000D03*
X112862500Y-78375000D03*
X112862500Y-77725000D03*
X112862500Y-77075000D03*
X112862500Y-76425000D03*
X107137500Y-76425000D03*
X107137500Y-77075000D03*
X107137500Y-77725000D03*
X107137500Y-78375000D03*
X107137500Y-79025000D03*
X107137500Y-79675000D03*
X107137500Y-80325000D03*
X107137500Y-80975000D03*
X107137500Y-81625000D03*
X107137500Y-82275000D03*
X107137500Y-82925000D03*
X107137500Y-83575000D03*
%TD*%
%TO.C,U4*%
X62862500Y-93575000D03*
X62862500Y-92925000D03*
X62862500Y-92275000D03*
X62862500Y-91625000D03*
X62862500Y-90975000D03*
X62862500Y-90325000D03*
X62862500Y-89675000D03*
X62862500Y-89025000D03*
X62862500Y-88375000D03*
X62862500Y-87725000D03*
X62862500Y-87075000D03*
X62862500Y-86425000D03*
X57137500Y-86425000D03*
X57137500Y-87075000D03*
X57137500Y-87725000D03*
X57137500Y-88375000D03*
X57137500Y-89025000D03*
X57137500Y-89675000D03*
X57137500Y-90325000D03*
X57137500Y-90975000D03*
X57137500Y-91625000D03*
X57137500Y-92275000D03*
X57137500Y-92925000D03*
X57137500Y-93575000D03*
%TD*%
D22*
%TO.C,D63*%
X105000000Y-105000000D03*
D23*
X105375000Y-106550000D03*
X104625000Y-103450000D03*
%TD*%
%TO.C,D80*%
X64625000Y-123450000D03*
X65375000Y-126550000D03*
D22*
X65000000Y-125000000D03*
%TD*%
%TO.C,D81*%
X75000000Y-125000000D03*
D23*
X74625000Y-123450000D03*
X75375000Y-126550000D03*
%TD*%
%TO.C,D82*%
X85375000Y-126550000D03*
D22*
X85000000Y-125000000D03*
D23*
X84625000Y-123450000D03*
%TD*%
%TO.C,D83*%
X95375000Y-126550000D03*
D22*
X95000000Y-125000000D03*
D23*
X94625000Y-123450000D03*
%TD*%
D22*
%TO.C,D84*%
X105000000Y-125000000D03*
D23*
X104625000Y-123450000D03*
X105375000Y-126550000D03*
%TD*%
D22*
%TO.C,D66*%
X145000000Y-105000000D03*
D23*
X145375000Y-106550000D03*
X144625000Y-103450000D03*
%TD*%
D22*
%TO.C,D67*%
X155000000Y-105000000D03*
D23*
X154625000Y-103450000D03*
X155375000Y-106550000D03*
%TD*%
%TO.C,D68*%
X165375000Y-106550000D03*
D22*
X165000000Y-105000000D03*
D23*
X164625000Y-103450000D03*
%TD*%
D22*
%TO.C,D139*%
X35000000Y-175000000D03*
D23*
X35375000Y-176550000D03*
X34625000Y-173450000D03*
%TD*%
%TO.C,D140*%
X45375000Y-176550000D03*
X44625000Y-173450000D03*
D22*
X45000000Y-175000000D03*
%TD*%
D23*
%TO.C,D141*%
X55375000Y-176550000D03*
D22*
X55000000Y-175000000D03*
D23*
X54625000Y-173450000D03*
%TD*%
D22*
%TO.C,D142*%
X165000000Y-175000000D03*
D23*
X164625000Y-173450000D03*
X165375000Y-176550000D03*
%TD*%
D22*
%TO.C,D143*%
X175000000Y-175000000D03*
D23*
X174625000Y-173450000D03*
X175375000Y-176550000D03*
%TD*%
D22*
%TO.C,D144*%
X185000000Y-175000000D03*
D23*
X184625000Y-173450000D03*
X185375000Y-176550000D03*
%TD*%
D22*
%TO.C,D38*%
X85000000Y-85000000D03*
D23*
X84625000Y-83450000D03*
X85375000Y-86550000D03*
%TD*%
%TO.C,D7*%
X94625000Y-53450000D03*
X95375000Y-56550000D03*
D22*
X95000000Y-55000000D03*
%TD*%
D23*
%TO.C,D13*%
X104625000Y-63450000D03*
X105375000Y-66550000D03*
D22*
X105000000Y-65000000D03*
%TD*%
D24*
%TO.C,U7*%
X107137500Y-136425000D03*
X107137500Y-137075000D03*
X107137500Y-137725000D03*
X107137500Y-138375000D03*
X107137500Y-139025000D03*
X107137500Y-139675000D03*
X107137500Y-140325000D03*
X107137500Y-140975000D03*
X107137500Y-141625000D03*
X107137500Y-142275000D03*
X107137500Y-142925000D03*
X107137500Y-143575000D03*
X112862500Y-143575000D03*
X112862500Y-142925000D03*
X112862500Y-142275000D03*
X112862500Y-141625000D03*
X112862500Y-140975000D03*
X112862500Y-140325000D03*
X112862500Y-139675000D03*
X112862500Y-139025000D03*
X112862500Y-138375000D03*
X112862500Y-137725000D03*
X112862500Y-137075000D03*
X112862500Y-136425000D03*
%TD*%
D22*
%TO.C,D126*%
X155000000Y-155000000D03*
D23*
X154625000Y-153450000D03*
X155375000Y-156550000D03*
%TD*%
D26*
%TO.C,C11*%
X80925000Y-109000000D03*
X79050000Y-109000000D03*
%TD*%
%TO.C,C9*%
X110937500Y-39000000D03*
X109062500Y-39000000D03*
%TD*%
D27*
%TO.C,C13*%
X110950000Y-129250000D03*
X109050000Y-129250000D03*
%TD*%
D24*
%TO.C,U6*%
X57137500Y-156425000D03*
X57137500Y-157075000D03*
X57137500Y-157725000D03*
X57137500Y-158375000D03*
X57137500Y-159025000D03*
X57137500Y-159675000D03*
X57137500Y-160325000D03*
X57137500Y-160975000D03*
X57137500Y-161625000D03*
X57137500Y-162275000D03*
X57137500Y-162925000D03*
X57137500Y-163575000D03*
X62862500Y-163575000D03*
X62862500Y-162925000D03*
X62862500Y-162275000D03*
X62862500Y-161625000D03*
X62862500Y-160975000D03*
X62862500Y-160325000D03*
X62862500Y-159675000D03*
X62862500Y-159025000D03*
X62862500Y-158375000D03*
X62862500Y-157725000D03*
X62862500Y-157075000D03*
X62862500Y-156425000D03*
%TD*%
D23*
%TO.C,D105*%
X65375000Y-146550000D03*
X64625000Y-143450000D03*
D22*
X65000000Y-145000000D03*
%TD*%
D18*
%TO.C,C1*%
X79337500Y-85700000D03*
X81212500Y-85700000D03*
%TD*%
D28*
%TO.C,J1*%
X121655000Y-116030000D03*
X118345000Y-118570000D03*
X121655000Y-121110000D03*
X118345000Y-123650000D03*
X121655000Y-126190000D03*
X118345000Y-128730000D03*
X121655000Y-131270000D03*
X118345000Y-133810000D03*
X121655000Y-136350000D03*
X118345000Y-138890000D03*
X121655000Y-141430000D03*
X118345000Y-143970000D03*
%TD*%
%TO.C,J2*%
X111655000Y-88650000D03*
X108345000Y-91190000D03*
X111655000Y-93730000D03*
X108345000Y-96270000D03*
X111655000Y-98810000D03*
X108345000Y-101350000D03*
%TD*%
D29*
%TO.C,C8*%
X107525000Y-87587500D03*
X107525000Y-89462500D03*
%TD*%
D18*
%TO.C,C10*%
X59062500Y-101000000D03*
X60937500Y-101000000D03*
%TD*%
D26*
%TO.C,C12*%
X60937500Y-146500000D03*
X59062500Y-146500000D03*
%TD*%
D30*
%TO.C,C22*%
X121350000Y-70000000D03*
X118650000Y-70000000D03*
%TD*%
D31*
%TO.C,X1*%
X90725000Y-70925000D03*
X90725000Y-69075000D03*
X89275000Y-69075000D03*
X89275000Y-70925000D03*
%TD*%
D32*
%TO.C,C25*%
X48650000Y-160000000D03*
X51350000Y-160000000D03*
%TD*%
D33*
%TO.C,RV1*%
X208025000Y-101000000D03*
X205485000Y-103540000D03*
X202945000Y-101000000D03*
%TD*%
D34*
%TO.C,R6*%
X126350000Y-82962500D03*
X126350000Y-81137500D03*
%TD*%
D30*
%TO.C,C23*%
X161400000Y-80000000D03*
X158700000Y-80000000D03*
%TD*%
D35*
%TO.C,R22*%
X150837500Y-88750000D03*
X152662500Y-88750000D03*
%TD*%
D36*
%TO.C,R10*%
X60912500Y-97000000D03*
X59087500Y-97000000D03*
%TD*%
D37*
%TO.C,U13*%
X198905000Y-113875000D03*
X197635000Y-113875000D03*
X196365000Y-113875000D03*
X195095000Y-113875000D03*
X195095000Y-108625000D03*
X196365000Y-108625000D03*
X197635000Y-108625000D03*
X198905000Y-108625000D03*
%TD*%
D38*
%TO.C,R18*%
X82450000Y-139462500D03*
X82450000Y-142387500D03*
%TD*%
D39*
%TO.C,C38*%
X190700000Y-116950000D03*
X190700000Y-115050000D03*
%TD*%
%TO.C,C30*%
X123600000Y-93650000D03*
X123600000Y-91750000D03*
%TD*%
D11*
%TO.C,C19*%
X163100000Y-129050000D03*
X163100000Y-130950000D03*
%TD*%
D40*
%TO.C,C32*%
X147080000Y-91000000D03*
X148980000Y-91000000D03*
%TD*%
D41*
%TO.C,J6*%
X207000000Y-116025000D03*
D42*
X207000000Y-118565000D03*
X207000000Y-121105000D03*
X207000000Y-123645000D03*
X207000000Y-126185000D03*
X207000000Y-128725000D03*
X207000000Y-131265000D03*
X207000000Y-133805000D03*
X207000000Y-136345000D03*
X207000000Y-138885000D03*
X207000000Y-141425000D03*
X207000000Y-143965000D03*
%TD*%
D31*
%TO.C,X3*%
X160725000Y-130925000D03*
X160725000Y-129075000D03*
X159275000Y-129075000D03*
X159275000Y-130925000D03*
%TD*%
D27*
%TO.C,C33*%
X129650000Y-85150000D03*
X127750000Y-85150000D03*
%TD*%
%TO.C,C14*%
X160950000Y-149000000D03*
X159050000Y-149000000D03*
%TD*%
D35*
%TO.C,R13*%
X109175000Y-133000000D03*
X111000000Y-133000000D03*
%TD*%
D28*
%TO.C,J3*%
X101655000Y-116030000D03*
X98345000Y-118570000D03*
X101655000Y-121110000D03*
X98345000Y-123650000D03*
X101655000Y-126190000D03*
X98345000Y-128730000D03*
X101655000Y-131270000D03*
X98345000Y-133810000D03*
X101655000Y-136350000D03*
X98345000Y-138890000D03*
X101655000Y-141430000D03*
X98345000Y-143970000D03*
%TD*%
D43*
%TO.C,R1*%
X119700000Y-86487500D03*
X119700000Y-88312500D03*
%TD*%
D36*
%TO.C,R8*%
X110922500Y-85690000D03*
X109097500Y-85690000D03*
%TD*%
D44*
%TO.C,X2*%
X78550000Y-140000000D03*
X78550000Y-141850000D03*
X80000000Y-141850000D03*
X80000000Y-140000000D03*
%TD*%
D39*
%TO.C,C36*%
X200100000Y-101450000D03*
X200100000Y-99550000D03*
%TD*%
D45*
%TO.C,SW2*%
X205075000Y-111075000D03*
X200925000Y-111075000D03*
X200925000Y-108925000D03*
X205075000Y-108925000D03*
%TD*%
D32*
%TO.C,C21*%
X58650000Y-80000000D03*
X61350000Y-80000000D03*
%TD*%
D46*
%TO.C,U12*%
X92800000Y-108780000D03*
D47*
X99100000Y-106500000D03*
D46*
X92800000Y-104220000D03*
%TD*%
D48*
%TO.C,J10*%
X201500000Y-142000000D03*
X192500000Y-142000000D03*
D49*
X197000000Y-141000000D03*
D50*
X197000000Y-135000000D03*
D51*
X197000000Y-144000000D03*
%TD*%
D11*
%TO.C,FB1*%
X193000000Y-115050000D03*
X193000000Y-116950000D03*
%TD*%
D34*
%TO.C,R7*%
X129100000Y-82962500D03*
X129100000Y-81137500D03*
%TD*%
D32*
%TO.C,C26*%
X108650000Y-120000000D03*
X111350000Y-120000000D03*
%TD*%
D30*
%TO.C,C28*%
X171350000Y-160000000D03*
X168650000Y-160000000D03*
%TD*%
D52*
%TO.C,J9*%
X184500000Y-118575000D03*
D42*
X184500000Y-121115000D03*
X184500000Y-123655000D03*
X184500000Y-126195000D03*
X184500000Y-128735000D03*
X184500000Y-131275000D03*
X184500000Y-133815000D03*
X184500000Y-136355000D03*
X184500000Y-138895000D03*
X184500000Y-141435000D03*
%TD*%
D39*
%TO.C,C18*%
X76200000Y-141875000D03*
X76200000Y-139975000D03*
%TD*%
D11*
%TO.C,C34*%
X124300000Y-86450000D03*
X124300000Y-88350000D03*
%TD*%
D32*
%TO.C,C27*%
X148650000Y-130000000D03*
X151350000Y-130000000D03*
%TD*%
D39*
%TO.C,C37*%
X203250000Y-116950000D03*
X203250000Y-115050000D03*
%TD*%
D53*
%TO.C,R20*%
X120237500Y-107475000D03*
X117312500Y-107475000D03*
%TD*%
D35*
%TO.C,R11*%
X79087500Y-113000000D03*
X80912500Y-113000000D03*
%TD*%
D34*
%TO.C,R25*%
X194750000Y-104587500D03*
X194750000Y-106412500D03*
%TD*%
D32*
%TO.C,C20*%
X98650000Y-50000000D03*
X101350000Y-50000000D03*
%TD*%
D43*
%TO.C,R4*%
X120850000Y-82962500D03*
X120850000Y-81137500D03*
%TD*%
D40*
%TO.C,C16*%
X159050000Y-102000000D03*
X160950000Y-102000000D03*
%TD*%
D41*
%TO.C,J8*%
X187040000Y-116035000D03*
D42*
X187040000Y-118575000D03*
X187040000Y-121115000D03*
X187040000Y-123655000D03*
X187040000Y-126195000D03*
X187040000Y-128735000D03*
X187040000Y-131275000D03*
X187040000Y-133815000D03*
X187040000Y-136355000D03*
X187040000Y-138895000D03*
X187040000Y-141435000D03*
X187040000Y-143975000D03*
%TD*%
D35*
%TO.C,R15*%
X139087500Y-113000000D03*
X140912500Y-113000000D03*
%TD*%
D52*
%TO.C,J7*%
X209540000Y-118565000D03*
D42*
X209540000Y-121105000D03*
X209540000Y-123645000D03*
X209540000Y-126185000D03*
X209540000Y-128725000D03*
X209540000Y-131265000D03*
X209540000Y-133805000D03*
X209540000Y-136345000D03*
X209540000Y-138885000D03*
X209540000Y-141425000D03*
%TD*%
D25*
%TO.C,U10*%
X162862500Y-93575000D03*
X162862500Y-92925000D03*
X162862500Y-92275000D03*
X162862500Y-91625000D03*
X162862500Y-90975000D03*
X162862500Y-90325000D03*
X162862500Y-89675000D03*
X162862500Y-89025000D03*
X162862500Y-88375000D03*
X162862500Y-87725000D03*
X162862500Y-87075000D03*
X162862500Y-86425000D03*
X157137500Y-86425000D03*
X157137500Y-87075000D03*
X157137500Y-87725000D03*
X157137500Y-88375000D03*
X157137500Y-89025000D03*
X157137500Y-89675000D03*
X157137500Y-90325000D03*
X157137500Y-90975000D03*
X157137500Y-91625000D03*
X157137500Y-92275000D03*
X157137500Y-92925000D03*
X157137500Y-93575000D03*
%TD*%
D54*
%TO.C,U11*%
X127540000Y-108775000D03*
D55*
X125000000Y-99625000D03*
D54*
X122460000Y-108775000D03*
%TD*%
D43*
%TO.C,R5*%
X123600000Y-82962500D03*
X123600000Y-81137500D03*
%TD*%
D40*
%TO.C,C31*%
X147080000Y-88750000D03*
X148980000Y-88750000D03*
%TD*%
D56*
%TO.C,J5*%
X186475000Y-102700000D03*
D42*
X186475000Y-100160000D03*
X189015000Y-102700000D03*
X189015000Y-100160000D03*
X191555000Y-102700000D03*
X191555000Y-100160000D03*
%TD*%
D41*
%TO.C,J4*%
X197000000Y-88700000D03*
D42*
X197000000Y-91240000D03*
X197000000Y-93780000D03*
X197000000Y-96320000D03*
X197000000Y-98860000D03*
X197000000Y-101400000D03*
%TD*%
D39*
%TO.C,FB2*%
X201000000Y-116950000D03*
X201000000Y-115050000D03*
%TD*%
D27*
%TO.C,C15*%
X140950000Y-109000000D03*
X139050000Y-109000000D03*
%TD*%
D11*
%TO.C,C17*%
X93100000Y-69050000D03*
X93100000Y-70950000D03*
%TD*%
D56*
%TO.C,J11*%
X207010000Y-147775000D03*
D42*
X209550000Y-147775000D03*
%TD*%
D36*
%TO.C,R16*%
X160912500Y-98000000D03*
X159087500Y-98000000D03*
%TD*%
D57*
%TO.C,R19*%
X156275000Y-131462500D03*
X156275000Y-128537500D03*
%TD*%
D39*
%TO.C,C35*%
X200100000Y-105150000D03*
X200100000Y-103250000D03*
%TD*%
D34*
%TO.C,R24*%
X196800000Y-104587500D03*
X196800000Y-106412500D03*
%TD*%
D35*
%TO.C,R12*%
X59087500Y-153000000D03*
X60912500Y-153000000D03*
%TD*%
D58*
%TO.C,SW1*%
X188925000Y-108925000D03*
X193075000Y-108925000D03*
X188925000Y-111075000D03*
X193075000Y-111075000D03*
%TD*%
D53*
%TO.C,R17*%
X90737500Y-73225000D03*
X87812500Y-73225000D03*
%TD*%
D43*
%TO.C,R2*%
X121985000Y-86487500D03*
X121985000Y-88312500D03*
%TD*%
D35*
%TO.C,R9*%
X109087500Y-43000000D03*
X110912500Y-43000000D03*
%TD*%
%TO.C,R23*%
X150837500Y-91000000D03*
X152662500Y-91000000D03*
%TD*%
D59*
%TO.C,R21*%
X117312500Y-110275000D03*
X120237500Y-110275000D03*
%TD*%
D35*
%TO.C,R14*%
X159087500Y-153000000D03*
X160912500Y-153000000D03*
%TD*%
D43*
%TO.C,R26*%
X209250000Y-109087500D03*
X209250000Y-110912500D03*
%TD*%
D39*
%TO.C,C29*%
X120850000Y-93650000D03*
X120850000Y-91750000D03*
%TD*%
D59*
%TO.C,R3*%
X108537500Y-70000000D03*
X111462500Y-70000000D03*
%TD*%
D30*
%TO.C,C24*%
X71350000Y-130000000D03*
X68650000Y-130000000D03*
%TD*%
D60*
%TO.C,D145*%
X130300000Y-87550000D03*
X127100000Y-87550000D03*
X127100000Y-92450000D03*
X130300000Y-92450000D03*
%TD*%
M02*
