M48
; DRILL file {KiCad (6.0.7-1)-1} date Friday, October 07, 2022 at 03:09:24 pm
; FORMAT={-:-/ absolute / inch / decimal}
; #@! TF.CreationDate,2022-10-07T15:09:24-06:00
; #@! TF.GenerationSoftware,Kicad,Pcbnew,(6.0.7-1)-1
; #@! TF.FileFunction,Plated,1,4,PTH
FMAT,2
INCH
; #@! TA.AperFunction,Plated,PTH,ViaDrill
T1C0.0118
; #@! TA.AperFunction,Plated,PTH,ComponentDrill
T2C0.0276
; #@! TA.AperFunction,Plated,PTH,ComponentDrill
T3C0.0394
%
G90
G05
T1
X2.0551Y-3.5433
X2.0709Y-6.2992
X2.1417Y-3.1998
X2.1654Y-3.622
X2.2451Y-3.1024
X2.2472Y-6.1248
X2.2756Y-6.1191
X2.3211Y-3.6046
X2.3276Y-6.2028
X2.3297Y-6.1339
X2.376Y-4.123
X2.3858Y-3.6772
X2.4106Y-6.1862
X2.4173Y-6.0157
X2.4256Y-3.6311
X2.4256Y-3.6831
X2.4646Y-3.1496
X2.5276Y-5.9213
X2.5335Y-6.2343
X2.5413Y-3.5984
X2.563Y-3.6299
X2.6575Y-5.1181
X2.8484Y-4.6693
X2.8812Y-4.6839
X2.9055Y-4.6969
X2.9349Y-4.6319
X2.939Y-5.5098
X2.9528Y-4.3514
X2.9736Y-4.6331
X3.0287Y-4.5508
X3.0522Y-5.5856
X3.0665Y-4.5201
X3.0878Y-4.6374
X3.0906Y-3.5472
X3.0959Y-4.5709
X3.1236Y-3.1571
X3.1236Y-3.4283
X3.1319Y-4.5561
X3.1511Y-4.7406
X3.1811Y-4.5945
X3.187Y-5.5748
X3.2031Y-4.6606
X3.2126Y-4.3937
X3.2251Y-3.1466
X3.2283Y-3.4656
X3.2463Y-4.2894
X3.2623Y-4.5338
X3.2904Y-3.2776
X3.3366Y-4.0098
X3.4449Y-4.311
X3.4657Y-3.9776
X3.4711Y-2.7646
X3.5039Y-3.4394
X3.5066Y-3.8783
X3.5148Y-2.8839
X3.5157Y-4.0276
X3.5207Y-3.9759
X3.5268Y-3.8257
X3.5276Y-3.4724
X3.5355Y-3.8808
X3.5669Y-3.8071
X3.5748Y-4.0217
X3.5787Y-3.7441
X3.5807Y-3.5531
X3.5876Y-3.7815
X3.5925Y-3.6614
X3.6004Y-3.6181
X3.6004Y-3.7008
X3.6112Y-2.7175
X3.6142Y-3.7461
X3.6535Y-3.5079
X3.7244Y-2.6772
X3.7254Y-4.1919
X3.7402Y-3.4291
X3.7598Y-4.6693
X3.7844Y-4.0512
X3.8071Y-3.9803
X3.8091Y-5.189
X3.812Y-4.0433
X3.8186Y-3.8179
X3.8386Y-3.7963
X3.8406Y-4.0246
X3.8543Y-3.8386
X3.8691Y-5.1831
X3.8716Y-5.5915
X3.8792Y-3.8504
X3.8888Y-5.3799
X3.9045Y-5.1457
X3.9075Y-3.7736
X3.943Y-3.731
X3.9468Y-4.8209
X3.9518Y-5.0659
X3.9528Y-4.4921
X3.9567Y-4.9016
X3.9596Y-4.7116
X3.9728Y-3.4102
X3.974Y-3.76
X3.9872Y-4.7116
X4.0325Y-3.9843
X4.0472Y-1.9685
X4.0551Y-4.8622
X4.061Y-3.7844
X4.0953Y-5.4496
X4.1209Y-3.4496
X4.1267Y-5.4187
X4.1299Y-4.4026
X4.1457Y-4.0089
X4.1526Y-3.1407
X4.1535Y-3.5827
X4.1575Y-3.9449
X4.1606Y-5.4134
X4.1791Y-3.5453
X4.1969Y-3.378
X4.2274Y-2.7569
X4.2323Y-4.2126
X4.2421Y-1.7913
X4.2421Y-5.3346
X4.2441Y-3.6949
X4.2726Y-3.2382
X4.2756Y-1.8834
X4.2756Y-1.9173
X4.2795Y-3.4862
X4.2795Y-3.6506
X4.2815Y-3.9134
X4.3054Y-3.2643
X4.3071Y-5.4646
X4.312Y-2.0276
X4.3169Y-5.4213
X4.3228Y-1.9587
X4.3614Y-2.6807
X4.3632Y-2.8258
X4.3642Y-3.2146
X4.3642Y-5.4488
X4.3652Y-3.2854
X4.3711Y-3.5856
X4.3711Y-4.8228
X4.374Y-3.7362
X4.378Y-1.6929
X4.378Y-3.5433
X4.3839Y-4.7717
X4.3917Y-3.2392
X4.3917Y-3.9587
X4.3918Y-1.9203
X4.4094Y-5.1909
X4.4134Y-4.5945
X4.4139Y-3.3273
X4.439Y-5.1575
X4.4508Y-3.3632
X4.4618Y-5.1689
X4.4951Y-5.4213
X4.5Y-1.878
X4.5Y-4.7746
X4.5118Y-3.2352
X4.5512Y-4.3317
X4.5807Y-3.6841
X4.6004Y-3.9892
X4.6142Y-2.7559
X4.6142Y-5.378
X4.6181Y-4.1732
X4.6191Y-5.623
X4.6299Y-5.2087
X4.6329Y-5.3169
X4.6417Y-3.1663
X4.6496Y-4.4665
X4.6594Y-5.0098
X4.6703Y-3.439
X4.6831Y-5.1614
X4.685Y-3.0256
X4.7067Y-3.2303
X4.7077Y-5.5463
X4.7559Y-4.1417
X4.7894Y-4.8996
X4.8102Y-3.6114
X4.811Y-3.2303
X4.8504Y-3.4409
X4.9193Y-3.2303
X4.9646Y-4.7441
X5.0197Y-4.8622
X5.0291Y-3.3039
X5.0295Y-3.2303
X5.0906Y-3.5157
X5.1476Y-4.1486
X5.248Y-4.8622
X5.2492Y-4.0453
X5.3445Y-4.7215
X5.4134Y-4.5492
X5.4639Y-4.6348
X5.4961Y-4.6614
X5.513Y-4.6114
X5.561Y-4.3297
X5.6102Y-4.4026
X5.6624Y-4.3848
X5.6802Y-4.6328
X5.6841Y-4.6632
X5.7417Y-3.4933
X5.7425Y-3.5831
X5.748Y-5.0472
X5.8091Y-4.5346
X5.9142Y-3.6756
X5.9321Y-4.9419
X5.9579Y-5.1709
X6.0325Y-4.8425
X6.05Y-3.6768
X6.0657Y-3.5567
X6.0701Y-3.4974
X6.0827Y-6.2402
X6.1063Y-3.6358
X6.1063Y-6.2087
X6.1358Y-4.3268
X6.2008Y-6.126
X6.2087Y-5.063
X6.2293Y-5.1555
X6.2323Y-4.4252
X6.2382Y-6.1792
X6.2431Y-3.6386
X6.248Y-3.0984
X6.2549Y-3.8258
X6.2618Y-6.3622
X6.2748Y-6.2193
X6.2835Y-3.6098
X6.285Y-6.1626
X6.2923Y-5.2421
X6.2953Y-6.3366
X6.3435Y-3.6909
X6.3465Y-3.6378
X6.3465Y-6.0217
X6.3484Y-6.185
X6.3701Y-5.0827
X6.3701Y-5.2244
X6.4006Y-3.7195
X6.4715Y-6.2195
X6.5118Y-3.6299
X6.5787Y-3.5886
X6.5787Y-6.1004
X6.5945Y-6.2992
X6.6417Y-6.1398
X7.4213Y-4.748
X7.4675Y-4.3278
X7.4774Y-4.4596
X7.7087Y-4.5276
X7.7894Y-4.3425
T2
X7.99Y-3.9764
X8.09Y-4.0764
X8.19Y-3.9764
T3
X7.2638Y-4.6683
X7.2638Y-4.7683
X7.2638Y-4.8683
X7.2638Y-4.9683
X7.2638Y-5.0683
X7.2638Y-5.1683
X7.2638Y-5.2683
X7.2638Y-5.3683
X7.2638Y-5.4683
X7.2638Y-5.5683
X7.3159Y-3.9433
X7.3159Y-4.0433
X7.3638Y-4.5683
X7.3638Y-4.6683
X7.3638Y-4.7683
X7.3638Y-4.8683
X7.3638Y-4.9683
X7.3638Y-5.0683
X7.3638Y-5.1683
X7.3638Y-5.2683
X7.3638Y-5.3683
X7.3638Y-5.4683
X7.3638Y-5.5683
X7.3638Y-5.6683
X7.4159Y-3.9433
X7.4159Y-4.0433
X7.5159Y-3.9433
X7.5159Y-4.0433
X7.7057Y-4.5906
X7.7559Y-3.4921
X7.7559Y-3.5921
X7.7559Y-3.6921
X7.7559Y-3.7921
X7.7559Y-3.8921
X7.7559Y-3.9921
X7.8057Y-4.5906
X8.1496Y-4.5679
X8.1496Y-4.6679
X8.1496Y-4.7679
X8.1496Y-4.8679
X8.1496Y-4.9679
X8.1496Y-5.0679
X8.1496Y-5.1679
X8.1496Y-5.2679
X8.1496Y-5.3679
X8.1496Y-5.4679
X8.1496Y-5.5679
X8.1496Y-5.6679
X8.15Y-5.8179
X8.2496Y-4.6679
X8.2496Y-4.7679
X8.2496Y-4.8679
X8.2496Y-4.9679
X8.2496Y-5.0679
X8.2496Y-5.1679
X8.2496Y-5.2679
X8.2496Y-5.3679
X8.2496Y-5.4679
X8.2496Y-5.5679
X8.25Y-5.8179
T3
G00X7.5787Y-5.561
M15
G01X7.5787Y-5.6201
M16
G05
G00X7.7165Y-5.315
M15
G01X7.7953Y-5.315
M16
G05
G00X7.7303Y-5.5512
M15
G01X7.7815Y-5.5512
M16
G05
G00X7.9331Y-5.561
M15
G01X7.9331Y-5.6201
M16
G05
T0
M30
