G04 #@! TF.GenerationSoftware,KiCad,Pcbnew,(5.1.5-0)*
G04 #@! TF.CreationDate,2021-12-12T09:58:06-07:00*
G04 #@! TF.ProjectId,starman,73746172-6d61-46e2-9e6b-696361645f70,rev?*
G04 #@! TF.SameCoordinates,Original*
G04 #@! TF.FileFunction,Copper,L2,Bot*
G04 #@! TF.FilePolarity,Positive*
%FSLAX46Y46*%
G04 Gerber Fmt 4.6, Leading zero omitted, Abs format (unit mm)*
G04 Created by KiCad (PCBNEW (5.1.5-0)) date 2021-12-12 09:58:06*
%MOMM*%
%LPD*%
G04 APERTURE LIST*
%ADD10O,1.400000X1.400000*%
%ADD11C,1.400000*%
%ADD12C,1.800000*%
%ADD13R,1.800000X1.800000*%
%ADD14O,1.700000X1.700000*%
%ADD15R,1.700000X1.700000*%
%ADD16O,3.048000X1.850000*%
%ADD17C,1.600000*%
%ADD18C,1.440000*%
%ADD19O,1.905000X2.000000*%
%ADD20R,1.905000X2.000000*%
%ADD21C,0.100000*%
%ADD22R,3.500000X3.500000*%
%ADD23C,0.800000*%
%ADD24C,0.250000*%
%ADD25C,0.254000*%
G04 APERTURE END LIST*
D10*
X121920000Y-81280000D03*
D11*
X114300000Y-81280000D03*
D10*
X127000000Y-93980000D03*
D11*
X127000000Y-101600000D03*
D10*
X114300000Y-86360000D03*
D11*
X121920000Y-86360000D03*
D10*
X121920000Y-91440000D03*
D11*
X114300000Y-91440000D03*
D10*
X121920000Y-96520000D03*
D11*
X114300000Y-96520000D03*
D10*
X121920000Y-101600000D03*
D11*
X114300000Y-101600000D03*
D12*
X132080000Y-129540000D03*
D13*
X132080000Y-127000000D03*
D12*
X106680000Y-129540000D03*
D13*
X106680000Y-127000000D03*
D12*
X113030000Y-129540000D03*
D13*
X113030000Y-127000000D03*
D12*
X119380000Y-129540000D03*
D13*
X119380000Y-127000000D03*
D12*
X125730000Y-129540000D03*
D13*
X125730000Y-127000000D03*
D14*
X106680000Y-99060000D03*
X104140000Y-99060000D03*
X106680000Y-96520000D03*
X104140000Y-96520000D03*
X106680000Y-93980000D03*
X104140000Y-93980000D03*
X106680000Y-91440000D03*
X104140000Y-91440000D03*
X106680000Y-88900000D03*
X104140000Y-88900000D03*
X106680000Y-86360000D03*
X104140000Y-86360000D03*
X106680000Y-83820000D03*
X104140000Y-83820000D03*
X106680000Y-81280000D03*
X104140000Y-81280000D03*
X106680000Y-78740000D03*
D15*
X104140000Y-78740000D03*
D14*
X134620000Y-99060000D03*
X132080000Y-99060000D03*
X134620000Y-96520000D03*
X132080000Y-96520000D03*
X134620000Y-93980000D03*
X132080000Y-93980000D03*
X134620000Y-91440000D03*
X132080000Y-91440000D03*
X134620000Y-88900000D03*
X132080000Y-88900000D03*
X134620000Y-86360000D03*
X132080000Y-86360000D03*
X134620000Y-83820000D03*
X132080000Y-83820000D03*
X134620000Y-81280000D03*
X132080000Y-81280000D03*
X134620000Y-78740000D03*
D15*
X132080000Y-78740000D03*
D16*
X121920000Y-140636000D03*
X121920000Y-135636000D03*
X134420000Y-140636000D03*
X134420000Y-135636000D03*
D17*
X119086000Y-117348000D03*
X116586000Y-117348000D03*
X124714000Y-117348000D03*
X122214000Y-117348000D03*
X109474000Y-117348000D03*
X111974000Y-117348000D03*
X103926000Y-117348000D03*
X106426000Y-117348000D03*
D18*
X129540000Y-120650000D03*
X132080000Y-123190000D03*
X134620000Y-120650000D03*
D19*
X123190000Y-123317000D03*
X120650000Y-123317000D03*
D20*
X118110000Y-123317000D03*
D19*
X110490000Y-123317000D03*
X107950000Y-123317000D03*
D20*
X105410000Y-123317000D03*
D14*
X116078000Y-134620000D03*
X116078000Y-137160000D03*
D15*
X116078000Y-139700000D03*
D14*
X134620000Y-111760000D03*
D15*
X132080000Y-111760000D03*
D14*
X116840000Y-111760000D03*
X114300000Y-111760000D03*
X111760000Y-111760000D03*
X109220000Y-111760000D03*
X106680000Y-111760000D03*
D15*
X104140000Y-111760000D03*
D14*
X121920000Y-113030000D03*
X121920000Y-110490000D03*
X124460000Y-113030000D03*
X124460000Y-110490000D03*
X127000000Y-113030000D03*
D15*
X127000000Y-110490000D03*
G04 #@! TA.AperFunction,ComponentPad*
D21*
G36*
X108450765Y-140114213D02*
G01*
X108535704Y-140126813D01*
X108618999Y-140147677D01*
X108699848Y-140176605D01*
X108777472Y-140213319D01*
X108851124Y-140257464D01*
X108920094Y-140308616D01*
X108983718Y-140366282D01*
X109041384Y-140429906D01*
X109092536Y-140498876D01*
X109136681Y-140572528D01*
X109173395Y-140650152D01*
X109202323Y-140731001D01*
X109223187Y-140814296D01*
X109235787Y-140899235D01*
X109240000Y-140985000D01*
X109240000Y-142735000D01*
X109235787Y-142820765D01*
X109223187Y-142905704D01*
X109202323Y-142988999D01*
X109173395Y-143069848D01*
X109136681Y-143147472D01*
X109092536Y-143221124D01*
X109041384Y-143290094D01*
X108983718Y-143353718D01*
X108920094Y-143411384D01*
X108851124Y-143462536D01*
X108777472Y-143506681D01*
X108699848Y-143543395D01*
X108618999Y-143572323D01*
X108535704Y-143593187D01*
X108450765Y-143605787D01*
X108365000Y-143610000D01*
X106615000Y-143610000D01*
X106529235Y-143605787D01*
X106444296Y-143593187D01*
X106361001Y-143572323D01*
X106280152Y-143543395D01*
X106202528Y-143506681D01*
X106128876Y-143462536D01*
X106059906Y-143411384D01*
X105996282Y-143353718D01*
X105938616Y-143290094D01*
X105887464Y-143221124D01*
X105843319Y-143147472D01*
X105806605Y-143069848D01*
X105777677Y-142988999D01*
X105756813Y-142905704D01*
X105744213Y-142820765D01*
X105740000Y-142735000D01*
X105740000Y-140985000D01*
X105744213Y-140899235D01*
X105756813Y-140814296D01*
X105777677Y-140731001D01*
X105806605Y-140650152D01*
X105843319Y-140572528D01*
X105887464Y-140498876D01*
X105938616Y-140429906D01*
X105996282Y-140366282D01*
X106059906Y-140308616D01*
X106128876Y-140257464D01*
X106202528Y-140213319D01*
X106280152Y-140176605D01*
X106361001Y-140147677D01*
X106444296Y-140126813D01*
X106529235Y-140114213D01*
X106615000Y-140110000D01*
X108365000Y-140110000D01*
X108450765Y-140114213D01*
G37*
G04 #@! TD.AperFunction*
G04 #@! TA.AperFunction,ComponentPad*
G36*
X105313513Y-135413611D02*
G01*
X105386318Y-135424411D01*
X105457714Y-135442295D01*
X105527013Y-135467090D01*
X105593548Y-135498559D01*
X105656678Y-135536398D01*
X105715795Y-135580242D01*
X105770330Y-135629670D01*
X105819758Y-135684205D01*
X105863602Y-135743322D01*
X105901441Y-135806452D01*
X105932910Y-135872987D01*
X105957705Y-135942286D01*
X105975589Y-136013682D01*
X105986389Y-136086487D01*
X105990000Y-136160000D01*
X105990000Y-138160000D01*
X105986389Y-138233513D01*
X105975589Y-138306318D01*
X105957705Y-138377714D01*
X105932910Y-138447013D01*
X105901441Y-138513548D01*
X105863602Y-138576678D01*
X105819758Y-138635795D01*
X105770330Y-138690330D01*
X105715795Y-138739758D01*
X105656678Y-138783602D01*
X105593548Y-138821441D01*
X105527013Y-138852910D01*
X105457714Y-138877705D01*
X105386318Y-138895589D01*
X105313513Y-138906389D01*
X105240000Y-138910000D01*
X103740000Y-138910000D01*
X103666487Y-138906389D01*
X103593682Y-138895589D01*
X103522286Y-138877705D01*
X103452987Y-138852910D01*
X103386452Y-138821441D01*
X103323322Y-138783602D01*
X103264205Y-138739758D01*
X103209670Y-138690330D01*
X103160242Y-138635795D01*
X103116398Y-138576678D01*
X103078559Y-138513548D01*
X103047090Y-138447013D01*
X103022295Y-138377714D01*
X103004411Y-138306318D01*
X102993611Y-138233513D01*
X102990000Y-138160000D01*
X102990000Y-136160000D01*
X102993611Y-136086487D01*
X103004411Y-136013682D01*
X103022295Y-135942286D01*
X103047090Y-135872987D01*
X103078559Y-135806452D01*
X103116398Y-135743322D01*
X103160242Y-135684205D01*
X103209670Y-135629670D01*
X103264205Y-135580242D01*
X103323322Y-135536398D01*
X103386452Y-135498559D01*
X103452987Y-135467090D01*
X103522286Y-135442295D01*
X103593682Y-135424411D01*
X103666487Y-135413611D01*
X103740000Y-135410000D01*
X105240000Y-135410000D01*
X105313513Y-135413611D01*
G37*
G04 #@! TD.AperFunction*
D22*
X110490000Y-137160000D03*
D23*
X123099875Y-115192136D03*
X134620000Y-104902000D03*
X130302000Y-106426000D03*
X129540000Y-114808000D03*
X124968000Y-125222000D03*
D24*
X127000000Y-101600000D02*
X123099875Y-105500125D01*
X123099875Y-114626451D02*
X123099875Y-115192136D01*
X123099875Y-105500125D02*
X123099875Y-114626451D01*
X133350000Y-106172000D02*
X133350000Y-128270000D01*
X133350000Y-128270000D02*
X132080000Y-129540000D01*
X134620000Y-104902000D02*
X133350000Y-106172000D01*
X130302000Y-98298000D02*
X132080000Y-96520000D01*
X130302000Y-106426000D02*
X130302000Y-98298000D01*
X131230001Y-84669999D02*
X132080000Y-83820000D01*
X129540000Y-114808000D02*
X129540000Y-98362205D01*
X129540000Y-98362205D02*
X130556000Y-97346206D01*
X130556000Y-97346206D02*
X130556000Y-85344000D01*
X130556000Y-85344000D02*
X131230001Y-84669999D01*
X133350000Y-82550000D02*
X133770001Y-82129999D01*
X130105989Y-96970011D02*
X130105989Y-83762011D01*
X128015002Y-111760000D02*
X129032000Y-110743002D01*
X129032000Y-98044000D02*
X130105989Y-96970011D01*
X133770001Y-82129999D02*
X134620000Y-81280000D01*
X130105989Y-83762011D02*
X131318000Y-82550000D01*
X129032000Y-110743002D02*
X129032000Y-98044000D01*
X131318000Y-82550000D02*
X133350000Y-82550000D01*
X125730000Y-111760000D02*
X128015002Y-111760000D01*
X124460000Y-110490000D02*
X125730000Y-111760000D01*
X131318000Y-81280000D02*
X132080000Y-81280000D01*
X128524000Y-83633919D02*
X130877919Y-81280000D01*
X128524000Y-107866000D02*
X128524000Y-83633919D01*
X130877919Y-81280000D02*
X132080000Y-81280000D01*
X127000000Y-109390000D02*
X128524000Y-107866000D01*
X127000000Y-110490000D02*
X127000000Y-109390000D01*
X135890000Y-80010000D02*
X135469999Y-79589999D01*
X135890000Y-102558998D02*
X135890000Y-80010000D01*
X130683000Y-107765998D02*
X135890000Y-102558998D01*
X130683000Y-122047000D02*
X130683000Y-107765998D01*
X135469999Y-79589999D02*
X134620000Y-78740000D01*
X127508000Y-125222000D02*
X130683000Y-122047000D01*
X124968000Y-125222000D02*
X127508000Y-125222000D01*
X123190000Y-124567000D02*
X123190000Y-123317000D01*
X122535000Y-125222000D02*
X123190000Y-124567000D01*
X111145000Y-125222000D02*
X122535000Y-125222000D01*
X110490000Y-124567000D02*
X111145000Y-125222000D01*
X110490000Y-123317000D02*
X110490000Y-124567000D01*
X114300000Y-101600000D02*
X114300000Y-97790000D01*
X114300000Y-96800051D02*
X114300000Y-93980000D01*
X114300000Y-97790000D02*
X114300000Y-96800051D01*
X114300000Y-93980000D02*
X114300000Y-90170000D01*
X114300000Y-91440000D02*
X114300000Y-86360000D01*
X118618000Y-105918000D02*
X114999999Y-102299999D01*
X118618000Y-114300000D02*
X118618000Y-105918000D01*
X120650000Y-116332000D02*
X118618000Y-114300000D01*
X120650000Y-118795501D02*
X120650000Y-116332000D01*
X114999999Y-102299999D02*
X114300000Y-101600000D01*
X122504499Y-120650000D02*
X120650000Y-118795501D01*
X129540000Y-120650000D02*
X122504499Y-120650000D01*
X106680000Y-127000000D02*
X125730000Y-127000000D01*
D25*
G36*
X136398000Y-79443199D02*
G01*
X136061209Y-79106408D01*
X136105000Y-78886260D01*
X136105000Y-78593740D01*
X136047932Y-78306842D01*
X135935990Y-78036589D01*
X135773475Y-77793368D01*
X135566632Y-77586525D01*
X135323411Y-77424010D01*
X135053158Y-77312068D01*
X134766260Y-77255000D01*
X134473740Y-77255000D01*
X134186842Y-77312068D01*
X133916589Y-77424010D01*
X133673368Y-77586525D01*
X133541513Y-77718380D01*
X133519502Y-77645820D01*
X133460537Y-77535506D01*
X133381185Y-77438815D01*
X133284494Y-77359463D01*
X133174180Y-77300498D01*
X133054482Y-77264188D01*
X132930000Y-77251928D01*
X132365750Y-77255000D01*
X132207000Y-77413750D01*
X132207000Y-78613000D01*
X132227000Y-78613000D01*
X132227000Y-78867000D01*
X132207000Y-78867000D01*
X132207000Y-78887000D01*
X131953000Y-78887000D01*
X131953000Y-78867000D01*
X130753750Y-78867000D01*
X130595000Y-79025750D01*
X130591928Y-79590000D01*
X130604188Y-79714482D01*
X130640498Y-79834180D01*
X130699463Y-79944494D01*
X130778815Y-80041185D01*
X130875506Y-80120537D01*
X130985820Y-80179502D01*
X131058380Y-80201513D01*
X130926525Y-80333368D01*
X130799091Y-80524087D01*
X130728933Y-80530997D01*
X130585672Y-80574454D01*
X130453643Y-80645026D01*
X130337918Y-80739999D01*
X130314120Y-80768997D01*
X128012998Y-83070120D01*
X127984000Y-83093918D01*
X127960202Y-83122916D01*
X127960201Y-83122917D01*
X127889026Y-83209643D01*
X127818454Y-83341673D01*
X127788180Y-83441477D01*
X127774998Y-83484933D01*
X127764001Y-83596586D01*
X127760324Y-83633919D01*
X127764001Y-83671252D01*
X127764001Y-92892787D01*
X127678392Y-92830208D01*
X127441044Y-92719953D01*
X127333329Y-92687284D01*
X127127000Y-92810626D01*
X127127000Y-93853000D01*
X127147000Y-93853000D01*
X127147000Y-94107000D01*
X127127000Y-94107000D01*
X127127000Y-95149374D01*
X127333329Y-95272716D01*
X127441044Y-95240047D01*
X127678392Y-95129792D01*
X127764001Y-95067213D01*
X127764000Y-100504898D01*
X127632359Y-100416939D01*
X127389405Y-100316304D01*
X127131486Y-100265000D01*
X126868514Y-100265000D01*
X126610595Y-100316304D01*
X126367641Y-100416939D01*
X126148987Y-100563038D01*
X125963038Y-100748987D01*
X125816939Y-100967641D01*
X125716304Y-101210595D01*
X125665000Y-101468514D01*
X125665000Y-101731486D01*
X125686355Y-101838843D01*
X122588878Y-104936321D01*
X122559874Y-104960124D01*
X122504746Y-105027299D01*
X122464901Y-105075849D01*
X122415112Y-105168997D01*
X122394329Y-105207879D01*
X122350872Y-105351140D01*
X122339875Y-105462793D01*
X122339875Y-105462803D01*
X122336199Y-105500125D01*
X122339875Y-105537447D01*
X122339875Y-109059426D01*
X122066260Y-109005000D01*
X121773740Y-109005000D01*
X121486842Y-109062068D01*
X121216589Y-109174010D01*
X120973368Y-109336525D01*
X120766525Y-109543368D01*
X120604010Y-109786589D01*
X120492068Y-110056842D01*
X120435000Y-110343740D01*
X120435000Y-110636260D01*
X120492068Y-110923158D01*
X120604010Y-111193411D01*
X120766525Y-111436632D01*
X120973368Y-111643475D01*
X121147760Y-111760000D01*
X120973368Y-111876525D01*
X120766525Y-112083368D01*
X120604010Y-112326589D01*
X120492068Y-112596842D01*
X120435000Y-112883740D01*
X120435000Y-113176260D01*
X120492068Y-113463158D01*
X120604010Y-113733411D01*
X120766525Y-113976632D01*
X120973368Y-114183475D01*
X121216589Y-114345990D01*
X121486842Y-114457932D01*
X121773740Y-114515000D01*
X122066260Y-114515000D01*
X122339876Y-114460574D01*
X122339876Y-114488424D01*
X122295938Y-114532362D01*
X122182670Y-114701880D01*
X122104649Y-114890238D01*
X122064875Y-115090197D01*
X122064875Y-115294075D01*
X122104649Y-115494034D01*
X122182670Y-115682392D01*
X122295938Y-115851910D01*
X122362612Y-115918584D01*
X122143488Y-115907783D01*
X121863870Y-115949213D01*
X121597708Y-116044397D01*
X121472486Y-116111329D01*
X121412184Y-116316851D01*
X121410000Y-116294677D01*
X121410000Y-116294667D01*
X121399003Y-116183014D01*
X121355546Y-116039753D01*
X121332198Y-115996073D01*
X121284974Y-115907723D01*
X121213799Y-115820997D01*
X121190001Y-115791999D01*
X121161003Y-115768201D01*
X119378000Y-113985199D01*
X119378000Y-105955322D01*
X119381676Y-105917999D01*
X119378000Y-105880676D01*
X119378000Y-105880667D01*
X119367003Y-105769014D01*
X119323546Y-105625753D01*
X119261030Y-105508795D01*
X119252974Y-105493723D01*
X119181799Y-105406997D01*
X119158001Y-105377999D01*
X119129003Y-105354201D01*
X115613645Y-101838844D01*
X115635000Y-101731486D01*
X115635000Y-101468514D01*
X120585000Y-101468514D01*
X120585000Y-101731486D01*
X120636304Y-101989405D01*
X120736939Y-102232359D01*
X120883038Y-102451013D01*
X121068987Y-102636962D01*
X121287641Y-102783061D01*
X121530595Y-102883696D01*
X121788514Y-102935000D01*
X122051486Y-102935000D01*
X122309405Y-102883696D01*
X122552359Y-102783061D01*
X122771013Y-102636962D01*
X122956962Y-102451013D01*
X123103061Y-102232359D01*
X123203696Y-101989405D01*
X123255000Y-101731486D01*
X123255000Y-101468514D01*
X123203696Y-101210595D01*
X123103061Y-100967641D01*
X122956962Y-100748987D01*
X122771013Y-100563038D01*
X122552359Y-100416939D01*
X122309405Y-100316304D01*
X122051486Y-100265000D01*
X121788514Y-100265000D01*
X121530595Y-100316304D01*
X121287641Y-100416939D01*
X121068987Y-100563038D01*
X120883038Y-100748987D01*
X120736939Y-100967641D01*
X120636304Y-101210595D01*
X120585000Y-101468514D01*
X115635000Y-101468514D01*
X115583696Y-101210595D01*
X115483061Y-100967641D01*
X115336962Y-100748987D01*
X115151013Y-100563038D01*
X115060000Y-100502225D01*
X115060000Y-97617775D01*
X115151013Y-97556962D01*
X115336962Y-97371013D01*
X115483061Y-97152359D01*
X115583696Y-96909405D01*
X115635000Y-96651486D01*
X115635000Y-96388514D01*
X120585000Y-96388514D01*
X120585000Y-96651486D01*
X120636304Y-96909405D01*
X120736939Y-97152359D01*
X120883038Y-97371013D01*
X121068987Y-97556962D01*
X121287641Y-97703061D01*
X121530595Y-97803696D01*
X121788514Y-97855000D01*
X122051486Y-97855000D01*
X122309405Y-97803696D01*
X122552359Y-97703061D01*
X122771013Y-97556962D01*
X122956962Y-97371013D01*
X123103061Y-97152359D01*
X123203696Y-96909405D01*
X123255000Y-96651486D01*
X123255000Y-96388514D01*
X123203696Y-96130595D01*
X123103061Y-95887641D01*
X122956962Y-95668987D01*
X122771013Y-95483038D01*
X122552359Y-95336939D01*
X122309405Y-95236304D01*
X122051486Y-95185000D01*
X121788514Y-95185000D01*
X121530595Y-95236304D01*
X121287641Y-95336939D01*
X121068987Y-95483038D01*
X120883038Y-95668987D01*
X120736939Y-95887641D01*
X120636304Y-96130595D01*
X120585000Y-96388514D01*
X115635000Y-96388514D01*
X115583696Y-96130595D01*
X115483061Y-95887641D01*
X115336962Y-95668987D01*
X115151013Y-95483038D01*
X115060000Y-95422225D01*
X115060000Y-94313330D01*
X125707278Y-94313330D01*
X125797147Y-94559123D01*
X125933241Y-94782660D01*
X126110330Y-94975351D01*
X126321608Y-95129792D01*
X126558956Y-95240047D01*
X126666671Y-95272716D01*
X126873000Y-95149374D01*
X126873000Y-94107000D01*
X125829799Y-94107000D01*
X125707278Y-94313330D01*
X115060000Y-94313330D01*
X115060000Y-93646670D01*
X125707278Y-93646670D01*
X125829799Y-93853000D01*
X126873000Y-93853000D01*
X126873000Y-92810626D01*
X126666671Y-92687284D01*
X126558956Y-92719953D01*
X126321608Y-92830208D01*
X126110330Y-92984649D01*
X125933241Y-93177340D01*
X125797147Y-93400877D01*
X125707278Y-93646670D01*
X115060000Y-93646670D01*
X115060000Y-92537775D01*
X115151013Y-92476962D01*
X115336962Y-92291013D01*
X115483061Y-92072359D01*
X115583696Y-91829405D01*
X115635000Y-91571486D01*
X115635000Y-91308514D01*
X120585000Y-91308514D01*
X120585000Y-91571486D01*
X120636304Y-91829405D01*
X120736939Y-92072359D01*
X120883038Y-92291013D01*
X121068987Y-92476962D01*
X121287641Y-92623061D01*
X121530595Y-92723696D01*
X121788514Y-92775000D01*
X122051486Y-92775000D01*
X122309405Y-92723696D01*
X122552359Y-92623061D01*
X122771013Y-92476962D01*
X122956962Y-92291013D01*
X123103061Y-92072359D01*
X123203696Y-91829405D01*
X123255000Y-91571486D01*
X123255000Y-91308514D01*
X123203696Y-91050595D01*
X123103061Y-90807641D01*
X122956962Y-90588987D01*
X122771013Y-90403038D01*
X122552359Y-90256939D01*
X122309405Y-90156304D01*
X122051486Y-90105000D01*
X121788514Y-90105000D01*
X121530595Y-90156304D01*
X121287641Y-90256939D01*
X121068987Y-90403038D01*
X120883038Y-90588987D01*
X120736939Y-90807641D01*
X120636304Y-91050595D01*
X120585000Y-91308514D01*
X115635000Y-91308514D01*
X115583696Y-91050595D01*
X115483061Y-90807641D01*
X115336962Y-90588987D01*
X115151013Y-90403038D01*
X115060000Y-90342225D01*
X115060000Y-87457775D01*
X115151013Y-87396962D01*
X115336962Y-87211013D01*
X115483061Y-86992359D01*
X115583696Y-86749405D01*
X115635000Y-86491486D01*
X115635000Y-86228514D01*
X120585000Y-86228514D01*
X120585000Y-86491486D01*
X120636304Y-86749405D01*
X120736939Y-86992359D01*
X120883038Y-87211013D01*
X121068987Y-87396962D01*
X121287641Y-87543061D01*
X121530595Y-87643696D01*
X121788514Y-87695000D01*
X122051486Y-87695000D01*
X122309405Y-87643696D01*
X122552359Y-87543061D01*
X122771013Y-87396962D01*
X122956962Y-87211013D01*
X123103061Y-86992359D01*
X123203696Y-86749405D01*
X123255000Y-86491486D01*
X123255000Y-86228514D01*
X123203696Y-85970595D01*
X123103061Y-85727641D01*
X122956962Y-85508987D01*
X122771013Y-85323038D01*
X122552359Y-85176939D01*
X122309405Y-85076304D01*
X122051486Y-85025000D01*
X121788514Y-85025000D01*
X121530595Y-85076304D01*
X121287641Y-85176939D01*
X121068987Y-85323038D01*
X120883038Y-85508987D01*
X120736939Y-85727641D01*
X120636304Y-85970595D01*
X120585000Y-86228514D01*
X115635000Y-86228514D01*
X115583696Y-85970595D01*
X115483061Y-85727641D01*
X115336962Y-85508987D01*
X115151013Y-85323038D01*
X114932359Y-85176939D01*
X114689405Y-85076304D01*
X114431486Y-85025000D01*
X114168514Y-85025000D01*
X113910595Y-85076304D01*
X113667641Y-85176939D01*
X113448987Y-85323038D01*
X113263038Y-85508987D01*
X113116939Y-85727641D01*
X113016304Y-85970595D01*
X112965000Y-86228514D01*
X112965000Y-86491486D01*
X113016304Y-86749405D01*
X113116939Y-86992359D01*
X113263038Y-87211013D01*
X113448987Y-87396962D01*
X113540001Y-87457775D01*
X113540000Y-90342225D01*
X113448987Y-90403038D01*
X113263038Y-90588987D01*
X113116939Y-90807641D01*
X113016304Y-91050595D01*
X112965000Y-91308514D01*
X112965000Y-91571486D01*
X113016304Y-91829405D01*
X113116939Y-92072359D01*
X113263038Y-92291013D01*
X113448987Y-92476962D01*
X113540000Y-92537775D01*
X113540000Y-94017332D01*
X113540001Y-94017342D01*
X113540000Y-95422225D01*
X113448987Y-95483038D01*
X113263038Y-95668987D01*
X113116939Y-95887641D01*
X113016304Y-96130595D01*
X112965000Y-96388514D01*
X112965000Y-96651486D01*
X113016304Y-96909405D01*
X113116939Y-97152359D01*
X113263038Y-97371013D01*
X113448987Y-97556962D01*
X113540000Y-97617775D01*
X113540000Y-97827332D01*
X113540001Y-97827342D01*
X113540000Y-100502225D01*
X113448987Y-100563038D01*
X113263038Y-100748987D01*
X113116939Y-100967641D01*
X113016304Y-101210595D01*
X112965000Y-101468514D01*
X112965000Y-101731486D01*
X113016304Y-101989405D01*
X113116939Y-102232359D01*
X113263038Y-102451013D01*
X113448987Y-102636962D01*
X113667641Y-102783061D01*
X113910595Y-102883696D01*
X114168514Y-102935000D01*
X114431486Y-102935000D01*
X114538844Y-102913645D01*
X117858001Y-106232803D01*
X117858000Y-110677893D01*
X117786632Y-110606525D01*
X117543411Y-110444010D01*
X117273158Y-110332068D01*
X116986260Y-110275000D01*
X116693740Y-110275000D01*
X116406842Y-110332068D01*
X116136589Y-110444010D01*
X115893368Y-110606525D01*
X115686525Y-110813368D01*
X115570000Y-110987760D01*
X115453475Y-110813368D01*
X115246632Y-110606525D01*
X115003411Y-110444010D01*
X114733158Y-110332068D01*
X114446260Y-110275000D01*
X114153740Y-110275000D01*
X113866842Y-110332068D01*
X113596589Y-110444010D01*
X113353368Y-110606525D01*
X113146525Y-110813368D01*
X113030000Y-110987760D01*
X112913475Y-110813368D01*
X112706632Y-110606525D01*
X112463411Y-110444010D01*
X112193158Y-110332068D01*
X111906260Y-110275000D01*
X111613740Y-110275000D01*
X111326842Y-110332068D01*
X111056589Y-110444010D01*
X110813368Y-110606525D01*
X110606525Y-110813368D01*
X110490000Y-110987760D01*
X110373475Y-110813368D01*
X110166632Y-110606525D01*
X109923411Y-110444010D01*
X109653158Y-110332068D01*
X109366260Y-110275000D01*
X109073740Y-110275000D01*
X108786842Y-110332068D01*
X108516589Y-110444010D01*
X108273368Y-110606525D01*
X108066525Y-110813368D01*
X107944805Y-110995534D01*
X107875178Y-110878645D01*
X107680269Y-110662412D01*
X107446920Y-110488359D01*
X107184099Y-110363175D01*
X107036890Y-110318524D01*
X106807000Y-110439845D01*
X106807000Y-111633000D01*
X106827000Y-111633000D01*
X106827000Y-111887000D01*
X106807000Y-111887000D01*
X106807000Y-113080155D01*
X107036890Y-113201476D01*
X107184099Y-113156825D01*
X107446920Y-113031641D01*
X107680269Y-112857588D01*
X107875178Y-112641355D01*
X107944805Y-112524466D01*
X108066525Y-112706632D01*
X108273368Y-112913475D01*
X108516589Y-113075990D01*
X108786842Y-113187932D01*
X109073740Y-113245000D01*
X109366260Y-113245000D01*
X109653158Y-113187932D01*
X109923411Y-113075990D01*
X110166632Y-112913475D01*
X110373475Y-112706632D01*
X110490000Y-112532240D01*
X110606525Y-112706632D01*
X110813368Y-112913475D01*
X111056589Y-113075990D01*
X111326842Y-113187932D01*
X111613740Y-113245000D01*
X111906260Y-113245000D01*
X112193158Y-113187932D01*
X112463411Y-113075990D01*
X112706632Y-112913475D01*
X112913475Y-112706632D01*
X113030000Y-112532240D01*
X113146525Y-112706632D01*
X113353368Y-112913475D01*
X113596589Y-113075990D01*
X113866842Y-113187932D01*
X114153740Y-113245000D01*
X114446260Y-113245000D01*
X114733158Y-113187932D01*
X115003411Y-113075990D01*
X115246632Y-112913475D01*
X115453475Y-112706632D01*
X115570000Y-112532240D01*
X115686525Y-112706632D01*
X115893368Y-112913475D01*
X116136589Y-113075990D01*
X116406842Y-113187932D01*
X116693740Y-113245000D01*
X116986260Y-113245000D01*
X117273158Y-113187932D01*
X117543411Y-113075990D01*
X117786632Y-112913475D01*
X117858000Y-112842107D01*
X117858000Y-114262678D01*
X117854324Y-114300000D01*
X117858000Y-114337322D01*
X117858000Y-114337332D01*
X117868997Y-114448985D01*
X117894289Y-114532362D01*
X117912454Y-114592246D01*
X117983026Y-114724276D01*
X118022871Y-114772826D01*
X118077999Y-114840001D01*
X118107003Y-114863804D01*
X119158007Y-115914808D01*
X119015488Y-115907783D01*
X118735870Y-115949213D01*
X118469708Y-116044397D01*
X118344486Y-116111329D01*
X118272903Y-116355298D01*
X119086000Y-117168395D01*
X119100143Y-117154253D01*
X119279748Y-117333858D01*
X119265605Y-117348000D01*
X119279748Y-117362143D01*
X119100143Y-117541748D01*
X119086000Y-117527605D01*
X118272903Y-118340702D01*
X118344486Y-118584671D01*
X118599996Y-118705571D01*
X118874184Y-118774300D01*
X119156512Y-118788217D01*
X119436130Y-118746787D01*
X119702292Y-118651603D01*
X119827514Y-118584671D01*
X119890000Y-118371706D01*
X119890000Y-118758178D01*
X119886324Y-118795501D01*
X119890000Y-118832823D01*
X119890000Y-118832833D01*
X119900997Y-118944486D01*
X119944454Y-119087747D01*
X120015026Y-119219777D01*
X120054871Y-119268327D01*
X120109999Y-119335502D01*
X120139003Y-119359305D01*
X121940700Y-121161003D01*
X121964498Y-121190001D01*
X122080223Y-121284974D01*
X122212252Y-121355546D01*
X122355513Y-121399003D01*
X122467166Y-121410000D01*
X122467174Y-121410000D01*
X122504499Y-121413676D01*
X122541824Y-121410000D01*
X128418172Y-121410000D01*
X128487503Y-121513762D01*
X128676238Y-121702497D01*
X128898167Y-121850785D01*
X129144761Y-121952928D01*
X129406544Y-122005000D01*
X129650198Y-122005000D01*
X127193199Y-124462000D01*
X125671711Y-124462000D01*
X125627774Y-124418063D01*
X125458256Y-124304795D01*
X125269898Y-124226774D01*
X125069939Y-124187000D01*
X124866061Y-124187000D01*
X124666102Y-124226774D01*
X124477744Y-124304795D01*
X124464978Y-124313325D01*
X124516345Y-124250734D01*
X124663755Y-123974948D01*
X124754530Y-123675703D01*
X124777500Y-123442485D01*
X124777500Y-123191514D01*
X124754530Y-122958296D01*
X124663755Y-122659051D01*
X124516345Y-122383265D01*
X124317963Y-122141537D01*
X124076234Y-121943155D01*
X123800448Y-121795745D01*
X123501203Y-121704970D01*
X123190000Y-121674319D01*
X122878796Y-121704970D01*
X122579551Y-121795745D01*
X122303765Y-121943155D01*
X122062037Y-122141537D01*
X121920000Y-122314609D01*
X121777963Y-122141537D01*
X121536234Y-121943155D01*
X121260448Y-121795745D01*
X120961203Y-121704970D01*
X120650000Y-121674319D01*
X120338796Y-121704970D01*
X120039551Y-121795745D01*
X119763765Y-121943155D01*
X119637905Y-122046446D01*
X119593037Y-121962506D01*
X119513685Y-121865815D01*
X119416994Y-121786463D01*
X119306680Y-121727498D01*
X119186982Y-121691188D01*
X119062500Y-121678928D01*
X118395750Y-121682000D01*
X118237000Y-121840750D01*
X118237000Y-123190000D01*
X118257000Y-123190000D01*
X118257000Y-123444000D01*
X118237000Y-123444000D01*
X118237000Y-123464000D01*
X117983000Y-123464000D01*
X117983000Y-123444000D01*
X116681250Y-123444000D01*
X116522500Y-123602750D01*
X116519428Y-124317000D01*
X116531688Y-124441482D01*
X116537912Y-124462000D01*
X111642963Y-124462000D01*
X111816345Y-124250734D01*
X111963755Y-123974948D01*
X112054530Y-123675703D01*
X112077500Y-123442485D01*
X112077500Y-123191514D01*
X112054530Y-122958296D01*
X111963755Y-122659051D01*
X111816345Y-122383265D01*
X111761963Y-122317000D01*
X116519428Y-122317000D01*
X116522500Y-123031250D01*
X116681250Y-123190000D01*
X117983000Y-123190000D01*
X117983000Y-121840750D01*
X117824250Y-121682000D01*
X117157500Y-121678928D01*
X117033018Y-121691188D01*
X116913320Y-121727498D01*
X116803006Y-121786463D01*
X116706315Y-121865815D01*
X116626963Y-121962506D01*
X116567998Y-122072820D01*
X116531688Y-122192518D01*
X116519428Y-122317000D01*
X111761963Y-122317000D01*
X111617963Y-122141537D01*
X111376234Y-121943155D01*
X111100448Y-121795745D01*
X110801203Y-121704970D01*
X110490000Y-121674319D01*
X110178796Y-121704970D01*
X109879551Y-121795745D01*
X109603765Y-121943155D01*
X109362037Y-122141537D01*
X109214838Y-122320900D01*
X109059437Y-122135685D01*
X108816923Y-121941031D01*
X108541094Y-121797429D01*
X108322980Y-121726437D01*
X108077000Y-121846406D01*
X108077000Y-123190000D01*
X108097000Y-123190000D01*
X108097000Y-123444000D01*
X108077000Y-123444000D01*
X108077000Y-124787594D01*
X108322980Y-124907563D01*
X108541094Y-124836571D01*
X108816923Y-124692969D01*
X109059437Y-124498315D01*
X109214837Y-124313101D01*
X109362037Y-124492463D01*
X109603766Y-124690845D01*
X109758452Y-124773526D01*
X109784454Y-124859246D01*
X109855026Y-124991276D01*
X109922108Y-125073015D01*
X109950000Y-125107001D01*
X109978998Y-125130799D01*
X110581200Y-125733002D01*
X110604999Y-125762001D01*
X110633997Y-125785799D01*
X110720723Y-125856974D01*
X110852753Y-125927546D01*
X110996014Y-125971003D01*
X111107667Y-125982000D01*
X111107677Y-125982000D01*
X111145000Y-125985676D01*
X111182323Y-125982000D01*
X111503550Y-125982000D01*
X111491928Y-126100000D01*
X111491928Y-126240000D01*
X108218072Y-126240000D01*
X108218072Y-126100000D01*
X108205812Y-125975518D01*
X108169502Y-125855820D01*
X108110537Y-125745506D01*
X108031185Y-125648815D01*
X107934494Y-125569463D01*
X107824180Y-125510498D01*
X107704482Y-125474188D01*
X107580000Y-125461928D01*
X105780000Y-125461928D01*
X105655518Y-125474188D01*
X105535820Y-125510498D01*
X105425506Y-125569463D01*
X105328815Y-125648815D01*
X105249463Y-125745506D01*
X105190498Y-125855820D01*
X105154188Y-125975518D01*
X105141928Y-126100000D01*
X105141928Y-127900000D01*
X105154188Y-128024482D01*
X105190498Y-128144180D01*
X105249463Y-128254494D01*
X105328815Y-128351185D01*
X105425506Y-128430537D01*
X105535820Y-128489502D01*
X105554127Y-128495056D01*
X105487688Y-128561495D01*
X105319701Y-128812905D01*
X105203989Y-129092257D01*
X105145000Y-129388816D01*
X105145000Y-129691184D01*
X105203989Y-129987743D01*
X105319701Y-130267095D01*
X105487688Y-130518505D01*
X105701495Y-130732312D01*
X105952905Y-130900299D01*
X106232257Y-131016011D01*
X106528816Y-131075000D01*
X106831184Y-131075000D01*
X107127743Y-131016011D01*
X107407095Y-130900299D01*
X107658505Y-130732312D01*
X107872312Y-130518505D01*
X108040299Y-130267095D01*
X108156011Y-129987743D01*
X108215000Y-129691184D01*
X108215000Y-129388816D01*
X108156011Y-129092257D01*
X108040299Y-128812905D01*
X107872312Y-128561495D01*
X107805873Y-128495056D01*
X107824180Y-128489502D01*
X107934494Y-128430537D01*
X108031185Y-128351185D01*
X108110537Y-128254494D01*
X108169502Y-128144180D01*
X108205812Y-128024482D01*
X108218072Y-127900000D01*
X108218072Y-127760000D01*
X111491928Y-127760000D01*
X111491928Y-127900000D01*
X111504188Y-128024482D01*
X111540498Y-128144180D01*
X111599463Y-128254494D01*
X111678815Y-128351185D01*
X111775506Y-128430537D01*
X111885820Y-128489502D01*
X111904127Y-128495056D01*
X111837688Y-128561495D01*
X111669701Y-128812905D01*
X111553989Y-129092257D01*
X111495000Y-129388816D01*
X111495000Y-129691184D01*
X111553989Y-129987743D01*
X111669701Y-130267095D01*
X111837688Y-130518505D01*
X112051495Y-130732312D01*
X112302905Y-130900299D01*
X112582257Y-131016011D01*
X112878816Y-131075000D01*
X113181184Y-131075000D01*
X113477743Y-131016011D01*
X113757095Y-130900299D01*
X114008505Y-130732312D01*
X114222312Y-130518505D01*
X114390299Y-130267095D01*
X114506011Y-129987743D01*
X114565000Y-129691184D01*
X114565000Y-129388816D01*
X114506011Y-129092257D01*
X114390299Y-128812905D01*
X114222312Y-128561495D01*
X114155873Y-128495056D01*
X114174180Y-128489502D01*
X114284494Y-128430537D01*
X114381185Y-128351185D01*
X114460537Y-128254494D01*
X114519502Y-128144180D01*
X114555812Y-128024482D01*
X114568072Y-127900000D01*
X114568072Y-127760000D01*
X117841928Y-127760000D01*
X117841928Y-127900000D01*
X117854188Y-128024482D01*
X117890498Y-128144180D01*
X117949463Y-128254494D01*
X118028815Y-128351185D01*
X118125506Y-128430537D01*
X118235820Y-128489502D01*
X118254127Y-128495056D01*
X118187688Y-128561495D01*
X118019701Y-128812905D01*
X117903989Y-129092257D01*
X117845000Y-129388816D01*
X117845000Y-129691184D01*
X117903989Y-129987743D01*
X118019701Y-130267095D01*
X118187688Y-130518505D01*
X118401495Y-130732312D01*
X118652905Y-130900299D01*
X118932257Y-131016011D01*
X119228816Y-131075000D01*
X119531184Y-131075000D01*
X119827743Y-131016011D01*
X120107095Y-130900299D01*
X120358505Y-130732312D01*
X120572312Y-130518505D01*
X120740299Y-130267095D01*
X120856011Y-129987743D01*
X120915000Y-129691184D01*
X120915000Y-129388816D01*
X120856011Y-129092257D01*
X120740299Y-128812905D01*
X120572312Y-128561495D01*
X120505873Y-128495056D01*
X120524180Y-128489502D01*
X120634494Y-128430537D01*
X120731185Y-128351185D01*
X120810537Y-128254494D01*
X120869502Y-128144180D01*
X120905812Y-128024482D01*
X120918072Y-127900000D01*
X120918072Y-127760000D01*
X124191928Y-127760000D01*
X124191928Y-127900000D01*
X124204188Y-128024482D01*
X124240498Y-128144180D01*
X124299463Y-128254494D01*
X124378815Y-128351185D01*
X124475506Y-128430537D01*
X124585820Y-128489502D01*
X124604127Y-128495056D01*
X124537688Y-128561495D01*
X124369701Y-128812905D01*
X124253989Y-129092257D01*
X124195000Y-129388816D01*
X124195000Y-129691184D01*
X124253989Y-129987743D01*
X124369701Y-130267095D01*
X124537688Y-130518505D01*
X124751495Y-130732312D01*
X125002905Y-130900299D01*
X125282257Y-131016011D01*
X125578816Y-131075000D01*
X125881184Y-131075000D01*
X126177743Y-131016011D01*
X126457095Y-130900299D01*
X126708505Y-130732312D01*
X126922312Y-130518505D01*
X127090299Y-130267095D01*
X127206011Y-129987743D01*
X127265000Y-129691184D01*
X127265000Y-129388816D01*
X127206011Y-129092257D01*
X127090299Y-128812905D01*
X126922312Y-128561495D01*
X126855873Y-128495056D01*
X126874180Y-128489502D01*
X126984494Y-128430537D01*
X127081185Y-128351185D01*
X127160537Y-128254494D01*
X127219502Y-128144180D01*
X127255812Y-128024482D01*
X127268072Y-127900000D01*
X127268072Y-126100000D01*
X127256450Y-125982000D01*
X127470678Y-125982000D01*
X127508000Y-125985676D01*
X127545322Y-125982000D01*
X127545333Y-125982000D01*
X127656986Y-125971003D01*
X127800247Y-125927546D01*
X127932276Y-125856974D01*
X128048001Y-125762001D01*
X128071804Y-125732997D01*
X130725000Y-123079802D01*
X130725000Y-123323456D01*
X130777072Y-123585239D01*
X130879215Y-123831833D01*
X131027503Y-124053762D01*
X131216238Y-124242497D01*
X131438167Y-124390785D01*
X131684761Y-124492928D01*
X131946544Y-124545000D01*
X132213456Y-124545000D01*
X132475239Y-124492928D01*
X132590001Y-124445392D01*
X132590001Y-125461928D01*
X131180000Y-125461928D01*
X131055518Y-125474188D01*
X130935820Y-125510498D01*
X130825506Y-125569463D01*
X130728815Y-125648815D01*
X130649463Y-125745506D01*
X130590498Y-125855820D01*
X130554188Y-125975518D01*
X130541928Y-126100000D01*
X130541928Y-127900000D01*
X130554188Y-128024482D01*
X130590498Y-128144180D01*
X130649463Y-128254494D01*
X130728815Y-128351185D01*
X130825506Y-128430537D01*
X130935820Y-128489502D01*
X130954127Y-128495056D01*
X130887688Y-128561495D01*
X130719701Y-128812905D01*
X130603989Y-129092257D01*
X130545000Y-129388816D01*
X130545000Y-129691184D01*
X130603989Y-129987743D01*
X130719701Y-130267095D01*
X130887688Y-130518505D01*
X131101495Y-130732312D01*
X131352905Y-130900299D01*
X131632257Y-131016011D01*
X131928816Y-131075000D01*
X132231184Y-131075000D01*
X132527743Y-131016011D01*
X132807095Y-130900299D01*
X133058505Y-130732312D01*
X133272312Y-130518505D01*
X133440299Y-130267095D01*
X133556011Y-129987743D01*
X133615000Y-129691184D01*
X133615000Y-129388816D01*
X133563731Y-129131070D01*
X133861003Y-128833799D01*
X133890001Y-128810001D01*
X133984974Y-128694276D01*
X134055546Y-128562247D01*
X134099003Y-128418986D01*
X134110000Y-128307333D01*
X134110000Y-128307324D01*
X134113676Y-128270001D01*
X134110000Y-128232678D01*
X134110000Y-121905392D01*
X134224761Y-121952928D01*
X134486544Y-122005000D01*
X134753456Y-122005000D01*
X135015239Y-121952928D01*
X135261833Y-121850785D01*
X135483762Y-121702497D01*
X135672497Y-121513762D01*
X135820785Y-121291833D01*
X135922928Y-121045239D01*
X135975000Y-120783456D01*
X135975000Y-120516544D01*
X135922928Y-120254761D01*
X135820785Y-120008167D01*
X135672497Y-119786238D01*
X135483762Y-119597503D01*
X135261833Y-119449215D01*
X135015239Y-119347072D01*
X134753456Y-119295000D01*
X134486544Y-119295000D01*
X134224761Y-119347072D01*
X134110000Y-119394608D01*
X134110000Y-113154014D01*
X134115901Y-113156825D01*
X134263110Y-113201476D01*
X134493000Y-113080155D01*
X134493000Y-111887000D01*
X134747000Y-111887000D01*
X134747000Y-113080155D01*
X134976890Y-113201476D01*
X135124099Y-113156825D01*
X135386920Y-113031641D01*
X135620269Y-112857588D01*
X135815178Y-112641355D01*
X135964157Y-112391252D01*
X136061481Y-112116891D01*
X135940814Y-111887000D01*
X134747000Y-111887000D01*
X134493000Y-111887000D01*
X134473000Y-111887000D01*
X134473000Y-111633000D01*
X134493000Y-111633000D01*
X134493000Y-110439845D01*
X134747000Y-110439845D01*
X134747000Y-111633000D01*
X135940814Y-111633000D01*
X136061481Y-111403109D01*
X135964157Y-111128748D01*
X135815178Y-110878645D01*
X135620269Y-110662412D01*
X135386920Y-110488359D01*
X135124099Y-110363175D01*
X134976890Y-110318524D01*
X134747000Y-110439845D01*
X134493000Y-110439845D01*
X134263110Y-110318524D01*
X134115901Y-110363175D01*
X134110000Y-110365986D01*
X134110000Y-106486801D01*
X134659802Y-105937000D01*
X134721939Y-105937000D01*
X134921898Y-105897226D01*
X135110256Y-105819205D01*
X135279774Y-105705937D01*
X135423937Y-105561774D01*
X135537205Y-105392256D01*
X135615226Y-105203898D01*
X135655000Y-105003939D01*
X135655000Y-104800061D01*
X135615226Y-104600102D01*
X135537205Y-104411744D01*
X135423937Y-104242226D01*
X135352755Y-104171044D01*
X136398000Y-103125800D01*
X136398000Y-134906612D01*
X136322369Y-134765117D01*
X136127424Y-134527576D01*
X135889883Y-134332631D01*
X135618875Y-134187774D01*
X135324813Y-134098572D01*
X135095636Y-134076000D01*
X133744364Y-134076000D01*
X133515187Y-134098572D01*
X133221125Y-134187774D01*
X132950117Y-134332631D01*
X132712576Y-134527576D01*
X132517631Y-134765117D01*
X132372774Y-135036125D01*
X132283572Y-135330187D01*
X132253452Y-135636000D01*
X132283572Y-135941813D01*
X132372774Y-136235875D01*
X132517631Y-136506883D01*
X132712576Y-136744424D01*
X132950117Y-136939369D01*
X133221125Y-137084226D01*
X133515187Y-137173428D01*
X133744364Y-137196000D01*
X135095636Y-137196000D01*
X135324813Y-137173428D01*
X135618875Y-137084226D01*
X135889883Y-136939369D01*
X136127424Y-136744424D01*
X136322369Y-136506883D01*
X136398000Y-136365388D01*
X136398000Y-139901046D01*
X136386650Y-139874906D01*
X136211889Y-139622715D01*
X135991286Y-139409464D01*
X135733319Y-139243348D01*
X135447901Y-139130751D01*
X135146000Y-139076000D01*
X134547000Y-139076000D01*
X134547000Y-140509000D01*
X134567000Y-140509000D01*
X134567000Y-140763000D01*
X134547000Y-140763000D01*
X134547000Y-142196000D01*
X135146000Y-142196000D01*
X135447901Y-142141249D01*
X135733319Y-142028652D01*
X135991286Y-141862536D01*
X136211889Y-141649285D01*
X136386650Y-141397094D01*
X136398000Y-141370954D01*
X136398000Y-144018000D01*
X109158983Y-144018000D01*
X109205618Y-143993073D01*
X109434903Y-143804903D01*
X109623073Y-143575618D01*
X109762896Y-143314028D01*
X109848999Y-143030186D01*
X109878072Y-142735000D01*
X109878072Y-140985000D01*
X109848999Y-140689814D01*
X109762896Y-140405972D01*
X109623073Y-140144382D01*
X109434903Y-139915097D01*
X109205618Y-139726927D01*
X108944028Y-139587104D01*
X108815357Y-139548072D01*
X112240000Y-139548072D01*
X112364482Y-139535812D01*
X112484180Y-139499502D01*
X112594494Y-139440537D01*
X112691185Y-139361185D01*
X112770537Y-139264494D01*
X112829502Y-139154180D01*
X112865812Y-139034482D01*
X112878072Y-138910000D01*
X112878072Y-138850000D01*
X114589928Y-138850000D01*
X114589928Y-140550000D01*
X114602188Y-140674482D01*
X114638498Y-140794180D01*
X114697463Y-140904494D01*
X114776815Y-141001185D01*
X114873506Y-141080537D01*
X114983820Y-141139502D01*
X115103518Y-141175812D01*
X115228000Y-141188072D01*
X116928000Y-141188072D01*
X117052482Y-141175812D01*
X117172180Y-141139502D01*
X117282494Y-141080537D01*
X117374945Y-141004664D01*
X119805188Y-141004664D01*
X119831147Y-141115655D01*
X119953350Y-141397094D01*
X120128111Y-141649285D01*
X120348714Y-141862536D01*
X120606681Y-142028652D01*
X120892099Y-142141249D01*
X121194000Y-142196000D01*
X121793000Y-142196000D01*
X121793000Y-140763000D01*
X122047000Y-140763000D01*
X122047000Y-142196000D01*
X122646000Y-142196000D01*
X122947901Y-142141249D01*
X123233319Y-142028652D01*
X123491286Y-141862536D01*
X123711889Y-141649285D01*
X123886650Y-141397094D01*
X124008853Y-141115655D01*
X124034812Y-141004664D01*
X132305188Y-141004664D01*
X132331147Y-141115655D01*
X132453350Y-141397094D01*
X132628111Y-141649285D01*
X132848714Y-141862536D01*
X133106681Y-142028652D01*
X133392099Y-142141249D01*
X133694000Y-142196000D01*
X134293000Y-142196000D01*
X134293000Y-140763000D01*
X132425517Y-140763000D01*
X132305188Y-141004664D01*
X124034812Y-141004664D01*
X123914483Y-140763000D01*
X122047000Y-140763000D01*
X121793000Y-140763000D01*
X119925517Y-140763000D01*
X119805188Y-141004664D01*
X117374945Y-141004664D01*
X117379185Y-141001185D01*
X117458537Y-140904494D01*
X117517502Y-140794180D01*
X117553812Y-140674482D01*
X117566072Y-140550000D01*
X117566072Y-140267336D01*
X119805188Y-140267336D01*
X119925517Y-140509000D01*
X121793000Y-140509000D01*
X121793000Y-139076000D01*
X122047000Y-139076000D01*
X122047000Y-140509000D01*
X123914483Y-140509000D01*
X124034812Y-140267336D01*
X132305188Y-140267336D01*
X132425517Y-140509000D01*
X134293000Y-140509000D01*
X134293000Y-139076000D01*
X133694000Y-139076000D01*
X133392099Y-139130751D01*
X133106681Y-139243348D01*
X132848714Y-139409464D01*
X132628111Y-139622715D01*
X132453350Y-139874906D01*
X132331147Y-140156345D01*
X132305188Y-140267336D01*
X124034812Y-140267336D01*
X124008853Y-140156345D01*
X123886650Y-139874906D01*
X123711889Y-139622715D01*
X123491286Y-139409464D01*
X123233319Y-139243348D01*
X122947901Y-139130751D01*
X122646000Y-139076000D01*
X122047000Y-139076000D01*
X121793000Y-139076000D01*
X121194000Y-139076000D01*
X120892099Y-139130751D01*
X120606681Y-139243348D01*
X120348714Y-139409464D01*
X120128111Y-139622715D01*
X119953350Y-139874906D01*
X119831147Y-140156345D01*
X119805188Y-140267336D01*
X117566072Y-140267336D01*
X117566072Y-138850000D01*
X117553812Y-138725518D01*
X117517502Y-138605820D01*
X117458537Y-138495506D01*
X117379185Y-138398815D01*
X117282494Y-138319463D01*
X117172180Y-138260498D01*
X117099620Y-138238487D01*
X117231475Y-138106632D01*
X117393990Y-137863411D01*
X117505932Y-137593158D01*
X117563000Y-137306260D01*
X117563000Y-137013740D01*
X117505932Y-136726842D01*
X117393990Y-136456589D01*
X117231475Y-136213368D01*
X117024632Y-136006525D01*
X116850240Y-135890000D01*
X117024632Y-135773475D01*
X117162107Y-135636000D01*
X119753452Y-135636000D01*
X119783572Y-135941813D01*
X119872774Y-136235875D01*
X120017631Y-136506883D01*
X120212576Y-136744424D01*
X120450117Y-136939369D01*
X120721125Y-137084226D01*
X121015187Y-137173428D01*
X121244364Y-137196000D01*
X122595636Y-137196000D01*
X122824813Y-137173428D01*
X123118875Y-137084226D01*
X123389883Y-136939369D01*
X123627424Y-136744424D01*
X123822369Y-136506883D01*
X123967226Y-136235875D01*
X124056428Y-135941813D01*
X124086548Y-135636000D01*
X124056428Y-135330187D01*
X123967226Y-135036125D01*
X123822369Y-134765117D01*
X123627424Y-134527576D01*
X123389883Y-134332631D01*
X123118875Y-134187774D01*
X122824813Y-134098572D01*
X122595636Y-134076000D01*
X121244364Y-134076000D01*
X121015187Y-134098572D01*
X120721125Y-134187774D01*
X120450117Y-134332631D01*
X120212576Y-134527576D01*
X120017631Y-134765117D01*
X119872774Y-135036125D01*
X119783572Y-135330187D01*
X119753452Y-135636000D01*
X117162107Y-135636000D01*
X117231475Y-135566632D01*
X117393990Y-135323411D01*
X117505932Y-135053158D01*
X117563000Y-134766260D01*
X117563000Y-134473740D01*
X117505932Y-134186842D01*
X117393990Y-133916589D01*
X117231475Y-133673368D01*
X117024632Y-133466525D01*
X116781411Y-133304010D01*
X116511158Y-133192068D01*
X116224260Y-133135000D01*
X115931740Y-133135000D01*
X115644842Y-133192068D01*
X115374589Y-133304010D01*
X115131368Y-133466525D01*
X114924525Y-133673368D01*
X114762010Y-133916589D01*
X114650068Y-134186842D01*
X114593000Y-134473740D01*
X114593000Y-134766260D01*
X114650068Y-135053158D01*
X114762010Y-135323411D01*
X114924525Y-135566632D01*
X115131368Y-135773475D01*
X115305760Y-135890000D01*
X115131368Y-136006525D01*
X114924525Y-136213368D01*
X114762010Y-136456589D01*
X114650068Y-136726842D01*
X114593000Y-137013740D01*
X114593000Y-137306260D01*
X114650068Y-137593158D01*
X114762010Y-137863411D01*
X114924525Y-138106632D01*
X115056380Y-138238487D01*
X114983820Y-138260498D01*
X114873506Y-138319463D01*
X114776815Y-138398815D01*
X114697463Y-138495506D01*
X114638498Y-138605820D01*
X114602188Y-138725518D01*
X114589928Y-138850000D01*
X112878072Y-138850000D01*
X112878072Y-135410000D01*
X112865812Y-135285518D01*
X112829502Y-135165820D01*
X112770537Y-135055506D01*
X112691185Y-134958815D01*
X112594494Y-134879463D01*
X112484180Y-134820498D01*
X112364482Y-134784188D01*
X112240000Y-134771928D01*
X108740000Y-134771928D01*
X108615518Y-134784188D01*
X108495820Y-134820498D01*
X108385506Y-134879463D01*
X108288815Y-134958815D01*
X108209463Y-135055506D01*
X108150498Y-135165820D01*
X108114188Y-135285518D01*
X108101928Y-135410000D01*
X108101928Y-138910000D01*
X108114188Y-139034482D01*
X108150498Y-139154180D01*
X108209463Y-139264494D01*
X108288815Y-139361185D01*
X108385506Y-139440537D01*
X108462131Y-139481494D01*
X108365000Y-139471928D01*
X106615000Y-139471928D01*
X106319814Y-139501001D01*
X106035972Y-139587104D01*
X105774382Y-139726927D01*
X105545097Y-139915097D01*
X105356927Y-140144382D01*
X105217104Y-140405972D01*
X105131001Y-140689814D01*
X105101928Y-140985000D01*
X105101928Y-142735000D01*
X105131001Y-143030186D01*
X105217104Y-143314028D01*
X105356927Y-143575618D01*
X105545097Y-143804903D01*
X105774382Y-143993073D01*
X105821017Y-144018000D01*
X102362000Y-144018000D01*
X102362000Y-139012266D01*
X102364188Y-139034482D01*
X102400498Y-139154180D01*
X102459463Y-139264494D01*
X102538815Y-139361185D01*
X102635506Y-139440537D01*
X102745820Y-139499502D01*
X102865518Y-139535812D01*
X102990000Y-139548072D01*
X104204250Y-139545000D01*
X104363000Y-139386250D01*
X104363000Y-137287000D01*
X104617000Y-137287000D01*
X104617000Y-139386250D01*
X104775750Y-139545000D01*
X105990000Y-139548072D01*
X106114482Y-139535812D01*
X106234180Y-139499502D01*
X106344494Y-139440537D01*
X106441185Y-139361185D01*
X106520537Y-139264494D01*
X106579502Y-139154180D01*
X106615812Y-139034482D01*
X106628072Y-138910000D01*
X106625000Y-137445750D01*
X106466250Y-137287000D01*
X104617000Y-137287000D01*
X104363000Y-137287000D01*
X104343000Y-137287000D01*
X104343000Y-137033000D01*
X104363000Y-137033000D01*
X104363000Y-134933750D01*
X104617000Y-134933750D01*
X104617000Y-137033000D01*
X106466250Y-137033000D01*
X106625000Y-136874250D01*
X106628072Y-135410000D01*
X106615812Y-135285518D01*
X106579502Y-135165820D01*
X106520537Y-135055506D01*
X106441185Y-134958815D01*
X106344494Y-134879463D01*
X106234180Y-134820498D01*
X106114482Y-134784188D01*
X105990000Y-134771928D01*
X104775750Y-134775000D01*
X104617000Y-134933750D01*
X104363000Y-134933750D01*
X104204250Y-134775000D01*
X102990000Y-134771928D01*
X102865518Y-134784188D01*
X102745820Y-134820498D01*
X102635506Y-134879463D01*
X102538815Y-134958815D01*
X102459463Y-135055506D01*
X102400498Y-135165820D01*
X102364188Y-135285518D01*
X102362000Y-135307734D01*
X102362000Y-122317000D01*
X103819428Y-122317000D01*
X103819428Y-124317000D01*
X103831688Y-124441482D01*
X103867998Y-124561180D01*
X103926963Y-124671494D01*
X104006315Y-124768185D01*
X104103006Y-124847537D01*
X104213320Y-124906502D01*
X104333018Y-124942812D01*
X104457500Y-124955072D01*
X106362500Y-124955072D01*
X106486982Y-124942812D01*
X106606680Y-124906502D01*
X106716994Y-124847537D01*
X106813685Y-124768185D01*
X106893037Y-124671494D01*
X106942059Y-124579781D01*
X107083077Y-124692969D01*
X107358906Y-124836571D01*
X107577020Y-124907563D01*
X107823000Y-124787594D01*
X107823000Y-123444000D01*
X107803000Y-123444000D01*
X107803000Y-123190000D01*
X107823000Y-123190000D01*
X107823000Y-121846406D01*
X107577020Y-121726437D01*
X107358906Y-121797429D01*
X107083077Y-121941031D01*
X106942059Y-122054219D01*
X106893037Y-121962506D01*
X106813685Y-121865815D01*
X106716994Y-121786463D01*
X106606680Y-121727498D01*
X106486982Y-121691188D01*
X106362500Y-121678928D01*
X104457500Y-121678928D01*
X104333018Y-121691188D01*
X104213320Y-121727498D01*
X104103006Y-121786463D01*
X104006315Y-121865815D01*
X103926963Y-121962506D01*
X103867998Y-122072820D01*
X103831688Y-122192518D01*
X103819428Y-122317000D01*
X102362000Y-122317000D01*
X102362000Y-117206665D01*
X102491000Y-117206665D01*
X102491000Y-117489335D01*
X102546147Y-117766574D01*
X102654320Y-118027727D01*
X102811363Y-118262759D01*
X103011241Y-118462637D01*
X103246273Y-118619680D01*
X103507426Y-118727853D01*
X103784665Y-118783000D01*
X104067335Y-118783000D01*
X104344574Y-118727853D01*
X104605727Y-118619680D01*
X104840759Y-118462637D01*
X104962694Y-118340702D01*
X105612903Y-118340702D01*
X105684486Y-118584671D01*
X105939996Y-118705571D01*
X106214184Y-118774300D01*
X106496512Y-118788217D01*
X106776130Y-118746787D01*
X107042292Y-118651603D01*
X107167514Y-118584671D01*
X107239097Y-118340702D01*
X108660903Y-118340702D01*
X108732486Y-118584671D01*
X108987996Y-118705571D01*
X109262184Y-118774300D01*
X109544512Y-118788217D01*
X109824130Y-118746787D01*
X110090292Y-118651603D01*
X110215514Y-118584671D01*
X110287097Y-118340702D01*
X109474000Y-117527605D01*
X108660903Y-118340702D01*
X107239097Y-118340702D01*
X106426000Y-117527605D01*
X105612903Y-118340702D01*
X104962694Y-118340702D01*
X105040637Y-118262759D01*
X105174692Y-118062131D01*
X105189329Y-118089514D01*
X105433298Y-118161097D01*
X106246395Y-117348000D01*
X106605605Y-117348000D01*
X107418702Y-118161097D01*
X107662671Y-118089514D01*
X107783571Y-117834004D01*
X107852300Y-117559816D01*
X107859265Y-117418512D01*
X108033783Y-117418512D01*
X108075213Y-117698130D01*
X108170397Y-117964292D01*
X108237329Y-118089514D01*
X108481298Y-118161097D01*
X109294395Y-117348000D01*
X109653605Y-117348000D01*
X110466702Y-118161097D01*
X110710671Y-118089514D01*
X110724324Y-118060659D01*
X110859363Y-118262759D01*
X111059241Y-118462637D01*
X111294273Y-118619680D01*
X111555426Y-118727853D01*
X111832665Y-118783000D01*
X112115335Y-118783000D01*
X112392574Y-118727853D01*
X112653727Y-118619680D01*
X112888759Y-118462637D01*
X113088637Y-118262759D01*
X113245680Y-118027727D01*
X113353853Y-117766574D01*
X113409000Y-117489335D01*
X113409000Y-117206665D01*
X115151000Y-117206665D01*
X115151000Y-117489335D01*
X115206147Y-117766574D01*
X115314320Y-118027727D01*
X115471363Y-118262759D01*
X115671241Y-118462637D01*
X115906273Y-118619680D01*
X116167426Y-118727853D01*
X116444665Y-118783000D01*
X116727335Y-118783000D01*
X117004574Y-118727853D01*
X117265727Y-118619680D01*
X117500759Y-118462637D01*
X117700637Y-118262759D01*
X117834692Y-118062131D01*
X117849329Y-118089514D01*
X118093298Y-118161097D01*
X118906395Y-117348000D01*
X118093298Y-116534903D01*
X117849329Y-116606486D01*
X117835676Y-116635341D01*
X117700637Y-116433241D01*
X117500759Y-116233363D01*
X117265727Y-116076320D01*
X117004574Y-115968147D01*
X116727335Y-115913000D01*
X116444665Y-115913000D01*
X116167426Y-115968147D01*
X115906273Y-116076320D01*
X115671241Y-116233363D01*
X115471363Y-116433241D01*
X115314320Y-116668273D01*
X115206147Y-116929426D01*
X115151000Y-117206665D01*
X113409000Y-117206665D01*
X113353853Y-116929426D01*
X113245680Y-116668273D01*
X113088637Y-116433241D01*
X112888759Y-116233363D01*
X112653727Y-116076320D01*
X112392574Y-115968147D01*
X112115335Y-115913000D01*
X111832665Y-115913000D01*
X111555426Y-115968147D01*
X111294273Y-116076320D01*
X111059241Y-116233363D01*
X110859363Y-116433241D01*
X110725308Y-116633869D01*
X110710671Y-116606486D01*
X110466702Y-116534903D01*
X109653605Y-117348000D01*
X109294395Y-117348000D01*
X108481298Y-116534903D01*
X108237329Y-116606486D01*
X108116429Y-116861996D01*
X108047700Y-117136184D01*
X108033783Y-117418512D01*
X107859265Y-117418512D01*
X107866217Y-117277488D01*
X107824787Y-116997870D01*
X107729603Y-116731708D01*
X107662671Y-116606486D01*
X107418702Y-116534903D01*
X106605605Y-117348000D01*
X106246395Y-117348000D01*
X105433298Y-116534903D01*
X105189329Y-116606486D01*
X105175676Y-116635341D01*
X105040637Y-116433241D01*
X104962694Y-116355298D01*
X105612903Y-116355298D01*
X106426000Y-117168395D01*
X107239097Y-116355298D01*
X108660903Y-116355298D01*
X109474000Y-117168395D01*
X110287097Y-116355298D01*
X110215514Y-116111329D01*
X109960004Y-115990429D01*
X109685816Y-115921700D01*
X109403488Y-115907783D01*
X109123870Y-115949213D01*
X108857708Y-116044397D01*
X108732486Y-116111329D01*
X108660903Y-116355298D01*
X107239097Y-116355298D01*
X107167514Y-116111329D01*
X106912004Y-115990429D01*
X106637816Y-115921700D01*
X106355488Y-115907783D01*
X106075870Y-115949213D01*
X105809708Y-116044397D01*
X105684486Y-116111329D01*
X105612903Y-116355298D01*
X104962694Y-116355298D01*
X104840759Y-116233363D01*
X104605727Y-116076320D01*
X104344574Y-115968147D01*
X104067335Y-115913000D01*
X103784665Y-115913000D01*
X103507426Y-115968147D01*
X103246273Y-116076320D01*
X103011241Y-116233363D01*
X102811363Y-116433241D01*
X102654320Y-116668273D01*
X102546147Y-116929426D01*
X102491000Y-117206665D01*
X102362000Y-117206665D01*
X102362000Y-110910000D01*
X102651928Y-110910000D01*
X102651928Y-112610000D01*
X102664188Y-112734482D01*
X102700498Y-112854180D01*
X102759463Y-112964494D01*
X102838815Y-113061185D01*
X102935506Y-113140537D01*
X103045820Y-113199502D01*
X103165518Y-113235812D01*
X103290000Y-113248072D01*
X104990000Y-113248072D01*
X105114482Y-113235812D01*
X105234180Y-113199502D01*
X105344494Y-113140537D01*
X105441185Y-113061185D01*
X105520537Y-112964494D01*
X105579502Y-112854180D01*
X105603966Y-112773534D01*
X105679731Y-112857588D01*
X105913080Y-113031641D01*
X106175901Y-113156825D01*
X106323110Y-113201476D01*
X106553000Y-113080155D01*
X106553000Y-111887000D01*
X106533000Y-111887000D01*
X106533000Y-111633000D01*
X106553000Y-111633000D01*
X106553000Y-110439845D01*
X106323110Y-110318524D01*
X106175901Y-110363175D01*
X105913080Y-110488359D01*
X105679731Y-110662412D01*
X105603966Y-110746466D01*
X105579502Y-110665820D01*
X105520537Y-110555506D01*
X105441185Y-110458815D01*
X105344494Y-110379463D01*
X105234180Y-110320498D01*
X105114482Y-110284188D01*
X104990000Y-110271928D01*
X103290000Y-110271928D01*
X103165518Y-110284188D01*
X103045820Y-110320498D01*
X102935506Y-110379463D01*
X102838815Y-110458815D01*
X102759463Y-110555506D01*
X102700498Y-110665820D01*
X102664188Y-110785518D01*
X102651928Y-110910000D01*
X102362000Y-110910000D01*
X102362000Y-77890000D01*
X102651928Y-77890000D01*
X102651928Y-79590000D01*
X102664188Y-79714482D01*
X102700498Y-79834180D01*
X102759463Y-79944494D01*
X102838815Y-80041185D01*
X102935506Y-80120537D01*
X103045820Y-80179502D01*
X103118380Y-80201513D01*
X102986525Y-80333368D01*
X102824010Y-80576589D01*
X102712068Y-80846842D01*
X102655000Y-81133740D01*
X102655000Y-81426260D01*
X102712068Y-81713158D01*
X102824010Y-81983411D01*
X102986525Y-82226632D01*
X103193368Y-82433475D01*
X103367760Y-82550000D01*
X103193368Y-82666525D01*
X102986525Y-82873368D01*
X102824010Y-83116589D01*
X102712068Y-83386842D01*
X102655000Y-83673740D01*
X102655000Y-83966260D01*
X102712068Y-84253158D01*
X102824010Y-84523411D01*
X102986525Y-84766632D01*
X103193368Y-84973475D01*
X103367760Y-85090000D01*
X103193368Y-85206525D01*
X102986525Y-85413368D01*
X102824010Y-85656589D01*
X102712068Y-85926842D01*
X102655000Y-86213740D01*
X102655000Y-86506260D01*
X102712068Y-86793158D01*
X102824010Y-87063411D01*
X102986525Y-87306632D01*
X103193368Y-87513475D01*
X103367760Y-87630000D01*
X103193368Y-87746525D01*
X102986525Y-87953368D01*
X102824010Y-88196589D01*
X102712068Y-88466842D01*
X102655000Y-88753740D01*
X102655000Y-89046260D01*
X102712068Y-89333158D01*
X102824010Y-89603411D01*
X102986525Y-89846632D01*
X103193368Y-90053475D01*
X103367760Y-90170000D01*
X103193368Y-90286525D01*
X102986525Y-90493368D01*
X102824010Y-90736589D01*
X102712068Y-91006842D01*
X102655000Y-91293740D01*
X102655000Y-91586260D01*
X102712068Y-91873158D01*
X102824010Y-92143411D01*
X102986525Y-92386632D01*
X103193368Y-92593475D01*
X103367760Y-92710000D01*
X103193368Y-92826525D01*
X102986525Y-93033368D01*
X102824010Y-93276589D01*
X102712068Y-93546842D01*
X102655000Y-93833740D01*
X102655000Y-94126260D01*
X102712068Y-94413158D01*
X102824010Y-94683411D01*
X102986525Y-94926632D01*
X103193368Y-95133475D01*
X103367760Y-95250000D01*
X103193368Y-95366525D01*
X102986525Y-95573368D01*
X102824010Y-95816589D01*
X102712068Y-96086842D01*
X102655000Y-96373740D01*
X102655000Y-96666260D01*
X102712068Y-96953158D01*
X102824010Y-97223411D01*
X102986525Y-97466632D01*
X103193368Y-97673475D01*
X103367760Y-97790000D01*
X103193368Y-97906525D01*
X102986525Y-98113368D01*
X102824010Y-98356589D01*
X102712068Y-98626842D01*
X102655000Y-98913740D01*
X102655000Y-99206260D01*
X102712068Y-99493158D01*
X102824010Y-99763411D01*
X102986525Y-100006632D01*
X103193368Y-100213475D01*
X103436589Y-100375990D01*
X103706842Y-100487932D01*
X103993740Y-100545000D01*
X104286260Y-100545000D01*
X104573158Y-100487932D01*
X104843411Y-100375990D01*
X105086632Y-100213475D01*
X105293475Y-100006632D01*
X105410000Y-99832240D01*
X105526525Y-100006632D01*
X105733368Y-100213475D01*
X105976589Y-100375990D01*
X106246842Y-100487932D01*
X106533740Y-100545000D01*
X106826260Y-100545000D01*
X107113158Y-100487932D01*
X107383411Y-100375990D01*
X107626632Y-100213475D01*
X107833475Y-100006632D01*
X107995990Y-99763411D01*
X108107932Y-99493158D01*
X108165000Y-99206260D01*
X108165000Y-98913740D01*
X108107932Y-98626842D01*
X107995990Y-98356589D01*
X107833475Y-98113368D01*
X107626632Y-97906525D01*
X107452240Y-97790000D01*
X107626632Y-97673475D01*
X107833475Y-97466632D01*
X107995990Y-97223411D01*
X108107932Y-96953158D01*
X108165000Y-96666260D01*
X108165000Y-96373740D01*
X108107932Y-96086842D01*
X107995990Y-95816589D01*
X107833475Y-95573368D01*
X107626632Y-95366525D01*
X107452240Y-95250000D01*
X107626632Y-95133475D01*
X107833475Y-94926632D01*
X107995990Y-94683411D01*
X108107932Y-94413158D01*
X108165000Y-94126260D01*
X108165000Y-93833740D01*
X108107932Y-93546842D01*
X107995990Y-93276589D01*
X107833475Y-93033368D01*
X107626632Y-92826525D01*
X107452240Y-92710000D01*
X107626632Y-92593475D01*
X107833475Y-92386632D01*
X107995990Y-92143411D01*
X108107932Y-91873158D01*
X108165000Y-91586260D01*
X108165000Y-91293740D01*
X108107932Y-91006842D01*
X107995990Y-90736589D01*
X107833475Y-90493368D01*
X107626632Y-90286525D01*
X107452240Y-90170000D01*
X107626632Y-90053475D01*
X107833475Y-89846632D01*
X107995990Y-89603411D01*
X108107932Y-89333158D01*
X108165000Y-89046260D01*
X108165000Y-88753740D01*
X108107932Y-88466842D01*
X107995990Y-88196589D01*
X107833475Y-87953368D01*
X107626632Y-87746525D01*
X107452240Y-87630000D01*
X107626632Y-87513475D01*
X107833475Y-87306632D01*
X107995990Y-87063411D01*
X108107932Y-86793158D01*
X108165000Y-86506260D01*
X108165000Y-86213740D01*
X108107932Y-85926842D01*
X107995990Y-85656589D01*
X107833475Y-85413368D01*
X107626632Y-85206525D01*
X107452240Y-85090000D01*
X107626632Y-84973475D01*
X107833475Y-84766632D01*
X107995990Y-84523411D01*
X108107932Y-84253158D01*
X108165000Y-83966260D01*
X108165000Y-83673740D01*
X108107932Y-83386842D01*
X107995990Y-83116589D01*
X107833475Y-82873368D01*
X107626632Y-82666525D01*
X107452240Y-82550000D01*
X107626632Y-82433475D01*
X107833475Y-82226632D01*
X107995990Y-81983411D01*
X108107932Y-81713158D01*
X108165000Y-81426260D01*
X108165000Y-81148514D01*
X112965000Y-81148514D01*
X112965000Y-81411486D01*
X113016304Y-81669405D01*
X113116939Y-81912359D01*
X113263038Y-82131013D01*
X113448987Y-82316962D01*
X113667641Y-82463061D01*
X113910595Y-82563696D01*
X114168514Y-82615000D01*
X114431486Y-82615000D01*
X114689405Y-82563696D01*
X114932359Y-82463061D01*
X115151013Y-82316962D01*
X115336962Y-82131013D01*
X115483061Y-81912359D01*
X115583696Y-81669405D01*
X115594850Y-81613329D01*
X120627284Y-81613329D01*
X120659953Y-81721044D01*
X120770208Y-81958392D01*
X120924649Y-82169670D01*
X121117340Y-82346759D01*
X121340877Y-82482853D01*
X121586670Y-82572722D01*
X121793000Y-82450201D01*
X121793000Y-81407000D01*
X122047000Y-81407000D01*
X122047000Y-82450201D01*
X122253330Y-82572722D01*
X122499123Y-82482853D01*
X122722660Y-82346759D01*
X122915351Y-82169670D01*
X123069792Y-81958392D01*
X123180047Y-81721044D01*
X123212716Y-81613329D01*
X123089374Y-81407000D01*
X122047000Y-81407000D01*
X121793000Y-81407000D01*
X120750626Y-81407000D01*
X120627284Y-81613329D01*
X115594850Y-81613329D01*
X115635000Y-81411486D01*
X115635000Y-81148514D01*
X115594851Y-80946671D01*
X120627284Y-80946671D01*
X120750626Y-81153000D01*
X121793000Y-81153000D01*
X121793000Y-80109799D01*
X122047000Y-80109799D01*
X122047000Y-81153000D01*
X123089374Y-81153000D01*
X123212716Y-80946671D01*
X123180047Y-80838956D01*
X123069792Y-80601608D01*
X122915351Y-80390330D01*
X122722660Y-80213241D01*
X122499123Y-80077147D01*
X122253330Y-79987278D01*
X122047000Y-80109799D01*
X121793000Y-80109799D01*
X121586670Y-79987278D01*
X121340877Y-80077147D01*
X121117340Y-80213241D01*
X120924649Y-80390330D01*
X120770208Y-80601608D01*
X120659953Y-80838956D01*
X120627284Y-80946671D01*
X115594851Y-80946671D01*
X115583696Y-80890595D01*
X115483061Y-80647641D01*
X115336962Y-80428987D01*
X115151013Y-80243038D01*
X114932359Y-80096939D01*
X114689405Y-79996304D01*
X114431486Y-79945000D01*
X114168514Y-79945000D01*
X113910595Y-79996304D01*
X113667641Y-80096939D01*
X113448987Y-80243038D01*
X113263038Y-80428987D01*
X113116939Y-80647641D01*
X113016304Y-80890595D01*
X112965000Y-81148514D01*
X108165000Y-81148514D01*
X108165000Y-81133740D01*
X108107932Y-80846842D01*
X107995990Y-80576589D01*
X107833475Y-80333368D01*
X107626632Y-80126525D01*
X107452240Y-80010000D01*
X107626632Y-79893475D01*
X107833475Y-79686632D01*
X107995990Y-79443411D01*
X108107932Y-79173158D01*
X108165000Y-78886260D01*
X108165000Y-78593740D01*
X108107932Y-78306842D01*
X107995990Y-78036589D01*
X107898043Y-77890000D01*
X130591928Y-77890000D01*
X130595000Y-78454250D01*
X130753750Y-78613000D01*
X131953000Y-78613000D01*
X131953000Y-77413750D01*
X131794250Y-77255000D01*
X131230000Y-77251928D01*
X131105518Y-77264188D01*
X130985820Y-77300498D01*
X130875506Y-77359463D01*
X130778815Y-77438815D01*
X130699463Y-77535506D01*
X130640498Y-77645820D01*
X130604188Y-77765518D01*
X130591928Y-77890000D01*
X107898043Y-77890000D01*
X107833475Y-77793368D01*
X107626632Y-77586525D01*
X107383411Y-77424010D01*
X107113158Y-77312068D01*
X106826260Y-77255000D01*
X106533740Y-77255000D01*
X106246842Y-77312068D01*
X105976589Y-77424010D01*
X105733368Y-77586525D01*
X105601513Y-77718380D01*
X105579502Y-77645820D01*
X105520537Y-77535506D01*
X105441185Y-77438815D01*
X105344494Y-77359463D01*
X105234180Y-77300498D01*
X105114482Y-77264188D01*
X104990000Y-77251928D01*
X103290000Y-77251928D01*
X103165518Y-77264188D01*
X103045820Y-77300498D01*
X102935506Y-77359463D01*
X102838815Y-77438815D01*
X102759463Y-77535506D01*
X102700498Y-77645820D01*
X102664188Y-77765518D01*
X102651928Y-77890000D01*
X102362000Y-77890000D01*
X102362000Y-76962000D01*
X136398000Y-76962000D01*
X136398000Y-79443199D01*
G37*
X136398000Y-79443199D02*
X136061209Y-79106408D01*
X136105000Y-78886260D01*
X136105000Y-78593740D01*
X136047932Y-78306842D01*
X135935990Y-78036589D01*
X135773475Y-77793368D01*
X135566632Y-77586525D01*
X135323411Y-77424010D01*
X135053158Y-77312068D01*
X134766260Y-77255000D01*
X134473740Y-77255000D01*
X134186842Y-77312068D01*
X133916589Y-77424010D01*
X133673368Y-77586525D01*
X133541513Y-77718380D01*
X133519502Y-77645820D01*
X133460537Y-77535506D01*
X133381185Y-77438815D01*
X133284494Y-77359463D01*
X133174180Y-77300498D01*
X133054482Y-77264188D01*
X132930000Y-77251928D01*
X132365750Y-77255000D01*
X132207000Y-77413750D01*
X132207000Y-78613000D01*
X132227000Y-78613000D01*
X132227000Y-78867000D01*
X132207000Y-78867000D01*
X132207000Y-78887000D01*
X131953000Y-78887000D01*
X131953000Y-78867000D01*
X130753750Y-78867000D01*
X130595000Y-79025750D01*
X130591928Y-79590000D01*
X130604188Y-79714482D01*
X130640498Y-79834180D01*
X130699463Y-79944494D01*
X130778815Y-80041185D01*
X130875506Y-80120537D01*
X130985820Y-80179502D01*
X131058380Y-80201513D01*
X130926525Y-80333368D01*
X130799091Y-80524087D01*
X130728933Y-80530997D01*
X130585672Y-80574454D01*
X130453643Y-80645026D01*
X130337918Y-80739999D01*
X130314120Y-80768997D01*
X128012998Y-83070120D01*
X127984000Y-83093918D01*
X127960202Y-83122916D01*
X127960201Y-83122917D01*
X127889026Y-83209643D01*
X127818454Y-83341673D01*
X127788180Y-83441477D01*
X127774998Y-83484933D01*
X127764001Y-83596586D01*
X127760324Y-83633919D01*
X127764001Y-83671252D01*
X127764001Y-92892787D01*
X127678392Y-92830208D01*
X127441044Y-92719953D01*
X127333329Y-92687284D01*
X127127000Y-92810626D01*
X127127000Y-93853000D01*
X127147000Y-93853000D01*
X127147000Y-94107000D01*
X127127000Y-94107000D01*
X127127000Y-95149374D01*
X127333329Y-95272716D01*
X127441044Y-95240047D01*
X127678392Y-95129792D01*
X127764001Y-95067213D01*
X127764000Y-100504898D01*
X127632359Y-100416939D01*
X127389405Y-100316304D01*
X127131486Y-100265000D01*
X126868514Y-100265000D01*
X126610595Y-100316304D01*
X126367641Y-100416939D01*
X126148987Y-100563038D01*
X125963038Y-100748987D01*
X125816939Y-100967641D01*
X125716304Y-101210595D01*
X125665000Y-101468514D01*
X125665000Y-101731486D01*
X125686355Y-101838843D01*
X122588878Y-104936321D01*
X122559874Y-104960124D01*
X122504746Y-105027299D01*
X122464901Y-105075849D01*
X122415112Y-105168997D01*
X122394329Y-105207879D01*
X122350872Y-105351140D01*
X122339875Y-105462793D01*
X122339875Y-105462803D01*
X122336199Y-105500125D01*
X122339875Y-105537447D01*
X122339875Y-109059426D01*
X122066260Y-109005000D01*
X121773740Y-109005000D01*
X121486842Y-109062068D01*
X121216589Y-109174010D01*
X120973368Y-109336525D01*
X120766525Y-109543368D01*
X120604010Y-109786589D01*
X120492068Y-110056842D01*
X120435000Y-110343740D01*
X120435000Y-110636260D01*
X120492068Y-110923158D01*
X120604010Y-111193411D01*
X120766525Y-111436632D01*
X120973368Y-111643475D01*
X121147760Y-111760000D01*
X120973368Y-111876525D01*
X120766525Y-112083368D01*
X120604010Y-112326589D01*
X120492068Y-112596842D01*
X120435000Y-112883740D01*
X120435000Y-113176260D01*
X120492068Y-113463158D01*
X120604010Y-113733411D01*
X120766525Y-113976632D01*
X120973368Y-114183475D01*
X121216589Y-114345990D01*
X121486842Y-114457932D01*
X121773740Y-114515000D01*
X122066260Y-114515000D01*
X122339876Y-114460574D01*
X122339876Y-114488424D01*
X122295938Y-114532362D01*
X122182670Y-114701880D01*
X122104649Y-114890238D01*
X122064875Y-115090197D01*
X122064875Y-115294075D01*
X122104649Y-115494034D01*
X122182670Y-115682392D01*
X122295938Y-115851910D01*
X122362612Y-115918584D01*
X122143488Y-115907783D01*
X121863870Y-115949213D01*
X121597708Y-116044397D01*
X121472486Y-116111329D01*
X121412184Y-116316851D01*
X121410000Y-116294677D01*
X121410000Y-116294667D01*
X121399003Y-116183014D01*
X121355546Y-116039753D01*
X121332198Y-115996073D01*
X121284974Y-115907723D01*
X121213799Y-115820997D01*
X121190001Y-115791999D01*
X121161003Y-115768201D01*
X119378000Y-113985199D01*
X119378000Y-105955322D01*
X119381676Y-105917999D01*
X119378000Y-105880676D01*
X119378000Y-105880667D01*
X119367003Y-105769014D01*
X119323546Y-105625753D01*
X119261030Y-105508795D01*
X119252974Y-105493723D01*
X119181799Y-105406997D01*
X119158001Y-105377999D01*
X119129003Y-105354201D01*
X115613645Y-101838844D01*
X115635000Y-101731486D01*
X115635000Y-101468514D01*
X120585000Y-101468514D01*
X120585000Y-101731486D01*
X120636304Y-101989405D01*
X120736939Y-102232359D01*
X120883038Y-102451013D01*
X121068987Y-102636962D01*
X121287641Y-102783061D01*
X121530595Y-102883696D01*
X121788514Y-102935000D01*
X122051486Y-102935000D01*
X122309405Y-102883696D01*
X122552359Y-102783061D01*
X122771013Y-102636962D01*
X122956962Y-102451013D01*
X123103061Y-102232359D01*
X123203696Y-101989405D01*
X123255000Y-101731486D01*
X123255000Y-101468514D01*
X123203696Y-101210595D01*
X123103061Y-100967641D01*
X122956962Y-100748987D01*
X122771013Y-100563038D01*
X122552359Y-100416939D01*
X122309405Y-100316304D01*
X122051486Y-100265000D01*
X121788514Y-100265000D01*
X121530595Y-100316304D01*
X121287641Y-100416939D01*
X121068987Y-100563038D01*
X120883038Y-100748987D01*
X120736939Y-100967641D01*
X120636304Y-101210595D01*
X120585000Y-101468514D01*
X115635000Y-101468514D01*
X115583696Y-101210595D01*
X115483061Y-100967641D01*
X115336962Y-100748987D01*
X115151013Y-100563038D01*
X115060000Y-100502225D01*
X115060000Y-97617775D01*
X115151013Y-97556962D01*
X115336962Y-97371013D01*
X115483061Y-97152359D01*
X115583696Y-96909405D01*
X115635000Y-96651486D01*
X115635000Y-96388514D01*
X120585000Y-96388514D01*
X120585000Y-96651486D01*
X120636304Y-96909405D01*
X120736939Y-97152359D01*
X120883038Y-97371013D01*
X121068987Y-97556962D01*
X121287641Y-97703061D01*
X121530595Y-97803696D01*
X121788514Y-97855000D01*
X122051486Y-97855000D01*
X122309405Y-97803696D01*
X122552359Y-97703061D01*
X122771013Y-97556962D01*
X122956962Y-97371013D01*
X123103061Y-97152359D01*
X123203696Y-96909405D01*
X123255000Y-96651486D01*
X123255000Y-96388514D01*
X123203696Y-96130595D01*
X123103061Y-95887641D01*
X122956962Y-95668987D01*
X122771013Y-95483038D01*
X122552359Y-95336939D01*
X122309405Y-95236304D01*
X122051486Y-95185000D01*
X121788514Y-95185000D01*
X121530595Y-95236304D01*
X121287641Y-95336939D01*
X121068987Y-95483038D01*
X120883038Y-95668987D01*
X120736939Y-95887641D01*
X120636304Y-96130595D01*
X120585000Y-96388514D01*
X115635000Y-96388514D01*
X115583696Y-96130595D01*
X115483061Y-95887641D01*
X115336962Y-95668987D01*
X115151013Y-95483038D01*
X115060000Y-95422225D01*
X115060000Y-94313330D01*
X125707278Y-94313330D01*
X125797147Y-94559123D01*
X125933241Y-94782660D01*
X126110330Y-94975351D01*
X126321608Y-95129792D01*
X126558956Y-95240047D01*
X126666671Y-95272716D01*
X126873000Y-95149374D01*
X126873000Y-94107000D01*
X125829799Y-94107000D01*
X125707278Y-94313330D01*
X115060000Y-94313330D01*
X115060000Y-93646670D01*
X125707278Y-93646670D01*
X125829799Y-93853000D01*
X126873000Y-93853000D01*
X126873000Y-92810626D01*
X126666671Y-92687284D01*
X126558956Y-92719953D01*
X126321608Y-92830208D01*
X126110330Y-92984649D01*
X125933241Y-93177340D01*
X125797147Y-93400877D01*
X125707278Y-93646670D01*
X115060000Y-93646670D01*
X115060000Y-92537775D01*
X115151013Y-92476962D01*
X115336962Y-92291013D01*
X115483061Y-92072359D01*
X115583696Y-91829405D01*
X115635000Y-91571486D01*
X115635000Y-91308514D01*
X120585000Y-91308514D01*
X120585000Y-91571486D01*
X120636304Y-91829405D01*
X120736939Y-92072359D01*
X120883038Y-92291013D01*
X121068987Y-92476962D01*
X121287641Y-92623061D01*
X121530595Y-92723696D01*
X121788514Y-92775000D01*
X122051486Y-92775000D01*
X122309405Y-92723696D01*
X122552359Y-92623061D01*
X122771013Y-92476962D01*
X122956962Y-92291013D01*
X123103061Y-92072359D01*
X123203696Y-91829405D01*
X123255000Y-91571486D01*
X123255000Y-91308514D01*
X123203696Y-91050595D01*
X123103061Y-90807641D01*
X122956962Y-90588987D01*
X122771013Y-90403038D01*
X122552359Y-90256939D01*
X122309405Y-90156304D01*
X122051486Y-90105000D01*
X121788514Y-90105000D01*
X121530595Y-90156304D01*
X121287641Y-90256939D01*
X121068987Y-90403038D01*
X120883038Y-90588987D01*
X120736939Y-90807641D01*
X120636304Y-91050595D01*
X120585000Y-91308514D01*
X115635000Y-91308514D01*
X115583696Y-91050595D01*
X115483061Y-90807641D01*
X115336962Y-90588987D01*
X115151013Y-90403038D01*
X115060000Y-90342225D01*
X115060000Y-87457775D01*
X115151013Y-87396962D01*
X115336962Y-87211013D01*
X115483061Y-86992359D01*
X115583696Y-86749405D01*
X115635000Y-86491486D01*
X115635000Y-86228514D01*
X120585000Y-86228514D01*
X120585000Y-86491486D01*
X120636304Y-86749405D01*
X120736939Y-86992359D01*
X120883038Y-87211013D01*
X121068987Y-87396962D01*
X121287641Y-87543061D01*
X121530595Y-87643696D01*
X121788514Y-87695000D01*
X122051486Y-87695000D01*
X122309405Y-87643696D01*
X122552359Y-87543061D01*
X122771013Y-87396962D01*
X122956962Y-87211013D01*
X123103061Y-86992359D01*
X123203696Y-86749405D01*
X123255000Y-86491486D01*
X123255000Y-86228514D01*
X123203696Y-85970595D01*
X123103061Y-85727641D01*
X122956962Y-85508987D01*
X122771013Y-85323038D01*
X122552359Y-85176939D01*
X122309405Y-85076304D01*
X122051486Y-85025000D01*
X121788514Y-85025000D01*
X121530595Y-85076304D01*
X121287641Y-85176939D01*
X121068987Y-85323038D01*
X120883038Y-85508987D01*
X120736939Y-85727641D01*
X120636304Y-85970595D01*
X120585000Y-86228514D01*
X115635000Y-86228514D01*
X115583696Y-85970595D01*
X115483061Y-85727641D01*
X115336962Y-85508987D01*
X115151013Y-85323038D01*
X114932359Y-85176939D01*
X114689405Y-85076304D01*
X114431486Y-85025000D01*
X114168514Y-85025000D01*
X113910595Y-85076304D01*
X113667641Y-85176939D01*
X113448987Y-85323038D01*
X113263038Y-85508987D01*
X113116939Y-85727641D01*
X113016304Y-85970595D01*
X112965000Y-86228514D01*
X112965000Y-86491486D01*
X113016304Y-86749405D01*
X113116939Y-86992359D01*
X113263038Y-87211013D01*
X113448987Y-87396962D01*
X113540001Y-87457775D01*
X113540000Y-90342225D01*
X113448987Y-90403038D01*
X113263038Y-90588987D01*
X113116939Y-90807641D01*
X113016304Y-91050595D01*
X112965000Y-91308514D01*
X112965000Y-91571486D01*
X113016304Y-91829405D01*
X113116939Y-92072359D01*
X113263038Y-92291013D01*
X113448987Y-92476962D01*
X113540000Y-92537775D01*
X113540000Y-94017332D01*
X113540001Y-94017342D01*
X113540000Y-95422225D01*
X113448987Y-95483038D01*
X113263038Y-95668987D01*
X113116939Y-95887641D01*
X113016304Y-96130595D01*
X112965000Y-96388514D01*
X112965000Y-96651486D01*
X113016304Y-96909405D01*
X113116939Y-97152359D01*
X113263038Y-97371013D01*
X113448987Y-97556962D01*
X113540000Y-97617775D01*
X113540000Y-97827332D01*
X113540001Y-97827342D01*
X113540000Y-100502225D01*
X113448987Y-100563038D01*
X113263038Y-100748987D01*
X113116939Y-100967641D01*
X113016304Y-101210595D01*
X112965000Y-101468514D01*
X112965000Y-101731486D01*
X113016304Y-101989405D01*
X113116939Y-102232359D01*
X113263038Y-102451013D01*
X113448987Y-102636962D01*
X113667641Y-102783061D01*
X113910595Y-102883696D01*
X114168514Y-102935000D01*
X114431486Y-102935000D01*
X114538844Y-102913645D01*
X117858001Y-106232803D01*
X117858000Y-110677893D01*
X117786632Y-110606525D01*
X117543411Y-110444010D01*
X117273158Y-110332068D01*
X116986260Y-110275000D01*
X116693740Y-110275000D01*
X116406842Y-110332068D01*
X116136589Y-110444010D01*
X115893368Y-110606525D01*
X115686525Y-110813368D01*
X115570000Y-110987760D01*
X115453475Y-110813368D01*
X115246632Y-110606525D01*
X115003411Y-110444010D01*
X114733158Y-110332068D01*
X114446260Y-110275000D01*
X114153740Y-110275000D01*
X113866842Y-110332068D01*
X113596589Y-110444010D01*
X113353368Y-110606525D01*
X113146525Y-110813368D01*
X113030000Y-110987760D01*
X112913475Y-110813368D01*
X112706632Y-110606525D01*
X112463411Y-110444010D01*
X112193158Y-110332068D01*
X111906260Y-110275000D01*
X111613740Y-110275000D01*
X111326842Y-110332068D01*
X111056589Y-110444010D01*
X110813368Y-110606525D01*
X110606525Y-110813368D01*
X110490000Y-110987760D01*
X110373475Y-110813368D01*
X110166632Y-110606525D01*
X109923411Y-110444010D01*
X109653158Y-110332068D01*
X109366260Y-110275000D01*
X109073740Y-110275000D01*
X108786842Y-110332068D01*
X108516589Y-110444010D01*
X108273368Y-110606525D01*
X108066525Y-110813368D01*
X107944805Y-110995534D01*
X107875178Y-110878645D01*
X107680269Y-110662412D01*
X107446920Y-110488359D01*
X107184099Y-110363175D01*
X107036890Y-110318524D01*
X106807000Y-110439845D01*
X106807000Y-111633000D01*
X106827000Y-111633000D01*
X106827000Y-111887000D01*
X106807000Y-111887000D01*
X106807000Y-113080155D01*
X107036890Y-113201476D01*
X107184099Y-113156825D01*
X107446920Y-113031641D01*
X107680269Y-112857588D01*
X107875178Y-112641355D01*
X107944805Y-112524466D01*
X108066525Y-112706632D01*
X108273368Y-112913475D01*
X108516589Y-113075990D01*
X108786842Y-113187932D01*
X109073740Y-113245000D01*
X109366260Y-113245000D01*
X109653158Y-113187932D01*
X109923411Y-113075990D01*
X110166632Y-112913475D01*
X110373475Y-112706632D01*
X110490000Y-112532240D01*
X110606525Y-112706632D01*
X110813368Y-112913475D01*
X111056589Y-113075990D01*
X111326842Y-113187932D01*
X111613740Y-113245000D01*
X111906260Y-113245000D01*
X112193158Y-113187932D01*
X112463411Y-113075990D01*
X112706632Y-112913475D01*
X112913475Y-112706632D01*
X113030000Y-112532240D01*
X113146525Y-112706632D01*
X113353368Y-112913475D01*
X113596589Y-113075990D01*
X113866842Y-113187932D01*
X114153740Y-113245000D01*
X114446260Y-113245000D01*
X114733158Y-113187932D01*
X115003411Y-113075990D01*
X115246632Y-112913475D01*
X115453475Y-112706632D01*
X115570000Y-112532240D01*
X115686525Y-112706632D01*
X115893368Y-112913475D01*
X116136589Y-113075990D01*
X116406842Y-113187932D01*
X116693740Y-113245000D01*
X116986260Y-113245000D01*
X117273158Y-113187932D01*
X117543411Y-113075990D01*
X117786632Y-112913475D01*
X117858000Y-112842107D01*
X117858000Y-114262678D01*
X117854324Y-114300000D01*
X117858000Y-114337322D01*
X117858000Y-114337332D01*
X117868997Y-114448985D01*
X117894289Y-114532362D01*
X117912454Y-114592246D01*
X117983026Y-114724276D01*
X118022871Y-114772826D01*
X118077999Y-114840001D01*
X118107003Y-114863804D01*
X119158007Y-115914808D01*
X119015488Y-115907783D01*
X118735870Y-115949213D01*
X118469708Y-116044397D01*
X118344486Y-116111329D01*
X118272903Y-116355298D01*
X119086000Y-117168395D01*
X119100143Y-117154253D01*
X119279748Y-117333858D01*
X119265605Y-117348000D01*
X119279748Y-117362143D01*
X119100143Y-117541748D01*
X119086000Y-117527605D01*
X118272903Y-118340702D01*
X118344486Y-118584671D01*
X118599996Y-118705571D01*
X118874184Y-118774300D01*
X119156512Y-118788217D01*
X119436130Y-118746787D01*
X119702292Y-118651603D01*
X119827514Y-118584671D01*
X119890000Y-118371706D01*
X119890000Y-118758178D01*
X119886324Y-118795501D01*
X119890000Y-118832823D01*
X119890000Y-118832833D01*
X119900997Y-118944486D01*
X119944454Y-119087747D01*
X120015026Y-119219777D01*
X120054871Y-119268327D01*
X120109999Y-119335502D01*
X120139003Y-119359305D01*
X121940700Y-121161003D01*
X121964498Y-121190001D01*
X122080223Y-121284974D01*
X122212252Y-121355546D01*
X122355513Y-121399003D01*
X122467166Y-121410000D01*
X122467174Y-121410000D01*
X122504499Y-121413676D01*
X122541824Y-121410000D01*
X128418172Y-121410000D01*
X128487503Y-121513762D01*
X128676238Y-121702497D01*
X128898167Y-121850785D01*
X129144761Y-121952928D01*
X129406544Y-122005000D01*
X129650198Y-122005000D01*
X127193199Y-124462000D01*
X125671711Y-124462000D01*
X125627774Y-124418063D01*
X125458256Y-124304795D01*
X125269898Y-124226774D01*
X125069939Y-124187000D01*
X124866061Y-124187000D01*
X124666102Y-124226774D01*
X124477744Y-124304795D01*
X124464978Y-124313325D01*
X124516345Y-124250734D01*
X124663755Y-123974948D01*
X124754530Y-123675703D01*
X124777500Y-123442485D01*
X124777500Y-123191514D01*
X124754530Y-122958296D01*
X124663755Y-122659051D01*
X124516345Y-122383265D01*
X124317963Y-122141537D01*
X124076234Y-121943155D01*
X123800448Y-121795745D01*
X123501203Y-121704970D01*
X123190000Y-121674319D01*
X122878796Y-121704970D01*
X122579551Y-121795745D01*
X122303765Y-121943155D01*
X122062037Y-122141537D01*
X121920000Y-122314609D01*
X121777963Y-122141537D01*
X121536234Y-121943155D01*
X121260448Y-121795745D01*
X120961203Y-121704970D01*
X120650000Y-121674319D01*
X120338796Y-121704970D01*
X120039551Y-121795745D01*
X119763765Y-121943155D01*
X119637905Y-122046446D01*
X119593037Y-121962506D01*
X119513685Y-121865815D01*
X119416994Y-121786463D01*
X119306680Y-121727498D01*
X119186982Y-121691188D01*
X119062500Y-121678928D01*
X118395750Y-121682000D01*
X118237000Y-121840750D01*
X118237000Y-123190000D01*
X118257000Y-123190000D01*
X118257000Y-123444000D01*
X118237000Y-123444000D01*
X118237000Y-123464000D01*
X117983000Y-123464000D01*
X117983000Y-123444000D01*
X116681250Y-123444000D01*
X116522500Y-123602750D01*
X116519428Y-124317000D01*
X116531688Y-124441482D01*
X116537912Y-124462000D01*
X111642963Y-124462000D01*
X111816345Y-124250734D01*
X111963755Y-123974948D01*
X112054530Y-123675703D01*
X112077500Y-123442485D01*
X112077500Y-123191514D01*
X112054530Y-122958296D01*
X111963755Y-122659051D01*
X111816345Y-122383265D01*
X111761963Y-122317000D01*
X116519428Y-122317000D01*
X116522500Y-123031250D01*
X116681250Y-123190000D01*
X117983000Y-123190000D01*
X117983000Y-121840750D01*
X117824250Y-121682000D01*
X117157500Y-121678928D01*
X117033018Y-121691188D01*
X116913320Y-121727498D01*
X116803006Y-121786463D01*
X116706315Y-121865815D01*
X116626963Y-121962506D01*
X116567998Y-122072820D01*
X116531688Y-122192518D01*
X116519428Y-122317000D01*
X111761963Y-122317000D01*
X111617963Y-122141537D01*
X111376234Y-121943155D01*
X111100448Y-121795745D01*
X110801203Y-121704970D01*
X110490000Y-121674319D01*
X110178796Y-121704970D01*
X109879551Y-121795745D01*
X109603765Y-121943155D01*
X109362037Y-122141537D01*
X109214838Y-122320900D01*
X109059437Y-122135685D01*
X108816923Y-121941031D01*
X108541094Y-121797429D01*
X108322980Y-121726437D01*
X108077000Y-121846406D01*
X108077000Y-123190000D01*
X108097000Y-123190000D01*
X108097000Y-123444000D01*
X108077000Y-123444000D01*
X108077000Y-124787594D01*
X108322980Y-124907563D01*
X108541094Y-124836571D01*
X108816923Y-124692969D01*
X109059437Y-124498315D01*
X109214837Y-124313101D01*
X109362037Y-124492463D01*
X109603766Y-124690845D01*
X109758452Y-124773526D01*
X109784454Y-124859246D01*
X109855026Y-124991276D01*
X109922108Y-125073015D01*
X109950000Y-125107001D01*
X109978998Y-125130799D01*
X110581200Y-125733002D01*
X110604999Y-125762001D01*
X110633997Y-125785799D01*
X110720723Y-125856974D01*
X110852753Y-125927546D01*
X110996014Y-125971003D01*
X111107667Y-125982000D01*
X111107677Y-125982000D01*
X111145000Y-125985676D01*
X111182323Y-125982000D01*
X111503550Y-125982000D01*
X111491928Y-126100000D01*
X111491928Y-126240000D01*
X108218072Y-126240000D01*
X108218072Y-126100000D01*
X108205812Y-125975518D01*
X108169502Y-125855820D01*
X108110537Y-125745506D01*
X108031185Y-125648815D01*
X107934494Y-125569463D01*
X107824180Y-125510498D01*
X107704482Y-125474188D01*
X107580000Y-125461928D01*
X105780000Y-125461928D01*
X105655518Y-125474188D01*
X105535820Y-125510498D01*
X105425506Y-125569463D01*
X105328815Y-125648815D01*
X105249463Y-125745506D01*
X105190498Y-125855820D01*
X105154188Y-125975518D01*
X105141928Y-126100000D01*
X105141928Y-127900000D01*
X105154188Y-128024482D01*
X105190498Y-128144180D01*
X105249463Y-128254494D01*
X105328815Y-128351185D01*
X105425506Y-128430537D01*
X105535820Y-128489502D01*
X105554127Y-128495056D01*
X105487688Y-128561495D01*
X105319701Y-128812905D01*
X105203989Y-129092257D01*
X105145000Y-129388816D01*
X105145000Y-129691184D01*
X105203989Y-129987743D01*
X105319701Y-130267095D01*
X105487688Y-130518505D01*
X105701495Y-130732312D01*
X105952905Y-130900299D01*
X106232257Y-131016011D01*
X106528816Y-131075000D01*
X106831184Y-131075000D01*
X107127743Y-131016011D01*
X107407095Y-130900299D01*
X107658505Y-130732312D01*
X107872312Y-130518505D01*
X108040299Y-130267095D01*
X108156011Y-129987743D01*
X108215000Y-129691184D01*
X108215000Y-129388816D01*
X108156011Y-129092257D01*
X108040299Y-128812905D01*
X107872312Y-128561495D01*
X107805873Y-128495056D01*
X107824180Y-128489502D01*
X107934494Y-128430537D01*
X108031185Y-128351185D01*
X108110537Y-128254494D01*
X108169502Y-128144180D01*
X108205812Y-128024482D01*
X108218072Y-127900000D01*
X108218072Y-127760000D01*
X111491928Y-127760000D01*
X111491928Y-127900000D01*
X111504188Y-128024482D01*
X111540498Y-128144180D01*
X111599463Y-128254494D01*
X111678815Y-128351185D01*
X111775506Y-128430537D01*
X111885820Y-128489502D01*
X111904127Y-128495056D01*
X111837688Y-128561495D01*
X111669701Y-128812905D01*
X111553989Y-129092257D01*
X111495000Y-129388816D01*
X111495000Y-129691184D01*
X111553989Y-129987743D01*
X111669701Y-130267095D01*
X111837688Y-130518505D01*
X112051495Y-130732312D01*
X112302905Y-130900299D01*
X112582257Y-131016011D01*
X112878816Y-131075000D01*
X113181184Y-131075000D01*
X113477743Y-131016011D01*
X113757095Y-130900299D01*
X114008505Y-130732312D01*
X114222312Y-130518505D01*
X114390299Y-130267095D01*
X114506011Y-129987743D01*
X114565000Y-129691184D01*
X114565000Y-129388816D01*
X114506011Y-129092257D01*
X114390299Y-128812905D01*
X114222312Y-128561495D01*
X114155873Y-128495056D01*
X114174180Y-128489502D01*
X114284494Y-128430537D01*
X114381185Y-128351185D01*
X114460537Y-128254494D01*
X114519502Y-128144180D01*
X114555812Y-128024482D01*
X114568072Y-127900000D01*
X114568072Y-127760000D01*
X117841928Y-127760000D01*
X117841928Y-127900000D01*
X117854188Y-128024482D01*
X117890498Y-128144180D01*
X117949463Y-128254494D01*
X118028815Y-128351185D01*
X118125506Y-128430537D01*
X118235820Y-128489502D01*
X118254127Y-128495056D01*
X118187688Y-128561495D01*
X118019701Y-128812905D01*
X117903989Y-129092257D01*
X117845000Y-129388816D01*
X117845000Y-129691184D01*
X117903989Y-129987743D01*
X118019701Y-130267095D01*
X118187688Y-130518505D01*
X118401495Y-130732312D01*
X118652905Y-130900299D01*
X118932257Y-131016011D01*
X119228816Y-131075000D01*
X119531184Y-131075000D01*
X119827743Y-131016011D01*
X120107095Y-130900299D01*
X120358505Y-130732312D01*
X120572312Y-130518505D01*
X120740299Y-130267095D01*
X120856011Y-129987743D01*
X120915000Y-129691184D01*
X120915000Y-129388816D01*
X120856011Y-129092257D01*
X120740299Y-128812905D01*
X120572312Y-128561495D01*
X120505873Y-128495056D01*
X120524180Y-128489502D01*
X120634494Y-128430537D01*
X120731185Y-128351185D01*
X120810537Y-128254494D01*
X120869502Y-128144180D01*
X120905812Y-128024482D01*
X120918072Y-127900000D01*
X120918072Y-127760000D01*
X124191928Y-127760000D01*
X124191928Y-127900000D01*
X124204188Y-128024482D01*
X124240498Y-128144180D01*
X124299463Y-128254494D01*
X124378815Y-128351185D01*
X124475506Y-128430537D01*
X124585820Y-128489502D01*
X124604127Y-128495056D01*
X124537688Y-128561495D01*
X124369701Y-128812905D01*
X124253989Y-129092257D01*
X124195000Y-129388816D01*
X124195000Y-129691184D01*
X124253989Y-129987743D01*
X124369701Y-130267095D01*
X124537688Y-130518505D01*
X124751495Y-130732312D01*
X125002905Y-130900299D01*
X125282257Y-131016011D01*
X125578816Y-131075000D01*
X125881184Y-131075000D01*
X126177743Y-131016011D01*
X126457095Y-130900299D01*
X126708505Y-130732312D01*
X126922312Y-130518505D01*
X127090299Y-130267095D01*
X127206011Y-129987743D01*
X127265000Y-129691184D01*
X127265000Y-129388816D01*
X127206011Y-129092257D01*
X127090299Y-128812905D01*
X126922312Y-128561495D01*
X126855873Y-128495056D01*
X126874180Y-128489502D01*
X126984494Y-128430537D01*
X127081185Y-128351185D01*
X127160537Y-128254494D01*
X127219502Y-128144180D01*
X127255812Y-128024482D01*
X127268072Y-127900000D01*
X127268072Y-126100000D01*
X127256450Y-125982000D01*
X127470678Y-125982000D01*
X127508000Y-125985676D01*
X127545322Y-125982000D01*
X127545333Y-125982000D01*
X127656986Y-125971003D01*
X127800247Y-125927546D01*
X127932276Y-125856974D01*
X128048001Y-125762001D01*
X128071804Y-125732997D01*
X130725000Y-123079802D01*
X130725000Y-123323456D01*
X130777072Y-123585239D01*
X130879215Y-123831833D01*
X131027503Y-124053762D01*
X131216238Y-124242497D01*
X131438167Y-124390785D01*
X131684761Y-124492928D01*
X131946544Y-124545000D01*
X132213456Y-124545000D01*
X132475239Y-124492928D01*
X132590001Y-124445392D01*
X132590001Y-125461928D01*
X131180000Y-125461928D01*
X131055518Y-125474188D01*
X130935820Y-125510498D01*
X130825506Y-125569463D01*
X130728815Y-125648815D01*
X130649463Y-125745506D01*
X130590498Y-125855820D01*
X130554188Y-125975518D01*
X130541928Y-126100000D01*
X130541928Y-127900000D01*
X130554188Y-128024482D01*
X130590498Y-128144180D01*
X130649463Y-128254494D01*
X130728815Y-128351185D01*
X130825506Y-128430537D01*
X130935820Y-128489502D01*
X130954127Y-128495056D01*
X130887688Y-128561495D01*
X130719701Y-128812905D01*
X130603989Y-129092257D01*
X130545000Y-129388816D01*
X130545000Y-129691184D01*
X130603989Y-129987743D01*
X130719701Y-130267095D01*
X130887688Y-130518505D01*
X131101495Y-130732312D01*
X131352905Y-130900299D01*
X131632257Y-131016011D01*
X131928816Y-131075000D01*
X132231184Y-131075000D01*
X132527743Y-131016011D01*
X132807095Y-130900299D01*
X133058505Y-130732312D01*
X133272312Y-130518505D01*
X133440299Y-130267095D01*
X133556011Y-129987743D01*
X133615000Y-129691184D01*
X133615000Y-129388816D01*
X133563731Y-129131070D01*
X133861003Y-128833799D01*
X133890001Y-128810001D01*
X133984974Y-128694276D01*
X134055546Y-128562247D01*
X134099003Y-128418986D01*
X134110000Y-128307333D01*
X134110000Y-128307324D01*
X134113676Y-128270001D01*
X134110000Y-128232678D01*
X134110000Y-121905392D01*
X134224761Y-121952928D01*
X134486544Y-122005000D01*
X134753456Y-122005000D01*
X135015239Y-121952928D01*
X135261833Y-121850785D01*
X135483762Y-121702497D01*
X135672497Y-121513762D01*
X135820785Y-121291833D01*
X135922928Y-121045239D01*
X135975000Y-120783456D01*
X135975000Y-120516544D01*
X135922928Y-120254761D01*
X135820785Y-120008167D01*
X135672497Y-119786238D01*
X135483762Y-119597503D01*
X135261833Y-119449215D01*
X135015239Y-119347072D01*
X134753456Y-119295000D01*
X134486544Y-119295000D01*
X134224761Y-119347072D01*
X134110000Y-119394608D01*
X134110000Y-113154014D01*
X134115901Y-113156825D01*
X134263110Y-113201476D01*
X134493000Y-113080155D01*
X134493000Y-111887000D01*
X134747000Y-111887000D01*
X134747000Y-113080155D01*
X134976890Y-113201476D01*
X135124099Y-113156825D01*
X135386920Y-113031641D01*
X135620269Y-112857588D01*
X135815178Y-112641355D01*
X135964157Y-112391252D01*
X136061481Y-112116891D01*
X135940814Y-111887000D01*
X134747000Y-111887000D01*
X134493000Y-111887000D01*
X134473000Y-111887000D01*
X134473000Y-111633000D01*
X134493000Y-111633000D01*
X134493000Y-110439845D01*
X134747000Y-110439845D01*
X134747000Y-111633000D01*
X135940814Y-111633000D01*
X136061481Y-111403109D01*
X135964157Y-111128748D01*
X135815178Y-110878645D01*
X135620269Y-110662412D01*
X135386920Y-110488359D01*
X135124099Y-110363175D01*
X134976890Y-110318524D01*
X134747000Y-110439845D01*
X134493000Y-110439845D01*
X134263110Y-110318524D01*
X134115901Y-110363175D01*
X134110000Y-110365986D01*
X134110000Y-106486801D01*
X134659802Y-105937000D01*
X134721939Y-105937000D01*
X134921898Y-105897226D01*
X135110256Y-105819205D01*
X135279774Y-105705937D01*
X135423937Y-105561774D01*
X135537205Y-105392256D01*
X135615226Y-105203898D01*
X135655000Y-105003939D01*
X135655000Y-104800061D01*
X135615226Y-104600102D01*
X135537205Y-104411744D01*
X135423937Y-104242226D01*
X135352755Y-104171044D01*
X136398000Y-103125800D01*
X136398000Y-134906612D01*
X136322369Y-134765117D01*
X136127424Y-134527576D01*
X135889883Y-134332631D01*
X135618875Y-134187774D01*
X135324813Y-134098572D01*
X135095636Y-134076000D01*
X133744364Y-134076000D01*
X133515187Y-134098572D01*
X133221125Y-134187774D01*
X132950117Y-134332631D01*
X132712576Y-134527576D01*
X132517631Y-134765117D01*
X132372774Y-135036125D01*
X132283572Y-135330187D01*
X132253452Y-135636000D01*
X132283572Y-135941813D01*
X132372774Y-136235875D01*
X132517631Y-136506883D01*
X132712576Y-136744424D01*
X132950117Y-136939369D01*
X133221125Y-137084226D01*
X133515187Y-137173428D01*
X133744364Y-137196000D01*
X135095636Y-137196000D01*
X135324813Y-137173428D01*
X135618875Y-137084226D01*
X135889883Y-136939369D01*
X136127424Y-136744424D01*
X136322369Y-136506883D01*
X136398000Y-136365388D01*
X136398000Y-139901046D01*
X136386650Y-139874906D01*
X136211889Y-139622715D01*
X135991286Y-139409464D01*
X135733319Y-139243348D01*
X135447901Y-139130751D01*
X135146000Y-139076000D01*
X134547000Y-139076000D01*
X134547000Y-140509000D01*
X134567000Y-140509000D01*
X134567000Y-140763000D01*
X134547000Y-140763000D01*
X134547000Y-142196000D01*
X135146000Y-142196000D01*
X135447901Y-142141249D01*
X135733319Y-142028652D01*
X135991286Y-141862536D01*
X136211889Y-141649285D01*
X136386650Y-141397094D01*
X136398000Y-141370954D01*
X136398000Y-144018000D01*
X109158983Y-144018000D01*
X109205618Y-143993073D01*
X109434903Y-143804903D01*
X109623073Y-143575618D01*
X109762896Y-143314028D01*
X109848999Y-143030186D01*
X109878072Y-142735000D01*
X109878072Y-140985000D01*
X109848999Y-140689814D01*
X109762896Y-140405972D01*
X109623073Y-140144382D01*
X109434903Y-139915097D01*
X109205618Y-139726927D01*
X108944028Y-139587104D01*
X108815357Y-139548072D01*
X112240000Y-139548072D01*
X112364482Y-139535812D01*
X112484180Y-139499502D01*
X112594494Y-139440537D01*
X112691185Y-139361185D01*
X112770537Y-139264494D01*
X112829502Y-139154180D01*
X112865812Y-139034482D01*
X112878072Y-138910000D01*
X112878072Y-138850000D01*
X114589928Y-138850000D01*
X114589928Y-140550000D01*
X114602188Y-140674482D01*
X114638498Y-140794180D01*
X114697463Y-140904494D01*
X114776815Y-141001185D01*
X114873506Y-141080537D01*
X114983820Y-141139502D01*
X115103518Y-141175812D01*
X115228000Y-141188072D01*
X116928000Y-141188072D01*
X117052482Y-141175812D01*
X117172180Y-141139502D01*
X117282494Y-141080537D01*
X117374945Y-141004664D01*
X119805188Y-141004664D01*
X119831147Y-141115655D01*
X119953350Y-141397094D01*
X120128111Y-141649285D01*
X120348714Y-141862536D01*
X120606681Y-142028652D01*
X120892099Y-142141249D01*
X121194000Y-142196000D01*
X121793000Y-142196000D01*
X121793000Y-140763000D01*
X122047000Y-140763000D01*
X122047000Y-142196000D01*
X122646000Y-142196000D01*
X122947901Y-142141249D01*
X123233319Y-142028652D01*
X123491286Y-141862536D01*
X123711889Y-141649285D01*
X123886650Y-141397094D01*
X124008853Y-141115655D01*
X124034812Y-141004664D01*
X132305188Y-141004664D01*
X132331147Y-141115655D01*
X132453350Y-141397094D01*
X132628111Y-141649285D01*
X132848714Y-141862536D01*
X133106681Y-142028652D01*
X133392099Y-142141249D01*
X133694000Y-142196000D01*
X134293000Y-142196000D01*
X134293000Y-140763000D01*
X132425517Y-140763000D01*
X132305188Y-141004664D01*
X124034812Y-141004664D01*
X123914483Y-140763000D01*
X122047000Y-140763000D01*
X121793000Y-140763000D01*
X119925517Y-140763000D01*
X119805188Y-141004664D01*
X117374945Y-141004664D01*
X117379185Y-141001185D01*
X117458537Y-140904494D01*
X117517502Y-140794180D01*
X117553812Y-140674482D01*
X117566072Y-140550000D01*
X117566072Y-140267336D01*
X119805188Y-140267336D01*
X119925517Y-140509000D01*
X121793000Y-140509000D01*
X121793000Y-139076000D01*
X122047000Y-139076000D01*
X122047000Y-140509000D01*
X123914483Y-140509000D01*
X124034812Y-140267336D01*
X132305188Y-140267336D01*
X132425517Y-140509000D01*
X134293000Y-140509000D01*
X134293000Y-139076000D01*
X133694000Y-139076000D01*
X133392099Y-139130751D01*
X133106681Y-139243348D01*
X132848714Y-139409464D01*
X132628111Y-139622715D01*
X132453350Y-139874906D01*
X132331147Y-140156345D01*
X132305188Y-140267336D01*
X124034812Y-140267336D01*
X124008853Y-140156345D01*
X123886650Y-139874906D01*
X123711889Y-139622715D01*
X123491286Y-139409464D01*
X123233319Y-139243348D01*
X122947901Y-139130751D01*
X122646000Y-139076000D01*
X122047000Y-139076000D01*
X121793000Y-139076000D01*
X121194000Y-139076000D01*
X120892099Y-139130751D01*
X120606681Y-139243348D01*
X120348714Y-139409464D01*
X120128111Y-139622715D01*
X119953350Y-139874906D01*
X119831147Y-140156345D01*
X119805188Y-140267336D01*
X117566072Y-140267336D01*
X117566072Y-138850000D01*
X117553812Y-138725518D01*
X117517502Y-138605820D01*
X117458537Y-138495506D01*
X117379185Y-138398815D01*
X117282494Y-138319463D01*
X117172180Y-138260498D01*
X117099620Y-138238487D01*
X117231475Y-138106632D01*
X117393990Y-137863411D01*
X117505932Y-137593158D01*
X117563000Y-137306260D01*
X117563000Y-137013740D01*
X117505932Y-136726842D01*
X117393990Y-136456589D01*
X117231475Y-136213368D01*
X117024632Y-136006525D01*
X116850240Y-135890000D01*
X117024632Y-135773475D01*
X117162107Y-135636000D01*
X119753452Y-135636000D01*
X119783572Y-135941813D01*
X119872774Y-136235875D01*
X120017631Y-136506883D01*
X120212576Y-136744424D01*
X120450117Y-136939369D01*
X120721125Y-137084226D01*
X121015187Y-137173428D01*
X121244364Y-137196000D01*
X122595636Y-137196000D01*
X122824813Y-137173428D01*
X123118875Y-137084226D01*
X123389883Y-136939369D01*
X123627424Y-136744424D01*
X123822369Y-136506883D01*
X123967226Y-136235875D01*
X124056428Y-135941813D01*
X124086548Y-135636000D01*
X124056428Y-135330187D01*
X123967226Y-135036125D01*
X123822369Y-134765117D01*
X123627424Y-134527576D01*
X123389883Y-134332631D01*
X123118875Y-134187774D01*
X122824813Y-134098572D01*
X122595636Y-134076000D01*
X121244364Y-134076000D01*
X121015187Y-134098572D01*
X120721125Y-134187774D01*
X120450117Y-134332631D01*
X120212576Y-134527576D01*
X120017631Y-134765117D01*
X119872774Y-135036125D01*
X119783572Y-135330187D01*
X119753452Y-135636000D01*
X117162107Y-135636000D01*
X117231475Y-135566632D01*
X117393990Y-135323411D01*
X117505932Y-135053158D01*
X117563000Y-134766260D01*
X117563000Y-134473740D01*
X117505932Y-134186842D01*
X117393990Y-133916589D01*
X117231475Y-133673368D01*
X117024632Y-133466525D01*
X116781411Y-133304010D01*
X116511158Y-133192068D01*
X116224260Y-133135000D01*
X115931740Y-133135000D01*
X115644842Y-133192068D01*
X115374589Y-133304010D01*
X115131368Y-133466525D01*
X114924525Y-133673368D01*
X114762010Y-133916589D01*
X114650068Y-134186842D01*
X114593000Y-134473740D01*
X114593000Y-134766260D01*
X114650068Y-135053158D01*
X114762010Y-135323411D01*
X114924525Y-135566632D01*
X115131368Y-135773475D01*
X115305760Y-135890000D01*
X115131368Y-136006525D01*
X114924525Y-136213368D01*
X114762010Y-136456589D01*
X114650068Y-136726842D01*
X114593000Y-137013740D01*
X114593000Y-137306260D01*
X114650068Y-137593158D01*
X114762010Y-137863411D01*
X114924525Y-138106632D01*
X115056380Y-138238487D01*
X114983820Y-138260498D01*
X114873506Y-138319463D01*
X114776815Y-138398815D01*
X114697463Y-138495506D01*
X114638498Y-138605820D01*
X114602188Y-138725518D01*
X114589928Y-138850000D01*
X112878072Y-138850000D01*
X112878072Y-135410000D01*
X112865812Y-135285518D01*
X112829502Y-135165820D01*
X112770537Y-135055506D01*
X112691185Y-134958815D01*
X112594494Y-134879463D01*
X112484180Y-134820498D01*
X112364482Y-134784188D01*
X112240000Y-134771928D01*
X108740000Y-134771928D01*
X108615518Y-134784188D01*
X108495820Y-134820498D01*
X108385506Y-134879463D01*
X108288815Y-134958815D01*
X108209463Y-135055506D01*
X108150498Y-135165820D01*
X108114188Y-135285518D01*
X108101928Y-135410000D01*
X108101928Y-138910000D01*
X108114188Y-139034482D01*
X108150498Y-139154180D01*
X108209463Y-139264494D01*
X108288815Y-139361185D01*
X108385506Y-139440537D01*
X108462131Y-139481494D01*
X108365000Y-139471928D01*
X106615000Y-139471928D01*
X106319814Y-139501001D01*
X106035972Y-139587104D01*
X105774382Y-139726927D01*
X105545097Y-139915097D01*
X105356927Y-140144382D01*
X105217104Y-140405972D01*
X105131001Y-140689814D01*
X105101928Y-140985000D01*
X105101928Y-142735000D01*
X105131001Y-143030186D01*
X105217104Y-143314028D01*
X105356927Y-143575618D01*
X105545097Y-143804903D01*
X105774382Y-143993073D01*
X105821017Y-144018000D01*
X102362000Y-144018000D01*
X102362000Y-139012266D01*
X102364188Y-139034482D01*
X102400498Y-139154180D01*
X102459463Y-139264494D01*
X102538815Y-139361185D01*
X102635506Y-139440537D01*
X102745820Y-139499502D01*
X102865518Y-139535812D01*
X102990000Y-139548072D01*
X104204250Y-139545000D01*
X104363000Y-139386250D01*
X104363000Y-137287000D01*
X104617000Y-137287000D01*
X104617000Y-139386250D01*
X104775750Y-139545000D01*
X105990000Y-139548072D01*
X106114482Y-139535812D01*
X106234180Y-139499502D01*
X106344494Y-139440537D01*
X106441185Y-139361185D01*
X106520537Y-139264494D01*
X106579502Y-139154180D01*
X106615812Y-139034482D01*
X106628072Y-138910000D01*
X106625000Y-137445750D01*
X106466250Y-137287000D01*
X104617000Y-137287000D01*
X104363000Y-137287000D01*
X104343000Y-137287000D01*
X104343000Y-137033000D01*
X104363000Y-137033000D01*
X104363000Y-134933750D01*
X104617000Y-134933750D01*
X104617000Y-137033000D01*
X106466250Y-137033000D01*
X106625000Y-136874250D01*
X106628072Y-135410000D01*
X106615812Y-135285518D01*
X106579502Y-135165820D01*
X106520537Y-135055506D01*
X106441185Y-134958815D01*
X106344494Y-134879463D01*
X106234180Y-134820498D01*
X106114482Y-134784188D01*
X105990000Y-134771928D01*
X104775750Y-134775000D01*
X104617000Y-134933750D01*
X104363000Y-134933750D01*
X104204250Y-134775000D01*
X102990000Y-134771928D01*
X102865518Y-134784188D01*
X102745820Y-134820498D01*
X102635506Y-134879463D01*
X102538815Y-134958815D01*
X102459463Y-135055506D01*
X102400498Y-135165820D01*
X102364188Y-135285518D01*
X102362000Y-135307734D01*
X102362000Y-122317000D01*
X103819428Y-122317000D01*
X103819428Y-124317000D01*
X103831688Y-124441482D01*
X103867998Y-124561180D01*
X103926963Y-124671494D01*
X104006315Y-124768185D01*
X104103006Y-124847537D01*
X104213320Y-124906502D01*
X104333018Y-124942812D01*
X104457500Y-124955072D01*
X106362500Y-124955072D01*
X106486982Y-124942812D01*
X106606680Y-124906502D01*
X106716994Y-124847537D01*
X106813685Y-124768185D01*
X106893037Y-124671494D01*
X106942059Y-124579781D01*
X107083077Y-124692969D01*
X107358906Y-124836571D01*
X107577020Y-124907563D01*
X107823000Y-124787594D01*
X107823000Y-123444000D01*
X107803000Y-123444000D01*
X107803000Y-123190000D01*
X107823000Y-123190000D01*
X107823000Y-121846406D01*
X107577020Y-121726437D01*
X107358906Y-121797429D01*
X107083077Y-121941031D01*
X106942059Y-122054219D01*
X106893037Y-121962506D01*
X106813685Y-121865815D01*
X106716994Y-121786463D01*
X106606680Y-121727498D01*
X106486982Y-121691188D01*
X106362500Y-121678928D01*
X104457500Y-121678928D01*
X104333018Y-121691188D01*
X104213320Y-121727498D01*
X104103006Y-121786463D01*
X104006315Y-121865815D01*
X103926963Y-121962506D01*
X103867998Y-122072820D01*
X103831688Y-122192518D01*
X103819428Y-122317000D01*
X102362000Y-122317000D01*
X102362000Y-117206665D01*
X102491000Y-117206665D01*
X102491000Y-117489335D01*
X102546147Y-117766574D01*
X102654320Y-118027727D01*
X102811363Y-118262759D01*
X103011241Y-118462637D01*
X103246273Y-118619680D01*
X103507426Y-118727853D01*
X103784665Y-118783000D01*
X104067335Y-118783000D01*
X104344574Y-118727853D01*
X104605727Y-118619680D01*
X104840759Y-118462637D01*
X104962694Y-118340702D01*
X105612903Y-118340702D01*
X105684486Y-118584671D01*
X105939996Y-118705571D01*
X106214184Y-118774300D01*
X106496512Y-118788217D01*
X106776130Y-118746787D01*
X107042292Y-118651603D01*
X107167514Y-118584671D01*
X107239097Y-118340702D01*
X108660903Y-118340702D01*
X108732486Y-118584671D01*
X108987996Y-118705571D01*
X109262184Y-118774300D01*
X109544512Y-118788217D01*
X109824130Y-118746787D01*
X110090292Y-118651603D01*
X110215514Y-118584671D01*
X110287097Y-118340702D01*
X109474000Y-117527605D01*
X108660903Y-118340702D01*
X107239097Y-118340702D01*
X106426000Y-117527605D01*
X105612903Y-118340702D01*
X104962694Y-118340702D01*
X105040637Y-118262759D01*
X105174692Y-118062131D01*
X105189329Y-118089514D01*
X105433298Y-118161097D01*
X106246395Y-117348000D01*
X106605605Y-117348000D01*
X107418702Y-118161097D01*
X107662671Y-118089514D01*
X107783571Y-117834004D01*
X107852300Y-117559816D01*
X107859265Y-117418512D01*
X108033783Y-117418512D01*
X108075213Y-117698130D01*
X108170397Y-117964292D01*
X108237329Y-118089514D01*
X108481298Y-118161097D01*
X109294395Y-117348000D01*
X109653605Y-117348000D01*
X110466702Y-118161097D01*
X110710671Y-118089514D01*
X110724324Y-118060659D01*
X110859363Y-118262759D01*
X111059241Y-118462637D01*
X111294273Y-118619680D01*
X111555426Y-118727853D01*
X111832665Y-118783000D01*
X112115335Y-118783000D01*
X112392574Y-118727853D01*
X112653727Y-118619680D01*
X112888759Y-118462637D01*
X113088637Y-118262759D01*
X113245680Y-118027727D01*
X113353853Y-117766574D01*
X113409000Y-117489335D01*
X113409000Y-117206665D01*
X115151000Y-117206665D01*
X115151000Y-117489335D01*
X115206147Y-117766574D01*
X115314320Y-118027727D01*
X115471363Y-118262759D01*
X115671241Y-118462637D01*
X115906273Y-118619680D01*
X116167426Y-118727853D01*
X116444665Y-118783000D01*
X116727335Y-118783000D01*
X117004574Y-118727853D01*
X117265727Y-118619680D01*
X117500759Y-118462637D01*
X117700637Y-118262759D01*
X117834692Y-118062131D01*
X117849329Y-118089514D01*
X118093298Y-118161097D01*
X118906395Y-117348000D01*
X118093298Y-116534903D01*
X117849329Y-116606486D01*
X117835676Y-116635341D01*
X117700637Y-116433241D01*
X117500759Y-116233363D01*
X117265727Y-116076320D01*
X117004574Y-115968147D01*
X116727335Y-115913000D01*
X116444665Y-115913000D01*
X116167426Y-115968147D01*
X115906273Y-116076320D01*
X115671241Y-116233363D01*
X115471363Y-116433241D01*
X115314320Y-116668273D01*
X115206147Y-116929426D01*
X115151000Y-117206665D01*
X113409000Y-117206665D01*
X113353853Y-116929426D01*
X113245680Y-116668273D01*
X113088637Y-116433241D01*
X112888759Y-116233363D01*
X112653727Y-116076320D01*
X112392574Y-115968147D01*
X112115335Y-115913000D01*
X111832665Y-115913000D01*
X111555426Y-115968147D01*
X111294273Y-116076320D01*
X111059241Y-116233363D01*
X110859363Y-116433241D01*
X110725308Y-116633869D01*
X110710671Y-116606486D01*
X110466702Y-116534903D01*
X109653605Y-117348000D01*
X109294395Y-117348000D01*
X108481298Y-116534903D01*
X108237329Y-116606486D01*
X108116429Y-116861996D01*
X108047700Y-117136184D01*
X108033783Y-117418512D01*
X107859265Y-117418512D01*
X107866217Y-117277488D01*
X107824787Y-116997870D01*
X107729603Y-116731708D01*
X107662671Y-116606486D01*
X107418702Y-116534903D01*
X106605605Y-117348000D01*
X106246395Y-117348000D01*
X105433298Y-116534903D01*
X105189329Y-116606486D01*
X105175676Y-116635341D01*
X105040637Y-116433241D01*
X104962694Y-116355298D01*
X105612903Y-116355298D01*
X106426000Y-117168395D01*
X107239097Y-116355298D01*
X108660903Y-116355298D01*
X109474000Y-117168395D01*
X110287097Y-116355298D01*
X110215514Y-116111329D01*
X109960004Y-115990429D01*
X109685816Y-115921700D01*
X109403488Y-115907783D01*
X109123870Y-115949213D01*
X108857708Y-116044397D01*
X108732486Y-116111329D01*
X108660903Y-116355298D01*
X107239097Y-116355298D01*
X107167514Y-116111329D01*
X106912004Y-115990429D01*
X106637816Y-115921700D01*
X106355488Y-115907783D01*
X106075870Y-115949213D01*
X105809708Y-116044397D01*
X105684486Y-116111329D01*
X105612903Y-116355298D01*
X104962694Y-116355298D01*
X104840759Y-116233363D01*
X104605727Y-116076320D01*
X104344574Y-115968147D01*
X104067335Y-115913000D01*
X103784665Y-115913000D01*
X103507426Y-115968147D01*
X103246273Y-116076320D01*
X103011241Y-116233363D01*
X102811363Y-116433241D01*
X102654320Y-116668273D01*
X102546147Y-116929426D01*
X102491000Y-117206665D01*
X102362000Y-117206665D01*
X102362000Y-110910000D01*
X102651928Y-110910000D01*
X102651928Y-112610000D01*
X102664188Y-112734482D01*
X102700498Y-112854180D01*
X102759463Y-112964494D01*
X102838815Y-113061185D01*
X102935506Y-113140537D01*
X103045820Y-113199502D01*
X103165518Y-113235812D01*
X103290000Y-113248072D01*
X104990000Y-113248072D01*
X105114482Y-113235812D01*
X105234180Y-113199502D01*
X105344494Y-113140537D01*
X105441185Y-113061185D01*
X105520537Y-112964494D01*
X105579502Y-112854180D01*
X105603966Y-112773534D01*
X105679731Y-112857588D01*
X105913080Y-113031641D01*
X106175901Y-113156825D01*
X106323110Y-113201476D01*
X106553000Y-113080155D01*
X106553000Y-111887000D01*
X106533000Y-111887000D01*
X106533000Y-111633000D01*
X106553000Y-111633000D01*
X106553000Y-110439845D01*
X106323110Y-110318524D01*
X106175901Y-110363175D01*
X105913080Y-110488359D01*
X105679731Y-110662412D01*
X105603966Y-110746466D01*
X105579502Y-110665820D01*
X105520537Y-110555506D01*
X105441185Y-110458815D01*
X105344494Y-110379463D01*
X105234180Y-110320498D01*
X105114482Y-110284188D01*
X104990000Y-110271928D01*
X103290000Y-110271928D01*
X103165518Y-110284188D01*
X103045820Y-110320498D01*
X102935506Y-110379463D01*
X102838815Y-110458815D01*
X102759463Y-110555506D01*
X102700498Y-110665820D01*
X102664188Y-110785518D01*
X102651928Y-110910000D01*
X102362000Y-110910000D01*
X102362000Y-77890000D01*
X102651928Y-77890000D01*
X102651928Y-79590000D01*
X102664188Y-79714482D01*
X102700498Y-79834180D01*
X102759463Y-79944494D01*
X102838815Y-80041185D01*
X102935506Y-80120537D01*
X103045820Y-80179502D01*
X103118380Y-80201513D01*
X102986525Y-80333368D01*
X102824010Y-80576589D01*
X102712068Y-80846842D01*
X102655000Y-81133740D01*
X102655000Y-81426260D01*
X102712068Y-81713158D01*
X102824010Y-81983411D01*
X102986525Y-82226632D01*
X103193368Y-82433475D01*
X103367760Y-82550000D01*
X103193368Y-82666525D01*
X102986525Y-82873368D01*
X102824010Y-83116589D01*
X102712068Y-83386842D01*
X102655000Y-83673740D01*
X102655000Y-83966260D01*
X102712068Y-84253158D01*
X102824010Y-84523411D01*
X102986525Y-84766632D01*
X103193368Y-84973475D01*
X103367760Y-85090000D01*
X103193368Y-85206525D01*
X102986525Y-85413368D01*
X102824010Y-85656589D01*
X102712068Y-85926842D01*
X102655000Y-86213740D01*
X102655000Y-86506260D01*
X102712068Y-86793158D01*
X102824010Y-87063411D01*
X102986525Y-87306632D01*
X103193368Y-87513475D01*
X103367760Y-87630000D01*
X103193368Y-87746525D01*
X102986525Y-87953368D01*
X102824010Y-88196589D01*
X102712068Y-88466842D01*
X102655000Y-88753740D01*
X102655000Y-89046260D01*
X102712068Y-89333158D01*
X102824010Y-89603411D01*
X102986525Y-89846632D01*
X103193368Y-90053475D01*
X103367760Y-90170000D01*
X103193368Y-90286525D01*
X102986525Y-90493368D01*
X102824010Y-90736589D01*
X102712068Y-91006842D01*
X102655000Y-91293740D01*
X102655000Y-91586260D01*
X102712068Y-91873158D01*
X102824010Y-92143411D01*
X102986525Y-92386632D01*
X103193368Y-92593475D01*
X103367760Y-92710000D01*
X103193368Y-92826525D01*
X102986525Y-93033368D01*
X102824010Y-93276589D01*
X102712068Y-93546842D01*
X102655000Y-93833740D01*
X102655000Y-94126260D01*
X102712068Y-94413158D01*
X102824010Y-94683411D01*
X102986525Y-94926632D01*
X103193368Y-95133475D01*
X103367760Y-95250000D01*
X103193368Y-95366525D01*
X102986525Y-95573368D01*
X102824010Y-95816589D01*
X102712068Y-96086842D01*
X102655000Y-96373740D01*
X102655000Y-96666260D01*
X102712068Y-96953158D01*
X102824010Y-97223411D01*
X102986525Y-97466632D01*
X103193368Y-97673475D01*
X103367760Y-97790000D01*
X103193368Y-97906525D01*
X102986525Y-98113368D01*
X102824010Y-98356589D01*
X102712068Y-98626842D01*
X102655000Y-98913740D01*
X102655000Y-99206260D01*
X102712068Y-99493158D01*
X102824010Y-99763411D01*
X102986525Y-100006632D01*
X103193368Y-100213475D01*
X103436589Y-100375990D01*
X103706842Y-100487932D01*
X103993740Y-100545000D01*
X104286260Y-100545000D01*
X104573158Y-100487932D01*
X104843411Y-100375990D01*
X105086632Y-100213475D01*
X105293475Y-100006632D01*
X105410000Y-99832240D01*
X105526525Y-100006632D01*
X105733368Y-100213475D01*
X105976589Y-100375990D01*
X106246842Y-100487932D01*
X106533740Y-100545000D01*
X106826260Y-100545000D01*
X107113158Y-100487932D01*
X107383411Y-100375990D01*
X107626632Y-100213475D01*
X107833475Y-100006632D01*
X107995990Y-99763411D01*
X108107932Y-99493158D01*
X108165000Y-99206260D01*
X108165000Y-98913740D01*
X108107932Y-98626842D01*
X107995990Y-98356589D01*
X107833475Y-98113368D01*
X107626632Y-97906525D01*
X107452240Y-97790000D01*
X107626632Y-97673475D01*
X107833475Y-97466632D01*
X107995990Y-97223411D01*
X108107932Y-96953158D01*
X108165000Y-96666260D01*
X108165000Y-96373740D01*
X108107932Y-96086842D01*
X107995990Y-95816589D01*
X107833475Y-95573368D01*
X107626632Y-95366525D01*
X107452240Y-95250000D01*
X107626632Y-95133475D01*
X107833475Y-94926632D01*
X107995990Y-94683411D01*
X108107932Y-94413158D01*
X108165000Y-94126260D01*
X108165000Y-93833740D01*
X108107932Y-93546842D01*
X107995990Y-93276589D01*
X107833475Y-93033368D01*
X107626632Y-92826525D01*
X107452240Y-92710000D01*
X107626632Y-92593475D01*
X107833475Y-92386632D01*
X107995990Y-92143411D01*
X108107932Y-91873158D01*
X108165000Y-91586260D01*
X108165000Y-91293740D01*
X108107932Y-91006842D01*
X107995990Y-90736589D01*
X107833475Y-90493368D01*
X107626632Y-90286525D01*
X107452240Y-90170000D01*
X107626632Y-90053475D01*
X107833475Y-89846632D01*
X107995990Y-89603411D01*
X108107932Y-89333158D01*
X108165000Y-89046260D01*
X108165000Y-88753740D01*
X108107932Y-88466842D01*
X107995990Y-88196589D01*
X107833475Y-87953368D01*
X107626632Y-87746525D01*
X107452240Y-87630000D01*
X107626632Y-87513475D01*
X107833475Y-87306632D01*
X107995990Y-87063411D01*
X108107932Y-86793158D01*
X108165000Y-86506260D01*
X108165000Y-86213740D01*
X108107932Y-85926842D01*
X107995990Y-85656589D01*
X107833475Y-85413368D01*
X107626632Y-85206525D01*
X107452240Y-85090000D01*
X107626632Y-84973475D01*
X107833475Y-84766632D01*
X107995990Y-84523411D01*
X108107932Y-84253158D01*
X108165000Y-83966260D01*
X108165000Y-83673740D01*
X108107932Y-83386842D01*
X107995990Y-83116589D01*
X107833475Y-82873368D01*
X107626632Y-82666525D01*
X107452240Y-82550000D01*
X107626632Y-82433475D01*
X107833475Y-82226632D01*
X107995990Y-81983411D01*
X108107932Y-81713158D01*
X108165000Y-81426260D01*
X108165000Y-81148514D01*
X112965000Y-81148514D01*
X112965000Y-81411486D01*
X113016304Y-81669405D01*
X113116939Y-81912359D01*
X113263038Y-82131013D01*
X113448987Y-82316962D01*
X113667641Y-82463061D01*
X113910595Y-82563696D01*
X114168514Y-82615000D01*
X114431486Y-82615000D01*
X114689405Y-82563696D01*
X114932359Y-82463061D01*
X115151013Y-82316962D01*
X115336962Y-82131013D01*
X115483061Y-81912359D01*
X115583696Y-81669405D01*
X115594850Y-81613329D01*
X120627284Y-81613329D01*
X120659953Y-81721044D01*
X120770208Y-81958392D01*
X120924649Y-82169670D01*
X121117340Y-82346759D01*
X121340877Y-82482853D01*
X121586670Y-82572722D01*
X121793000Y-82450201D01*
X121793000Y-81407000D01*
X122047000Y-81407000D01*
X122047000Y-82450201D01*
X122253330Y-82572722D01*
X122499123Y-82482853D01*
X122722660Y-82346759D01*
X122915351Y-82169670D01*
X123069792Y-81958392D01*
X123180047Y-81721044D01*
X123212716Y-81613329D01*
X123089374Y-81407000D01*
X122047000Y-81407000D01*
X121793000Y-81407000D01*
X120750626Y-81407000D01*
X120627284Y-81613329D01*
X115594850Y-81613329D01*
X115635000Y-81411486D01*
X115635000Y-81148514D01*
X115594851Y-80946671D01*
X120627284Y-80946671D01*
X120750626Y-81153000D01*
X121793000Y-81153000D01*
X121793000Y-80109799D01*
X122047000Y-80109799D01*
X122047000Y-81153000D01*
X123089374Y-81153000D01*
X123212716Y-80946671D01*
X123180047Y-80838956D01*
X123069792Y-80601608D01*
X122915351Y-80390330D01*
X122722660Y-80213241D01*
X122499123Y-80077147D01*
X122253330Y-79987278D01*
X122047000Y-80109799D01*
X121793000Y-80109799D01*
X121586670Y-79987278D01*
X121340877Y-80077147D01*
X121117340Y-80213241D01*
X120924649Y-80390330D01*
X120770208Y-80601608D01*
X120659953Y-80838956D01*
X120627284Y-80946671D01*
X115594851Y-80946671D01*
X115583696Y-80890595D01*
X115483061Y-80647641D01*
X115336962Y-80428987D01*
X115151013Y-80243038D01*
X114932359Y-80096939D01*
X114689405Y-79996304D01*
X114431486Y-79945000D01*
X114168514Y-79945000D01*
X113910595Y-79996304D01*
X113667641Y-80096939D01*
X113448987Y-80243038D01*
X113263038Y-80428987D01*
X113116939Y-80647641D01*
X113016304Y-80890595D01*
X112965000Y-81148514D01*
X108165000Y-81148514D01*
X108165000Y-81133740D01*
X108107932Y-80846842D01*
X107995990Y-80576589D01*
X107833475Y-80333368D01*
X107626632Y-80126525D01*
X107452240Y-80010000D01*
X107626632Y-79893475D01*
X107833475Y-79686632D01*
X107995990Y-79443411D01*
X108107932Y-79173158D01*
X108165000Y-78886260D01*
X108165000Y-78593740D01*
X108107932Y-78306842D01*
X107995990Y-78036589D01*
X107898043Y-77890000D01*
X130591928Y-77890000D01*
X130595000Y-78454250D01*
X130753750Y-78613000D01*
X131953000Y-78613000D01*
X131953000Y-77413750D01*
X131794250Y-77255000D01*
X131230000Y-77251928D01*
X131105518Y-77264188D01*
X130985820Y-77300498D01*
X130875506Y-77359463D01*
X130778815Y-77438815D01*
X130699463Y-77535506D01*
X130640498Y-77645820D01*
X130604188Y-77765518D01*
X130591928Y-77890000D01*
X107898043Y-77890000D01*
X107833475Y-77793368D01*
X107626632Y-77586525D01*
X107383411Y-77424010D01*
X107113158Y-77312068D01*
X106826260Y-77255000D01*
X106533740Y-77255000D01*
X106246842Y-77312068D01*
X105976589Y-77424010D01*
X105733368Y-77586525D01*
X105601513Y-77718380D01*
X105579502Y-77645820D01*
X105520537Y-77535506D01*
X105441185Y-77438815D01*
X105344494Y-77359463D01*
X105234180Y-77300498D01*
X105114482Y-77264188D01*
X104990000Y-77251928D01*
X103290000Y-77251928D01*
X103165518Y-77264188D01*
X103045820Y-77300498D01*
X102935506Y-77359463D01*
X102838815Y-77438815D01*
X102759463Y-77535506D01*
X102700498Y-77645820D01*
X102664188Y-77765518D01*
X102651928Y-77890000D01*
X102362000Y-77890000D01*
X102362000Y-76962000D01*
X136398000Y-76962000D01*
X136398000Y-79443199D01*
G36*
X128780000Y-114104289D02*
G01*
X128736063Y-114148226D01*
X128622795Y-114317744D01*
X128544774Y-114506102D01*
X128505000Y-114706061D01*
X128505000Y-114909939D01*
X128544774Y-115109898D01*
X128622795Y-115298256D01*
X128736063Y-115467774D01*
X128880226Y-115611937D01*
X129049744Y-115725205D01*
X129238102Y-115803226D01*
X129438061Y-115843000D01*
X129641939Y-115843000D01*
X129841898Y-115803226D01*
X129923000Y-115769632D01*
X129923000Y-119344638D01*
X129673456Y-119295000D01*
X129406544Y-119295000D01*
X129144761Y-119347072D01*
X128898167Y-119449215D01*
X128676238Y-119597503D01*
X128487503Y-119786238D01*
X128418172Y-119890000D01*
X122819301Y-119890000D01*
X121551231Y-118621931D01*
X121727996Y-118705571D01*
X122002184Y-118774300D01*
X122284512Y-118788217D01*
X122564130Y-118746787D01*
X122830292Y-118651603D01*
X122955514Y-118584671D01*
X123027097Y-118340702D01*
X122214000Y-117527605D01*
X122199858Y-117541748D01*
X122020253Y-117362143D01*
X122034395Y-117348000D01*
X122393605Y-117348000D01*
X123206702Y-118161097D01*
X123450671Y-118089514D01*
X123464324Y-118060659D01*
X123599363Y-118262759D01*
X123799241Y-118462637D01*
X124034273Y-118619680D01*
X124295426Y-118727853D01*
X124572665Y-118783000D01*
X124855335Y-118783000D01*
X125132574Y-118727853D01*
X125393727Y-118619680D01*
X125628759Y-118462637D01*
X125828637Y-118262759D01*
X125985680Y-118027727D01*
X126093853Y-117766574D01*
X126149000Y-117489335D01*
X126149000Y-117206665D01*
X126093853Y-116929426D01*
X125985680Y-116668273D01*
X125828637Y-116433241D01*
X125628759Y-116233363D01*
X125393727Y-116076320D01*
X125132574Y-115968147D01*
X124855335Y-115913000D01*
X124572665Y-115913000D01*
X124295426Y-115968147D01*
X124034273Y-116076320D01*
X123799241Y-116233363D01*
X123599363Y-116433241D01*
X123465308Y-116633869D01*
X123450671Y-116606486D01*
X123206702Y-116534903D01*
X122393605Y-117348000D01*
X122034395Y-117348000D01*
X122020253Y-117333858D01*
X122199858Y-117154253D01*
X122214000Y-117168395D01*
X123027097Y-116355298D01*
X122988970Y-116225352D01*
X122997936Y-116227136D01*
X123201814Y-116227136D01*
X123401773Y-116187362D01*
X123590131Y-116109341D01*
X123759649Y-115996073D01*
X123903812Y-115851910D01*
X124017080Y-115682392D01*
X124095101Y-115494034D01*
X124134875Y-115294075D01*
X124134875Y-115090197D01*
X124095101Y-114890238D01*
X124017080Y-114701880D01*
X123903812Y-114532362D01*
X123859875Y-114488425D01*
X123859875Y-114381087D01*
X123955901Y-114426825D01*
X124103110Y-114471476D01*
X124333000Y-114350155D01*
X124333000Y-113157000D01*
X124313000Y-113157000D01*
X124313000Y-112903000D01*
X124333000Y-112903000D01*
X124333000Y-112883000D01*
X124587000Y-112883000D01*
X124587000Y-112903000D01*
X124607000Y-112903000D01*
X124607000Y-113157000D01*
X124587000Y-113157000D01*
X124587000Y-114350155D01*
X124816890Y-114471476D01*
X124964099Y-114426825D01*
X125226920Y-114301641D01*
X125460269Y-114127588D01*
X125655178Y-113911355D01*
X125724805Y-113794466D01*
X125846525Y-113976632D01*
X126053368Y-114183475D01*
X126296589Y-114345990D01*
X126566842Y-114457932D01*
X126853740Y-114515000D01*
X127146260Y-114515000D01*
X127433158Y-114457932D01*
X127703411Y-114345990D01*
X127946632Y-114183475D01*
X128153475Y-113976632D01*
X128315990Y-113733411D01*
X128427932Y-113463158D01*
X128485000Y-113176260D01*
X128485000Y-112883740D01*
X128427932Y-112596842D01*
X128361530Y-112436532D01*
X128439278Y-112394974D01*
X128555003Y-112300001D01*
X128578806Y-112270998D01*
X128780000Y-112069803D01*
X128780000Y-114104289D01*
G37*
X128780000Y-114104289D02*
X128736063Y-114148226D01*
X128622795Y-114317744D01*
X128544774Y-114506102D01*
X128505000Y-114706061D01*
X128505000Y-114909939D01*
X128544774Y-115109898D01*
X128622795Y-115298256D01*
X128736063Y-115467774D01*
X128880226Y-115611937D01*
X129049744Y-115725205D01*
X129238102Y-115803226D01*
X129438061Y-115843000D01*
X129641939Y-115843000D01*
X129841898Y-115803226D01*
X129923000Y-115769632D01*
X129923000Y-119344638D01*
X129673456Y-119295000D01*
X129406544Y-119295000D01*
X129144761Y-119347072D01*
X128898167Y-119449215D01*
X128676238Y-119597503D01*
X128487503Y-119786238D01*
X128418172Y-119890000D01*
X122819301Y-119890000D01*
X121551231Y-118621931D01*
X121727996Y-118705571D01*
X122002184Y-118774300D01*
X122284512Y-118788217D01*
X122564130Y-118746787D01*
X122830292Y-118651603D01*
X122955514Y-118584671D01*
X123027097Y-118340702D01*
X122214000Y-117527605D01*
X122199858Y-117541748D01*
X122020253Y-117362143D01*
X122034395Y-117348000D01*
X122393605Y-117348000D01*
X123206702Y-118161097D01*
X123450671Y-118089514D01*
X123464324Y-118060659D01*
X123599363Y-118262759D01*
X123799241Y-118462637D01*
X124034273Y-118619680D01*
X124295426Y-118727853D01*
X124572665Y-118783000D01*
X124855335Y-118783000D01*
X125132574Y-118727853D01*
X125393727Y-118619680D01*
X125628759Y-118462637D01*
X125828637Y-118262759D01*
X125985680Y-118027727D01*
X126093853Y-117766574D01*
X126149000Y-117489335D01*
X126149000Y-117206665D01*
X126093853Y-116929426D01*
X125985680Y-116668273D01*
X125828637Y-116433241D01*
X125628759Y-116233363D01*
X125393727Y-116076320D01*
X125132574Y-115968147D01*
X124855335Y-115913000D01*
X124572665Y-115913000D01*
X124295426Y-115968147D01*
X124034273Y-116076320D01*
X123799241Y-116233363D01*
X123599363Y-116433241D01*
X123465308Y-116633869D01*
X123450671Y-116606486D01*
X123206702Y-116534903D01*
X122393605Y-117348000D01*
X122034395Y-117348000D01*
X122020253Y-117333858D01*
X122199858Y-117154253D01*
X122214000Y-117168395D01*
X123027097Y-116355298D01*
X122988970Y-116225352D01*
X122997936Y-116227136D01*
X123201814Y-116227136D01*
X123401773Y-116187362D01*
X123590131Y-116109341D01*
X123759649Y-115996073D01*
X123903812Y-115851910D01*
X124017080Y-115682392D01*
X124095101Y-115494034D01*
X124134875Y-115294075D01*
X124134875Y-115090197D01*
X124095101Y-114890238D01*
X124017080Y-114701880D01*
X123903812Y-114532362D01*
X123859875Y-114488425D01*
X123859875Y-114381087D01*
X123955901Y-114426825D01*
X124103110Y-114471476D01*
X124333000Y-114350155D01*
X124333000Y-113157000D01*
X124313000Y-113157000D01*
X124313000Y-112903000D01*
X124333000Y-112903000D01*
X124333000Y-112883000D01*
X124587000Y-112883000D01*
X124587000Y-112903000D01*
X124607000Y-112903000D01*
X124607000Y-113157000D01*
X124587000Y-113157000D01*
X124587000Y-114350155D01*
X124816890Y-114471476D01*
X124964099Y-114426825D01*
X125226920Y-114301641D01*
X125460269Y-114127588D01*
X125655178Y-113911355D01*
X125724805Y-113794466D01*
X125846525Y-113976632D01*
X126053368Y-114183475D01*
X126296589Y-114345990D01*
X126566842Y-114457932D01*
X126853740Y-114515000D01*
X127146260Y-114515000D01*
X127433158Y-114457932D01*
X127703411Y-114345990D01*
X127946632Y-114183475D01*
X128153475Y-113976632D01*
X128315990Y-113733411D01*
X128427932Y-113463158D01*
X128485000Y-113176260D01*
X128485000Y-112883740D01*
X128427932Y-112596842D01*
X128361530Y-112436532D01*
X128439278Y-112394974D01*
X128555003Y-112300001D01*
X128578806Y-112270998D01*
X128780000Y-112069803D01*
X128780000Y-114104289D01*
G36*
X134747000Y-86233000D02*
G01*
X134767000Y-86233000D01*
X134767000Y-86487000D01*
X134747000Y-86487000D01*
X134747000Y-86507000D01*
X134493000Y-86507000D01*
X134493000Y-86487000D01*
X134473000Y-86487000D01*
X134473000Y-86233000D01*
X134493000Y-86233000D01*
X134493000Y-86213000D01*
X134747000Y-86213000D01*
X134747000Y-86233000D01*
G37*
X134747000Y-86233000D02*
X134767000Y-86233000D01*
X134767000Y-86487000D01*
X134747000Y-86487000D01*
X134747000Y-86507000D01*
X134493000Y-86507000D01*
X134493000Y-86487000D01*
X134473000Y-86487000D01*
X134473000Y-86233000D01*
X134493000Y-86233000D01*
X134493000Y-86213000D01*
X134747000Y-86213000D01*
X134747000Y-86233000D01*
M02*
