G04 #@! TF.GenerationSoftware,KiCad,Pcbnew,(5.1.6-0)*
G04 #@! TF.CreationDate,2021-12-13T17:07:40-07:00*
G04 #@! TF.ProjectId,starman,73746172-6d61-46e2-9e6b-696361645f70,rev?*
G04 #@! TF.SameCoordinates,Original*
G04 #@! TF.FileFunction,Soldermask,Bot*
G04 #@! TF.FilePolarity,Negative*
%FSLAX46Y46*%
G04 Gerber Fmt 4.6, Leading zero omitted, Abs format (unit mm)*
G04 Created by KiCad (PCBNEW (5.1.6-0)) date 2021-12-13 17:07:40*
%MOMM*%
%LPD*%
G01*
G04 APERTURE LIST*
%ADD10C,0.100000*%
G04 APERTURE END LIST*
D10*
G36*
X120206328Y-144235122D02*
G01*
X120342436Y-144276410D01*
X120390309Y-144290932D01*
X120505674Y-144352596D01*
X120559860Y-144381559D01*
X120606035Y-144419454D01*
X120708476Y-144503524D01*
X120777923Y-144588147D01*
X120830441Y-144652140D01*
X120863316Y-144713646D01*
X120921068Y-144821691D01*
X120921069Y-144821694D01*
X120976878Y-145005671D01*
X120991000Y-145149056D01*
X120991000Y-146442944D01*
X120976878Y-146586329D01*
X120921069Y-146770306D01*
X120921068Y-146770309D01*
X120921067Y-146770310D01*
X120830441Y-146939860D01*
X120792546Y-146986035D01*
X120708476Y-147088476D01*
X120606035Y-147172546D01*
X120559860Y-147210441D01*
X120480225Y-147253006D01*
X120390309Y-147301068D01*
X120390306Y-147301069D01*
X120206329Y-147356878D01*
X120015000Y-147375722D01*
X119823672Y-147356878D01*
X119639695Y-147301069D01*
X119639692Y-147301068D01*
X119549776Y-147253006D01*
X119470141Y-147210441D01*
X119423966Y-147172546D01*
X119321525Y-147088476D01*
X119237455Y-146986035D01*
X119199560Y-146939860D01*
X119108932Y-146770306D01*
X119053123Y-146586329D01*
X119053123Y-146586327D01*
X119053122Y-146586325D01*
X119039000Y-146442945D01*
X119039000Y-145149056D01*
X119053122Y-145005674D01*
X119053122Y-145005672D01*
X119108931Y-144821695D01*
X119108932Y-144821691D01*
X119170596Y-144706326D01*
X119199559Y-144652140D01*
X119252077Y-144588147D01*
X119321524Y-144503524D01*
X119423965Y-144419454D01*
X119470140Y-144381559D01*
X119549775Y-144338994D01*
X119639691Y-144290932D01*
X119639694Y-144290931D01*
X119823671Y-144235122D01*
X120015000Y-144216278D01*
X120206328Y-144235122D01*
G37*
G36*
X125206328Y-144235122D02*
G01*
X125342436Y-144276410D01*
X125390309Y-144290932D01*
X125505674Y-144352596D01*
X125559860Y-144381559D01*
X125606035Y-144419454D01*
X125708476Y-144503524D01*
X125777923Y-144588147D01*
X125830441Y-144652140D01*
X125863316Y-144713646D01*
X125921068Y-144821691D01*
X125921069Y-144821694D01*
X125976878Y-145005671D01*
X125991000Y-145149056D01*
X125991000Y-146442944D01*
X125976878Y-146586329D01*
X125921069Y-146770306D01*
X125921068Y-146770309D01*
X125921067Y-146770310D01*
X125830441Y-146939860D01*
X125792546Y-146986035D01*
X125708476Y-147088476D01*
X125606035Y-147172546D01*
X125559860Y-147210441D01*
X125480225Y-147253006D01*
X125390309Y-147301068D01*
X125390306Y-147301069D01*
X125206329Y-147356878D01*
X125015000Y-147375722D01*
X124823672Y-147356878D01*
X124639695Y-147301069D01*
X124639692Y-147301068D01*
X124549776Y-147253006D01*
X124470141Y-147210441D01*
X124423966Y-147172546D01*
X124321525Y-147088476D01*
X124237455Y-146986035D01*
X124199560Y-146939860D01*
X124108932Y-146770306D01*
X124053123Y-146586329D01*
X124053123Y-146586327D01*
X124053122Y-146586325D01*
X124039000Y-146442945D01*
X124039000Y-145149056D01*
X124053122Y-145005674D01*
X124053122Y-145005672D01*
X124108931Y-144821695D01*
X124108932Y-144821691D01*
X124170596Y-144706326D01*
X124199559Y-144652140D01*
X124252077Y-144588147D01*
X124321524Y-144503524D01*
X124423965Y-144419454D01*
X124470140Y-144381559D01*
X124549775Y-144338994D01*
X124639691Y-144290932D01*
X124639694Y-144290931D01*
X124823671Y-144235122D01*
X125015000Y-144216278D01*
X125206328Y-144235122D01*
G37*
G36*
X111899000Y-146189000D02*
G01*
X110097000Y-146189000D01*
X110097000Y-144387000D01*
X111899000Y-144387000D01*
X111899000Y-146189000D01*
G37*
G36*
X108571512Y-144391927D02*
G01*
X108720812Y-144421624D01*
X108884784Y-144489544D01*
X109032354Y-144588147D01*
X109157853Y-144713646D01*
X109256456Y-144861216D01*
X109324376Y-145025188D01*
X109359000Y-145199259D01*
X109359000Y-145376741D01*
X109324376Y-145550812D01*
X109256456Y-145714784D01*
X109157853Y-145862354D01*
X109032354Y-145987853D01*
X108884784Y-146086456D01*
X108720812Y-146154376D01*
X108571512Y-146184073D01*
X108546742Y-146189000D01*
X108369258Y-146189000D01*
X108344488Y-146184073D01*
X108195188Y-146154376D01*
X108031216Y-146086456D01*
X107883646Y-145987853D01*
X107758147Y-145862354D01*
X107659544Y-145714784D01*
X107591624Y-145550812D01*
X107557000Y-145376741D01*
X107557000Y-145199259D01*
X107591624Y-145025188D01*
X107659544Y-144861216D01*
X107758147Y-144713646D01*
X107883646Y-144588147D01*
X108031216Y-144489544D01*
X108195188Y-144421624D01*
X108344488Y-144391927D01*
X108369258Y-144387000D01*
X108546742Y-144387000D01*
X108571512Y-144391927D01*
G37*
G36*
X106031512Y-144391927D02*
G01*
X106180812Y-144421624D01*
X106344784Y-144489544D01*
X106492354Y-144588147D01*
X106617853Y-144713646D01*
X106716456Y-144861216D01*
X106784376Y-145025188D01*
X106819000Y-145199259D01*
X106819000Y-145376741D01*
X106784376Y-145550812D01*
X106716456Y-145714784D01*
X106617853Y-145862354D01*
X106492354Y-145987853D01*
X106344784Y-146086456D01*
X106180812Y-146154376D01*
X106031512Y-146184073D01*
X106006742Y-146189000D01*
X105829258Y-146189000D01*
X105804488Y-146184073D01*
X105655188Y-146154376D01*
X105491216Y-146086456D01*
X105343646Y-145987853D01*
X105218147Y-145862354D01*
X105119544Y-145714784D01*
X105051624Y-145550812D01*
X105017000Y-145376741D01*
X105017000Y-145199259D01*
X105051624Y-145025188D01*
X105119544Y-144861216D01*
X105218147Y-144713646D01*
X105343646Y-144588147D01*
X105491216Y-144489544D01*
X105655188Y-144421624D01*
X105804488Y-144391927D01*
X105829258Y-144387000D01*
X106006742Y-144387000D01*
X106031512Y-144391927D01*
G37*
G36*
X110394366Y-139313695D02*
G01*
X110551460Y-139361349D01*
X110696231Y-139438731D01*
X110823128Y-139542872D01*
X110927269Y-139669769D01*
X111004651Y-139814540D01*
X111052305Y-139971634D01*
X111069000Y-140141140D01*
X111069000Y-142054860D01*
X111052305Y-142224366D01*
X111004651Y-142381460D01*
X110927269Y-142526231D01*
X110823128Y-142653128D01*
X110696231Y-142757269D01*
X110551460Y-142834651D01*
X110394366Y-142882305D01*
X110224860Y-142899000D01*
X108311140Y-142899000D01*
X108141634Y-142882305D01*
X107984540Y-142834651D01*
X107839769Y-142757269D01*
X107712872Y-142653128D01*
X107608731Y-142526231D01*
X107531349Y-142381460D01*
X107483695Y-142224366D01*
X107467000Y-142054860D01*
X107467000Y-140141140D01*
X107483695Y-139971634D01*
X107531349Y-139814540D01*
X107608731Y-139669769D01*
X107712872Y-139542872D01*
X107839769Y-139438731D01*
X107984540Y-139361349D01*
X108141634Y-139313695D01*
X108311140Y-139297000D01*
X110224860Y-139297000D01*
X110394366Y-139313695D01*
G37*
G36*
X114069000Y-138199000D02*
G01*
X110467000Y-138199000D01*
X110467000Y-134597000D01*
X114069000Y-134597000D01*
X114069000Y-138199000D01*
G37*
G36*
X107244979Y-134611293D02*
G01*
X107378625Y-134651834D01*
X107501784Y-134717664D01*
X107609740Y-134806260D01*
X107698336Y-134914216D01*
X107764166Y-135037375D01*
X107804707Y-135171021D01*
X107819000Y-135316140D01*
X107819000Y-137479860D01*
X107804707Y-137624979D01*
X107764166Y-137758625D01*
X107698336Y-137881784D01*
X107609740Y-137989740D01*
X107501784Y-138078336D01*
X107378625Y-138144166D01*
X107244979Y-138184707D01*
X107099860Y-138199000D01*
X105436140Y-138199000D01*
X105291021Y-138184707D01*
X105157375Y-138144166D01*
X105034216Y-138078336D01*
X104926260Y-137989740D01*
X104837664Y-137881784D01*
X104771834Y-137758625D01*
X104731293Y-137624979D01*
X104717000Y-137479860D01*
X104717000Y-135316140D01*
X104731293Y-135171021D01*
X104771834Y-135037375D01*
X104837664Y-134914216D01*
X104926260Y-134806260D01*
X105034216Y-134717664D01*
X105157375Y-134651834D01*
X105291021Y-134611293D01*
X105436140Y-134597000D01*
X107099860Y-134597000D01*
X107244979Y-134611293D01*
G37*
G36*
X120206328Y-131735122D02*
G01*
X120342436Y-131776410D01*
X120390309Y-131790932D01*
X120505674Y-131852596D01*
X120559860Y-131881559D01*
X120606035Y-131919454D01*
X120708476Y-132003524D01*
X120792546Y-132105965D01*
X120830441Y-132152140D01*
X120873006Y-132231775D01*
X120921068Y-132321691D01*
X120921069Y-132321694D01*
X120976878Y-132505671D01*
X120991000Y-132649056D01*
X120991000Y-133942944D01*
X120976878Y-134086329D01*
X120921069Y-134270306D01*
X120921068Y-134270309D01*
X120921067Y-134270310D01*
X120830441Y-134439860D01*
X120792546Y-134486035D01*
X120708476Y-134588476D01*
X120606035Y-134672546D01*
X120559860Y-134710441D01*
X120480225Y-134753006D01*
X120390309Y-134801068D01*
X120390306Y-134801069D01*
X120206329Y-134856878D01*
X120015000Y-134875722D01*
X119823672Y-134856878D01*
X119639695Y-134801069D01*
X119639692Y-134801068D01*
X119549776Y-134753006D01*
X119470141Y-134710441D01*
X119423966Y-134672546D01*
X119321525Y-134588476D01*
X119237455Y-134486035D01*
X119199560Y-134439860D01*
X119108932Y-134270306D01*
X119053123Y-134086329D01*
X119053123Y-134086327D01*
X119053122Y-134086325D01*
X119039000Y-133942945D01*
X119039000Y-132649056D01*
X119053122Y-132505674D01*
X119053122Y-132505672D01*
X119108931Y-132321695D01*
X119108932Y-132321691D01*
X119170596Y-132206326D01*
X119199559Y-132152140D01*
X119237454Y-132105965D01*
X119321524Y-132003524D01*
X119423965Y-131919454D01*
X119470140Y-131881559D01*
X119549775Y-131838994D01*
X119639691Y-131790932D01*
X119639694Y-131790931D01*
X119823671Y-131735122D01*
X120015000Y-131716278D01*
X120206328Y-131735122D01*
G37*
G36*
X125206328Y-131735122D02*
G01*
X125342436Y-131776410D01*
X125390309Y-131790932D01*
X125505674Y-131852596D01*
X125559860Y-131881559D01*
X125606035Y-131919454D01*
X125708476Y-132003524D01*
X125792546Y-132105965D01*
X125830441Y-132152140D01*
X125873006Y-132231775D01*
X125921068Y-132321691D01*
X125921069Y-132321694D01*
X125976878Y-132505671D01*
X125991000Y-132649056D01*
X125991000Y-133942944D01*
X125976878Y-134086329D01*
X125921069Y-134270306D01*
X125921068Y-134270309D01*
X125921067Y-134270310D01*
X125830441Y-134439860D01*
X125792546Y-134486035D01*
X125708476Y-134588476D01*
X125606035Y-134672546D01*
X125559860Y-134710441D01*
X125480225Y-134753006D01*
X125390309Y-134801068D01*
X125390306Y-134801069D01*
X125206329Y-134856878D01*
X125015000Y-134875722D01*
X124823672Y-134856878D01*
X124639695Y-134801069D01*
X124639692Y-134801068D01*
X124549776Y-134753006D01*
X124470141Y-134710441D01*
X124423966Y-134672546D01*
X124321525Y-134588476D01*
X124237455Y-134486035D01*
X124199560Y-134439860D01*
X124108932Y-134270306D01*
X124053123Y-134086329D01*
X124053123Y-134086327D01*
X124053122Y-134086325D01*
X124039000Y-133942945D01*
X124039000Y-132649056D01*
X124053122Y-132505674D01*
X124053122Y-132505672D01*
X124108931Y-132321695D01*
X124108932Y-132321691D01*
X124170596Y-132206326D01*
X124199559Y-132152140D01*
X124237454Y-132105965D01*
X124321524Y-132003524D01*
X124423965Y-131919454D01*
X124470140Y-131881559D01*
X124549775Y-131838994D01*
X124639691Y-131790932D01*
X124639694Y-131790931D01*
X124823671Y-131735122D01*
X125015000Y-131716278D01*
X125206328Y-131735122D01*
G37*
G36*
X117117395Y-128625546D02*
G01*
X117290466Y-128697234D01*
X117290467Y-128697235D01*
X117446227Y-128801310D01*
X117578690Y-128933773D01*
X117578691Y-128933775D01*
X117682766Y-129089534D01*
X117754454Y-129262605D01*
X117791000Y-129446333D01*
X117791000Y-129633667D01*
X117754454Y-129817395D01*
X117682766Y-129990466D01*
X117682765Y-129990467D01*
X117578690Y-130146227D01*
X117446227Y-130278690D01*
X117367818Y-130331081D01*
X117290466Y-130382766D01*
X117117395Y-130454454D01*
X116933667Y-130491000D01*
X116746333Y-130491000D01*
X116562605Y-130454454D01*
X116389534Y-130382766D01*
X116312182Y-130331081D01*
X116233773Y-130278690D01*
X116101310Y-130146227D01*
X115997235Y-129990467D01*
X115997234Y-129990466D01*
X115925546Y-129817395D01*
X115889000Y-129633667D01*
X115889000Y-129446333D01*
X115925546Y-129262605D01*
X115997234Y-129089534D01*
X116101309Y-128933775D01*
X116101310Y-128933773D01*
X116233773Y-128801310D01*
X116389533Y-128697235D01*
X116389534Y-128697234D01*
X116562605Y-128625546D01*
X116746333Y-128589000D01*
X116933667Y-128589000D01*
X117117395Y-128625546D01*
G37*
G36*
X128293395Y-128625546D02*
G01*
X128466466Y-128697234D01*
X128466467Y-128697235D01*
X128622227Y-128801310D01*
X128754690Y-128933773D01*
X128754691Y-128933775D01*
X128858766Y-129089534D01*
X128930454Y-129262605D01*
X128967000Y-129446333D01*
X128967000Y-129633667D01*
X128930454Y-129817395D01*
X128858766Y-129990466D01*
X128858765Y-129990467D01*
X128754690Y-130146227D01*
X128622227Y-130278690D01*
X128543818Y-130331081D01*
X128466466Y-130382766D01*
X128293395Y-130454454D01*
X128109667Y-130491000D01*
X127922333Y-130491000D01*
X127738605Y-130454454D01*
X127565534Y-130382766D01*
X127488182Y-130331081D01*
X127409773Y-130278690D01*
X127277310Y-130146227D01*
X127173235Y-129990467D01*
X127173234Y-129990466D01*
X127101546Y-129817395D01*
X127065000Y-129633667D01*
X127065000Y-129446333D01*
X127101546Y-129262605D01*
X127173234Y-129089534D01*
X127277309Y-128933775D01*
X127277310Y-128933773D01*
X127409773Y-128801310D01*
X127565533Y-128697235D01*
X127565534Y-128697234D01*
X127738605Y-128625546D01*
X127922333Y-128589000D01*
X128109667Y-128589000D01*
X128293395Y-128625546D01*
G37*
G36*
X105941395Y-128625546D02*
G01*
X106114466Y-128697234D01*
X106114467Y-128697235D01*
X106270227Y-128801310D01*
X106402690Y-128933773D01*
X106402691Y-128933775D01*
X106506766Y-129089534D01*
X106578454Y-129262605D01*
X106615000Y-129446333D01*
X106615000Y-129633667D01*
X106578454Y-129817395D01*
X106506766Y-129990466D01*
X106506765Y-129990467D01*
X106402690Y-130146227D01*
X106270227Y-130278690D01*
X106191818Y-130331081D01*
X106114466Y-130382766D01*
X105941395Y-130454454D01*
X105757667Y-130491000D01*
X105570333Y-130491000D01*
X105386605Y-130454454D01*
X105213534Y-130382766D01*
X105136182Y-130331081D01*
X105057773Y-130278690D01*
X104925310Y-130146227D01*
X104821235Y-129990467D01*
X104821234Y-129990466D01*
X104749546Y-129817395D01*
X104713000Y-129633667D01*
X104713000Y-129446333D01*
X104749546Y-129262605D01*
X104821234Y-129089534D01*
X104925309Y-128933775D01*
X104925310Y-128933773D01*
X105057773Y-128801310D01*
X105213533Y-128697235D01*
X105213534Y-128697234D01*
X105386605Y-128625546D01*
X105570333Y-128589000D01*
X105757667Y-128589000D01*
X105941395Y-128625546D01*
G37*
G36*
X111529395Y-128625546D02*
G01*
X111702466Y-128697234D01*
X111702467Y-128697235D01*
X111858227Y-128801310D01*
X111990690Y-128933773D01*
X111990691Y-128933775D01*
X112094766Y-129089534D01*
X112166454Y-129262605D01*
X112203000Y-129446333D01*
X112203000Y-129633667D01*
X112166454Y-129817395D01*
X112094766Y-129990466D01*
X112094765Y-129990467D01*
X111990690Y-130146227D01*
X111858227Y-130278690D01*
X111779818Y-130331081D01*
X111702466Y-130382766D01*
X111529395Y-130454454D01*
X111345667Y-130491000D01*
X111158333Y-130491000D01*
X110974605Y-130454454D01*
X110801534Y-130382766D01*
X110724182Y-130331081D01*
X110645773Y-130278690D01*
X110513310Y-130146227D01*
X110409235Y-129990467D01*
X110409234Y-129990466D01*
X110337546Y-129817395D01*
X110301000Y-129633667D01*
X110301000Y-129446333D01*
X110337546Y-129262605D01*
X110409234Y-129089534D01*
X110513309Y-128933775D01*
X110513310Y-128933773D01*
X110645773Y-128801310D01*
X110801533Y-128697235D01*
X110801534Y-128697234D01*
X110974605Y-128625546D01*
X111158333Y-128589000D01*
X111345667Y-128589000D01*
X111529395Y-128625546D01*
G37*
G36*
X122705395Y-128625546D02*
G01*
X122878466Y-128697234D01*
X122878467Y-128697235D01*
X123034227Y-128801310D01*
X123166690Y-128933773D01*
X123166691Y-128933775D01*
X123270766Y-129089534D01*
X123342454Y-129262605D01*
X123379000Y-129446333D01*
X123379000Y-129633667D01*
X123342454Y-129817395D01*
X123270766Y-129990466D01*
X123270765Y-129990467D01*
X123166690Y-130146227D01*
X123034227Y-130278690D01*
X122955818Y-130331081D01*
X122878466Y-130382766D01*
X122705395Y-130454454D01*
X122521667Y-130491000D01*
X122334333Y-130491000D01*
X122150605Y-130454454D01*
X121977534Y-130382766D01*
X121900182Y-130331081D01*
X121821773Y-130278690D01*
X121689310Y-130146227D01*
X121585235Y-129990467D01*
X121585234Y-129990466D01*
X121513546Y-129817395D01*
X121477000Y-129633667D01*
X121477000Y-129446333D01*
X121513546Y-129262605D01*
X121585234Y-129089534D01*
X121689309Y-128933775D01*
X121689310Y-128933773D01*
X121821773Y-128801310D01*
X121977533Y-128697235D01*
X121977534Y-128697234D01*
X122150605Y-128625546D01*
X122334333Y-128589000D01*
X122521667Y-128589000D01*
X122705395Y-128625546D01*
G37*
G36*
X117791000Y-127951000D02*
G01*
X115889000Y-127951000D01*
X115889000Y-126049000D01*
X117791000Y-126049000D01*
X117791000Y-127951000D01*
G37*
G36*
X128967000Y-127951000D02*
G01*
X127065000Y-127951000D01*
X127065000Y-126049000D01*
X128967000Y-126049000D01*
X128967000Y-127951000D01*
G37*
G36*
X106615000Y-127951000D02*
G01*
X104713000Y-127951000D01*
X104713000Y-126049000D01*
X106615000Y-126049000D01*
X106615000Y-127951000D01*
G37*
G36*
X112203000Y-127951000D02*
G01*
X110301000Y-127951000D01*
X110301000Y-126049000D01*
X112203000Y-126049000D01*
X112203000Y-127951000D01*
G37*
G36*
X123379000Y-127951000D02*
G01*
X121477000Y-127951000D01*
X121477000Y-126049000D01*
X123379000Y-126049000D01*
X123379000Y-127951000D01*
G37*
G36*
X110686719Y-122280520D02*
G01*
X110873322Y-122337125D01*
X110875883Y-122337902D01*
X110920306Y-122361647D01*
X111050212Y-122431083D01*
X111203015Y-122556485D01*
X111328417Y-122709288D01*
X111421599Y-122883619D01*
X111478980Y-123072780D01*
X111493500Y-123220206D01*
X111493500Y-123413793D01*
X111478980Y-123561219D01*
X111461376Y-123619252D01*
X111421598Y-123750383D01*
X111393807Y-123802375D01*
X111328417Y-123924712D01*
X111203015Y-124077515D01*
X111050212Y-124202917D01*
X110875881Y-124296099D01*
X110686720Y-124353480D01*
X110490000Y-124372855D01*
X110293281Y-124353480D01*
X110104120Y-124296099D01*
X109929788Y-124202917D01*
X109776985Y-124077515D01*
X109651583Y-123924712D01*
X109558401Y-123750381D01*
X109501020Y-123561220D01*
X109486500Y-123413794D01*
X109486500Y-123220207D01*
X109501020Y-123072781D01*
X109558401Y-122883620D01*
X109558402Y-122883617D01*
X109650611Y-122711107D01*
X109651583Y-122709288D01*
X109776985Y-122556485D01*
X109929788Y-122431083D01*
X110104119Y-122337901D01*
X110293280Y-122280520D01*
X110490000Y-122261145D01*
X110686719Y-122280520D01*
G37*
G36*
X108146719Y-122280520D02*
G01*
X108333322Y-122337125D01*
X108335883Y-122337902D01*
X108380306Y-122361647D01*
X108510212Y-122431083D01*
X108663015Y-122556485D01*
X108788417Y-122709288D01*
X108881599Y-122883619D01*
X108938980Y-123072780D01*
X108953500Y-123220206D01*
X108953500Y-123413793D01*
X108938980Y-123561219D01*
X108921376Y-123619252D01*
X108881598Y-123750383D01*
X108853807Y-123802375D01*
X108788417Y-123924712D01*
X108663015Y-124077515D01*
X108510212Y-124202917D01*
X108335881Y-124296099D01*
X108146720Y-124353480D01*
X107950000Y-124372855D01*
X107753281Y-124353480D01*
X107564120Y-124296099D01*
X107389788Y-124202917D01*
X107236985Y-124077515D01*
X107111583Y-123924712D01*
X107018401Y-123750381D01*
X106961020Y-123561220D01*
X106946500Y-123413794D01*
X106946500Y-123220207D01*
X106961020Y-123072781D01*
X107018401Y-122883620D01*
X107018402Y-122883617D01*
X107110611Y-122711107D01*
X107111583Y-122709288D01*
X107236985Y-122556485D01*
X107389788Y-122431083D01*
X107564119Y-122337901D01*
X107753280Y-122280520D01*
X107950000Y-122261145D01*
X108146719Y-122280520D01*
G37*
G36*
X106413500Y-124368000D02*
G01*
X104406500Y-124368000D01*
X104406500Y-122266000D01*
X106413500Y-122266000D01*
X106413500Y-124368000D01*
G37*
G36*
X117461512Y-122039927D02*
G01*
X117610812Y-122069624D01*
X117774784Y-122137544D01*
X117922354Y-122236147D01*
X118047853Y-122361646D01*
X118146456Y-122509216D01*
X118214376Y-122673188D01*
X118249000Y-122847259D01*
X118249000Y-123024741D01*
X118214376Y-123198812D01*
X118146456Y-123362784D01*
X118047853Y-123510354D01*
X117922354Y-123635853D01*
X117774784Y-123734456D01*
X117610812Y-123802376D01*
X117461512Y-123832073D01*
X117436742Y-123837000D01*
X117259258Y-123837000D01*
X117234488Y-123832073D01*
X117085188Y-123802376D01*
X116921216Y-123734456D01*
X116773646Y-123635853D01*
X116648147Y-123510354D01*
X116549544Y-123362784D01*
X116481624Y-123198812D01*
X116447000Y-123024741D01*
X116447000Y-122847259D01*
X116481624Y-122673188D01*
X116549544Y-122509216D01*
X116648147Y-122361646D01*
X116773646Y-122236147D01*
X116921216Y-122137544D01*
X117085188Y-122069624D01*
X117234488Y-122039927D01*
X117259258Y-122035000D01*
X117436742Y-122035000D01*
X117461512Y-122039927D01*
G37*
G36*
X120001512Y-122039927D02*
G01*
X120150812Y-122069624D01*
X120314784Y-122137544D01*
X120462354Y-122236147D01*
X120587853Y-122361646D01*
X120686456Y-122509216D01*
X120754376Y-122673188D01*
X120789000Y-122847259D01*
X120789000Y-123024741D01*
X120754376Y-123198812D01*
X120686456Y-123362784D01*
X120587853Y-123510354D01*
X120462354Y-123635853D01*
X120314784Y-123734456D01*
X120150812Y-123802376D01*
X120001512Y-123832073D01*
X119976742Y-123837000D01*
X119799258Y-123837000D01*
X119774488Y-123832073D01*
X119625188Y-123802376D01*
X119461216Y-123734456D01*
X119313646Y-123635853D01*
X119188147Y-123510354D01*
X119089544Y-123362784D01*
X119021624Y-123198812D01*
X118987000Y-123024741D01*
X118987000Y-122847259D01*
X119021624Y-122673188D01*
X119089544Y-122509216D01*
X119188147Y-122361646D01*
X119313646Y-122236147D01*
X119461216Y-122137544D01*
X119625188Y-122069624D01*
X119774488Y-122039927D01*
X119799258Y-122035000D01*
X119976742Y-122035000D01*
X120001512Y-122039927D01*
G37*
G36*
X127125589Y-122174876D02*
G01*
X127224893Y-122194629D01*
X127365206Y-122252748D01*
X127491484Y-122337125D01*
X127598875Y-122444516D01*
X127683252Y-122570794D01*
X127741371Y-122711107D01*
X127771000Y-122860063D01*
X127771000Y-123011937D01*
X127741371Y-123160893D01*
X127683252Y-123301206D01*
X127598875Y-123427484D01*
X127491484Y-123534875D01*
X127365206Y-123619252D01*
X127224893Y-123677371D01*
X127125589Y-123697124D01*
X127075938Y-123707000D01*
X126924062Y-123707000D01*
X126874411Y-123697124D01*
X126775107Y-123677371D01*
X126634794Y-123619252D01*
X126508516Y-123534875D01*
X126401125Y-123427484D01*
X126316748Y-123301206D01*
X126258629Y-123160893D01*
X126229000Y-123011937D01*
X126229000Y-122860063D01*
X126258629Y-122711107D01*
X126316748Y-122570794D01*
X126401125Y-122444516D01*
X126508516Y-122337125D01*
X126634794Y-122252748D01*
X126775107Y-122194629D01*
X126874411Y-122174876D01*
X126924062Y-122165000D01*
X127075938Y-122165000D01*
X127125589Y-122174876D01*
G37*
G36*
X120001512Y-119499927D02*
G01*
X120150812Y-119529624D01*
X120314784Y-119597544D01*
X120462354Y-119696147D01*
X120587853Y-119821646D01*
X120686456Y-119969216D01*
X120754376Y-120133188D01*
X120789000Y-120307259D01*
X120789000Y-120484741D01*
X120754376Y-120658812D01*
X120686456Y-120822784D01*
X120587853Y-120970354D01*
X120462354Y-121095853D01*
X120314784Y-121194456D01*
X120150812Y-121262376D01*
X120001512Y-121292073D01*
X119976742Y-121297000D01*
X119799258Y-121297000D01*
X119774488Y-121292073D01*
X119625188Y-121262376D01*
X119461216Y-121194456D01*
X119313646Y-121095853D01*
X119188147Y-120970354D01*
X119089544Y-120822784D01*
X119021624Y-120658812D01*
X118987000Y-120484741D01*
X118987000Y-120307259D01*
X119021624Y-120133188D01*
X119089544Y-119969216D01*
X119188147Y-119821646D01*
X119313646Y-119696147D01*
X119461216Y-119597544D01*
X119625188Y-119529624D01*
X119774488Y-119499927D01*
X119799258Y-119495000D01*
X119976742Y-119495000D01*
X120001512Y-119499927D01*
G37*
G36*
X117461512Y-119499927D02*
G01*
X117610812Y-119529624D01*
X117774784Y-119597544D01*
X117922354Y-119696147D01*
X118047853Y-119821646D01*
X118146456Y-119969216D01*
X118214376Y-120133188D01*
X118249000Y-120307259D01*
X118249000Y-120484741D01*
X118214376Y-120658812D01*
X118146456Y-120822784D01*
X118047853Y-120970354D01*
X117922354Y-121095853D01*
X117774784Y-121194456D01*
X117610812Y-121262376D01*
X117461512Y-121292073D01*
X117436742Y-121297000D01*
X117259258Y-121297000D01*
X117234488Y-121292073D01*
X117085188Y-121262376D01*
X116921216Y-121194456D01*
X116773646Y-121095853D01*
X116648147Y-120970354D01*
X116549544Y-120822784D01*
X116481624Y-120658812D01*
X116447000Y-120484741D01*
X116447000Y-120307259D01*
X116481624Y-120133188D01*
X116549544Y-119969216D01*
X116648147Y-119821646D01*
X116773646Y-119696147D01*
X116921216Y-119597544D01*
X117085188Y-119529624D01*
X117234488Y-119499927D01*
X117259258Y-119495000D01*
X117436742Y-119495000D01*
X117461512Y-119499927D01*
G37*
G36*
X129665589Y-119634876D02*
G01*
X129764893Y-119654629D01*
X129905206Y-119712748D01*
X130031484Y-119797125D01*
X130138875Y-119904516D01*
X130223252Y-120030794D01*
X130281371Y-120171107D01*
X130311000Y-120320063D01*
X130311000Y-120471937D01*
X130281371Y-120620893D01*
X130223252Y-120761206D01*
X130138875Y-120887484D01*
X130031484Y-120994875D01*
X129905206Y-121079252D01*
X129764893Y-121137371D01*
X129665589Y-121157124D01*
X129615938Y-121167000D01*
X129464062Y-121167000D01*
X129414411Y-121157124D01*
X129315107Y-121137371D01*
X129174794Y-121079252D01*
X129048516Y-120994875D01*
X128941125Y-120887484D01*
X128856748Y-120761206D01*
X128798629Y-120620893D01*
X128769000Y-120471937D01*
X128769000Y-120320063D01*
X128798629Y-120171107D01*
X128856748Y-120030794D01*
X128941125Y-119904516D01*
X129048516Y-119797125D01*
X129174794Y-119712748D01*
X129315107Y-119654629D01*
X129414411Y-119634876D01*
X129464062Y-119625000D01*
X129615938Y-119625000D01*
X129665589Y-119634876D01*
G37*
G36*
X124585589Y-119634876D02*
G01*
X124684893Y-119654629D01*
X124825206Y-119712748D01*
X124951484Y-119797125D01*
X125058875Y-119904516D01*
X125143252Y-120030794D01*
X125201371Y-120171107D01*
X125231000Y-120320063D01*
X125231000Y-120471937D01*
X125201371Y-120620893D01*
X125143252Y-120761206D01*
X125058875Y-120887484D01*
X124951484Y-120994875D01*
X124825206Y-121079252D01*
X124684893Y-121137371D01*
X124585589Y-121157124D01*
X124535938Y-121167000D01*
X124384062Y-121167000D01*
X124334411Y-121157124D01*
X124235107Y-121137371D01*
X124094794Y-121079252D01*
X123968516Y-120994875D01*
X123861125Y-120887484D01*
X123776748Y-120761206D01*
X123718629Y-120620893D01*
X123689000Y-120471937D01*
X123689000Y-120320063D01*
X123718629Y-120171107D01*
X123776748Y-120030794D01*
X123861125Y-119904516D01*
X123968516Y-119797125D01*
X124094794Y-119712748D01*
X124235107Y-119654629D01*
X124334411Y-119634876D01*
X124384062Y-119625000D01*
X124535938Y-119625000D01*
X124585589Y-119634876D01*
G37*
G36*
X120001512Y-116959927D02*
G01*
X120150812Y-116989624D01*
X120314784Y-117057544D01*
X120462354Y-117156147D01*
X120587853Y-117281646D01*
X120686456Y-117429216D01*
X120754376Y-117593188D01*
X120789000Y-117767259D01*
X120789000Y-117944741D01*
X120754376Y-118118812D01*
X120686456Y-118282784D01*
X120587853Y-118430354D01*
X120462354Y-118555853D01*
X120314784Y-118654456D01*
X120150812Y-118722376D01*
X120001512Y-118752073D01*
X119976742Y-118757000D01*
X119799258Y-118757000D01*
X119774488Y-118752073D01*
X119625188Y-118722376D01*
X119461216Y-118654456D01*
X119313646Y-118555853D01*
X119188147Y-118430354D01*
X119089544Y-118282784D01*
X119021624Y-118118812D01*
X118987000Y-117944741D01*
X118987000Y-117767259D01*
X119021624Y-117593188D01*
X119089544Y-117429216D01*
X119188147Y-117281646D01*
X119313646Y-117156147D01*
X119461216Y-117057544D01*
X119625188Y-116989624D01*
X119774488Y-116959927D01*
X119799258Y-116955000D01*
X119976742Y-116955000D01*
X120001512Y-116959927D01*
G37*
G36*
X118249000Y-118757000D02*
G01*
X116447000Y-118757000D01*
X116447000Y-116955000D01*
X118249000Y-116955000D01*
X118249000Y-118757000D01*
G37*
G36*
X104174228Y-116529703D02*
G01*
X104329100Y-116593853D01*
X104468481Y-116686985D01*
X104587015Y-116805519D01*
X104680147Y-116944900D01*
X104744297Y-117099772D01*
X104777000Y-117264184D01*
X104777000Y-117431816D01*
X104744297Y-117596228D01*
X104680147Y-117751100D01*
X104587015Y-117890481D01*
X104468481Y-118009015D01*
X104329100Y-118102147D01*
X104174228Y-118166297D01*
X104009816Y-118199000D01*
X103842184Y-118199000D01*
X103677772Y-118166297D01*
X103522900Y-118102147D01*
X103383519Y-118009015D01*
X103264985Y-117890481D01*
X103171853Y-117751100D01*
X103107703Y-117596228D01*
X103075000Y-117431816D01*
X103075000Y-117264184D01*
X103107703Y-117099772D01*
X103171853Y-116944900D01*
X103264985Y-116805519D01*
X103383519Y-116686985D01*
X103522900Y-116593853D01*
X103677772Y-116529703D01*
X103842184Y-116497000D01*
X104009816Y-116497000D01*
X104174228Y-116529703D01*
G37*
G36*
X112222228Y-116529703D02*
G01*
X112377100Y-116593853D01*
X112516481Y-116686985D01*
X112635015Y-116805519D01*
X112728147Y-116944900D01*
X112792297Y-117099772D01*
X112825000Y-117264184D01*
X112825000Y-117431816D01*
X112792297Y-117596228D01*
X112728147Y-117751100D01*
X112635015Y-117890481D01*
X112516481Y-118009015D01*
X112377100Y-118102147D01*
X112222228Y-118166297D01*
X112057816Y-118199000D01*
X111890184Y-118199000D01*
X111725772Y-118166297D01*
X111570900Y-118102147D01*
X111431519Y-118009015D01*
X111312985Y-117890481D01*
X111219853Y-117751100D01*
X111155703Y-117596228D01*
X111123000Y-117431816D01*
X111123000Y-117264184D01*
X111155703Y-117099772D01*
X111219853Y-116944900D01*
X111312985Y-116805519D01*
X111431519Y-116686985D01*
X111570900Y-116593853D01*
X111725772Y-116529703D01*
X111890184Y-116497000D01*
X112057816Y-116497000D01*
X112222228Y-116529703D01*
G37*
G36*
X106674228Y-116529703D02*
G01*
X106829100Y-116593853D01*
X106968481Y-116686985D01*
X107087015Y-116805519D01*
X107180147Y-116944900D01*
X107244297Y-117099772D01*
X107277000Y-117264184D01*
X107277000Y-117431816D01*
X107244297Y-117596228D01*
X107180147Y-117751100D01*
X107087015Y-117890481D01*
X106968481Y-118009015D01*
X106829100Y-118102147D01*
X106674228Y-118166297D01*
X106509816Y-118199000D01*
X106342184Y-118199000D01*
X106177772Y-118166297D01*
X106022900Y-118102147D01*
X105883519Y-118009015D01*
X105764985Y-117890481D01*
X105671853Y-117751100D01*
X105607703Y-117596228D01*
X105575000Y-117431816D01*
X105575000Y-117264184D01*
X105607703Y-117099772D01*
X105671853Y-116944900D01*
X105764985Y-116805519D01*
X105883519Y-116686985D01*
X106022900Y-116593853D01*
X106177772Y-116529703D01*
X106342184Y-116497000D01*
X106509816Y-116497000D01*
X106674228Y-116529703D01*
G37*
G36*
X109722228Y-116529703D02*
G01*
X109877100Y-116593853D01*
X110016481Y-116686985D01*
X110135015Y-116805519D01*
X110228147Y-116944900D01*
X110292297Y-117099772D01*
X110325000Y-117264184D01*
X110325000Y-117431816D01*
X110292297Y-117596228D01*
X110228147Y-117751100D01*
X110135015Y-117890481D01*
X110016481Y-118009015D01*
X109877100Y-118102147D01*
X109722228Y-118166297D01*
X109557816Y-118199000D01*
X109390184Y-118199000D01*
X109225772Y-118166297D01*
X109070900Y-118102147D01*
X108931519Y-118009015D01*
X108812985Y-117890481D01*
X108719853Y-117751100D01*
X108655703Y-117596228D01*
X108623000Y-117431816D01*
X108623000Y-117264184D01*
X108655703Y-117099772D01*
X108719853Y-116944900D01*
X108812985Y-116805519D01*
X108931519Y-116686985D01*
X109070900Y-116593853D01*
X109225772Y-116529703D01*
X109390184Y-116497000D01*
X109557816Y-116497000D01*
X109722228Y-116529703D01*
G37*
G36*
X109333512Y-110863927D02*
G01*
X109482812Y-110893624D01*
X109646784Y-110961544D01*
X109794354Y-111060147D01*
X109919853Y-111185646D01*
X110018456Y-111333216D01*
X110086376Y-111497188D01*
X110121000Y-111671259D01*
X110121000Y-111848741D01*
X110086376Y-112022812D01*
X110018456Y-112186784D01*
X109919853Y-112334354D01*
X109794354Y-112459853D01*
X109646784Y-112558456D01*
X109482812Y-112626376D01*
X109333512Y-112656073D01*
X109308742Y-112661000D01*
X109131258Y-112661000D01*
X109106488Y-112656073D01*
X108957188Y-112626376D01*
X108793216Y-112558456D01*
X108645646Y-112459853D01*
X108520147Y-112334354D01*
X108421544Y-112186784D01*
X108353624Y-112022812D01*
X108319000Y-111848741D01*
X108319000Y-111671259D01*
X108353624Y-111497188D01*
X108421544Y-111333216D01*
X108520147Y-111185646D01*
X108645646Y-111060147D01*
X108793216Y-110961544D01*
X108957188Y-110893624D01*
X109106488Y-110863927D01*
X109131258Y-110859000D01*
X109308742Y-110859000D01*
X109333512Y-110863927D01*
G37*
G36*
X128510512Y-110863927D02*
G01*
X128659812Y-110893624D01*
X128823784Y-110961544D01*
X128971354Y-111060147D01*
X129096853Y-111185646D01*
X129195456Y-111333216D01*
X129263376Y-111497188D01*
X129298000Y-111671259D01*
X129298000Y-111848741D01*
X129263376Y-112022812D01*
X129195456Y-112186784D01*
X129096853Y-112334354D01*
X128971354Y-112459853D01*
X128823784Y-112558456D01*
X128659812Y-112626376D01*
X128510512Y-112656073D01*
X128485742Y-112661000D01*
X128308258Y-112661000D01*
X128283488Y-112656073D01*
X128134188Y-112626376D01*
X127970216Y-112558456D01*
X127822646Y-112459853D01*
X127697147Y-112334354D01*
X127598544Y-112186784D01*
X127530624Y-112022812D01*
X127496000Y-111848741D01*
X127496000Y-111671259D01*
X127530624Y-111497188D01*
X127598544Y-111333216D01*
X127697147Y-111185646D01*
X127822646Y-111060147D01*
X127970216Y-110961544D01*
X128134188Y-110893624D01*
X128283488Y-110863927D01*
X128308258Y-110859000D01*
X128485742Y-110859000D01*
X128510512Y-110863927D01*
G37*
G36*
X126758000Y-112661000D02*
G01*
X124956000Y-112661000D01*
X124956000Y-110859000D01*
X126758000Y-110859000D01*
X126758000Y-112661000D01*
G37*
G36*
X116953512Y-110863927D02*
G01*
X117102812Y-110893624D01*
X117266784Y-110961544D01*
X117414354Y-111060147D01*
X117539853Y-111185646D01*
X117638456Y-111333216D01*
X117706376Y-111497188D01*
X117741000Y-111671259D01*
X117741000Y-111848741D01*
X117706376Y-112022812D01*
X117638456Y-112186784D01*
X117539853Y-112334354D01*
X117414354Y-112459853D01*
X117266784Y-112558456D01*
X117102812Y-112626376D01*
X116953512Y-112656073D01*
X116928742Y-112661000D01*
X116751258Y-112661000D01*
X116726488Y-112656073D01*
X116577188Y-112626376D01*
X116413216Y-112558456D01*
X116265646Y-112459853D01*
X116140147Y-112334354D01*
X116041544Y-112186784D01*
X115973624Y-112022812D01*
X115939000Y-111848741D01*
X115939000Y-111671259D01*
X115973624Y-111497188D01*
X116041544Y-111333216D01*
X116140147Y-111185646D01*
X116265646Y-111060147D01*
X116413216Y-110961544D01*
X116577188Y-110893624D01*
X116726488Y-110863927D01*
X116751258Y-110859000D01*
X116928742Y-110859000D01*
X116953512Y-110863927D01*
G37*
G36*
X114413512Y-110863927D02*
G01*
X114562812Y-110893624D01*
X114726784Y-110961544D01*
X114874354Y-111060147D01*
X114999853Y-111185646D01*
X115098456Y-111333216D01*
X115166376Y-111497188D01*
X115201000Y-111671259D01*
X115201000Y-111848741D01*
X115166376Y-112022812D01*
X115098456Y-112186784D01*
X114999853Y-112334354D01*
X114874354Y-112459853D01*
X114726784Y-112558456D01*
X114562812Y-112626376D01*
X114413512Y-112656073D01*
X114388742Y-112661000D01*
X114211258Y-112661000D01*
X114186488Y-112656073D01*
X114037188Y-112626376D01*
X113873216Y-112558456D01*
X113725646Y-112459853D01*
X113600147Y-112334354D01*
X113501544Y-112186784D01*
X113433624Y-112022812D01*
X113399000Y-111848741D01*
X113399000Y-111671259D01*
X113433624Y-111497188D01*
X113501544Y-111333216D01*
X113600147Y-111185646D01*
X113725646Y-111060147D01*
X113873216Y-110961544D01*
X114037188Y-110893624D01*
X114186488Y-110863927D01*
X114211258Y-110859000D01*
X114388742Y-110859000D01*
X114413512Y-110863927D01*
G37*
G36*
X111873512Y-110863927D02*
G01*
X112022812Y-110893624D01*
X112186784Y-110961544D01*
X112334354Y-111060147D01*
X112459853Y-111185646D01*
X112558456Y-111333216D01*
X112626376Y-111497188D01*
X112661000Y-111671259D01*
X112661000Y-111848741D01*
X112626376Y-112022812D01*
X112558456Y-112186784D01*
X112459853Y-112334354D01*
X112334354Y-112459853D01*
X112186784Y-112558456D01*
X112022812Y-112626376D01*
X111873512Y-112656073D01*
X111848742Y-112661000D01*
X111671258Y-112661000D01*
X111646488Y-112656073D01*
X111497188Y-112626376D01*
X111333216Y-112558456D01*
X111185646Y-112459853D01*
X111060147Y-112334354D01*
X110961544Y-112186784D01*
X110893624Y-112022812D01*
X110859000Y-111848741D01*
X110859000Y-111671259D01*
X110893624Y-111497188D01*
X110961544Y-111333216D01*
X111060147Y-111185646D01*
X111185646Y-111060147D01*
X111333216Y-110961544D01*
X111497188Y-110893624D01*
X111646488Y-110863927D01*
X111671258Y-110859000D01*
X111848742Y-110859000D01*
X111873512Y-110863927D01*
G37*
G36*
X106793512Y-110863927D02*
G01*
X106942812Y-110893624D01*
X107106784Y-110961544D01*
X107254354Y-111060147D01*
X107379853Y-111185646D01*
X107478456Y-111333216D01*
X107546376Y-111497188D01*
X107581000Y-111671259D01*
X107581000Y-111848741D01*
X107546376Y-112022812D01*
X107478456Y-112186784D01*
X107379853Y-112334354D01*
X107254354Y-112459853D01*
X107106784Y-112558456D01*
X106942812Y-112626376D01*
X106793512Y-112656073D01*
X106768742Y-112661000D01*
X106591258Y-112661000D01*
X106566488Y-112656073D01*
X106417188Y-112626376D01*
X106253216Y-112558456D01*
X106105646Y-112459853D01*
X105980147Y-112334354D01*
X105881544Y-112186784D01*
X105813624Y-112022812D01*
X105779000Y-111848741D01*
X105779000Y-111671259D01*
X105813624Y-111497188D01*
X105881544Y-111333216D01*
X105980147Y-111185646D01*
X106105646Y-111060147D01*
X106253216Y-110961544D01*
X106417188Y-110893624D01*
X106566488Y-110863927D01*
X106591258Y-110859000D01*
X106768742Y-110859000D01*
X106793512Y-110863927D01*
G37*
G36*
X105041000Y-112661000D02*
G01*
X103239000Y-112661000D01*
X103239000Y-110859000D01*
X105041000Y-110859000D01*
X105041000Y-112661000D01*
G37*
G36*
X127248228Y-103321703D02*
G01*
X127403100Y-103385853D01*
X127542481Y-103478985D01*
X127661015Y-103597519D01*
X127754147Y-103736900D01*
X127818297Y-103891772D01*
X127851000Y-104056184D01*
X127851000Y-104223816D01*
X127818297Y-104388228D01*
X127754147Y-104543100D01*
X127661015Y-104682481D01*
X127542481Y-104801015D01*
X127403100Y-104894147D01*
X127248228Y-104958297D01*
X127083816Y-104991000D01*
X126916184Y-104991000D01*
X126751772Y-104958297D01*
X126596900Y-104894147D01*
X126457519Y-104801015D01*
X126338985Y-104682481D01*
X126245853Y-104543100D01*
X126181703Y-104388228D01*
X126149000Y-104223816D01*
X126149000Y-104056184D01*
X126181703Y-103891772D01*
X126245853Y-103736900D01*
X126338985Y-103597519D01*
X126457519Y-103478985D01*
X126596900Y-103385853D01*
X126751772Y-103321703D01*
X126916184Y-103289000D01*
X127083816Y-103289000D01*
X127248228Y-103321703D01*
G37*
G36*
X117088228Y-103321703D02*
G01*
X117243100Y-103385853D01*
X117382481Y-103478985D01*
X117501015Y-103597519D01*
X117594147Y-103736900D01*
X117658297Y-103891772D01*
X117691000Y-104056184D01*
X117691000Y-104223816D01*
X117658297Y-104388228D01*
X117594147Y-104543100D01*
X117501015Y-104682481D01*
X117382481Y-104801015D01*
X117243100Y-104894147D01*
X117088228Y-104958297D01*
X116923816Y-104991000D01*
X116756184Y-104991000D01*
X116591772Y-104958297D01*
X116436900Y-104894147D01*
X116297519Y-104801015D01*
X116178985Y-104682481D01*
X116085853Y-104543100D01*
X116021703Y-104388228D01*
X115989000Y-104223816D01*
X115989000Y-104056184D01*
X116021703Y-103891772D01*
X116085853Y-103736900D01*
X116178985Y-103597519D01*
X116297519Y-103478985D01*
X116436900Y-103385853D01*
X116591772Y-103321703D01*
X116756184Y-103289000D01*
X116923816Y-103289000D01*
X117088228Y-103321703D01*
G37*
G36*
X129653512Y-98163927D02*
G01*
X129802812Y-98193624D01*
X129966784Y-98261544D01*
X130114354Y-98360147D01*
X130239853Y-98485646D01*
X130338456Y-98633216D01*
X130406376Y-98797188D01*
X130441000Y-98971259D01*
X130441000Y-99148741D01*
X130406376Y-99322812D01*
X130338456Y-99486784D01*
X130239853Y-99634354D01*
X130114354Y-99759853D01*
X129966784Y-99858456D01*
X129802812Y-99926376D01*
X129653512Y-99956073D01*
X129628742Y-99961000D01*
X129451258Y-99961000D01*
X129426488Y-99956073D01*
X129277188Y-99926376D01*
X129113216Y-99858456D01*
X128965646Y-99759853D01*
X128840147Y-99634354D01*
X128741544Y-99486784D01*
X128673624Y-99322812D01*
X128639000Y-99148741D01*
X128639000Y-98971259D01*
X128673624Y-98797188D01*
X128741544Y-98633216D01*
X128840147Y-98485646D01*
X128965646Y-98360147D01*
X129113216Y-98261544D01*
X129277188Y-98193624D01*
X129426488Y-98163927D01*
X129451258Y-98159000D01*
X129628742Y-98159000D01*
X129653512Y-98163927D01*
G37*
G36*
X104253512Y-98163927D02*
G01*
X104402812Y-98193624D01*
X104566784Y-98261544D01*
X104714354Y-98360147D01*
X104839853Y-98485646D01*
X104938456Y-98633216D01*
X105006376Y-98797188D01*
X105041000Y-98971259D01*
X105041000Y-99148741D01*
X105006376Y-99322812D01*
X104938456Y-99486784D01*
X104839853Y-99634354D01*
X104714354Y-99759853D01*
X104566784Y-99858456D01*
X104402812Y-99926376D01*
X104253512Y-99956073D01*
X104228742Y-99961000D01*
X104051258Y-99961000D01*
X104026488Y-99956073D01*
X103877188Y-99926376D01*
X103713216Y-99858456D01*
X103565646Y-99759853D01*
X103440147Y-99634354D01*
X103341544Y-99486784D01*
X103273624Y-99322812D01*
X103239000Y-99148741D01*
X103239000Y-98971259D01*
X103273624Y-98797188D01*
X103341544Y-98633216D01*
X103440147Y-98485646D01*
X103565646Y-98360147D01*
X103713216Y-98261544D01*
X103877188Y-98193624D01*
X104026488Y-98163927D01*
X104051258Y-98159000D01*
X104228742Y-98159000D01*
X104253512Y-98163927D01*
G37*
G36*
X122168228Y-98241703D02*
G01*
X122323100Y-98305853D01*
X122462481Y-98398985D01*
X122581015Y-98517519D01*
X122674147Y-98656900D01*
X122738297Y-98811772D01*
X122771000Y-98976184D01*
X122771000Y-99143816D01*
X122738297Y-99308228D01*
X122674147Y-99463100D01*
X122581015Y-99602481D01*
X122462481Y-99721015D01*
X122323100Y-99814147D01*
X122168228Y-99878297D01*
X122003816Y-99911000D01*
X121836184Y-99911000D01*
X121671772Y-99878297D01*
X121516900Y-99814147D01*
X121377519Y-99721015D01*
X121258985Y-99602481D01*
X121165853Y-99463100D01*
X121101703Y-99308228D01*
X121069000Y-99143816D01*
X121069000Y-98976184D01*
X121101703Y-98811772D01*
X121165853Y-98656900D01*
X121258985Y-98517519D01*
X121377519Y-98398985D01*
X121516900Y-98305853D01*
X121671772Y-98241703D01*
X121836184Y-98209000D01*
X122003816Y-98209000D01*
X122168228Y-98241703D01*
G37*
G36*
X112008228Y-98241703D02*
G01*
X112163100Y-98305853D01*
X112302481Y-98398985D01*
X112421015Y-98517519D01*
X112514147Y-98656900D01*
X112578297Y-98811772D01*
X112611000Y-98976184D01*
X112611000Y-99143816D01*
X112578297Y-99308228D01*
X112514147Y-99463100D01*
X112421015Y-99602481D01*
X112302481Y-99721015D01*
X112163100Y-99814147D01*
X112008228Y-99878297D01*
X111843816Y-99911000D01*
X111676184Y-99911000D01*
X111511772Y-99878297D01*
X111356900Y-99814147D01*
X111217519Y-99721015D01*
X111098985Y-99602481D01*
X111005853Y-99463100D01*
X110941703Y-99308228D01*
X110909000Y-99143816D01*
X110909000Y-98976184D01*
X110941703Y-98811772D01*
X111005853Y-98656900D01*
X111098985Y-98517519D01*
X111217519Y-98398985D01*
X111356900Y-98305853D01*
X111511772Y-98241703D01*
X111676184Y-98209000D01*
X111843816Y-98209000D01*
X112008228Y-98241703D01*
G37*
G36*
X104253512Y-95623927D02*
G01*
X104402812Y-95653624D01*
X104566784Y-95721544D01*
X104714354Y-95820147D01*
X104839853Y-95945646D01*
X104938456Y-96093216D01*
X105006376Y-96257188D01*
X105041000Y-96431259D01*
X105041000Y-96608741D01*
X105006376Y-96782812D01*
X104938456Y-96946784D01*
X104839853Y-97094354D01*
X104714354Y-97219853D01*
X104566784Y-97318456D01*
X104402812Y-97386376D01*
X104253512Y-97416073D01*
X104228742Y-97421000D01*
X104051258Y-97421000D01*
X104026488Y-97416073D01*
X103877188Y-97386376D01*
X103713216Y-97318456D01*
X103565646Y-97219853D01*
X103440147Y-97094354D01*
X103341544Y-96946784D01*
X103273624Y-96782812D01*
X103239000Y-96608741D01*
X103239000Y-96431259D01*
X103273624Y-96257188D01*
X103341544Y-96093216D01*
X103440147Y-95945646D01*
X103565646Y-95820147D01*
X103713216Y-95721544D01*
X103877188Y-95653624D01*
X104026488Y-95623927D01*
X104051258Y-95619000D01*
X104228742Y-95619000D01*
X104253512Y-95623927D01*
G37*
G36*
X129653512Y-95623927D02*
G01*
X129802812Y-95653624D01*
X129966784Y-95721544D01*
X130114354Y-95820147D01*
X130239853Y-95945646D01*
X130338456Y-96093216D01*
X130406376Y-96257188D01*
X130441000Y-96431259D01*
X130441000Y-96608741D01*
X130406376Y-96782812D01*
X130338456Y-96946784D01*
X130239853Y-97094354D01*
X130114354Y-97219853D01*
X129966784Y-97318456D01*
X129802812Y-97386376D01*
X129653512Y-97416073D01*
X129628742Y-97421000D01*
X129451258Y-97421000D01*
X129426488Y-97416073D01*
X129277188Y-97386376D01*
X129113216Y-97318456D01*
X128965646Y-97219853D01*
X128840147Y-97094354D01*
X128741544Y-96946784D01*
X128673624Y-96782812D01*
X128639000Y-96608741D01*
X128639000Y-96431259D01*
X128673624Y-96257188D01*
X128741544Y-96093216D01*
X128840147Y-95945646D01*
X128965646Y-95820147D01*
X129113216Y-95721544D01*
X129277188Y-95653624D01*
X129426488Y-95623927D01*
X129451258Y-95619000D01*
X129628742Y-95619000D01*
X129653512Y-95623927D01*
G37*
G36*
X104253512Y-93083927D02*
G01*
X104402812Y-93113624D01*
X104566784Y-93181544D01*
X104714354Y-93280147D01*
X104839853Y-93405646D01*
X104938456Y-93553216D01*
X105006376Y-93717188D01*
X105041000Y-93891259D01*
X105041000Y-94068741D01*
X105006376Y-94242812D01*
X104938456Y-94406784D01*
X104839853Y-94554354D01*
X104714354Y-94679853D01*
X104566784Y-94778456D01*
X104402812Y-94846376D01*
X104253512Y-94876073D01*
X104228742Y-94881000D01*
X104051258Y-94881000D01*
X104026488Y-94876073D01*
X103877188Y-94846376D01*
X103713216Y-94778456D01*
X103565646Y-94679853D01*
X103440147Y-94554354D01*
X103341544Y-94406784D01*
X103273624Y-94242812D01*
X103239000Y-94068741D01*
X103239000Y-93891259D01*
X103273624Y-93717188D01*
X103341544Y-93553216D01*
X103440147Y-93405646D01*
X103565646Y-93280147D01*
X103713216Y-93181544D01*
X103877188Y-93113624D01*
X104026488Y-93083927D01*
X104051258Y-93079000D01*
X104228742Y-93079000D01*
X104253512Y-93083927D01*
G37*
G36*
X129653512Y-93083927D02*
G01*
X129802812Y-93113624D01*
X129966784Y-93181544D01*
X130114354Y-93280147D01*
X130239853Y-93405646D01*
X130338456Y-93553216D01*
X130406376Y-93717188D01*
X130441000Y-93891259D01*
X130441000Y-94068741D01*
X130406376Y-94242812D01*
X130338456Y-94406784D01*
X130239853Y-94554354D01*
X130114354Y-94679853D01*
X129966784Y-94778456D01*
X129802812Y-94846376D01*
X129653512Y-94876073D01*
X129628742Y-94881000D01*
X129451258Y-94881000D01*
X129426488Y-94876073D01*
X129277188Y-94846376D01*
X129113216Y-94778456D01*
X128965646Y-94679853D01*
X128840147Y-94554354D01*
X128741544Y-94406784D01*
X128673624Y-94242812D01*
X128639000Y-94068741D01*
X128639000Y-93891259D01*
X128673624Y-93717188D01*
X128741544Y-93553216D01*
X128840147Y-93405646D01*
X128965646Y-93280147D01*
X129113216Y-93181544D01*
X129277188Y-93113624D01*
X129426488Y-93083927D01*
X129451258Y-93079000D01*
X129628742Y-93079000D01*
X129653512Y-93083927D01*
G37*
G36*
X122168228Y-93161703D02*
G01*
X122323100Y-93225853D01*
X122462481Y-93318985D01*
X122581015Y-93437519D01*
X122674147Y-93576900D01*
X122738297Y-93731772D01*
X122771000Y-93896184D01*
X122771000Y-94063816D01*
X122738297Y-94228228D01*
X122674147Y-94383100D01*
X122581015Y-94522481D01*
X122462481Y-94641015D01*
X122323100Y-94734147D01*
X122168228Y-94798297D01*
X122003816Y-94831000D01*
X121836184Y-94831000D01*
X121671772Y-94798297D01*
X121516900Y-94734147D01*
X121377519Y-94641015D01*
X121258985Y-94522481D01*
X121165853Y-94383100D01*
X121101703Y-94228228D01*
X121069000Y-94063816D01*
X121069000Y-93896184D01*
X121101703Y-93731772D01*
X121165853Y-93576900D01*
X121258985Y-93437519D01*
X121377519Y-93318985D01*
X121516900Y-93225853D01*
X121671772Y-93161703D01*
X121836184Y-93129000D01*
X122003816Y-93129000D01*
X122168228Y-93161703D01*
G37*
G36*
X112008228Y-93161703D02*
G01*
X112163100Y-93225853D01*
X112302481Y-93318985D01*
X112421015Y-93437519D01*
X112514147Y-93576900D01*
X112578297Y-93731772D01*
X112611000Y-93896184D01*
X112611000Y-94063816D01*
X112578297Y-94228228D01*
X112514147Y-94383100D01*
X112421015Y-94522481D01*
X112302481Y-94641015D01*
X112163100Y-94734147D01*
X112008228Y-94798297D01*
X111843816Y-94831000D01*
X111676184Y-94831000D01*
X111511772Y-94798297D01*
X111356900Y-94734147D01*
X111217519Y-94641015D01*
X111098985Y-94522481D01*
X111005853Y-94383100D01*
X110941703Y-94228228D01*
X110909000Y-94063816D01*
X110909000Y-93896184D01*
X110941703Y-93731772D01*
X111005853Y-93576900D01*
X111098985Y-93437519D01*
X111217519Y-93318985D01*
X111356900Y-93225853D01*
X111511772Y-93161703D01*
X111676184Y-93129000D01*
X111843816Y-93129000D01*
X112008228Y-93161703D01*
G37*
G36*
X129653512Y-90543927D02*
G01*
X129802812Y-90573624D01*
X129966784Y-90641544D01*
X130114354Y-90740147D01*
X130239853Y-90865646D01*
X130338456Y-91013216D01*
X130406376Y-91177188D01*
X130441000Y-91351259D01*
X130441000Y-91528741D01*
X130406376Y-91702812D01*
X130338456Y-91866784D01*
X130239853Y-92014354D01*
X130114354Y-92139853D01*
X129966784Y-92238456D01*
X129802812Y-92306376D01*
X129653512Y-92336073D01*
X129628742Y-92341000D01*
X129451258Y-92341000D01*
X129426488Y-92336073D01*
X129277188Y-92306376D01*
X129113216Y-92238456D01*
X128965646Y-92139853D01*
X128840147Y-92014354D01*
X128741544Y-91866784D01*
X128673624Y-91702812D01*
X128639000Y-91528741D01*
X128639000Y-91351259D01*
X128673624Y-91177188D01*
X128741544Y-91013216D01*
X128840147Y-90865646D01*
X128965646Y-90740147D01*
X129113216Y-90641544D01*
X129277188Y-90573624D01*
X129426488Y-90543927D01*
X129451258Y-90539000D01*
X129628742Y-90539000D01*
X129653512Y-90543927D01*
G37*
G36*
X104253512Y-90543927D02*
G01*
X104402812Y-90573624D01*
X104566784Y-90641544D01*
X104714354Y-90740147D01*
X104839853Y-90865646D01*
X104938456Y-91013216D01*
X105006376Y-91177188D01*
X105041000Y-91351259D01*
X105041000Y-91528741D01*
X105006376Y-91702812D01*
X104938456Y-91866784D01*
X104839853Y-92014354D01*
X104714354Y-92139853D01*
X104566784Y-92238456D01*
X104402812Y-92306376D01*
X104253512Y-92336073D01*
X104228742Y-92341000D01*
X104051258Y-92341000D01*
X104026488Y-92336073D01*
X103877188Y-92306376D01*
X103713216Y-92238456D01*
X103565646Y-92139853D01*
X103440147Y-92014354D01*
X103341544Y-91866784D01*
X103273624Y-91702812D01*
X103239000Y-91528741D01*
X103239000Y-91351259D01*
X103273624Y-91177188D01*
X103341544Y-91013216D01*
X103440147Y-90865646D01*
X103565646Y-90740147D01*
X103713216Y-90641544D01*
X103877188Y-90573624D01*
X104026488Y-90543927D01*
X104051258Y-90539000D01*
X104228742Y-90539000D01*
X104253512Y-90543927D01*
G37*
G36*
X129653512Y-88003927D02*
G01*
X129802812Y-88033624D01*
X129966784Y-88101544D01*
X130114354Y-88200147D01*
X130239853Y-88325646D01*
X130338456Y-88473216D01*
X130406376Y-88637188D01*
X130441000Y-88811259D01*
X130441000Y-88988741D01*
X130406376Y-89162812D01*
X130338456Y-89326784D01*
X130239853Y-89474354D01*
X130114354Y-89599853D01*
X129966784Y-89698456D01*
X129802812Y-89766376D01*
X129653512Y-89796073D01*
X129628742Y-89801000D01*
X129451258Y-89801000D01*
X129426488Y-89796073D01*
X129277188Y-89766376D01*
X129113216Y-89698456D01*
X128965646Y-89599853D01*
X128840147Y-89474354D01*
X128741544Y-89326784D01*
X128673624Y-89162812D01*
X128639000Y-88988741D01*
X128639000Y-88811259D01*
X128673624Y-88637188D01*
X128741544Y-88473216D01*
X128840147Y-88325646D01*
X128965646Y-88200147D01*
X129113216Y-88101544D01*
X129277188Y-88033624D01*
X129426488Y-88003927D01*
X129451258Y-87999000D01*
X129628742Y-87999000D01*
X129653512Y-88003927D01*
G37*
G36*
X104253512Y-88003927D02*
G01*
X104402812Y-88033624D01*
X104566784Y-88101544D01*
X104714354Y-88200147D01*
X104839853Y-88325646D01*
X104938456Y-88473216D01*
X105006376Y-88637188D01*
X105041000Y-88811259D01*
X105041000Y-88988741D01*
X105006376Y-89162812D01*
X104938456Y-89326784D01*
X104839853Y-89474354D01*
X104714354Y-89599853D01*
X104566784Y-89698456D01*
X104402812Y-89766376D01*
X104253512Y-89796073D01*
X104228742Y-89801000D01*
X104051258Y-89801000D01*
X104026488Y-89796073D01*
X103877188Y-89766376D01*
X103713216Y-89698456D01*
X103565646Y-89599853D01*
X103440147Y-89474354D01*
X103341544Y-89326784D01*
X103273624Y-89162812D01*
X103239000Y-88988741D01*
X103239000Y-88811259D01*
X103273624Y-88637188D01*
X103341544Y-88473216D01*
X103440147Y-88325646D01*
X103565646Y-88200147D01*
X103713216Y-88101544D01*
X103877188Y-88033624D01*
X104026488Y-88003927D01*
X104051258Y-87999000D01*
X104228742Y-87999000D01*
X104253512Y-88003927D01*
G37*
G36*
X112008228Y-88081703D02*
G01*
X112163100Y-88145853D01*
X112302481Y-88238985D01*
X112421015Y-88357519D01*
X112514147Y-88496900D01*
X112578297Y-88651772D01*
X112611000Y-88816184D01*
X112611000Y-88983816D01*
X112578297Y-89148228D01*
X112514147Y-89303100D01*
X112421015Y-89442481D01*
X112302481Y-89561015D01*
X112163100Y-89654147D01*
X112008228Y-89718297D01*
X111843816Y-89751000D01*
X111676184Y-89751000D01*
X111511772Y-89718297D01*
X111356900Y-89654147D01*
X111217519Y-89561015D01*
X111098985Y-89442481D01*
X111005853Y-89303100D01*
X110941703Y-89148228D01*
X110909000Y-88983816D01*
X110909000Y-88816184D01*
X110941703Y-88651772D01*
X111005853Y-88496900D01*
X111098985Y-88357519D01*
X111217519Y-88238985D01*
X111356900Y-88145853D01*
X111511772Y-88081703D01*
X111676184Y-88049000D01*
X111843816Y-88049000D01*
X112008228Y-88081703D01*
G37*
G36*
X122168228Y-88081703D02*
G01*
X122323100Y-88145853D01*
X122462481Y-88238985D01*
X122581015Y-88357519D01*
X122674147Y-88496900D01*
X122738297Y-88651772D01*
X122771000Y-88816184D01*
X122771000Y-88983816D01*
X122738297Y-89148228D01*
X122674147Y-89303100D01*
X122581015Y-89442481D01*
X122462481Y-89561015D01*
X122323100Y-89654147D01*
X122168228Y-89718297D01*
X122003816Y-89751000D01*
X121836184Y-89751000D01*
X121671772Y-89718297D01*
X121516900Y-89654147D01*
X121377519Y-89561015D01*
X121258985Y-89442481D01*
X121165853Y-89303100D01*
X121101703Y-89148228D01*
X121069000Y-88983816D01*
X121069000Y-88816184D01*
X121101703Y-88651772D01*
X121165853Y-88496900D01*
X121258985Y-88357519D01*
X121377519Y-88238985D01*
X121516900Y-88145853D01*
X121671772Y-88081703D01*
X121836184Y-88049000D01*
X122003816Y-88049000D01*
X122168228Y-88081703D01*
G37*
G36*
X129653512Y-85463927D02*
G01*
X129802812Y-85493624D01*
X129966784Y-85561544D01*
X130114354Y-85660147D01*
X130239853Y-85785646D01*
X130338456Y-85933216D01*
X130406376Y-86097188D01*
X130441000Y-86271259D01*
X130441000Y-86448741D01*
X130406376Y-86622812D01*
X130338456Y-86786784D01*
X130239853Y-86934354D01*
X130114354Y-87059853D01*
X129966784Y-87158456D01*
X129802812Y-87226376D01*
X129653512Y-87256073D01*
X129628742Y-87261000D01*
X129451258Y-87261000D01*
X129426488Y-87256073D01*
X129277188Y-87226376D01*
X129113216Y-87158456D01*
X128965646Y-87059853D01*
X128840147Y-86934354D01*
X128741544Y-86786784D01*
X128673624Y-86622812D01*
X128639000Y-86448741D01*
X128639000Y-86271259D01*
X128673624Y-86097188D01*
X128741544Y-85933216D01*
X128840147Y-85785646D01*
X128965646Y-85660147D01*
X129113216Y-85561544D01*
X129277188Y-85493624D01*
X129426488Y-85463927D01*
X129451258Y-85459000D01*
X129628742Y-85459000D01*
X129653512Y-85463927D01*
G37*
G36*
X104253512Y-85463927D02*
G01*
X104402812Y-85493624D01*
X104566784Y-85561544D01*
X104714354Y-85660147D01*
X104839853Y-85785646D01*
X104938456Y-85933216D01*
X105006376Y-86097188D01*
X105041000Y-86271259D01*
X105041000Y-86448741D01*
X105006376Y-86622812D01*
X104938456Y-86786784D01*
X104839853Y-86934354D01*
X104714354Y-87059853D01*
X104566784Y-87158456D01*
X104402812Y-87226376D01*
X104253512Y-87256073D01*
X104228742Y-87261000D01*
X104051258Y-87261000D01*
X104026488Y-87256073D01*
X103877188Y-87226376D01*
X103713216Y-87158456D01*
X103565646Y-87059853D01*
X103440147Y-86934354D01*
X103341544Y-86786784D01*
X103273624Y-86622812D01*
X103239000Y-86448741D01*
X103239000Y-86271259D01*
X103273624Y-86097188D01*
X103341544Y-85933216D01*
X103440147Y-85785646D01*
X103565646Y-85660147D01*
X103713216Y-85561544D01*
X103877188Y-85493624D01*
X104026488Y-85463927D01*
X104051258Y-85459000D01*
X104228742Y-85459000D01*
X104253512Y-85463927D01*
G37*
G36*
X129653512Y-82923927D02*
G01*
X129802812Y-82953624D01*
X129966784Y-83021544D01*
X130114354Y-83120147D01*
X130239853Y-83245646D01*
X130338456Y-83393216D01*
X130406376Y-83557188D01*
X130441000Y-83731259D01*
X130441000Y-83908741D01*
X130406376Y-84082812D01*
X130338456Y-84246784D01*
X130239853Y-84394354D01*
X130114354Y-84519853D01*
X129966784Y-84618456D01*
X129802812Y-84686376D01*
X129653512Y-84716073D01*
X129628742Y-84721000D01*
X129451258Y-84721000D01*
X129426488Y-84716073D01*
X129277188Y-84686376D01*
X129113216Y-84618456D01*
X128965646Y-84519853D01*
X128840147Y-84394354D01*
X128741544Y-84246784D01*
X128673624Y-84082812D01*
X128639000Y-83908741D01*
X128639000Y-83731259D01*
X128673624Y-83557188D01*
X128741544Y-83393216D01*
X128840147Y-83245646D01*
X128965646Y-83120147D01*
X129113216Y-83021544D01*
X129277188Y-82953624D01*
X129426488Y-82923927D01*
X129451258Y-82919000D01*
X129628742Y-82919000D01*
X129653512Y-82923927D01*
G37*
G36*
X104253512Y-82923927D02*
G01*
X104402812Y-82953624D01*
X104566784Y-83021544D01*
X104714354Y-83120147D01*
X104839853Y-83245646D01*
X104938456Y-83393216D01*
X105006376Y-83557188D01*
X105041000Y-83731259D01*
X105041000Y-83908741D01*
X105006376Y-84082812D01*
X104938456Y-84246784D01*
X104839853Y-84394354D01*
X104714354Y-84519853D01*
X104566784Y-84618456D01*
X104402812Y-84686376D01*
X104253512Y-84716073D01*
X104228742Y-84721000D01*
X104051258Y-84721000D01*
X104026488Y-84716073D01*
X103877188Y-84686376D01*
X103713216Y-84618456D01*
X103565646Y-84519853D01*
X103440147Y-84394354D01*
X103341544Y-84246784D01*
X103273624Y-84082812D01*
X103239000Y-83908741D01*
X103239000Y-83731259D01*
X103273624Y-83557188D01*
X103341544Y-83393216D01*
X103440147Y-83245646D01*
X103565646Y-83120147D01*
X103713216Y-83021544D01*
X103877188Y-82953624D01*
X104026488Y-82923927D01*
X104051258Y-82919000D01*
X104228742Y-82919000D01*
X104253512Y-82923927D01*
G37*
G36*
X122168228Y-83001703D02*
G01*
X122323100Y-83065853D01*
X122462481Y-83158985D01*
X122581015Y-83277519D01*
X122674147Y-83416900D01*
X122738297Y-83571772D01*
X122771000Y-83736184D01*
X122771000Y-83903816D01*
X122738297Y-84068228D01*
X122674147Y-84223100D01*
X122581015Y-84362481D01*
X122462481Y-84481015D01*
X122323100Y-84574147D01*
X122168228Y-84638297D01*
X122003816Y-84671000D01*
X121836184Y-84671000D01*
X121671772Y-84638297D01*
X121516900Y-84574147D01*
X121377519Y-84481015D01*
X121258985Y-84362481D01*
X121165853Y-84223100D01*
X121101703Y-84068228D01*
X121069000Y-83903816D01*
X121069000Y-83736184D01*
X121101703Y-83571772D01*
X121165853Y-83416900D01*
X121258985Y-83277519D01*
X121377519Y-83158985D01*
X121516900Y-83065853D01*
X121671772Y-83001703D01*
X121836184Y-82969000D01*
X122003816Y-82969000D01*
X122168228Y-83001703D01*
G37*
G36*
X112008228Y-83001703D02*
G01*
X112163100Y-83065853D01*
X112302481Y-83158985D01*
X112421015Y-83277519D01*
X112514147Y-83416900D01*
X112578297Y-83571772D01*
X112611000Y-83736184D01*
X112611000Y-83903816D01*
X112578297Y-84068228D01*
X112514147Y-84223100D01*
X112421015Y-84362481D01*
X112302481Y-84481015D01*
X112163100Y-84574147D01*
X112008228Y-84638297D01*
X111843816Y-84671000D01*
X111676184Y-84671000D01*
X111511772Y-84638297D01*
X111356900Y-84574147D01*
X111217519Y-84481015D01*
X111098985Y-84362481D01*
X111005853Y-84223100D01*
X110941703Y-84068228D01*
X110909000Y-83903816D01*
X110909000Y-83736184D01*
X110941703Y-83571772D01*
X111005853Y-83416900D01*
X111098985Y-83277519D01*
X111217519Y-83158985D01*
X111356900Y-83065853D01*
X111511772Y-83001703D01*
X111676184Y-82969000D01*
X111843816Y-82969000D01*
X112008228Y-83001703D01*
G37*
G36*
X104253512Y-80383927D02*
G01*
X104402812Y-80413624D01*
X104566784Y-80481544D01*
X104714354Y-80580147D01*
X104839853Y-80705646D01*
X104938456Y-80853216D01*
X105006376Y-81017188D01*
X105041000Y-81191259D01*
X105041000Y-81368741D01*
X105006376Y-81542812D01*
X104938456Y-81706784D01*
X104839853Y-81854354D01*
X104714354Y-81979853D01*
X104566784Y-82078456D01*
X104402812Y-82146376D01*
X104253512Y-82176073D01*
X104228742Y-82181000D01*
X104051258Y-82181000D01*
X104026488Y-82176073D01*
X103877188Y-82146376D01*
X103713216Y-82078456D01*
X103565646Y-81979853D01*
X103440147Y-81854354D01*
X103341544Y-81706784D01*
X103273624Y-81542812D01*
X103239000Y-81368741D01*
X103239000Y-81191259D01*
X103273624Y-81017188D01*
X103341544Y-80853216D01*
X103440147Y-80705646D01*
X103565646Y-80580147D01*
X103713216Y-80481544D01*
X103877188Y-80413624D01*
X104026488Y-80383927D01*
X104051258Y-80379000D01*
X104228742Y-80379000D01*
X104253512Y-80383927D01*
G37*
G36*
X129653512Y-80383927D02*
G01*
X129802812Y-80413624D01*
X129966784Y-80481544D01*
X130114354Y-80580147D01*
X130239853Y-80705646D01*
X130338456Y-80853216D01*
X130406376Y-81017188D01*
X130441000Y-81191259D01*
X130441000Y-81368741D01*
X130406376Y-81542812D01*
X130338456Y-81706784D01*
X130239853Y-81854354D01*
X130114354Y-81979853D01*
X129966784Y-82078456D01*
X129802812Y-82146376D01*
X129653512Y-82176073D01*
X129628742Y-82181000D01*
X129451258Y-82181000D01*
X129426488Y-82176073D01*
X129277188Y-82146376D01*
X129113216Y-82078456D01*
X128965646Y-81979853D01*
X128840147Y-81854354D01*
X128741544Y-81706784D01*
X128673624Y-81542812D01*
X128639000Y-81368741D01*
X128639000Y-81191259D01*
X128673624Y-81017188D01*
X128741544Y-80853216D01*
X128840147Y-80705646D01*
X128965646Y-80580147D01*
X129113216Y-80481544D01*
X129277188Y-80413624D01*
X129426488Y-80383927D01*
X129451258Y-80379000D01*
X129628742Y-80379000D01*
X129653512Y-80383927D01*
G37*
G36*
X104253512Y-77843927D02*
G01*
X104402812Y-77873624D01*
X104566784Y-77941544D01*
X104714354Y-78040147D01*
X104839853Y-78165646D01*
X104938456Y-78313216D01*
X105006376Y-78477188D01*
X105041000Y-78651259D01*
X105041000Y-78828741D01*
X105006376Y-79002812D01*
X104938456Y-79166784D01*
X104839853Y-79314354D01*
X104714354Y-79439853D01*
X104566784Y-79538456D01*
X104402812Y-79606376D01*
X104253512Y-79636073D01*
X104228742Y-79641000D01*
X104051258Y-79641000D01*
X104026488Y-79636073D01*
X103877188Y-79606376D01*
X103713216Y-79538456D01*
X103565646Y-79439853D01*
X103440147Y-79314354D01*
X103341544Y-79166784D01*
X103273624Y-79002812D01*
X103239000Y-78828741D01*
X103239000Y-78651259D01*
X103273624Y-78477188D01*
X103341544Y-78313216D01*
X103440147Y-78165646D01*
X103565646Y-78040147D01*
X103713216Y-77941544D01*
X103877188Y-77873624D01*
X104026488Y-77843927D01*
X104051258Y-77839000D01*
X104228742Y-77839000D01*
X104253512Y-77843927D01*
G37*
G36*
X129653512Y-77843927D02*
G01*
X129802812Y-77873624D01*
X129966784Y-77941544D01*
X130114354Y-78040147D01*
X130239853Y-78165646D01*
X130338456Y-78313216D01*
X130406376Y-78477188D01*
X130441000Y-78651259D01*
X130441000Y-78828741D01*
X130406376Y-79002812D01*
X130338456Y-79166784D01*
X130239853Y-79314354D01*
X130114354Y-79439853D01*
X129966784Y-79538456D01*
X129802812Y-79606376D01*
X129653512Y-79636073D01*
X129628742Y-79641000D01*
X129451258Y-79641000D01*
X129426488Y-79636073D01*
X129277188Y-79606376D01*
X129113216Y-79538456D01*
X128965646Y-79439853D01*
X128840147Y-79314354D01*
X128741544Y-79166784D01*
X128673624Y-79002812D01*
X128639000Y-78828741D01*
X128639000Y-78651259D01*
X128673624Y-78477188D01*
X128741544Y-78313216D01*
X128840147Y-78165646D01*
X128965646Y-78040147D01*
X129113216Y-77941544D01*
X129277188Y-77873624D01*
X129426488Y-77843927D01*
X129451258Y-77839000D01*
X129628742Y-77839000D01*
X129653512Y-77843927D01*
G37*
G36*
X112008228Y-77921703D02*
G01*
X112163100Y-77985853D01*
X112302481Y-78078985D01*
X112421015Y-78197519D01*
X112514147Y-78336900D01*
X112578297Y-78491772D01*
X112611000Y-78656184D01*
X112611000Y-78823816D01*
X112578297Y-78988228D01*
X112514147Y-79143100D01*
X112421015Y-79282481D01*
X112302481Y-79401015D01*
X112163100Y-79494147D01*
X112008228Y-79558297D01*
X111843816Y-79591000D01*
X111676184Y-79591000D01*
X111511772Y-79558297D01*
X111356900Y-79494147D01*
X111217519Y-79401015D01*
X111098985Y-79282481D01*
X111005853Y-79143100D01*
X110941703Y-78988228D01*
X110909000Y-78823816D01*
X110909000Y-78656184D01*
X110941703Y-78491772D01*
X111005853Y-78336900D01*
X111098985Y-78197519D01*
X111217519Y-78078985D01*
X111356900Y-77985853D01*
X111511772Y-77921703D01*
X111676184Y-77889000D01*
X111843816Y-77889000D01*
X112008228Y-77921703D01*
G37*
G36*
X122168228Y-77921703D02*
G01*
X122323100Y-77985853D01*
X122462481Y-78078985D01*
X122581015Y-78197519D01*
X122674147Y-78336900D01*
X122738297Y-78491772D01*
X122771000Y-78656184D01*
X122771000Y-78823816D01*
X122738297Y-78988228D01*
X122674147Y-79143100D01*
X122581015Y-79282481D01*
X122462481Y-79401015D01*
X122323100Y-79494147D01*
X122168228Y-79558297D01*
X122003816Y-79591000D01*
X121836184Y-79591000D01*
X121671772Y-79558297D01*
X121516900Y-79494147D01*
X121377519Y-79401015D01*
X121258985Y-79282481D01*
X121165853Y-79143100D01*
X121101703Y-78988228D01*
X121069000Y-78823816D01*
X121069000Y-78656184D01*
X121101703Y-78491772D01*
X121165853Y-78336900D01*
X121258985Y-78197519D01*
X121377519Y-78078985D01*
X121516900Y-77985853D01*
X121671772Y-77921703D01*
X121836184Y-77889000D01*
X122003816Y-77889000D01*
X122168228Y-77921703D01*
G37*
G36*
X104253512Y-75303927D02*
G01*
X104402812Y-75333624D01*
X104566784Y-75401544D01*
X104714354Y-75500147D01*
X104839853Y-75625646D01*
X104938456Y-75773216D01*
X105006376Y-75937188D01*
X105041000Y-76111259D01*
X105041000Y-76288741D01*
X105006376Y-76462812D01*
X104938456Y-76626784D01*
X104839853Y-76774354D01*
X104714354Y-76899853D01*
X104566784Y-76998456D01*
X104402812Y-77066376D01*
X104253512Y-77096073D01*
X104228742Y-77101000D01*
X104051258Y-77101000D01*
X104026488Y-77096073D01*
X103877188Y-77066376D01*
X103713216Y-76998456D01*
X103565646Y-76899853D01*
X103440147Y-76774354D01*
X103341544Y-76626784D01*
X103273624Y-76462812D01*
X103239000Y-76288741D01*
X103239000Y-76111259D01*
X103273624Y-75937188D01*
X103341544Y-75773216D01*
X103440147Y-75625646D01*
X103565646Y-75500147D01*
X103713216Y-75401544D01*
X103877188Y-75333624D01*
X104026488Y-75303927D01*
X104051258Y-75299000D01*
X104228742Y-75299000D01*
X104253512Y-75303927D01*
G37*
G36*
X129653512Y-75303927D02*
G01*
X129802812Y-75333624D01*
X129966784Y-75401544D01*
X130114354Y-75500147D01*
X130239853Y-75625646D01*
X130338456Y-75773216D01*
X130406376Y-75937188D01*
X130441000Y-76111259D01*
X130441000Y-76288741D01*
X130406376Y-76462812D01*
X130338456Y-76626784D01*
X130239853Y-76774354D01*
X130114354Y-76899853D01*
X129966784Y-76998456D01*
X129802812Y-77066376D01*
X129653512Y-77096073D01*
X129628742Y-77101000D01*
X129451258Y-77101000D01*
X129426488Y-77096073D01*
X129277188Y-77066376D01*
X129113216Y-76998456D01*
X128965646Y-76899853D01*
X128840147Y-76774354D01*
X128741544Y-76626784D01*
X128673624Y-76462812D01*
X128639000Y-76288741D01*
X128639000Y-76111259D01*
X128673624Y-75937188D01*
X128741544Y-75773216D01*
X128840147Y-75625646D01*
X128965646Y-75500147D01*
X129113216Y-75401544D01*
X129277188Y-75333624D01*
X129426488Y-75303927D01*
X129451258Y-75299000D01*
X129628742Y-75299000D01*
X129653512Y-75303927D01*
G37*
G36*
X129653512Y-72763927D02*
G01*
X129802812Y-72793624D01*
X129966784Y-72861544D01*
X130114354Y-72960147D01*
X130239853Y-73085646D01*
X130338456Y-73233216D01*
X130406376Y-73397188D01*
X130441000Y-73571259D01*
X130441000Y-73748741D01*
X130406376Y-73922812D01*
X130338456Y-74086784D01*
X130239853Y-74234354D01*
X130114354Y-74359853D01*
X129966784Y-74458456D01*
X129802812Y-74526376D01*
X129653512Y-74556073D01*
X129628742Y-74561000D01*
X129451258Y-74561000D01*
X129426488Y-74556073D01*
X129277188Y-74526376D01*
X129113216Y-74458456D01*
X128965646Y-74359853D01*
X128840147Y-74234354D01*
X128741544Y-74086784D01*
X128673624Y-73922812D01*
X128639000Y-73748741D01*
X128639000Y-73571259D01*
X128673624Y-73397188D01*
X128741544Y-73233216D01*
X128840147Y-73085646D01*
X128965646Y-72960147D01*
X129113216Y-72861544D01*
X129277188Y-72793624D01*
X129426488Y-72763927D01*
X129451258Y-72759000D01*
X129628742Y-72759000D01*
X129653512Y-72763927D01*
G37*
G36*
X104253512Y-72763927D02*
G01*
X104402812Y-72793624D01*
X104566784Y-72861544D01*
X104714354Y-72960147D01*
X104839853Y-73085646D01*
X104938456Y-73233216D01*
X105006376Y-73397188D01*
X105041000Y-73571259D01*
X105041000Y-73748741D01*
X105006376Y-73922812D01*
X104938456Y-74086784D01*
X104839853Y-74234354D01*
X104714354Y-74359853D01*
X104566784Y-74458456D01*
X104402812Y-74526376D01*
X104253512Y-74556073D01*
X104228742Y-74561000D01*
X104051258Y-74561000D01*
X104026488Y-74556073D01*
X103877188Y-74526376D01*
X103713216Y-74458456D01*
X103565646Y-74359853D01*
X103440147Y-74234354D01*
X103341544Y-74086784D01*
X103273624Y-73922812D01*
X103239000Y-73748741D01*
X103239000Y-73571259D01*
X103273624Y-73397188D01*
X103341544Y-73233216D01*
X103440147Y-73085646D01*
X103565646Y-72960147D01*
X103713216Y-72861544D01*
X103877188Y-72793624D01*
X104026488Y-72763927D01*
X104051258Y-72759000D01*
X104228742Y-72759000D01*
X104253512Y-72763927D01*
G37*
G36*
X122168228Y-72841703D02*
G01*
X122323100Y-72905853D01*
X122462481Y-72998985D01*
X122581015Y-73117519D01*
X122674147Y-73256900D01*
X122738297Y-73411772D01*
X122771000Y-73576184D01*
X122771000Y-73743816D01*
X122738297Y-73908228D01*
X122674147Y-74063100D01*
X122581015Y-74202481D01*
X122462481Y-74321015D01*
X122323100Y-74414147D01*
X122168228Y-74478297D01*
X122003816Y-74511000D01*
X121836184Y-74511000D01*
X121671772Y-74478297D01*
X121516900Y-74414147D01*
X121377519Y-74321015D01*
X121258985Y-74202481D01*
X121165853Y-74063100D01*
X121101703Y-73908228D01*
X121069000Y-73743816D01*
X121069000Y-73576184D01*
X121101703Y-73411772D01*
X121165853Y-73256900D01*
X121258985Y-73117519D01*
X121377519Y-72998985D01*
X121516900Y-72905853D01*
X121671772Y-72841703D01*
X121836184Y-72809000D01*
X122003816Y-72809000D01*
X122168228Y-72841703D01*
G37*
G36*
X112008228Y-72841703D02*
G01*
X112163100Y-72905853D01*
X112302481Y-72998985D01*
X112421015Y-73117519D01*
X112514147Y-73256900D01*
X112578297Y-73411772D01*
X112611000Y-73576184D01*
X112611000Y-73743816D01*
X112578297Y-73908228D01*
X112514147Y-74063100D01*
X112421015Y-74202481D01*
X112302481Y-74321015D01*
X112163100Y-74414147D01*
X112008228Y-74478297D01*
X111843816Y-74511000D01*
X111676184Y-74511000D01*
X111511772Y-74478297D01*
X111356900Y-74414147D01*
X111217519Y-74321015D01*
X111098985Y-74202481D01*
X111005853Y-74063100D01*
X110941703Y-73908228D01*
X110909000Y-73743816D01*
X110909000Y-73576184D01*
X110941703Y-73411772D01*
X111005853Y-73256900D01*
X111098985Y-73117519D01*
X111217519Y-72998985D01*
X111356900Y-72905853D01*
X111511772Y-72841703D01*
X111676184Y-72809000D01*
X111843816Y-72809000D01*
X112008228Y-72841703D01*
G37*
G36*
X129653512Y-70223927D02*
G01*
X129802812Y-70253624D01*
X129966784Y-70321544D01*
X130114354Y-70420147D01*
X130239853Y-70545646D01*
X130338456Y-70693216D01*
X130406376Y-70857188D01*
X130441000Y-71031259D01*
X130441000Y-71208741D01*
X130406376Y-71382812D01*
X130338456Y-71546784D01*
X130239853Y-71694354D01*
X130114354Y-71819853D01*
X129966784Y-71918456D01*
X129802812Y-71986376D01*
X129653512Y-72016073D01*
X129628742Y-72021000D01*
X129451258Y-72021000D01*
X129426488Y-72016073D01*
X129277188Y-71986376D01*
X129113216Y-71918456D01*
X128965646Y-71819853D01*
X128840147Y-71694354D01*
X128741544Y-71546784D01*
X128673624Y-71382812D01*
X128639000Y-71208741D01*
X128639000Y-71031259D01*
X128673624Y-70857188D01*
X128741544Y-70693216D01*
X128840147Y-70545646D01*
X128965646Y-70420147D01*
X129113216Y-70321544D01*
X129277188Y-70253624D01*
X129426488Y-70223927D01*
X129451258Y-70219000D01*
X129628742Y-70219000D01*
X129653512Y-70223927D01*
G37*
G36*
X104253512Y-70223927D02*
G01*
X104402812Y-70253624D01*
X104566784Y-70321544D01*
X104714354Y-70420147D01*
X104839853Y-70545646D01*
X104938456Y-70693216D01*
X105006376Y-70857188D01*
X105041000Y-71031259D01*
X105041000Y-71208741D01*
X105006376Y-71382812D01*
X104938456Y-71546784D01*
X104839853Y-71694354D01*
X104714354Y-71819853D01*
X104566784Y-71918456D01*
X104402812Y-71986376D01*
X104253512Y-72016073D01*
X104228742Y-72021000D01*
X104051258Y-72021000D01*
X104026488Y-72016073D01*
X103877188Y-71986376D01*
X103713216Y-71918456D01*
X103565646Y-71819853D01*
X103440147Y-71694354D01*
X103341544Y-71546784D01*
X103273624Y-71382812D01*
X103239000Y-71208741D01*
X103239000Y-71031259D01*
X103273624Y-70857188D01*
X103341544Y-70693216D01*
X103440147Y-70545646D01*
X103565646Y-70420147D01*
X103713216Y-70321544D01*
X103877188Y-70253624D01*
X104026488Y-70223927D01*
X104051258Y-70219000D01*
X104228742Y-70219000D01*
X104253512Y-70223927D01*
G37*
G36*
X104253512Y-67683927D02*
G01*
X104402812Y-67713624D01*
X104566784Y-67781544D01*
X104714354Y-67880147D01*
X104839853Y-68005646D01*
X104938456Y-68153216D01*
X105006376Y-68317188D01*
X105041000Y-68491259D01*
X105041000Y-68668741D01*
X105006376Y-68842812D01*
X104938456Y-69006784D01*
X104839853Y-69154354D01*
X104714354Y-69279853D01*
X104566784Y-69378456D01*
X104402812Y-69446376D01*
X104253512Y-69476073D01*
X104228742Y-69481000D01*
X104051258Y-69481000D01*
X104026488Y-69476073D01*
X103877188Y-69446376D01*
X103713216Y-69378456D01*
X103565646Y-69279853D01*
X103440147Y-69154354D01*
X103341544Y-69006784D01*
X103273624Y-68842812D01*
X103239000Y-68668741D01*
X103239000Y-68491259D01*
X103273624Y-68317188D01*
X103341544Y-68153216D01*
X103440147Y-68005646D01*
X103565646Y-67880147D01*
X103713216Y-67781544D01*
X103877188Y-67713624D01*
X104026488Y-67683927D01*
X104051258Y-67679000D01*
X104228742Y-67679000D01*
X104253512Y-67683927D01*
G37*
G36*
X129653512Y-67683927D02*
G01*
X129802812Y-67713624D01*
X129966784Y-67781544D01*
X130114354Y-67880147D01*
X130239853Y-68005646D01*
X130338456Y-68153216D01*
X130406376Y-68317188D01*
X130441000Y-68491259D01*
X130441000Y-68668741D01*
X130406376Y-68842812D01*
X130338456Y-69006784D01*
X130239853Y-69154354D01*
X130114354Y-69279853D01*
X129966784Y-69378456D01*
X129802812Y-69446376D01*
X129653512Y-69476073D01*
X129628742Y-69481000D01*
X129451258Y-69481000D01*
X129426488Y-69476073D01*
X129277188Y-69446376D01*
X129113216Y-69378456D01*
X128965646Y-69279853D01*
X128840147Y-69154354D01*
X128741544Y-69006784D01*
X128673624Y-68842812D01*
X128639000Y-68668741D01*
X128639000Y-68491259D01*
X128673624Y-68317188D01*
X128741544Y-68153216D01*
X128840147Y-68005646D01*
X128965646Y-67880147D01*
X129113216Y-67781544D01*
X129277188Y-67713624D01*
X129426488Y-67683927D01*
X129451258Y-67679000D01*
X129628742Y-67679000D01*
X129653512Y-67683927D01*
G37*
G36*
X104253512Y-65143927D02*
G01*
X104402812Y-65173624D01*
X104566784Y-65241544D01*
X104714354Y-65340147D01*
X104839853Y-65465646D01*
X104938456Y-65613216D01*
X105006376Y-65777188D01*
X105041000Y-65951259D01*
X105041000Y-66128741D01*
X105006376Y-66302812D01*
X104938456Y-66466784D01*
X104839853Y-66614354D01*
X104714354Y-66739853D01*
X104566784Y-66838456D01*
X104402812Y-66906376D01*
X104253512Y-66936073D01*
X104228742Y-66941000D01*
X104051258Y-66941000D01*
X104026488Y-66936073D01*
X103877188Y-66906376D01*
X103713216Y-66838456D01*
X103565646Y-66739853D01*
X103440147Y-66614354D01*
X103341544Y-66466784D01*
X103273624Y-66302812D01*
X103239000Y-66128741D01*
X103239000Y-65951259D01*
X103273624Y-65777188D01*
X103341544Y-65613216D01*
X103440147Y-65465646D01*
X103565646Y-65340147D01*
X103713216Y-65241544D01*
X103877188Y-65173624D01*
X104026488Y-65143927D01*
X104051258Y-65139000D01*
X104228742Y-65139000D01*
X104253512Y-65143927D01*
G37*
G36*
X129653512Y-65143927D02*
G01*
X129802812Y-65173624D01*
X129966784Y-65241544D01*
X130114354Y-65340147D01*
X130239853Y-65465646D01*
X130338456Y-65613216D01*
X130406376Y-65777188D01*
X130441000Y-65951259D01*
X130441000Y-66128741D01*
X130406376Y-66302812D01*
X130338456Y-66466784D01*
X130239853Y-66614354D01*
X130114354Y-66739853D01*
X129966784Y-66838456D01*
X129802812Y-66906376D01*
X129653512Y-66936073D01*
X129628742Y-66941000D01*
X129451258Y-66941000D01*
X129426488Y-66936073D01*
X129277188Y-66906376D01*
X129113216Y-66838456D01*
X128965646Y-66739853D01*
X128840147Y-66614354D01*
X128741544Y-66466784D01*
X128673624Y-66302812D01*
X128639000Y-66128741D01*
X128639000Y-65951259D01*
X128673624Y-65777188D01*
X128741544Y-65613216D01*
X128840147Y-65465646D01*
X128965646Y-65340147D01*
X129113216Y-65241544D01*
X129277188Y-65173624D01*
X129426488Y-65143927D01*
X129451258Y-65139000D01*
X129628742Y-65139000D01*
X129653512Y-65143927D01*
G37*
G36*
X105041000Y-64401000D02*
G01*
X103239000Y-64401000D01*
X103239000Y-62599000D01*
X105041000Y-62599000D01*
X105041000Y-64401000D01*
G37*
G36*
X130441000Y-64401000D02*
G01*
X128639000Y-64401000D01*
X128639000Y-62599000D01*
X130441000Y-62599000D01*
X130441000Y-64401000D01*
G37*
M02*
