M48
; DRILL file {KiCad (5.1.5-0)} date Sunday, December 12, 2021 at 09:58:18 am
; FORMAT={-:-/ absolute / inch / decimal}
; #@! TF.CreationDate,2021-12-12T09:58:18-07:00
; #@! TF.GenerationSoftware,Kicad,Pcbnew,(5.1.5-0)
; #@! TF.FileFunction,Plated,1,2,PTH
FMAT,2
INCH
T1C0.0157
T2C0.0276
T3C0.0315
T4C0.0354
T5C0.0394
T6C0.0433
T7C0.0512
%
G90
G05
T1
X4.8465Y-4.5351
X4.92Y-4.93
X5.1Y-4.52
X5.13Y-4.19
X5.3Y-4.13
T2
X4.5Y-3.4
X4.8Y-3.4
X4.5Y-3.2
X4.8Y-3.2
X5.0Y-3.7
X5.0Y-4.0
X4.5Y-3.8
X4.8Y-3.8
X4.5Y-3.6
X4.8Y-3.6
X4.5Y-4.0
X4.8Y-4.0
T3
X4.8116Y-4.62
X4.91Y-4.62
X4.59Y-4.62
X4.6884Y-4.62
X4.31Y-4.62
X4.4084Y-4.62
X4.0916Y-4.62
X4.19Y-4.62
X5.1Y-4.75
X5.2Y-4.85
X5.3Y-4.75
T4
X4.2Y-5.0
X4.2Y-5.1
X4.45Y-5.0
X4.45Y-5.1
X5.2Y-5.0
X5.2Y-5.1
X4.95Y-5.0
X4.95Y-5.1
X4.7Y-5.0
X4.7Y-5.1
T5
X5.2Y-4.4
X5.3Y-4.4
X5.2Y-3.1
X5.2Y-3.2
X5.2Y-3.3
X5.2Y-3.4
X5.2Y-3.5
X5.2Y-3.6
X5.2Y-3.7
X5.2Y-3.8
X5.2Y-3.9
X5.3Y-3.1
X5.3Y-3.2
X5.3Y-3.3
X5.3Y-3.4
X5.3Y-3.5
X5.3Y-3.6
X5.3Y-3.7
X5.3Y-3.8
X5.3Y-3.9
X4.57Y-5.3
X4.57Y-5.4
X4.57Y-5.5
X4.8Y-4.35
X4.8Y-4.45
X4.9Y-4.35
X4.9Y-4.45
X5.0Y-4.35
X5.0Y-4.45
X4.1Y-4.4
X4.2Y-4.4
X4.3Y-4.4
X4.4Y-4.4
X4.5Y-4.4
X4.6Y-4.4
X4.1Y-3.1
X4.1Y-3.2
X4.1Y-3.3
X4.1Y-3.4
X4.1Y-3.5
X4.1Y-3.6
X4.1Y-3.7
X4.1Y-3.8
X4.1Y-3.9
X4.2Y-3.1
X4.2Y-3.2
X4.2Y-3.3
X4.2Y-3.4
X4.2Y-3.5
X4.2Y-3.6
X4.2Y-3.7
X4.2Y-3.8
X4.2Y-3.9
T6
X4.15Y-4.855
X4.25Y-4.855
X4.35Y-4.855
X4.65Y-4.855
X4.75Y-4.855
X4.85Y-4.855
T7
X4.8Y-5.34
X4.8Y-5.5369
X5.2921Y-5.34
X5.2921Y-5.5369
T5
G00X4.1138Y-5.3606
M15
G01X4.1138Y-5.4394
M16
G05
G00X4.1925Y-5.585
M15
G01X4.2713Y-5.585
M16
G05
G00X4.35Y-5.3606
M15
G01X4.35Y-5.4394
M16
G05
T0
M30
