G04 #@! TF.GenerationSoftware,KiCad,Pcbnew,(5.1.5-0)*
G04 #@! TF.CreationDate,2021-12-18T14:01:16-07:00*
G04 #@! TF.ProjectId,starman,73746172-6d61-46e2-9e6b-696361645f70,rev?*
G04 #@! TF.SameCoordinates,Original*
G04 #@! TF.FileFunction,Legend,Top*
G04 #@! TF.FilePolarity,Positive*
%FSLAX46Y46*%
G04 Gerber Fmt 4.6, Leading zero omitted, Abs format (unit mm)*
G04 Created by KiCad (PCBNEW (5.1.5-0)) date 2021-12-18 14:01:16*
%MOMM*%
%LPD*%
G04 APERTURE LIST*
%ADD10C,0.150000*%
%ADD11C,0.120000*%
G04 APERTURE END LIST*
D10*
X123190047Y-111704428D02*
X123951952Y-111704428D01*
X123571000Y-112085380D02*
X123571000Y-111323476D01*
X102727285Y-109291428D02*
X103489190Y-109291428D01*
X103108238Y-109672380D02*
X103108238Y-108910476D01*
X104441571Y-108672380D02*
X103965380Y-108672380D01*
X103917761Y-109148571D01*
X103965380Y-109100952D01*
X104060619Y-109053333D01*
X104298714Y-109053333D01*
X104393952Y-109100952D01*
X104441571Y-109148571D01*
X104489190Y-109243809D01*
X104489190Y-109481904D01*
X104441571Y-109577142D01*
X104393952Y-109624761D01*
X104298714Y-109672380D01*
X104060619Y-109672380D01*
X103965380Y-109624761D01*
X103917761Y-109577142D01*
X104774904Y-108672380D02*
X105108238Y-109672380D01*
X105441571Y-108672380D01*
X113792000Y-118237000D02*
X113792000Y-117475000D01*
X114554000Y-117856000D02*
X113792000Y-118237000D01*
X113792000Y-117475000D02*
X114554000Y-117856000D01*
D11*
X115760000Y-126710000D02*
X115604000Y-126710000D01*
X118076000Y-126710000D02*
X117920000Y-126710000D01*
X115760163Y-129311130D02*
G75*
G02X115760000Y-127229039I1079837J1041130D01*
G01*
X117919837Y-129311130D02*
G75*
G03X117920000Y-127229039I-1079837J1041130D01*
G01*
X115761392Y-129942335D02*
G75*
G02X115604484Y-126710000I1078608J1672335D01*
G01*
X117918608Y-129942335D02*
G75*
G03X118075516Y-126710000I-1078608J1672335D01*
G01*
X130420000Y-123956000D02*
X123580000Y-123956000D01*
X130420000Y-116716000D02*
X123580000Y-116716000D01*
X123580000Y-121046000D02*
X123580000Y-123956000D01*
X123580000Y-116716000D02*
X123580000Y-119746000D01*
X130420000Y-121046000D02*
X130420000Y-123956000D01*
X130420000Y-116716000D02*
X130420000Y-119746000D01*
X125190000Y-105510000D02*
X125190000Y-102770000D01*
X125190000Y-102770000D02*
X118650000Y-102770000D01*
X118650000Y-102770000D02*
X118650000Y-105510000D01*
X118650000Y-105510000D02*
X125190000Y-105510000D01*
X125960000Y-104140000D02*
X125190000Y-104140000D01*
X117880000Y-104140000D02*
X118650000Y-104140000D01*
X113570000Y-77370000D02*
X113570000Y-80110000D01*
X113570000Y-80110000D02*
X120110000Y-80110000D01*
X120110000Y-80110000D02*
X120110000Y-77370000D01*
X120110000Y-77370000D02*
X113570000Y-77370000D01*
X112800000Y-78740000D02*
X113570000Y-78740000D01*
X120880000Y-78740000D02*
X120110000Y-78740000D01*
X120110000Y-85190000D02*
X120110000Y-82450000D01*
X120110000Y-82450000D02*
X113570000Y-82450000D01*
X113570000Y-82450000D02*
X113570000Y-85190000D01*
X113570000Y-85190000D02*
X120110000Y-85190000D01*
X120880000Y-83820000D02*
X120110000Y-83820000D01*
X112800000Y-83820000D02*
X113570000Y-83820000D01*
X113570000Y-87530000D02*
X113570000Y-90270000D01*
X113570000Y-90270000D02*
X120110000Y-90270000D01*
X120110000Y-90270000D02*
X120110000Y-87530000D01*
X120110000Y-87530000D02*
X113570000Y-87530000D01*
X112800000Y-88900000D02*
X113570000Y-88900000D01*
X120880000Y-88900000D02*
X120110000Y-88900000D01*
X113570000Y-92610000D02*
X113570000Y-95350000D01*
X113570000Y-95350000D02*
X120110000Y-95350000D01*
X120110000Y-95350000D02*
X120110000Y-92610000D01*
X120110000Y-92610000D02*
X113570000Y-92610000D01*
X112800000Y-93980000D02*
X113570000Y-93980000D01*
X120880000Y-93980000D02*
X120110000Y-93980000D01*
X113570000Y-97690000D02*
X113570000Y-100430000D01*
X113570000Y-100430000D02*
X120110000Y-100430000D01*
X120110000Y-100430000D02*
X120110000Y-97690000D01*
X120110000Y-97690000D02*
X113570000Y-97690000D01*
X112800000Y-99060000D02*
X113570000Y-99060000D01*
X120880000Y-99060000D02*
X120110000Y-99060000D01*
X113570000Y-72290000D02*
X113570000Y-75030000D01*
X113570000Y-75030000D02*
X120110000Y-75030000D01*
X120110000Y-75030000D02*
X120110000Y-72290000D01*
X120110000Y-72290000D02*
X113570000Y-72290000D01*
X112800000Y-73660000D02*
X113570000Y-73660000D01*
X120880000Y-73660000D02*
X120110000Y-73660000D01*
X128210000Y-64770000D02*
X130870000Y-64770000D01*
X128210000Y-64770000D02*
X128210000Y-100390000D01*
X128210000Y-100390000D02*
X130870000Y-100390000D01*
X130870000Y-64770000D02*
X130870000Y-100390000D01*
X130870000Y-62170000D02*
X130870000Y-63500000D01*
X129540000Y-62170000D02*
X130870000Y-62170000D01*
X102810000Y-64770000D02*
X105470000Y-64770000D01*
X102810000Y-64770000D02*
X102810000Y-100390000D01*
X102810000Y-100390000D02*
X105470000Y-100390000D01*
X105470000Y-64770000D02*
X105470000Y-100390000D01*
X105470000Y-62170000D02*
X105470000Y-63500000D01*
X104140000Y-62170000D02*
X105470000Y-62170000D01*
X126936000Y-126710000D02*
X126780000Y-126710000D01*
X129252000Y-126710000D02*
X129096000Y-126710000D01*
X126936163Y-129311130D02*
G75*
G02X126936000Y-127229039I1079837J1041130D01*
G01*
X129095837Y-129311130D02*
G75*
G03X129096000Y-127229039I-1079837J1041130D01*
G01*
X126937392Y-129942335D02*
G75*
G02X126780484Y-126710000I1078608J1672335D01*
G01*
X129094608Y-129942335D02*
G75*
G03X129251516Y-126710000I-1078608J1672335D01*
G01*
X104584000Y-126710000D02*
X104428000Y-126710000D01*
X106900000Y-126710000D02*
X106744000Y-126710000D01*
X104584163Y-129311130D02*
G75*
G02X104584000Y-127229039I1079837J1041130D01*
G01*
X106743837Y-129311130D02*
G75*
G03X106744000Y-127229039I-1079837J1041130D01*
G01*
X104585392Y-129942335D02*
G75*
G02X104428484Y-126710000I1078608J1672335D01*
G01*
X106742608Y-129942335D02*
G75*
G03X106899516Y-126710000I-1078608J1672335D01*
G01*
X110172000Y-126710000D02*
X110016000Y-126710000D01*
X112488000Y-126710000D02*
X112332000Y-126710000D01*
X110172163Y-129311130D02*
G75*
G02X110172000Y-127229039I1079837J1041130D01*
G01*
X112331837Y-129311130D02*
G75*
G03X112332000Y-127229039I-1079837J1041130D01*
G01*
X110173392Y-129942335D02*
G75*
G02X110016484Y-126710000I1078608J1672335D01*
G01*
X112330608Y-129942335D02*
G75*
G03X112487516Y-126710000I-1078608J1672335D01*
G01*
X121348000Y-126710000D02*
X121192000Y-126710000D01*
X123664000Y-126710000D02*
X123508000Y-126710000D01*
X121348163Y-129311130D02*
G75*
G02X121348000Y-127229039I1079837J1041130D01*
G01*
X123507837Y-129311130D02*
G75*
G03X123508000Y-127229039I-1079837J1041130D01*
G01*
X121349392Y-129942335D02*
G75*
G02X121192484Y-126710000I1078608J1672335D01*
G01*
X123506608Y-129942335D02*
G75*
G03X123663516Y-126710000I-1078608J1672335D01*
G01*
X116365000Y-133396000D02*
X119085000Y-133396000D01*
X125945000Y-133396000D02*
X128665000Y-133396000D01*
X124085000Y-145696000D02*
X120945000Y-145696000D01*
X128665000Y-145696000D02*
X125945000Y-145696000D01*
X127134050Y-139446000D02*
G75*
G03X127134050Y-139446000I-4579050J0D01*
G01*
X119085000Y-145696000D02*
X116365000Y-145696000D01*
X128665000Y-133396000D02*
X128665000Y-145696000D01*
X120945000Y-133396000D02*
X124085000Y-133396000D01*
X116365000Y-145696000D02*
X116365000Y-133396000D01*
X109104000Y-116293000D02*
X109104000Y-116228000D01*
X109104000Y-118468000D02*
X109104000Y-118403000D01*
X112344000Y-116293000D02*
X112344000Y-116228000D01*
X112344000Y-118468000D02*
X112344000Y-118403000D01*
X112344000Y-116228000D02*
X109104000Y-116228000D01*
X112344000Y-118468000D02*
X109104000Y-118468000D01*
X103556000Y-116293000D02*
X103556000Y-116228000D01*
X103556000Y-118468000D02*
X103556000Y-118403000D01*
X106796000Y-116293000D02*
X106796000Y-116228000D01*
X106796000Y-118468000D02*
X106796000Y-118403000D01*
X106796000Y-116228000D02*
X103556000Y-116228000D01*
X106796000Y-118468000D02*
X103556000Y-118468000D01*
X109801000Y-120047000D02*
X109801000Y-121557000D01*
X106100000Y-120047000D02*
X106100000Y-121557000D01*
X102830000Y-121557000D02*
X113070000Y-121557000D01*
X113070000Y-120047000D02*
X113070000Y-124688000D01*
X102830000Y-120047000D02*
X102830000Y-124688000D01*
X102830000Y-124688000D02*
X113070000Y-124688000D01*
X102830000Y-120047000D02*
X113070000Y-120047000D01*
X112328000Y-143958000D02*
X112328000Y-145288000D01*
X110998000Y-143958000D02*
X112328000Y-143958000D01*
X109728000Y-143958000D02*
X109728000Y-146618000D01*
X109728000Y-146618000D02*
X104588000Y-146618000D01*
X109728000Y-143958000D02*
X104588000Y-143958000D01*
X104588000Y-143958000D02*
X104588000Y-146618000D01*
X124527000Y-113090000D02*
X124527000Y-111760000D01*
X125857000Y-113090000D02*
X124527000Y-113090000D01*
X127127000Y-113090000D02*
X127127000Y-110430000D01*
X127127000Y-110430000D02*
X129727000Y-110430000D01*
X127127000Y-113090000D02*
X129727000Y-113090000D01*
X129727000Y-113090000D02*
X129727000Y-110430000D01*
X102810000Y-113090000D02*
X102810000Y-111760000D01*
X104140000Y-113090000D02*
X102810000Y-113090000D01*
X105410000Y-113090000D02*
X105410000Y-110430000D01*
X105410000Y-110430000D02*
X118170000Y-110430000D01*
X105410000Y-113090000D02*
X118170000Y-113090000D01*
X118170000Y-113090000D02*
X118170000Y-110430000D01*
X116018000Y-116526000D02*
X117348000Y-116526000D01*
X116018000Y-117856000D02*
X116018000Y-116526000D01*
X118618000Y-116526000D02*
X121218000Y-116526000D01*
X118618000Y-119126000D02*
X118618000Y-116526000D01*
X116018000Y-119126000D02*
X118618000Y-119126000D01*
X121218000Y-116526000D02*
X121218000Y-124266000D01*
X116018000Y-119126000D02*
X116018000Y-124266000D01*
X116018000Y-124266000D02*
X121218000Y-124266000D01*
X113168000Y-131798000D02*
X113168000Y-134398000D01*
X98468000Y-131798000D02*
X113168000Y-131798000D01*
X113168000Y-140998000D02*
X111268000Y-140998000D01*
X113168000Y-138298000D02*
X113168000Y-140998000D01*
X98468000Y-140998000D02*
X98468000Y-131798000D01*
X107268000Y-140998000D02*
X98468000Y-140998000D01*
X112318000Y-131598000D02*
X113368000Y-131598000D01*
X113368000Y-132648000D02*
X113368000Y-131598000D01*
D10*
X114069904Y-126436380D02*
X114069904Y-125436380D01*
X114308000Y-125436380D01*
X114450857Y-125484000D01*
X114546095Y-125579238D01*
X114593714Y-125674476D01*
X114641333Y-125864952D01*
X114641333Y-126007809D01*
X114593714Y-126198285D01*
X114546095Y-126293523D01*
X114450857Y-126388761D01*
X114308000Y-126436380D01*
X114069904Y-126436380D01*
X114974666Y-125436380D02*
X115593714Y-125436380D01*
X115260380Y-125817333D01*
X115403238Y-125817333D01*
X115498476Y-125864952D01*
X115546095Y-125912571D01*
X115593714Y-126007809D01*
X115593714Y-126245904D01*
X115546095Y-126341142D01*
X115498476Y-126388761D01*
X115403238Y-126436380D01*
X115117523Y-126436380D01*
X115022285Y-126388761D01*
X114974666Y-126341142D01*
X126404761Y-116022380D02*
X126071428Y-115546190D01*
X125833333Y-116022380D02*
X125833333Y-115022380D01*
X126214285Y-115022380D01*
X126309523Y-115070000D01*
X126357142Y-115117619D01*
X126404761Y-115212857D01*
X126404761Y-115355714D01*
X126357142Y-115450952D01*
X126309523Y-115498571D01*
X126214285Y-115546190D01*
X125833333Y-115546190D01*
X126690476Y-115022380D02*
X127023809Y-116022380D01*
X127357142Y-115022380D01*
X128214285Y-116022380D02*
X127642857Y-116022380D01*
X127928571Y-116022380D02*
X127928571Y-115022380D01*
X127833333Y-115165238D01*
X127738095Y-115260476D01*
X127642857Y-115308095D01*
X121753333Y-102052380D02*
X121420000Y-101576190D01*
X121181904Y-102052380D02*
X121181904Y-101052380D01*
X121562857Y-101052380D01*
X121658095Y-101100000D01*
X121705714Y-101147619D01*
X121753333Y-101242857D01*
X121753333Y-101385714D01*
X121705714Y-101480952D01*
X121658095Y-101528571D01*
X121562857Y-101576190D01*
X121181904Y-101576190D01*
X122086666Y-101052380D02*
X122753333Y-101052380D01*
X122324761Y-102052380D01*
X116673333Y-76652380D02*
X116340000Y-76176190D01*
X116101904Y-76652380D02*
X116101904Y-75652380D01*
X116482857Y-75652380D01*
X116578095Y-75700000D01*
X116625714Y-75747619D01*
X116673333Y-75842857D01*
X116673333Y-75985714D01*
X116625714Y-76080952D01*
X116578095Y-76128571D01*
X116482857Y-76176190D01*
X116101904Y-76176190D01*
X117578095Y-75652380D02*
X117101904Y-75652380D01*
X117054285Y-76128571D01*
X117101904Y-76080952D01*
X117197142Y-76033333D01*
X117435238Y-76033333D01*
X117530476Y-76080952D01*
X117578095Y-76128571D01*
X117625714Y-76223809D01*
X117625714Y-76461904D01*
X117578095Y-76557142D01*
X117530476Y-76604761D01*
X117435238Y-76652380D01*
X117197142Y-76652380D01*
X117101904Y-76604761D01*
X117054285Y-76557142D01*
X116673333Y-81732380D02*
X116340000Y-81256190D01*
X116101904Y-81732380D02*
X116101904Y-80732380D01*
X116482857Y-80732380D01*
X116578095Y-80780000D01*
X116625714Y-80827619D01*
X116673333Y-80922857D01*
X116673333Y-81065714D01*
X116625714Y-81160952D01*
X116578095Y-81208571D01*
X116482857Y-81256190D01*
X116101904Y-81256190D01*
X117530476Y-81065714D02*
X117530476Y-81732380D01*
X117292380Y-80684761D02*
X117054285Y-81399047D01*
X117673333Y-81399047D01*
X116673333Y-86812380D02*
X116340000Y-86336190D01*
X116101904Y-86812380D02*
X116101904Y-85812380D01*
X116482857Y-85812380D01*
X116578095Y-85860000D01*
X116625714Y-85907619D01*
X116673333Y-86002857D01*
X116673333Y-86145714D01*
X116625714Y-86240952D01*
X116578095Y-86288571D01*
X116482857Y-86336190D01*
X116101904Y-86336190D01*
X117006666Y-85812380D02*
X117625714Y-85812380D01*
X117292380Y-86193333D01*
X117435238Y-86193333D01*
X117530476Y-86240952D01*
X117578095Y-86288571D01*
X117625714Y-86383809D01*
X117625714Y-86621904D01*
X117578095Y-86717142D01*
X117530476Y-86764761D01*
X117435238Y-86812380D01*
X117149523Y-86812380D01*
X117054285Y-86764761D01*
X117006666Y-86717142D01*
X116673333Y-91892380D02*
X116340000Y-91416190D01*
X116101904Y-91892380D02*
X116101904Y-90892380D01*
X116482857Y-90892380D01*
X116578095Y-90940000D01*
X116625714Y-90987619D01*
X116673333Y-91082857D01*
X116673333Y-91225714D01*
X116625714Y-91320952D01*
X116578095Y-91368571D01*
X116482857Y-91416190D01*
X116101904Y-91416190D01*
X117054285Y-90987619D02*
X117101904Y-90940000D01*
X117197142Y-90892380D01*
X117435238Y-90892380D01*
X117530476Y-90940000D01*
X117578095Y-90987619D01*
X117625714Y-91082857D01*
X117625714Y-91178095D01*
X117578095Y-91320952D01*
X117006666Y-91892380D01*
X117625714Y-91892380D01*
X116673333Y-96972380D02*
X116340000Y-96496190D01*
X116101904Y-96972380D02*
X116101904Y-95972380D01*
X116482857Y-95972380D01*
X116578095Y-96020000D01*
X116625714Y-96067619D01*
X116673333Y-96162857D01*
X116673333Y-96305714D01*
X116625714Y-96400952D01*
X116578095Y-96448571D01*
X116482857Y-96496190D01*
X116101904Y-96496190D01*
X117625714Y-96972380D02*
X117054285Y-96972380D01*
X117340000Y-96972380D02*
X117340000Y-95972380D01*
X117244761Y-96115238D01*
X117149523Y-96210476D01*
X117054285Y-96258095D01*
X116673333Y-71572380D02*
X116340000Y-71096190D01*
X116101904Y-71572380D02*
X116101904Y-70572380D01*
X116482857Y-70572380D01*
X116578095Y-70620000D01*
X116625714Y-70667619D01*
X116673333Y-70762857D01*
X116673333Y-70905714D01*
X116625714Y-71000952D01*
X116578095Y-71048571D01*
X116482857Y-71096190D01*
X116101904Y-71096190D01*
X117530476Y-70572380D02*
X117340000Y-70572380D01*
X117244761Y-70620000D01*
X117197142Y-70667619D01*
X117101904Y-70810476D01*
X117054285Y-71000952D01*
X117054285Y-71381904D01*
X117101904Y-71477142D01*
X117149523Y-71524761D01*
X117244761Y-71572380D01*
X117435238Y-71572380D01*
X117530476Y-71524761D01*
X117578095Y-71477142D01*
X117625714Y-71381904D01*
X117625714Y-71143809D01*
X117578095Y-71048571D01*
X117530476Y-71000952D01*
X117435238Y-70953333D01*
X117244761Y-70953333D01*
X117149523Y-71000952D01*
X117101904Y-71048571D01*
X117054285Y-71143809D01*
X126158666Y-62952380D02*
X126158666Y-63666666D01*
X126111047Y-63809523D01*
X126015809Y-63904761D01*
X125872952Y-63952380D01*
X125777714Y-63952380D01*
X126539619Y-62952380D02*
X127158666Y-62952380D01*
X126825333Y-63333333D01*
X126968190Y-63333333D01*
X127063428Y-63380952D01*
X127111047Y-63428571D01*
X127158666Y-63523809D01*
X127158666Y-63761904D01*
X127111047Y-63857142D01*
X127063428Y-63904761D01*
X126968190Y-63952380D01*
X126682476Y-63952380D01*
X126587238Y-63904761D01*
X126539619Y-63857142D01*
X106854666Y-62952380D02*
X106854666Y-63666666D01*
X106807047Y-63809523D01*
X106711809Y-63904761D01*
X106568952Y-63952380D01*
X106473714Y-63952380D01*
X107283238Y-63047619D02*
X107330857Y-63000000D01*
X107426095Y-62952380D01*
X107664190Y-62952380D01*
X107759428Y-63000000D01*
X107807047Y-63047619D01*
X107854666Y-63142857D01*
X107854666Y-63238095D01*
X107807047Y-63380952D01*
X107235619Y-63952380D01*
X107854666Y-63952380D01*
X125245904Y-126436380D02*
X125245904Y-125436380D01*
X125484000Y-125436380D01*
X125626857Y-125484000D01*
X125722095Y-125579238D01*
X125769714Y-125674476D01*
X125817333Y-125864952D01*
X125817333Y-126007809D01*
X125769714Y-126198285D01*
X125722095Y-126293523D01*
X125626857Y-126388761D01*
X125484000Y-126436380D01*
X125245904Y-126436380D01*
X126769714Y-126436380D02*
X126198285Y-126436380D01*
X126484000Y-126436380D02*
X126484000Y-125436380D01*
X126388761Y-125579238D01*
X126293523Y-125674476D01*
X126198285Y-125722095D01*
X102893904Y-126436380D02*
X102893904Y-125436380D01*
X103132000Y-125436380D01*
X103274857Y-125484000D01*
X103370095Y-125579238D01*
X103417714Y-125674476D01*
X103465333Y-125864952D01*
X103465333Y-126007809D01*
X103417714Y-126198285D01*
X103370095Y-126293523D01*
X103274857Y-126388761D01*
X103132000Y-126436380D01*
X102893904Y-126436380D01*
X104370095Y-125436380D02*
X103893904Y-125436380D01*
X103846285Y-125912571D01*
X103893904Y-125864952D01*
X103989142Y-125817333D01*
X104227238Y-125817333D01*
X104322476Y-125864952D01*
X104370095Y-125912571D01*
X104417714Y-126007809D01*
X104417714Y-126245904D01*
X104370095Y-126341142D01*
X104322476Y-126388761D01*
X104227238Y-126436380D01*
X103989142Y-126436380D01*
X103893904Y-126388761D01*
X103846285Y-126341142D01*
X108481904Y-126436380D02*
X108481904Y-125436380D01*
X108720000Y-125436380D01*
X108862857Y-125484000D01*
X108958095Y-125579238D01*
X109005714Y-125674476D01*
X109053333Y-125864952D01*
X109053333Y-126007809D01*
X109005714Y-126198285D01*
X108958095Y-126293523D01*
X108862857Y-126388761D01*
X108720000Y-126436380D01*
X108481904Y-126436380D01*
X109910476Y-125769714D02*
X109910476Y-126436380D01*
X109672380Y-125388761D02*
X109434285Y-126103047D01*
X110053333Y-126103047D01*
X119657904Y-126436380D02*
X119657904Y-125436380D01*
X119896000Y-125436380D01*
X120038857Y-125484000D01*
X120134095Y-125579238D01*
X120181714Y-125674476D01*
X120229333Y-125864952D01*
X120229333Y-126007809D01*
X120181714Y-126198285D01*
X120134095Y-126293523D01*
X120038857Y-126388761D01*
X119896000Y-126436380D01*
X119657904Y-126436380D01*
X120610285Y-125531619D02*
X120657904Y-125484000D01*
X120753142Y-125436380D01*
X120991238Y-125436380D01*
X121086476Y-125484000D01*
X121134095Y-125531619D01*
X121181714Y-125626857D01*
X121181714Y-125722095D01*
X121134095Y-125864952D01*
X120562666Y-126436380D01*
X121181714Y-126436380D01*
X115887666Y-132484761D02*
X116030523Y-132532380D01*
X116268619Y-132532380D01*
X116363857Y-132484761D01*
X116411476Y-132437142D01*
X116459095Y-132341904D01*
X116459095Y-132246666D01*
X116411476Y-132151428D01*
X116363857Y-132103809D01*
X116268619Y-132056190D01*
X116078142Y-132008571D01*
X115982904Y-131960952D01*
X115935285Y-131913333D01*
X115887666Y-131818095D01*
X115887666Y-131722857D01*
X115935285Y-131627619D01*
X115982904Y-131580000D01*
X116078142Y-131532380D01*
X116316238Y-131532380D01*
X116459095Y-131580000D01*
X116792428Y-131532380D02*
X117030523Y-132532380D01*
X117221000Y-131818095D01*
X117411476Y-132532380D01*
X117649571Y-131532380D01*
X117982904Y-131627619D02*
X118030523Y-131580000D01*
X118125761Y-131532380D01*
X118363857Y-131532380D01*
X118459095Y-131580000D01*
X118506714Y-131627619D01*
X118554333Y-131722857D01*
X118554333Y-131818095D01*
X118506714Y-131960952D01*
X117935285Y-132532380D01*
X118554333Y-132532380D01*
X110557333Y-115419142D02*
X110509714Y-115466761D01*
X110366857Y-115514380D01*
X110271619Y-115514380D01*
X110128761Y-115466761D01*
X110033523Y-115371523D01*
X109985904Y-115276285D01*
X109938285Y-115085809D01*
X109938285Y-114942952D01*
X109985904Y-114752476D01*
X110033523Y-114657238D01*
X110128761Y-114562000D01*
X110271619Y-114514380D01*
X110366857Y-114514380D01*
X110509714Y-114562000D01*
X110557333Y-114609619D01*
X110938285Y-114609619D02*
X110985904Y-114562000D01*
X111081142Y-114514380D01*
X111319238Y-114514380D01*
X111414476Y-114562000D01*
X111462095Y-114609619D01*
X111509714Y-114704857D01*
X111509714Y-114800095D01*
X111462095Y-114942952D01*
X110890666Y-115514380D01*
X111509714Y-115514380D01*
X105009333Y-115419142D02*
X104961714Y-115466761D01*
X104818857Y-115514380D01*
X104723619Y-115514380D01*
X104580761Y-115466761D01*
X104485523Y-115371523D01*
X104437904Y-115276285D01*
X104390285Y-115085809D01*
X104390285Y-114942952D01*
X104437904Y-114752476D01*
X104485523Y-114657238D01*
X104580761Y-114562000D01*
X104723619Y-114514380D01*
X104818857Y-114514380D01*
X104961714Y-114562000D01*
X105009333Y-114609619D01*
X105961714Y-115514380D02*
X105390285Y-115514380D01*
X105676000Y-115514380D02*
X105676000Y-114514380D01*
X105580761Y-114657238D01*
X105485523Y-114752476D01*
X105390285Y-114800095D01*
X107188095Y-118499380D02*
X107188095Y-119308904D01*
X107235714Y-119404142D01*
X107283333Y-119451761D01*
X107378571Y-119499380D01*
X107569047Y-119499380D01*
X107664285Y-119451761D01*
X107711904Y-119404142D01*
X107759523Y-119308904D01*
X107759523Y-118499380D01*
X108759523Y-119499380D02*
X108188095Y-119499380D01*
X108473809Y-119499380D02*
X108473809Y-118499380D01*
X108378571Y-118642238D01*
X108283333Y-118737476D01*
X108188095Y-118785095D01*
X104076666Y-143152761D02*
X104219523Y-143200380D01*
X104457619Y-143200380D01*
X104552857Y-143152761D01*
X104600476Y-143105142D01*
X104648095Y-143009904D01*
X104648095Y-142914666D01*
X104600476Y-142819428D01*
X104552857Y-142771809D01*
X104457619Y-142724190D01*
X104267142Y-142676571D01*
X104171904Y-142628952D01*
X104124285Y-142581333D01*
X104076666Y-142486095D01*
X104076666Y-142390857D01*
X104124285Y-142295619D01*
X104171904Y-142248000D01*
X104267142Y-142200380D01*
X104505238Y-142200380D01*
X104648095Y-142248000D01*
X104981428Y-142200380D02*
X105219523Y-143200380D01*
X105410000Y-142486095D01*
X105600476Y-143200380D01*
X105838571Y-142200380D01*
X106743333Y-143200380D02*
X106171904Y-143200380D01*
X106457619Y-143200380D02*
X106457619Y-142200380D01*
X106362380Y-142343238D01*
X106267142Y-142438476D01*
X106171904Y-142486095D01*
X126484142Y-109672380D02*
X126007952Y-109672380D01*
X126007952Y-108672380D01*
X126769857Y-109624761D02*
X126912714Y-109672380D01*
X127150809Y-109672380D01*
X127246047Y-109624761D01*
X127293666Y-109577142D01*
X127341285Y-109481904D01*
X127341285Y-109386666D01*
X127293666Y-109291428D01*
X127246047Y-109243809D01*
X127150809Y-109196190D01*
X126960333Y-109148571D01*
X126865095Y-109100952D01*
X126817476Y-109053333D01*
X126769857Y-108958095D01*
X126769857Y-108862857D01*
X126817476Y-108767619D01*
X126865095Y-108720000D01*
X126960333Y-108672380D01*
X127198428Y-108672380D01*
X127341285Y-108720000D01*
X128293666Y-109672380D02*
X127722238Y-109672380D01*
X128007952Y-109672380D02*
X128007952Y-108672380D01*
X127912714Y-108815238D01*
X127817476Y-108910476D01*
X127722238Y-108958095D01*
X110410666Y-108672380D02*
X110410666Y-109386666D01*
X110363047Y-109529523D01*
X110267809Y-109624761D01*
X110124952Y-109672380D01*
X110029714Y-109672380D01*
X111363047Y-108672380D02*
X110886857Y-108672380D01*
X110839238Y-109148571D01*
X110886857Y-109100952D01*
X110982095Y-109053333D01*
X111220190Y-109053333D01*
X111315428Y-109100952D01*
X111363047Y-109148571D01*
X111410666Y-109243809D01*
X111410666Y-109481904D01*
X111363047Y-109577142D01*
X111315428Y-109624761D01*
X111220190Y-109672380D01*
X110982095Y-109672380D01*
X110886857Y-109624761D01*
X110839238Y-109577142D01*
X118284666Y-114514380D02*
X118284666Y-115228666D01*
X118237047Y-115371523D01*
X118141809Y-115466761D01*
X117998952Y-115514380D01*
X117903714Y-115514380D01*
X119189428Y-114847714D02*
X119189428Y-115514380D01*
X118951333Y-114466761D02*
X118713238Y-115181047D01*
X119332285Y-115181047D01*
X112696666Y-130262380D02*
X112696666Y-130976666D01*
X112649047Y-131119523D01*
X112553809Y-131214761D01*
X112410952Y-131262380D01*
X112315714Y-131262380D01*
X113696666Y-131262380D02*
X113125238Y-131262380D01*
X113410952Y-131262380D02*
X113410952Y-130262380D01*
X113315714Y-130405238D01*
X113220476Y-130500476D01*
X113125238Y-130548095D01*
M02*
