M48
; DRILL file {KiCad (5.1.6-0)} date Monday, December 13, 2021 at 05:07:37 PM
; FORMAT={-:-/ absolute / inch / decimal}
; #@! TF.CreationDate,2021-12-13T17:07:37-07:00
; #@! TF.GenerationSoftware,Kicad,Pcbnew,(5.1.6-0)
; #@! TF.FileFunction,Plated,1,2,PTH
FMAT,2
INCH
T1C0.0157
T2C0.0315
T3C0.0354
T4C0.0394
T5C0.0433
T6C0.0512
%
G90
G05
T1
X4.5035Y-3.2
X4.5526Y-4.2689
X4.5617Y-4.79
X4.5797Y-4.2403
X4.59Y-4.3
X4.7Y-4.535
X4.713Y-4.4807
X4.7481Y-4.3594
X4.7634Y-4.415
X4.7921Y-4.2828
X4.8264Y-4.2339
X4.8285Y-4.01
X4.865Y-4.325
T2
X4.6Y-4.1
X5.0Y-4.1
X4.4Y-3.1
X4.8Y-3.1
X4.4Y-3.3
X4.8Y-3.3
X4.4Y-3.5
X4.8Y-3.5
X4.9Y-4.74
X5.0Y-4.84
X5.1Y-4.74
X4.4Y-2.9
X4.8Y-2.9
X4.0916Y-4.62
X4.19Y-4.62
X4.4Y-3.7
X4.8Y-3.7
X4.4Y-3.9
X4.8Y-3.9
X4.31Y-4.62
X4.4084Y-4.62
T3
X4.16Y-5.0
X4.16Y-5.1
X5.04Y-5.0
X5.04Y-5.1
X4.82Y-5.0
X4.82Y-5.1
X4.6Y-5.0
X4.6Y-5.1
X4.38Y-5.0
X4.38Y-5.1
T4
X4.62Y-4.64
X4.62Y-4.74
X4.62Y-4.84
X4.72Y-4.64
X4.72Y-4.74
X4.72Y-4.84
X4.1Y-2.5
X4.1Y-2.6
X4.1Y-2.7
X4.1Y-2.8
X4.1Y-2.9
X4.1Y-3.0
X4.1Y-3.1
X4.1Y-3.2
X4.1Y-3.3
X4.1Y-3.4
X4.1Y-3.5
X4.1Y-3.6
X4.1Y-3.7
X4.1Y-3.8
X4.1Y-3.9
X4.955Y-4.4
X5.055Y-4.4
X4.1Y-4.4
X4.2Y-4.4
X4.3Y-4.4
X4.4Y-4.4
X4.5Y-4.4
X4.6Y-4.4
X5.1Y-2.5
X5.1Y-2.6
X5.1Y-2.7
X5.1Y-2.8
X5.1Y-2.9
X5.1Y-3.0
X5.1Y-3.1
X5.1Y-3.2
X5.1Y-3.3
X5.1Y-3.4
X5.1Y-3.5
X5.1Y-3.6
X5.1Y-3.7
X5.1Y-3.8
X5.1Y-3.9
X4.17Y-5.72
X4.27Y-5.72
X4.37Y-5.72
T5
X4.15Y-4.855
X4.25Y-4.855
X4.35Y-4.855
T6
X4.725Y-5.2479
X4.725Y-5.74
X4.9219Y-5.2479
X4.9219Y-5.74
T4
G00X4.1838Y-5.3306
M15
G01X4.1838Y-5.4094
M16
G05
G00X4.2625Y-5.555
M15
G01X4.3413Y-5.555
M16
G05
G00X4.42Y-5.3306
M15
G01X4.42Y-5.4094
M16
G05
T0
M30
