G04 #@! TF.GenerationSoftware,KiCad,Pcbnew,(5.1.5-0)*
G04 #@! TF.CreationDate,2021-12-12T09:58:06-07:00*
G04 #@! TF.ProjectId,starman,73746172-6d61-46e2-9e6b-696361645f70,rev?*
G04 #@! TF.SameCoordinates,Original*
G04 #@! TF.FileFunction,Copper,L1,Top*
G04 #@! TF.FilePolarity,Positive*
%FSLAX46Y46*%
G04 Gerber Fmt 4.6, Leading zero omitted, Abs format (unit mm)*
G04 Created by KiCad (PCBNEW (5.1.5-0)) date 2021-12-12 09:58:06*
%MOMM*%
%LPD*%
G04 APERTURE LIST*
%ADD10O,1.400000X1.400000*%
%ADD11C,1.400000*%
%ADD12C,1.800000*%
%ADD13R,1.800000X1.800000*%
%ADD14O,1.700000X1.700000*%
%ADD15R,1.700000X1.700000*%
%ADD16O,3.048000X1.850000*%
%ADD17C,1.600000*%
%ADD18C,1.440000*%
%ADD19O,1.905000X2.000000*%
%ADD20R,1.905000X2.000000*%
%ADD21C,0.100000*%
%ADD22R,3.500000X3.500000*%
%ADD23C,0.800000*%
%ADD24C,0.250000*%
G04 APERTURE END LIST*
D10*
X121920000Y-81280000D03*
D11*
X114300000Y-81280000D03*
D10*
X127000000Y-93980000D03*
D11*
X127000000Y-101600000D03*
D10*
X114300000Y-86360000D03*
D11*
X121920000Y-86360000D03*
D10*
X121920000Y-91440000D03*
D11*
X114300000Y-91440000D03*
D10*
X121920000Y-96520000D03*
D11*
X114300000Y-96520000D03*
D10*
X121920000Y-101600000D03*
D11*
X114300000Y-101600000D03*
D12*
X132080000Y-129540000D03*
D13*
X132080000Y-127000000D03*
D12*
X106680000Y-129540000D03*
D13*
X106680000Y-127000000D03*
D12*
X113030000Y-129540000D03*
D13*
X113030000Y-127000000D03*
D12*
X119380000Y-129540000D03*
D13*
X119380000Y-127000000D03*
D12*
X125730000Y-129540000D03*
D13*
X125730000Y-127000000D03*
D14*
X106680000Y-99060000D03*
X104140000Y-99060000D03*
X106680000Y-96520000D03*
X104140000Y-96520000D03*
X106680000Y-93980000D03*
X104140000Y-93980000D03*
X106680000Y-91440000D03*
X104140000Y-91440000D03*
X106680000Y-88900000D03*
X104140000Y-88900000D03*
X106680000Y-86360000D03*
X104140000Y-86360000D03*
X106680000Y-83820000D03*
X104140000Y-83820000D03*
X106680000Y-81280000D03*
X104140000Y-81280000D03*
X106680000Y-78740000D03*
D15*
X104140000Y-78740000D03*
D14*
X134620000Y-99060000D03*
X132080000Y-99060000D03*
X134620000Y-96520000D03*
X132080000Y-96520000D03*
X134620000Y-93980000D03*
X132080000Y-93980000D03*
X134620000Y-91440000D03*
X132080000Y-91440000D03*
X134620000Y-88900000D03*
X132080000Y-88900000D03*
X134620000Y-86360000D03*
X132080000Y-86360000D03*
X134620000Y-83820000D03*
X132080000Y-83820000D03*
X134620000Y-81280000D03*
X132080000Y-81280000D03*
X134620000Y-78740000D03*
D15*
X132080000Y-78740000D03*
D16*
X121920000Y-140636000D03*
X121920000Y-135636000D03*
X134420000Y-140636000D03*
X134420000Y-135636000D03*
D17*
X119086000Y-117348000D03*
X116586000Y-117348000D03*
X124714000Y-117348000D03*
X122214000Y-117348000D03*
X109474000Y-117348000D03*
X111974000Y-117348000D03*
X103926000Y-117348000D03*
X106426000Y-117348000D03*
D18*
X129540000Y-120650000D03*
X132080000Y-123190000D03*
X134620000Y-120650000D03*
D19*
X123190000Y-123317000D03*
X120650000Y-123317000D03*
D20*
X118110000Y-123317000D03*
D19*
X110490000Y-123317000D03*
X107950000Y-123317000D03*
D20*
X105410000Y-123317000D03*
D14*
X116078000Y-134620000D03*
X116078000Y-137160000D03*
D15*
X116078000Y-139700000D03*
D14*
X134620000Y-111760000D03*
D15*
X132080000Y-111760000D03*
D14*
X116840000Y-111760000D03*
X114300000Y-111760000D03*
X111760000Y-111760000D03*
X109220000Y-111760000D03*
X106680000Y-111760000D03*
D15*
X104140000Y-111760000D03*
D14*
X121920000Y-113030000D03*
X121920000Y-110490000D03*
X124460000Y-113030000D03*
X124460000Y-110490000D03*
X127000000Y-113030000D03*
D15*
X127000000Y-110490000D03*
G04 #@! TA.AperFunction,ComponentPad*
D21*
G36*
X108450765Y-140114213D02*
G01*
X108535704Y-140126813D01*
X108618999Y-140147677D01*
X108699848Y-140176605D01*
X108777472Y-140213319D01*
X108851124Y-140257464D01*
X108920094Y-140308616D01*
X108983718Y-140366282D01*
X109041384Y-140429906D01*
X109092536Y-140498876D01*
X109136681Y-140572528D01*
X109173395Y-140650152D01*
X109202323Y-140731001D01*
X109223187Y-140814296D01*
X109235787Y-140899235D01*
X109240000Y-140985000D01*
X109240000Y-142735000D01*
X109235787Y-142820765D01*
X109223187Y-142905704D01*
X109202323Y-142988999D01*
X109173395Y-143069848D01*
X109136681Y-143147472D01*
X109092536Y-143221124D01*
X109041384Y-143290094D01*
X108983718Y-143353718D01*
X108920094Y-143411384D01*
X108851124Y-143462536D01*
X108777472Y-143506681D01*
X108699848Y-143543395D01*
X108618999Y-143572323D01*
X108535704Y-143593187D01*
X108450765Y-143605787D01*
X108365000Y-143610000D01*
X106615000Y-143610000D01*
X106529235Y-143605787D01*
X106444296Y-143593187D01*
X106361001Y-143572323D01*
X106280152Y-143543395D01*
X106202528Y-143506681D01*
X106128876Y-143462536D01*
X106059906Y-143411384D01*
X105996282Y-143353718D01*
X105938616Y-143290094D01*
X105887464Y-143221124D01*
X105843319Y-143147472D01*
X105806605Y-143069848D01*
X105777677Y-142988999D01*
X105756813Y-142905704D01*
X105744213Y-142820765D01*
X105740000Y-142735000D01*
X105740000Y-140985000D01*
X105744213Y-140899235D01*
X105756813Y-140814296D01*
X105777677Y-140731001D01*
X105806605Y-140650152D01*
X105843319Y-140572528D01*
X105887464Y-140498876D01*
X105938616Y-140429906D01*
X105996282Y-140366282D01*
X106059906Y-140308616D01*
X106128876Y-140257464D01*
X106202528Y-140213319D01*
X106280152Y-140176605D01*
X106361001Y-140147677D01*
X106444296Y-140126813D01*
X106529235Y-140114213D01*
X106615000Y-140110000D01*
X108365000Y-140110000D01*
X108450765Y-140114213D01*
G37*
G04 #@! TD.AperFunction*
G04 #@! TA.AperFunction,ComponentPad*
G36*
X105313513Y-135413611D02*
G01*
X105386318Y-135424411D01*
X105457714Y-135442295D01*
X105527013Y-135467090D01*
X105593548Y-135498559D01*
X105656678Y-135536398D01*
X105715795Y-135580242D01*
X105770330Y-135629670D01*
X105819758Y-135684205D01*
X105863602Y-135743322D01*
X105901441Y-135806452D01*
X105932910Y-135872987D01*
X105957705Y-135942286D01*
X105975589Y-136013682D01*
X105986389Y-136086487D01*
X105990000Y-136160000D01*
X105990000Y-138160000D01*
X105986389Y-138233513D01*
X105975589Y-138306318D01*
X105957705Y-138377714D01*
X105932910Y-138447013D01*
X105901441Y-138513548D01*
X105863602Y-138576678D01*
X105819758Y-138635795D01*
X105770330Y-138690330D01*
X105715795Y-138739758D01*
X105656678Y-138783602D01*
X105593548Y-138821441D01*
X105527013Y-138852910D01*
X105457714Y-138877705D01*
X105386318Y-138895589D01*
X105313513Y-138906389D01*
X105240000Y-138910000D01*
X103740000Y-138910000D01*
X103666487Y-138906389D01*
X103593682Y-138895589D01*
X103522286Y-138877705D01*
X103452987Y-138852910D01*
X103386452Y-138821441D01*
X103323322Y-138783602D01*
X103264205Y-138739758D01*
X103209670Y-138690330D01*
X103160242Y-138635795D01*
X103116398Y-138576678D01*
X103078559Y-138513548D01*
X103047090Y-138447013D01*
X103022295Y-138377714D01*
X103004411Y-138306318D01*
X102993611Y-138233513D01*
X102990000Y-138160000D01*
X102990000Y-136160000D01*
X102993611Y-136086487D01*
X103004411Y-136013682D01*
X103022295Y-135942286D01*
X103047090Y-135872987D01*
X103078559Y-135806452D01*
X103116398Y-135743322D01*
X103160242Y-135684205D01*
X103209670Y-135629670D01*
X103264205Y-135580242D01*
X103323322Y-135536398D01*
X103386452Y-135498559D01*
X103452987Y-135467090D01*
X103522286Y-135442295D01*
X103593682Y-135424411D01*
X103666487Y-135413611D01*
X103740000Y-135410000D01*
X105240000Y-135410000D01*
X105313513Y-135413611D01*
G37*
G04 #@! TD.AperFunction*
D22*
X110490000Y-137160000D03*
D23*
X123099875Y-115192136D03*
X134620000Y-104902000D03*
X130302000Y-106426000D03*
X129540000Y-114808000D03*
X124968000Y-125222000D03*
D24*
X133770001Y-95670001D02*
X134620000Y-96520000D01*
X133350000Y-95250000D02*
X133770001Y-95670001D01*
X128270000Y-95250000D02*
X133350000Y-95250000D01*
X121920000Y-101600000D02*
X128270000Y-95250000D01*
X126629999Y-128640001D02*
X125730000Y-129540000D01*
X120396000Y-113561265D02*
X122751873Y-115917138D01*
X120396000Y-103124000D02*
X120396000Y-113561265D01*
X125823138Y-115917138D02*
X127508000Y-117602000D01*
X121920000Y-101600000D02*
X120396000Y-103124000D01*
X127508000Y-117602000D02*
X127508000Y-127762000D01*
X127508000Y-127762000D02*
X126629999Y-128640001D01*
X122751873Y-115917138D02*
X125823138Y-115917138D01*
X127958009Y-117415599D02*
X125734546Y-115192136D01*
X123665560Y-115192136D02*
X123099875Y-115192136D01*
X132080000Y-127000000D02*
X130930000Y-127000000D01*
X127958009Y-124028009D02*
X127958009Y-117415599D01*
X130930000Y-127000000D02*
X127958009Y-124028009D01*
X125734546Y-115192136D02*
X123665560Y-115192136D01*
X133770001Y-93130001D02*
X134620000Y-93980000D01*
X133350000Y-92710000D02*
X133770001Y-93130001D01*
X125730000Y-92710000D02*
X133350000Y-92710000D01*
X121920000Y-96520000D02*
X125730000Y-92710000D01*
X118480001Y-128640001D02*
X119380000Y-129540000D01*
X115062000Y-116332000D02*
X115062000Y-125222000D01*
X115062000Y-125222000D02*
X118480001Y-128640001D01*
X116078000Y-115316000D02*
X115062000Y-116332000D01*
X117479233Y-115316000D02*
X116078000Y-115316000D01*
X119945989Y-98494011D02*
X119945989Y-112849244D01*
X119945989Y-112849244D02*
X117479233Y-115316000D01*
X121920000Y-96520000D02*
X119945989Y-98494011D01*
X133770001Y-90590001D02*
X134620000Y-91440000D01*
X133350000Y-90170000D02*
X133770001Y-90590001D01*
X123190000Y-90170000D02*
X133350000Y-90170000D01*
X121920000Y-91440000D02*
X123190000Y-90170000D01*
X114611989Y-116145600D02*
X114611989Y-127958011D01*
X115891600Y-114865989D02*
X114611989Y-116145600D01*
X117292833Y-114865989D02*
X115891600Y-114865989D01*
X121920000Y-91440000D02*
X119495978Y-93864022D01*
X119495978Y-112662844D02*
X117292833Y-114865989D01*
X113929999Y-128640001D02*
X113030000Y-129540000D01*
X119495978Y-93864022D02*
X119495978Y-112662844D01*
X114611989Y-127958011D02*
X113929999Y-128640001D01*
X133770001Y-88050001D02*
X134620000Y-88900000D01*
X133350000Y-87630000D02*
X133770001Y-88050001D01*
X123190000Y-87630000D02*
X133350000Y-87630000D01*
X121920000Y-86360000D02*
X123190000Y-87630000D01*
X121220001Y-87059999D02*
X121920000Y-86360000D01*
X119045967Y-112476444D02*
X119045967Y-89234033D01*
X106808411Y-129540000D02*
X114161978Y-122186433D01*
X117106433Y-114415978D02*
X119045967Y-112476444D01*
X114161978Y-115959200D02*
X115705200Y-114415978D01*
X115705200Y-114415978D02*
X117106433Y-114415978D01*
X119045967Y-89234033D02*
X121220001Y-87059999D01*
X114161978Y-122186433D02*
X114161978Y-115959200D01*
X134620000Y-99060000D02*
X134620000Y-104902000D01*
X119086000Y-117348000D02*
X122214000Y-117348000D01*
X133255001Y-79915001D02*
X132080000Y-78740000D01*
X133255001Y-84995001D02*
X133255001Y-79915001D01*
X134620000Y-86360000D02*
X133255001Y-84995001D01*
X113538000Y-137160000D02*
X116078000Y-139700000D01*
X110490000Y-137160000D02*
X113538000Y-137160000D01*
X130302000Y-108203002D02*
X130302000Y-106426000D01*
X130302000Y-108203002D02*
X130302000Y-108204000D01*
X122769999Y-113879999D02*
X121920000Y-113030000D01*
X123444000Y-114554000D02*
X122769999Y-113879999D01*
X127762000Y-114554000D02*
X123444000Y-114554000D01*
X130302000Y-112014000D02*
X127762000Y-114554000D01*
X130302000Y-108203002D02*
X130302000Y-112014000D01*
X107529999Y-89749999D02*
X106680000Y-88900000D01*
X112660022Y-94880022D02*
X107529999Y-89749999D01*
X112660022Y-107580022D02*
X112660022Y-94880022D01*
X116840000Y-111760000D02*
X112660022Y-107580022D01*
X104989999Y-89749999D02*
X104140000Y-88900000D01*
X112210011Y-109670011D02*
X112210011Y-95231009D01*
X107149002Y-90170000D02*
X105410000Y-90170000D01*
X105410000Y-90170000D02*
X104989999Y-89749999D01*
X112210011Y-95231009D02*
X107149002Y-90170000D01*
X114300000Y-111760000D02*
X112210011Y-109670011D01*
X107696000Y-91440000D02*
X106680000Y-91440000D01*
X111760000Y-95504000D02*
X107696000Y-91440000D01*
X111760000Y-111760000D02*
X111760000Y-95504000D01*
X104989999Y-92289999D02*
X104140000Y-91440000D01*
X105410000Y-92710000D02*
X104989999Y-92289999D01*
X108204000Y-92710000D02*
X105410000Y-92710000D01*
X111252000Y-95758000D02*
X108204000Y-92710000D01*
X111252000Y-109728000D02*
X111252000Y-95758000D01*
X109220000Y-111760000D02*
X111252000Y-109728000D01*
X121920000Y-107696000D02*
X121920000Y-110490000D01*
X123952000Y-105664000D02*
X121920000Y-107696000D01*
X134620000Y-83820000D02*
X135890000Y-85090000D01*
X135189664Y-105664000D02*
X123952000Y-105664000D01*
X135890000Y-85090000D02*
X135890000Y-104963664D01*
X135890000Y-104963664D02*
X135189664Y-105664000D01*
X134420000Y-135636000D02*
X121920000Y-135636000D01*
X134420000Y-134461000D02*
X134420000Y-135636000D01*
X134420000Y-126546000D02*
X134420000Y-134461000D01*
X132842000Y-124968000D02*
X134420000Y-126546000D01*
X130683000Y-124079000D02*
X131572000Y-124968000D01*
X130683000Y-115951000D02*
X130683000Y-124079000D01*
X131572000Y-124968000D02*
X132842000Y-124968000D01*
X129540000Y-114808000D02*
X130683000Y-115951000D01*
X127000000Y-110490000D02*
X127000000Y-110236000D01*
X119447500Y-122067000D02*
X120650000Y-123269500D01*
X119400000Y-122067000D02*
X119447500Y-122067000D01*
X120650000Y-123269500D02*
X120650000Y-123317000D01*
X116586000Y-119253000D02*
X119400000Y-122067000D01*
X116586000Y-117856000D02*
X116586000Y-119253000D01*
X124402315Y-125222000D02*
X124968000Y-125222000D01*
X122428000Y-125222000D02*
X124402315Y-125222000D01*
X120650000Y-123444000D02*
X122428000Y-125222000D01*
X124714000Y-121793000D02*
X124714000Y-117856000D01*
X123190000Y-123317000D02*
X124714000Y-121793000D01*
X107315000Y-114935000D02*
X104140000Y-111760000D01*
X109053000Y-114935000D02*
X107315000Y-114935000D01*
X111974000Y-117856000D02*
X109053000Y-114935000D01*
X110490000Y-119340000D02*
X111974000Y-117856000D01*
X110490000Y-123317000D02*
X110490000Y-119340000D01*
X132080000Y-123190000D02*
X132080000Y-111760000D01*
X103926000Y-117348000D02*
X103886000Y-117388000D01*
X105410000Y-118832000D02*
X103926000Y-117348000D01*
X105410000Y-123317000D02*
X105410000Y-118832000D01*
X105410000Y-123414250D02*
X105410000Y-123317000D01*
X105156000Y-123571000D02*
X105410000Y-123317000D01*
X105156000Y-130429000D02*
X105156000Y-123571000D01*
X106045000Y-131318000D02*
X105156000Y-130429000D01*
X110236000Y-131318000D02*
X106045000Y-131318000D01*
X116078000Y-137160000D02*
X110236000Y-131318000D01*
X107830000Y-127000000D02*
X106680000Y-127000000D01*
X113711967Y-122000033D02*
X108712000Y-127000000D01*
X118595956Y-85575956D02*
X118595956Y-112290044D01*
X115518800Y-113965967D02*
X113711967Y-115772800D01*
X116920033Y-113965967D02*
X115518800Y-113965967D01*
X108712000Y-127000000D02*
X107830000Y-127000000D01*
X114300000Y-81280000D02*
X118595956Y-85575956D01*
X118595956Y-112290044D02*
X116920033Y-113965967D01*
X113711967Y-115772800D02*
X113711967Y-122000033D01*
M02*
