G04 #@! TF.GenerationSoftware,KiCad,Pcbnew,(5.1.6-0)*
G04 #@! TF.CreationDate,2021-12-13T17:07:39-07:00*
G04 #@! TF.ProjectId,starman,73746172-6d61-46e2-9e6b-696361645f70,rev?*
G04 #@! TF.SameCoordinates,Original*
G04 #@! TF.FileFunction,Copper,L1,Top*
G04 #@! TF.FilePolarity,Positive*
%FSLAX46Y46*%
G04 Gerber Fmt 4.6, Leading zero omitted, Abs format (unit mm)*
G04 Created by KiCad (PCBNEW (5.1.6-0)) date 2021-12-13 17:07:39*
%MOMM*%
%LPD*%
G01*
G04 APERTURE LIST*
G04 #@! TA.AperFunction,ComponentPad*
%ADD10C,1.800000*%
G04 #@! TD*
G04 #@! TA.AperFunction,ComponentPad*
%ADD11R,1.800000X1.800000*%
G04 #@! TD*
G04 #@! TA.AperFunction,ComponentPad*
%ADD12C,1.440000*%
G04 #@! TD*
G04 #@! TA.AperFunction,ComponentPad*
%ADD13O,1.600000X1.600000*%
G04 #@! TD*
G04 #@! TA.AperFunction,ComponentPad*
%ADD14C,1.600000*%
G04 #@! TD*
G04 #@! TA.AperFunction,ComponentPad*
%ADD15O,1.700000X1.700000*%
G04 #@! TD*
G04 #@! TA.AperFunction,ComponentPad*
%ADD16R,1.700000X1.700000*%
G04 #@! TD*
G04 #@! TA.AperFunction,ComponentPad*
%ADD17O,1.850000X3.048000*%
G04 #@! TD*
G04 #@! TA.AperFunction,ComponentPad*
%ADD18O,1.905000X2.000000*%
G04 #@! TD*
G04 #@! TA.AperFunction,ComponentPad*
%ADD19R,1.905000X2.000000*%
G04 #@! TD*
G04 #@! TA.AperFunction,ComponentPad*
%ADD20R,3.500000X3.500000*%
G04 #@! TD*
G04 #@! TA.AperFunction,ViaPad*
%ADD21C,0.800000*%
G04 #@! TD*
G04 #@! TA.AperFunction,Conductor*
%ADD22C,0.250000*%
G04 #@! TD*
G04 APERTURE END LIST*
D10*
X116840000Y-129540000D03*
D11*
X116840000Y-127000000D03*
D12*
X124460000Y-120396000D03*
X127000000Y-122936000D03*
X129540000Y-120396000D03*
D13*
X116840000Y-104140000D03*
D14*
X127000000Y-104140000D03*
D13*
X121920000Y-78740000D03*
D14*
X111760000Y-78740000D03*
D13*
X111760000Y-83820000D03*
D14*
X121920000Y-83820000D03*
D13*
X121920000Y-88900000D03*
D14*
X111760000Y-88900000D03*
D13*
X121920000Y-93980000D03*
D14*
X111760000Y-93980000D03*
D13*
X121920000Y-99060000D03*
D14*
X111760000Y-99060000D03*
D13*
X121920000Y-73660000D03*
D14*
X111760000Y-73660000D03*
D15*
X129540000Y-99060000D03*
X129540000Y-96520000D03*
X129540000Y-93980000D03*
X129540000Y-91440000D03*
X129540000Y-88900000D03*
X129540000Y-86360000D03*
X129540000Y-83820000D03*
X129540000Y-81280000D03*
X129540000Y-78740000D03*
X129540000Y-76200000D03*
X129540000Y-73660000D03*
X129540000Y-71120000D03*
X129540000Y-68580000D03*
X129540000Y-66040000D03*
D16*
X129540000Y-63500000D03*
D15*
X104140000Y-99060000D03*
X104140000Y-96520000D03*
X104140000Y-93980000D03*
X104140000Y-91440000D03*
X104140000Y-88900000D03*
X104140000Y-86360000D03*
X104140000Y-83820000D03*
X104140000Y-81280000D03*
X104140000Y-78740000D03*
X104140000Y-76200000D03*
X104140000Y-73660000D03*
X104140000Y-71120000D03*
X104140000Y-68580000D03*
X104140000Y-66040000D03*
D16*
X104140000Y-63500000D03*
D10*
X128016000Y-129540000D03*
D11*
X128016000Y-127000000D03*
D10*
X105664000Y-129540000D03*
D11*
X105664000Y-127000000D03*
D10*
X111252000Y-129540000D03*
D11*
X111252000Y-127000000D03*
D10*
X122428000Y-129540000D03*
D11*
X122428000Y-127000000D03*
D17*
X125015000Y-145796000D03*
X120015000Y-145796000D03*
X125015000Y-133296000D03*
X120015000Y-133296000D03*
D14*
X109474000Y-117348000D03*
X111974000Y-117348000D03*
X103926000Y-117348000D03*
X106426000Y-117348000D03*
D18*
X110490000Y-123317000D03*
X107950000Y-123317000D03*
D19*
X105410000Y-123317000D03*
D15*
X105918000Y-145288000D03*
X108458000Y-145288000D03*
D16*
X110998000Y-145288000D03*
D15*
X128397000Y-111760000D03*
D16*
X125857000Y-111760000D03*
D15*
X116840000Y-111760000D03*
X114300000Y-111760000D03*
X111760000Y-111760000D03*
X109220000Y-111760000D03*
X106680000Y-111760000D03*
D16*
X104140000Y-111760000D03*
D15*
X119888000Y-122936000D03*
X117348000Y-122936000D03*
X119888000Y-120396000D03*
X117348000Y-120396000D03*
X119888000Y-117856000D03*
D16*
X117348000Y-117856000D03*
G04 #@! TA.AperFunction,ComponentPad*
G36*
G01*
X107518000Y-141973000D02*
X107518000Y-140223000D01*
G75*
G02*
X108393000Y-139348000I875000J0D01*
G01*
X110143000Y-139348000D01*
G75*
G02*
X111018000Y-140223000I0J-875000D01*
G01*
X111018000Y-141973000D01*
G75*
G02*
X110143000Y-142848000I-875000J0D01*
G01*
X108393000Y-142848000D01*
G75*
G02*
X107518000Y-141973000I0J875000D01*
G01*
G37*
G04 #@! TD.AperFunction*
G04 #@! TA.AperFunction,ComponentPad*
G36*
G01*
X104768000Y-137398000D02*
X104768000Y-135398000D01*
G75*
G02*
X105518000Y-134648000I750000J0D01*
G01*
X107018000Y-134648000D01*
G75*
G02*
X107768000Y-135398000I0J-750000D01*
G01*
X107768000Y-137398000D01*
G75*
G02*
X107018000Y-138148000I-750000J0D01*
G01*
X105518000Y-138148000D01*
G75*
G02*
X104768000Y-137398000I0J750000D01*
G01*
G37*
G04 #@! TD.AperFunction*
D20*
X112268000Y-136398000D03*
D21*
X116324521Y-107703483D03*
X120602447Y-110728053D03*
X115867033Y-121666000D03*
X119380000Y-115189000D03*
X121719312Y-108784345D03*
X122645010Y-101854000D03*
X122589724Y-107540224D03*
X123571000Y-109855000D03*
X116586000Y-109220000D03*
X119711115Y-113809864D03*
X115637022Y-108429684D03*
X120990088Y-112141000D03*
X114390010Y-81280000D03*
D22*
X128690001Y-87209999D02*
X129540000Y-86360000D01*
X124015500Y-91884500D02*
X128690001Y-87209999D01*
X121920000Y-99060000D02*
X124015500Y-96964500D01*
X124015500Y-96964500D02*
X124015500Y-91884500D01*
X120453989Y-113316013D02*
X120453989Y-116682988D01*
X121158000Y-117386999D02*
X121158000Y-121598400D01*
X121158000Y-121598400D02*
X121163432Y-121603832D01*
X119815045Y-112677069D02*
X120453989Y-113316013D01*
X121920000Y-99060000D02*
X119815045Y-101164955D01*
X119815045Y-101164955D02*
X119815045Y-112677069D01*
X121528001Y-128640001D02*
X122428000Y-129540000D01*
X121163432Y-121603832D02*
X121163432Y-128275432D01*
X121163432Y-128275432D02*
X121528001Y-128640001D01*
X120453989Y-116682988D02*
X121158000Y-117386999D01*
X113411000Y-75311000D02*
X111760000Y-73660000D01*
X113411000Y-105068231D02*
X113411000Y-75311000D01*
X116046252Y-107703483D02*
X113411000Y-105068231D01*
X116324521Y-107703483D02*
X116046252Y-107703483D01*
X120904000Y-113129613D02*
X120265056Y-112490669D01*
X120265056Y-112490669D02*
X120265056Y-111417217D01*
X126746000Y-127000000D02*
X121613443Y-121867441D01*
X128016000Y-127000000D02*
X126746000Y-127000000D01*
X120904000Y-116496588D02*
X120904000Y-113129613D01*
X121613443Y-117206031D02*
X120904000Y-116496588D01*
X121613443Y-121867441D02*
X121613443Y-117206031D01*
X120265056Y-111065444D02*
X120602447Y-110728053D01*
X120265056Y-111417217D02*
X120265056Y-111065444D01*
X121920000Y-91440000D02*
X129540000Y-83820000D01*
X121920000Y-93980000D02*
X121920000Y-91440000D01*
X119365034Y-113082941D02*
X115142033Y-117305942D01*
X115142033Y-117305942D02*
X115142033Y-127842033D01*
X115142033Y-127842033D02*
X116840000Y-129540000D01*
X121920000Y-93980000D02*
X119365034Y-96534966D01*
X119365034Y-96534966D02*
X119365034Y-113082941D01*
X121920000Y-88900000D02*
X129540000Y-81280000D01*
X112524792Y-129540000D02*
X111252000Y-129540000D01*
X121920000Y-88900000D02*
X118915023Y-91904977D01*
X118915023Y-91904977D02*
X118915023Y-112896541D01*
X118915023Y-112896541D02*
X114692022Y-117119542D01*
X114692022Y-117119542D02*
X114692022Y-127372770D01*
X114692022Y-127372770D02*
X112524792Y-129540000D01*
X124460000Y-83820000D02*
X129540000Y-78740000D01*
X121920000Y-83820000D02*
X124460000Y-83820000D01*
X112322003Y-128314999D02*
X106889001Y-128314999D01*
X114242011Y-116933142D02*
X114242011Y-126394991D01*
X121920000Y-83820000D02*
X118465012Y-87274988D01*
X118465012Y-87274988D02*
X118465012Y-112710141D01*
X118465012Y-112710141D02*
X114242011Y-116933142D01*
X114242011Y-126394991D02*
X112322003Y-128314999D01*
X106889001Y-128314999D02*
X105664000Y-129540000D01*
X112268000Y-143256000D02*
X112268000Y-136398000D01*
X110998000Y-145288000D02*
X112268000Y-144018000D01*
X112268000Y-144018000D02*
X112268000Y-143256000D01*
X118712999Y-115856001D02*
X119380000Y-115189000D01*
X118712999Y-121760999D02*
X118712999Y-115856001D01*
X119888000Y-122936000D02*
X118712999Y-121760999D01*
X121719312Y-105164073D02*
X121719312Y-108784345D01*
X125857000Y-101026385D02*
X121719312Y-105164073D01*
X129540000Y-93980000D02*
X125857000Y-97663000D01*
X125857000Y-97663000D02*
X125857000Y-101026385D01*
X116840000Y-111760000D02*
X108007989Y-102927989D01*
X108007989Y-80067989D02*
X104140000Y-76200000D01*
X108007989Y-102927989D02*
X108007989Y-80067989D01*
X107557978Y-82157978D02*
X104140000Y-78740000D01*
X114300000Y-111760000D02*
X107557978Y-105017978D01*
X107557978Y-105017978D02*
X107557978Y-82157978D01*
X107107967Y-84247967D02*
X104140000Y-81280000D01*
X107107967Y-107107967D02*
X107107967Y-84247967D01*
X111760000Y-111760000D02*
X107107967Y-107107967D01*
X106657956Y-109197956D02*
X106657956Y-86337956D01*
X109220000Y-111760000D02*
X106657956Y-109197956D01*
X106657956Y-86337956D02*
X104140000Y-83820000D01*
X129540000Y-88900000D02*
X124465511Y-93974489D01*
X124465511Y-100033499D02*
X122645010Y-101854000D01*
X124465511Y-93974489D02*
X124465511Y-100033499D01*
X120015000Y-133296000D02*
X120015000Y-145796000D01*
X122589724Y-107540224D02*
X123571000Y-108521500D01*
X123571000Y-108521500D02*
X123571000Y-109855000D01*
X115385315Y-109220000D02*
X116586000Y-109220000D01*
X108458000Y-67776000D02*
X108458000Y-102292685D01*
X108458000Y-102292685D02*
X115385315Y-109220000D01*
X104140000Y-63500000D02*
X104182000Y-63500000D01*
X104182000Y-63500000D02*
X108458000Y-67776000D01*
X119905862Y-113809864D02*
X119711115Y-113809864D01*
X117348000Y-116172979D02*
X119711115Y-113809864D01*
X119998715Y-113902717D02*
X119905862Y-113809864D01*
X117348000Y-117856000D02*
X117348000Y-116172979D01*
X127000000Y-101600000D02*
X129540000Y-99060000D01*
X127000000Y-104140000D02*
X127000000Y-101600000D01*
X104140000Y-111760000D02*
X104140000Y-104140000D01*
X104140000Y-104140000D02*
X104140000Y-99060000D01*
X107061000Y-114681000D02*
X104140000Y-111760000D01*
X108799000Y-114681000D02*
X107061000Y-114681000D01*
X111974000Y-117856000D02*
X108799000Y-114681000D01*
X110490000Y-119340000D02*
X111974000Y-117856000D01*
X110490000Y-123317000D02*
X110490000Y-119340000D01*
X125984000Y-121920000D02*
X127000000Y-122936000D01*
X125984000Y-111760000D02*
X125984000Y-121920000D01*
X111760000Y-104552662D02*
X111760000Y-99060000D01*
X115637022Y-108429684D02*
X111760000Y-104552662D01*
X111760000Y-99060000D02*
X111760000Y-83820000D01*
X124460000Y-120396000D02*
X124460000Y-115610912D01*
X124460000Y-115610912D02*
X120990088Y-112141000D01*
X103926000Y-117348000D02*
X103886000Y-117388000D01*
X105410000Y-118832000D02*
X103926000Y-117348000D01*
X105410000Y-123317000D02*
X105410000Y-118832000D01*
X105410000Y-123414250D02*
X105410000Y-123317000D01*
X105156000Y-123571000D02*
X105410000Y-123317000D01*
X102870000Y-140208000D02*
X102870000Y-125857000D01*
X107950000Y-145288000D02*
X102870000Y-140208000D01*
X102870000Y-125857000D02*
X105410000Y-123317000D01*
X108458000Y-145288000D02*
X107950000Y-145288000D01*
X118015001Y-84904991D02*
X118015001Y-112523741D01*
X114390010Y-81280000D02*
X118015001Y-84904991D01*
X118015001Y-112523741D02*
X113792000Y-116746742D01*
X113792000Y-124460000D02*
X111252000Y-127000000D01*
X113792000Y-116746742D02*
X113792000Y-124460000D01*
M02*
