G04 #@! TF.GenerationSoftware,KiCad,Pcbnew,(5.1.5-0)*
G04 #@! TF.CreationDate,2021-12-12T09:58:07-07:00*
G04 #@! TF.ProjectId,starman,73746172-6d61-46e2-9e6b-696361645f70,rev?*
G04 #@! TF.SameCoordinates,Original*
G04 #@! TF.FileFunction,Legend,Bot*
G04 #@! TF.FilePolarity,Positive*
%FSLAX46Y46*%
G04 Gerber Fmt 4.6, Leading zero omitted, Abs format (unit mm)*
G04 Created by KiCad (PCBNEW (5.1.5-0)) date 2021-12-12 09:58:07*
%MOMM*%
%LPD*%
G04 APERTURE LIST*
%ADD10C,0.150000*%
%ADD11C,0.120000*%
G04 APERTURE END LIST*
D10*
X144057619Y-106823333D02*
X144057619Y-106632857D01*
X144010000Y-106537619D01*
X143962380Y-106490000D01*
X143819523Y-106394761D01*
X143629047Y-106347142D01*
X143248095Y-106347142D01*
X143152857Y-106394761D01*
X143105238Y-106442380D01*
X143057619Y-106537619D01*
X143057619Y-106728095D01*
X143105238Y-106823333D01*
X143152857Y-106870952D01*
X143248095Y-106918571D01*
X143486190Y-106918571D01*
X143581428Y-106870952D01*
X143629047Y-106823333D01*
X143676666Y-106728095D01*
X143676666Y-106537619D01*
X143629047Y-106442380D01*
X143581428Y-106394761D01*
X143486190Y-106347142D01*
X143629047Y-107490000D02*
X143676666Y-107394761D01*
X143724285Y-107347142D01*
X143819523Y-107299523D01*
X143867142Y-107299523D01*
X143962380Y-107347142D01*
X144010000Y-107394761D01*
X144057619Y-107490000D01*
X144057619Y-107680476D01*
X144010000Y-107775714D01*
X143962380Y-107823333D01*
X143867142Y-107870952D01*
X143819523Y-107870952D01*
X143724285Y-107823333D01*
X143676666Y-107775714D01*
X143629047Y-107680476D01*
X143629047Y-107490000D01*
X143581428Y-107394761D01*
X143533809Y-107347142D01*
X143438571Y-107299523D01*
X143248095Y-107299523D01*
X143152857Y-107347142D01*
X143105238Y-107394761D01*
X143057619Y-107490000D01*
X143057619Y-107680476D01*
X143105238Y-107775714D01*
X143152857Y-107823333D01*
X143248095Y-107870952D01*
X143438571Y-107870952D01*
X143533809Y-107823333D01*
X143581428Y-107775714D01*
X143629047Y-107680476D01*
X143152857Y-108299523D02*
X143105238Y-108347142D01*
X143057619Y-108299523D01*
X143105238Y-108251904D01*
X143152857Y-108299523D01*
X143057619Y-108299523D01*
X144057619Y-109251904D02*
X144057619Y-108775714D01*
X143581428Y-108728095D01*
X143629047Y-108775714D01*
X143676666Y-108870952D01*
X143676666Y-109109047D01*
X143629047Y-109204285D01*
X143581428Y-109251904D01*
X143486190Y-109299523D01*
X143248095Y-109299523D01*
X143152857Y-109251904D01*
X143105238Y-109204285D01*
X143057619Y-109109047D01*
X143057619Y-108870952D01*
X143105238Y-108775714D01*
X143152857Y-108728095D01*
X143629047Y-109870952D02*
X143676666Y-109775714D01*
X143724285Y-109728095D01*
X143819523Y-109680476D01*
X143867142Y-109680476D01*
X143962380Y-109728095D01*
X144010000Y-109775714D01*
X144057619Y-109870952D01*
X144057619Y-110061428D01*
X144010000Y-110156666D01*
X143962380Y-110204285D01*
X143867142Y-110251904D01*
X143819523Y-110251904D01*
X143724285Y-110204285D01*
X143676666Y-110156666D01*
X143629047Y-110061428D01*
X143629047Y-109870952D01*
X143581428Y-109775714D01*
X143533809Y-109728095D01*
X143438571Y-109680476D01*
X143248095Y-109680476D01*
X143152857Y-109728095D01*
X143105238Y-109775714D01*
X143057619Y-109870952D01*
X143057619Y-110061428D01*
X143105238Y-110156666D01*
X143152857Y-110204285D01*
X143248095Y-110251904D01*
X143438571Y-110251904D01*
X143533809Y-110204285D01*
X143581428Y-110156666D01*
X143629047Y-110061428D01*
X144057619Y-110870952D02*
X144057619Y-110966190D01*
X144010000Y-111061428D01*
X143962380Y-111109047D01*
X143867142Y-111156666D01*
X143676666Y-111204285D01*
X143438571Y-111204285D01*
X143248095Y-111156666D01*
X143152857Y-111109047D01*
X143105238Y-111061428D01*
X143057619Y-110966190D01*
X143057619Y-110870952D01*
X143105238Y-110775714D01*
X143152857Y-110728095D01*
X143248095Y-110680476D01*
X143438571Y-110632857D01*
X143676666Y-110632857D01*
X143867142Y-110680476D01*
X143962380Y-110728095D01*
X144010000Y-110775714D01*
X144057619Y-110870952D01*
X143057619Y-112394761D02*
X143724285Y-112394761D01*
X143629047Y-112394761D02*
X143676666Y-112442380D01*
X143724285Y-112537619D01*
X143724285Y-112680476D01*
X143676666Y-112775714D01*
X143581428Y-112823333D01*
X143057619Y-112823333D01*
X143581428Y-112823333D02*
X143676666Y-112870952D01*
X143724285Y-112966190D01*
X143724285Y-113109047D01*
X143676666Y-113204285D01*
X143581428Y-113251904D01*
X143057619Y-113251904D01*
X143057619Y-113728095D02*
X143724285Y-113728095D01*
X143629047Y-113728095D02*
X143676666Y-113775714D01*
X143724285Y-113870952D01*
X143724285Y-114013809D01*
X143676666Y-114109047D01*
X143581428Y-114156666D01*
X143057619Y-114156666D01*
X143581428Y-114156666D02*
X143676666Y-114204285D01*
X143724285Y-114299523D01*
X143724285Y-114442380D01*
X143676666Y-114537619D01*
X143581428Y-114585238D01*
X143057619Y-114585238D01*
D11*
X142240000Y-76200000D02*
X142240000Y-144780000D01*
X137160000Y-76200000D02*
X142826421Y-76200000D01*
X137160000Y-144780000D02*
X142826421Y-144780000D01*
X142240000Y-144780000D02*
X141653579Y-143653496D01*
X142240000Y-144780000D02*
X142826421Y-143653496D01*
X142240000Y-76200000D02*
X141653579Y-77326504D01*
X142240000Y-76200000D02*
X142826421Y-77326504D01*
D10*
X115189523Y-69302380D02*
X115808571Y-69302380D01*
X115475238Y-69683333D01*
X115618095Y-69683333D01*
X115713333Y-69730952D01*
X115760952Y-69778571D01*
X115808571Y-69873809D01*
X115808571Y-70111904D01*
X115760952Y-70207142D01*
X115713333Y-70254761D01*
X115618095Y-70302380D01*
X115332380Y-70302380D01*
X115237142Y-70254761D01*
X115189523Y-70207142D01*
X116713333Y-69302380D02*
X116237142Y-69302380D01*
X116189523Y-69778571D01*
X116237142Y-69730952D01*
X116332380Y-69683333D01*
X116570476Y-69683333D01*
X116665714Y-69730952D01*
X116713333Y-69778571D01*
X116760952Y-69873809D01*
X116760952Y-70111904D01*
X116713333Y-70207142D01*
X116665714Y-70254761D01*
X116570476Y-70302380D01*
X116332380Y-70302380D01*
X116237142Y-70254761D01*
X116189523Y-70207142D01*
X117189523Y-70207142D02*
X117237142Y-70254761D01*
X117189523Y-70302380D01*
X117141904Y-70254761D01*
X117189523Y-70207142D01*
X117189523Y-70302380D01*
X118141904Y-69302380D02*
X117665714Y-69302380D01*
X117618095Y-69778571D01*
X117665714Y-69730952D01*
X117760952Y-69683333D01*
X117999047Y-69683333D01*
X118094285Y-69730952D01*
X118141904Y-69778571D01*
X118189523Y-69873809D01*
X118189523Y-70111904D01*
X118141904Y-70207142D01*
X118094285Y-70254761D01*
X117999047Y-70302380D01*
X117760952Y-70302380D01*
X117665714Y-70254761D01*
X117618095Y-70207142D01*
X119046666Y-69302380D02*
X118856190Y-69302380D01*
X118760952Y-69350000D01*
X118713333Y-69397619D01*
X118618095Y-69540476D01*
X118570476Y-69730952D01*
X118570476Y-70111904D01*
X118618095Y-70207142D01*
X118665714Y-70254761D01*
X118760952Y-70302380D01*
X118951428Y-70302380D01*
X119046666Y-70254761D01*
X119094285Y-70207142D01*
X119141904Y-70111904D01*
X119141904Y-69873809D01*
X119094285Y-69778571D01*
X119046666Y-69730952D01*
X118951428Y-69683333D01*
X118760952Y-69683333D01*
X118665714Y-69730952D01*
X118618095Y-69778571D01*
X118570476Y-69873809D01*
X119760952Y-69302380D02*
X119856190Y-69302380D01*
X119951428Y-69350000D01*
X119999047Y-69397619D01*
X120046666Y-69492857D01*
X120094285Y-69683333D01*
X120094285Y-69921428D01*
X120046666Y-70111904D01*
X119999047Y-70207142D01*
X119951428Y-70254761D01*
X119856190Y-70302380D01*
X119760952Y-70302380D01*
X119665714Y-70254761D01*
X119618095Y-70207142D01*
X119570476Y-70111904D01*
X119522857Y-69921428D01*
X119522857Y-69683333D01*
X119570476Y-69492857D01*
X119618095Y-69397619D01*
X119665714Y-69350000D01*
X119760952Y-69302380D01*
X121284761Y-70302380D02*
X121284761Y-69635714D01*
X121284761Y-69730952D02*
X121332380Y-69683333D01*
X121427619Y-69635714D01*
X121570476Y-69635714D01*
X121665714Y-69683333D01*
X121713333Y-69778571D01*
X121713333Y-70302380D01*
X121713333Y-69778571D02*
X121760952Y-69683333D01*
X121856190Y-69635714D01*
X121999047Y-69635714D01*
X122094285Y-69683333D01*
X122141904Y-69778571D01*
X122141904Y-70302380D01*
X122618095Y-70302380D02*
X122618095Y-69635714D01*
X122618095Y-69730952D02*
X122665714Y-69683333D01*
X122760952Y-69635714D01*
X122903809Y-69635714D01*
X122999047Y-69683333D01*
X123046666Y-69778571D01*
X123046666Y-70302380D01*
X123046666Y-69778571D02*
X123094285Y-69683333D01*
X123189523Y-69635714D01*
X123332380Y-69635714D01*
X123427619Y-69683333D01*
X123475238Y-69778571D01*
X123475238Y-70302380D01*
D11*
X101600000Y-71120000D02*
X137160000Y-71120000D01*
X101600000Y-76200000D02*
X101600000Y-70533579D01*
X137160000Y-76200000D02*
X137160000Y-70533579D01*
X137160000Y-71120000D02*
X136033496Y-71706421D01*
X137160000Y-71120000D02*
X136033496Y-70533579D01*
X101600000Y-71120000D02*
X102726504Y-71706421D01*
X101600000Y-71120000D02*
X102726504Y-70533579D01*
M02*
